<svg width="235" height="161" viewBox="0 0 235 161" fill="none" xmlns="http://www.w3.org/2000/svg">
<path d="M22.7593 99.3898L22.971 99.2022L22.9698 99.2021L22.9209 99.1968L22.6907 99.172L22.6904 99.1749C22.6898 99.1827 22.6891 99.1903 22.6892 99.1983C22.6883 99.2682 22.7131 99.3363 22.7593 99.3898ZM22.7593 99.3898C22.8117 99.449 22.8868 99.4842 22.9652 99.4859L27.0238 99.5695M22.7593 99.3898L22.971 99.2072M22.971 99.2072V99.2072Z" stroke="#566A47" stroke-width="4"/>
<g clip-path="url(#clip0_264_6)">
<path d="M183.128 114.042L206.461 80.4998L183.128 46.9582" stroke="#566A47" stroke-width="4" stroke-linecap="round" stroke-linejoin="round"/>
<path d="M150.461 114.042L173.795 80.4998L150.461 46.9582" stroke="#566A47" stroke-width="4" stroke-linecap="round" stroke-linejoin="round"/>
</g>
<defs>
<clipPath id="clip0_264_6">
<rect width="161" height="112" fill="white" transform="matrix(0 -1 1 0 122.461 161)"/>
</clipPath>
</defs>
</svg>
