<svg width="734" height="484" viewBox="0 0 734 484" fill="none" xmlns="http://www.w3.org/2000/svg">
<path fill-rule="evenodd" clip-rule="evenodd" d="M16.7016 126.133V2.23493C16.7016 0.977988 18.1077 0 19.7145 0H244.618V4.32985H22.9266V126.133L22.9268 141.945H39.4566V282.651H22.9265V479.669H24.1316L22.7256 483.999H19.7128C18.9093 483.999 18.1059 483.72 17.5034 483.44C16.9008 483.021 16.7 482.462 16.7 481.903V282.651H0V141.945H16.7019L16.7016 126.133ZM22.7256 483.999L24.1316 479.669L710.087 479.669V423.359H694.553V376.772H710.087V310.83H694.553V264.234H710.087V198.303H694.553V151.708H710.087V91.7715C668.926 62.7209 627.767 33.5315 586.606 4.34083L586.598 4.33518L586.592 4.33072L586.59 4.32985H502.454V4.33095H244.618L244.618 0H502.452H502.454H587.795C588.8 0 589.603 0.278928 590.206 0.697908C611.003 15.4428 631.801 30.1533 652.598 44.8637L652.603 44.8674C673.572 59.6987 694.54 74.53 715.508 89.3966C716.111 89.8156 716.513 90.3746 716.513 90.9336V151.708H734V198.303H716.513V264.234H734V310.83H716.513V376.772H734V423.359H716.513V481.765V481.905C716.513 483.022 715.107 484 713.3 484H22.7259L22.7256 483.999Z" fill="#566A47"/>
</svg>
