<svg width="60" height="60" viewBox="0 0 60 60" fill="none" xmlns="http://www.w3.org/2000/svg">
<path d="M29 20C26.6131 20 24.3239 20.9482 22.636 22.636C20.9482 24.3239 20 26.6131 20 29C20 31.3869 20.9482 33.6761 22.636 35.364C24.3239 37.0518 26.6131 38 29 38C31.3869 38 33.6761 37.0518 35.364 35.364C37.0518 33.6761 38 31.3869 38 29C38 26.6131 37.0518 24.3239 35.364 22.636C33.6761 20.9482 31.3869 20 29 20ZM21.11 29.68H23.62C23.66 30.59 23.787 31.494 24 32.38H21.84C21.4372 31.5309 21.19 30.6164 21.11 29.68ZM29.68 24.28V21.19C30.6437 21.5562 31.4356 22.2696 31.9 23.19C32.105 23.537 32.286 23.898 32.44 24.27L29.68 24.28ZM32.9 25.63C33.132 26.513 33.27 27.418 33.31 28.33H29.68V25.63H32.9ZM28.32 21.19V24.28H25.56C25.7143 23.9077 25.8947 23.5468 26.1 23.2C26.5625 22.2759 27.3546 21.5587 28.32 21.19ZM28.32 25.63V28.33H24.7C24.74 27.418 24.878 26.513 25.11 25.63H28.32ZM23.62 28.32H21.11C21.19 27.3836 21.4372 26.4691 21.84 25.62H24C23.7866 26.5056 23.6593 27.4099 23.62 28.32ZM24.7 29.68H28.32V32.38H25.11C24.878 31.4971 24.7406 30.592 24.7 29.68ZM28.33 33.68V36.77C27.3663 36.4038 26.5744 35.6904 26.11 34.77C25.9047 34.4232 25.7243 34.0623 25.57 33.69L28.33 33.68ZM29.68 36.77V33.73H32.44C32.2857 34.1023 32.1053 34.4632 31.9 34.81C31.4356 35.7304 30.6437 36.4438 29.68 36.81V36.77ZM29.68 32.33V29.63H33.3C33.2594 30.542 33.122 31.4471 32.89 32.33H29.68ZM34.39 29.63H36.9C36.82 30.5664 36.5728 31.4809 36.17 32.33H34C34.21 31.46 34.337 30.573 34.38 29.68L34.39 29.63ZM34.39 28.28C34.3442 27.3863 34.2136 26.499 34 25.63H36.16C36.563 26.48 36.81 27.394 36.89 28.33L34.39 28.28ZM35.39 24.28H33.6C33.2761 23.3703 32.8067 22.5192 32.21 21.76C33.4544 22.3186 34.5353 23.1861 35.35 24.28H35.39ZM25.79 21.76C25.1933 22.5192 24.7239 23.3703 24.4 24.28H22.65C23.4647 23.1861 24.5456 22.3186 25.79 21.76ZM22.64 33.76H24.4C24.7239 34.6697 25.1933 35.5208 25.79 36.28C24.5422 35.713 23.4609 34.8349 22.65 33.73L22.64 33.76ZM32.2 36.28C32.7967 35.5208 33.2661 34.6697 33.59 33.76H35.35C34.5303 34.8393 33.4498 35.6927 32.21 36.24L32.2 36.28Z" fill="black"/>
<rect width="60" height="60" fill="#006699"/>
<path d="M23.0981 42.158V25.9503H17.7157V42.158H23.0987H23.0981ZM20.408 23.7377C22.2846 23.7377 23.4529 22.4932 23.4529 20.9378C23.4178 19.347 22.2846 18.1372 20.4437 18.1372C18.6016 18.1372 17.3984 19.347 17.3984 20.9377C17.3984 22.493 18.5663 23.7376 20.3728 23.7376H20.4076L20.408 23.7377ZM26.0774 42.158H31.4593V33.1078C31.4593 32.6241 31.4945 32.139 31.6367 31.7935C32.0256 30.8253 32.9112 29.823 34.3984 29.823C36.3455 29.823 37.1249 31.3092 37.1249 33.4882V42.158H42.5067V32.865C42.5067 27.8868 39.8518 25.5703 36.3107 25.5703C33.4074 25.5703 32.1324 27.1944 31.4239 28.3006H31.4598V25.9508H26.0776C26.1479 27.4713 26.0772 42.1585 26.0772 42.1585L26.0774 42.158Z" fill="white"/>
</svg>
