<svg width="60" height="60" viewBox="0 0 60 60" fill="none" xmlns="http://www.w3.org/2000/svg">
<rect width="60" height="60" fill="#34AADF"/>
<path d="M16.6921 28.9376C16.6921 28.9376 28.8989 23.7963 33.1325 21.9859C34.7554 21.2618 40.259 18.9445 40.259 18.9445C40.259 18.9445 42.7992 17.9308 42.5875 20.3928C42.5169 21.4067 41.9524 24.9549 41.388 28.7928C40.5412 34.2238 39.6239 40.1617 39.6239 40.1617C39.6239 40.1617 39.4828 41.8272 38.2833 42.1169C37.0838 42.4065 35.1081 41.1032 34.7554 40.8134C34.4731 40.5962 29.4634 37.3376 27.6288 35.7445C27.1349 35.31 26.5705 34.4411 27.6993 33.4273C30.2395 31.0376 33.2736 28.0687 35.1081 26.186C35.9549 25.3169 36.8015 23.2894 33.2736 25.7514C28.2639 29.2997 23.3247 32.6307 23.3247 32.6307C23.3247 32.6307 22.1957 33.3548 20.079 32.7031C17.9621 32.0515 15.4925 31.1824 15.4925 31.1824C15.4925 31.1824 13.7992 30.0963 16.6921 28.9376Z" fill="white"/>
</svg>
