<svg width="273" height="94" viewBox="0 0 273 94" fill="none" xmlns="http://www.w3.org/2000/svg">
<path d="M233.1 55.4208C234.187 55.4208 235.082 55.3497 236.834 55.3059V54.5123H240.072V55.2819C244.238 55.3877 246.315 57.7369 244.379 57.7369C243.531 57.7369 242.616 57.7369 241.668 57.7369V58.5933H240.988V60.3515H235.917V58.5933H235.096V57.7369C235.013 57.7369 234.929 57.7369 234.845 57.7369C231.881 57.7369 232.606 55.4208 233.099 55.4208H233.1ZM268.114 67.5248H265.809V66.3114H268.114V67.5248ZM262.429 67.5248H250.263C249.56 67.5248 248.871 67.4917 248.197 67.438V66.3114H251.144C251.471 66.8131 251.89 67.2355 252.367 67.5157H256.497C256.872 67.2355 257.138 66.8131 257.283 66.3114H262.428L262.429 67.5248ZM196.079 61.0194H194.67V58.0428H196.079V61.0194ZM193.684 61.0194H192.275V58.0428H193.684V61.0194ZM191.289 61.0194H189.881V58.0428H191.289V61.0194ZM188.894 61.0194H187.486V58.0428H188.894V61.0194ZM186.5 61.0194H185.091V58.0428H186.5V61.0194ZM184.246 47.6217H171.99V46.7935H184.246V47.6217ZM184.105 61.0194H182.697V58.0428H184.105V61.0194ZM179.879 56.8839V51.7564H180.583V56.8839H179.879ZM181.71 61.0194H180.301V58.0428H181.71V61.0194ZM179.316 61.0194H177.906V58.0428H179.316V61.0194ZM176.075 52.2524V48.9435H178.612V52.2524H176.075ZM176.922 61.0194H175.512V58.0428H176.922V61.0194ZM174.225 54.8446H172.554C172.361 54.8446 172.206 54.4743 172.206 54.0172C172.206 53.5601 172.361 53.1898 172.554 53.1898H174.225C174.418 53.1898 174.572 53.5601 174.572 54.0172C174.572 54.4743 174.417 54.8446 174.225 54.8446ZM174.225 56.7194H172.554C172.361 56.7194 172.206 56.3482 172.206 55.8928C172.206 55.4357 172.361 55.0645 172.554 55.0645H174.225C174.418 55.0645 174.572 55.4357 174.572 55.8928C174.572 56.3482 174.417 56.7194 174.225 56.7194ZM174.526 61.0202H173.118V58.0436H174.526V61.0202ZM172.131 61.0202H170.723V58.0436H172.131V61.0202ZM169.698 55.8928C169.698 55.4357 169.854 55.0645 170.047 55.0645H171.718C171.911 55.0645 172.066 55.4357 172.066 55.8928C172.066 56.3482 171.91 56.7194 171.718 56.7194H170.047C169.854 56.7194 169.698 56.3482 169.698 55.8928ZM169.737 61.0202H168.328V58.0436H169.737V61.0202ZM167.191 55.8928C167.191 55.4357 167.347 55.0645 167.539 55.0645H169.211C169.403 55.0645 169.558 55.4357 169.558 55.8928C169.558 56.3482 169.403 56.7194 169.211 56.7194H167.539C167.347 56.7194 167.191 56.3482 167.191 55.8928ZM167.342 61.0202H165.934V58.0436H167.342V61.0202ZM164.684 55.8928C164.684 55.4357 164.84 55.0645 165.032 55.0645H166.704C166.895 55.0645 167.052 55.4357 167.052 55.8928C167.052 56.3482 166.895 56.7194 166.704 56.7194H165.032C164.839 56.7194 164.684 56.3482 164.684 55.8928ZM164.948 61.0202H163.54V58.0436H164.948V61.0202ZM162.178 55.8928C162.178 55.4357 162.333 55.0645 162.525 55.0645H164.196C164.389 55.0645 164.546 55.4357 164.546 55.8928C164.546 56.3482 164.389 56.7194 164.196 56.7194H162.525C162.332 56.7194 162.178 56.3482 162.178 55.8928ZM162.525 53.1906H164.196C164.389 53.1906 164.546 53.5609 164.546 54.018C164.546 54.4752 164.389 54.8455 164.196 54.8455H162.525C162.332 54.8455 162.178 54.4752 162.178 54.018C162.178 53.5609 162.333 53.1906 162.525 53.1906ZM162.361 42.2918H163.726V45.6073H162.361V42.2918ZM165.032 53.1906H166.704C166.895 53.1906 167.052 53.5609 167.052 54.018C167.052 54.4752 166.895 54.8455 166.704 54.8455H165.032C164.839 54.8455 164.684 54.4752 164.684 54.018C164.684 53.5609 164.84 53.1906 165.032 53.1906ZM165.278 42.2918H166.643V45.6073H165.278V42.2918ZM167.539 53.1906H169.211C169.403 53.1906 169.558 53.5609 169.558 54.018C169.558 54.4752 169.403 54.8455 169.211 54.8455H167.539C167.347 54.8455 167.191 54.4752 167.191 54.018C167.191 53.5609 167.347 53.1906 167.539 53.1906ZM167.699 38.0835H168.272V39.4061H167.699V38.0835ZM167.699 35.7277H168.272V36.2476H167.699V35.7277ZM169.56 42.2918V45.6073H168.196V42.2918H169.56ZM170.046 53.1906H171.717C171.91 53.1906 172.065 53.5609 172.065 54.018C172.065 54.4752 171.91 54.8455 171.717 54.8455H170.046C169.853 54.8455 169.697 54.4752 169.697 54.018C169.697 53.5609 169.853 53.1906 170.046 53.1906ZM170.816 35.7285H175.042V36.2484H170.816V35.7285ZM172.476 42.2926V45.6081H171.113V42.2926H172.476ZM175.136 39.4069H170.909V38.0843H175.136V39.4069ZM175.605 35.7285H179.831V36.2484H175.605V35.7285ZM175.793 40.6757V44.6443H174.525V40.6757H175.793ZM177.625 40.6757V44.6443H176.356V40.6757H177.625ZM179.456 40.6757V44.6443H178.188V40.6757H179.456ZM175.7 39.4069V38.0843H179.926V39.4069H175.7ZM158.468 57.3989H146.824C145.982 57.3989 145.281 56.1804 145.12 54.5619H160.171C160.01 56.1813 159.309 57.3989 158.468 57.3989ZM141.454 12.7215H140.368L138.696 10.9807H141.454V12.7215ZM141.454 13.825H141.428L140.686 13.0521H141.455L141.454 13.825ZM141.454 14.8632H139.358V14.0457H141.451L141.454 14.0482V14.8632ZM141.454 15.6865L140.252 17.7704L140.049 17.4836L141.454 15.5535V15.6865ZM141.454 19.4691L140.346 17.9019L141.454 15.98V19.4691ZM138.59 15.4212H141.365L139.958 17.3546L138.59 15.4212ZM136.822 14.8632V14.0457H139.171V14.8632H136.822ZM136.822 13.053H139.171V13.8259H136.822V13.053ZM139.359 13.053H140.498L141.24 13.8259H139.358L139.359 13.053ZM140.613 61.8551H140.163V51.158H140.613V61.8551ZM137.772 61.8551H137.321V51.158H137.772V61.8551ZM134.663 51.4688H129.122V49.0427H134.663V51.4688ZM129.967 43.3787H133.724V46.1107H129.967V43.3787ZM110.847 61.4724H110.486V51.9003H110.847V61.4724ZM108.232 61.4724H107.871V51.9003H108.232V61.4724ZM103.686 38.4224L105.778 39.8508H101.594L103.686 38.4224ZM101.18 38.3381L101.461 36.9039L103.443 38.2579L101.18 39.8028V38.3381ZM101.565 36.3774H106.198L103.686 38.0926L101.519 36.613L101.565 36.3774ZM101.637 36.0087L104.196 34.2621L106.322 36.0459H101.631L101.638 36.0079L101.637 36.0087ZM102.294 32.6676L103.978 34.0794L101.713 35.626L102.294 32.6676ZM102.375 32.2543H106.49V32.3642L104.196 33.9315L102.35 32.384L102.375 32.2543ZM106.49 27.0202V29.7174L102.473 27.0202H106.49ZM106.49 30.4225H103.4C103.569 30.0803 103.674 29.6885 103.674 29.2652C103.674 28.7503 103.525 28.2783 103.283 27.8939L106.49 30.0464V30.4225ZM106.49 35.8574L104.412 34.115L106.49 32.6957V35.8574ZM106.49 39.8516H106.262L103.927 38.2579L106.49 36.508V39.8508L106.49 39.8516ZM95.081 50.4372H90.0105V42.6637H95.081V50.4372ZM141.958 46.805H142.2L145.937 48.5715L141.958 50.3223V46.805ZM141.958 45.6693L145.703 43.8945L149.89 46.2471H142.2L141.958 46.1322V45.6693ZM141.958 41.79L145.165 43.592L141.958 45.1105V41.79ZM141.958 35.9608L145.394 38.2323L141.958 40.5468V35.9608ZM141.958 30.6234L145.072 32.5609L141.958 34.7655V30.6234ZM141.958 25.3579L144.982 27.3781L141.958 29.433V25.3579ZM141.958 20.6801L144.748 22.4928L141.958 24.4502V20.6801ZM141.958 19.7857L144.737 17.8217L147.55 19.8105H141.958V19.7857ZM141.958 15.8585L144.342 17.5439L141.958 19.2277V15.8585ZM147.343 15.4237L144.737 17.2654L142.13 15.4237H147.343ZM142.833 13.0555H143.128L142.966 13.8283H142.833V13.0555ZM142.833 10.984H143.558L143.197 12.7248H142.834L142.833 10.984ZM145.744 14.0482V14.8657H142.938L143.109 14.0482H145.744ZM145.744 13.0546V13.8275H143.154L143.316 13.0546H145.744ZM145.932 14.0482H149.125V14.8657H145.932V14.0482ZM145.932 13.0546H149.125V13.8275H145.932V13.0546ZM145.132 17.5439L147.588 15.8081L147.89 19.4931L145.132 17.5439ZM148.28 24.2304L145.574 22.473L147.997 20.7735L148.28 24.2304ZM148.696 29.3041L145.81 27.3756L148.394 25.6199L148.696 29.3041ZM149.124 34.5266L145.911 32.5262L148.793 30.4861L149.124 34.5266ZM155.484 25.2372L153.905 29.6488H149.228L148.866 25.2372H155.484ZM152.237 22.4507V21.987H152.694V22.4507H152.237ZM152.166 18.0994H151.215V17.5539H152.166V18.0994ZM152.166 19.093H151.215V18.3491H152.166V19.093ZM152.166 20.4164H151.215V19.341H152.166V20.4164ZM152.166 20.7057H152.131V21.367H152.166V21.739H151.215V20.6644H152.166V20.7057ZM152.166 22.4507H151.215V21.987H152.166V22.4507ZM151.145 18.0994H150.193V17.7208C150.424 17.6175 150.672 17.5539 150.934 17.5539H151.145V18.0994ZM151.145 19.093H150.193V18.3491H151.145V19.093ZM151.145 20.4164H150.193V19.341H151.145V20.4164ZM151.145 21.739H150.193V20.6644H151.145V21.739ZM151.145 22.4507H150.934C150.672 22.4507 150.424 22.3879 150.193 22.2845V21.987H151.145V22.4507ZM152.237 21.367H152.694V21.739H152.237V21.367ZM152.237 19.341H153.187V20.4164H152.237V19.341ZM152.237 18.3491H153.187V19.093H152.237V18.3491ZM152.237 17.5547H153.187V18.1002H152.237V17.5547ZM153.257 21.9878H153.468V22.4515H153.257V21.9878ZM153.257 19.3418H153.468V20.4172H153.257V19.3418ZM153.257 18.3499H154.209V19.0938H154.033V18.7219H153.468V19.0938H153.257V18.3499ZM153.257 17.5555H154.209V18.1011H153.257V17.5555ZM154.033 20.4181V19.3426H154.209V20.4181H154.033ZM154.385 22.6499V23.5608H153.046V22.6499H154.385ZM154.279 19.3426H155.23V20.4181H154.279V19.3426ZM154.279 18.3507H155.23V19.0947H154.279V18.3507ZM154.279 17.5563H155.23V18.1019H154.279V17.5563ZM155.3 21.9894H156.251V22.4532H155.3V21.9894ZM155.3 21.3695H155.37V20.7082H155.3V20.6669H156.251V21.7414H155.3V21.3695ZM155.3 19.3435H156.251V20.4189H155.3V19.3435ZM155.3 18.3515H156.251V19.0955H155.3V18.3515ZM155.3 17.5572H156.251V18.1027H155.3V17.5572ZM156.321 21.9903H157.272V22.3771C157.113 22.4234 156.95 22.454 156.779 22.454H156.321V21.9903ZM156.321 20.6677H157.272V21.7423H156.321V20.6677ZM156.321 19.3443H157.272V20.4197H156.321V19.3443ZM156.321 18.3524H157.272V19.0963H156.321V18.3524ZM156.321 17.558H156.779C156.95 17.558 157.113 17.5894 157.272 17.6349V18.1035H156.321V17.558ZM157.342 21.9911H157.99C157.796 22.1539 157.578 22.2746 157.342 22.3523V21.9911ZM157.342 20.6685H158.224V21.7431H157.342V20.6685ZM157.342 19.3451H158.224V20.4205H157.342V19.3451ZM157.342 18.3532H158.224V19.0971H157.342V18.3532ZM157.342 17.6605C157.614 17.7514 157.86 17.9027 158.076 18.1035H157.342V17.6605ZM155.23 21.7431H154.737V21.3711H155.23V21.7431ZM155.23 22.4548H154.737V21.9911H155.23V22.4548ZM151.93 35.1656H149.68L149.273 30.2109H153.705L151.93 35.1656ZM150.099 40.2765L149.725 35.7235H151.73L150.099 40.2765ZM150.17 47.2696L150.404 50.1297L147.158 48.5955L150.17 47.2696ZM149.737 41.9884L150.047 45.7817L146.242 43.6441L149.737 41.9884ZM149.337 41.6197L145.704 43.3399L142.64 41.6197H149.337ZM149.659 41.056L149.66 41.0618H142.027L145.812 38.5133L149.659 41.056ZM149.26 36.1906L149.611 40.4658L146.23 38.2315L149.26 36.1906ZM149.126 35.7235L145.812 37.9554L142.436 35.7235H149.126ZM149.172 35.1185L149.176 35.1656H142.187L145.491 32.8263L149.172 35.1185ZM148.4 30.2109L145.491 32.27L142.181 30.2109H148.4ZM148.375 29.6529H142.464L145.396 27.6608L148.375 29.6529ZM148.136 25.2413L145.396 27.1028L142.61 25.2413H148.136ZM142.334 20.3718H147.778L145.161 22.2085L142.334 20.3718ZM148.111 24.6842H142.426L145.16 22.7665L148.111 24.6842ZM143.38 46.81H149.949L146.547 48.307L143.38 46.81ZM150.122 18.1052H149.636C149.785 17.9655 149.944 17.8415 150.122 17.7531V18.1052ZM150.122 19.0988H149.172V18.7681H149.146C149.221 18.6185 149.306 18.4813 149.405 18.3548H150.122V19.0988ZM150.122 20.4222H149.172V19.3468H150.122V20.4222ZM150.122 21.7448H149.466C149.34 21.5993 149.236 21.429 149.145 21.2488H149.171V20.6702H150.121L150.122 21.7448ZM150.122 22.2639C149.979 22.1928 149.846 22.0985 149.721 21.9927H150.122V22.2639ZM149.101 20.4222H148.89V20.4999C148.862 20.3404 148.847 20.1759 148.847 20.0072C148.847 19.7766 148.883 19.5584 148.935 19.3459H149.101V20.4222ZM158.293 20.6702H158.775C158.684 21.0529 158.518 21.3984 158.293 21.6803V20.6702ZM158.293 19.3468H158.775C158.826 19.5592 158.863 19.7774 158.863 20.0081C158.863 20.1767 158.848 20.3412 158.821 20.5007V20.423H158.293V19.3476L158.293 19.3468ZM158.293 18.3548H158.305C158.475 18.5706 158.615 18.821 158.71 19.0988H158.293V18.3548ZM271.494 67.5355V66.3221H272.988V65.3302H271.494V61.9907H268.113V65.3302H265.808V61.9907H262.428V65.3302H257.375C257.367 65.1814 257.375 65.0409 257.346 64.8863C257.325 64.7664 257.301 64.654 257.279 64.5375H258.493V64.039H261.802V63.7398H258.493V63.143H256.909C256.604 62.361 256.134 61.8468 255.257 61.8468H252.594C251.165 61.8468 250.253 63.2074 250.558 64.8863C250.585 65.04 250.645 65.1814 250.691 65.3302H248.196V60.368H219.109V57.1517H184.744V46.1181H183.423L180.584 35.0606H175.795V30.4291H174.809V35.0606H171.201V30.9251H169.931V25.7976H168.628V30.9251H167.359V33.905H165.191V40.603H164.51V33.905H162V40.603H161.353V39.3606H157.624V46.1181H152.852V51.0538H141.726V50.9885L141.837 50.9389H141.958V50.886L146.548 48.8658L150.451 50.7116L150.469 50.9389H150.934L150.957 50.9505V50.9389H150.972L150.957 50.7447V50.3917L150.926 50.3785L150.151 40.932L155.695 25.4546L155.66 25.2421H158.328V24.6842H155.018V23.5633H154.736V22.6524H156.778C157.346 22.6524 157.859 22.3986 158.255 21.9911H158.328V21.9208C158.76 21.4389 159.032 20.7611 159.032 20.0056C159.032 18.5441 158.023 17.3588 156.778 17.3588H150.932C150.664 17.3588 150.41 17.4233 150.171 17.5241H150.121V17.5423C149.279 17.9242 148.678 18.8797 148.678 20.0047C148.678 20.7603 148.95 21.4373 149.382 21.92V21.9903H149.455C149.651 22.1919 149.873 22.3564 150.121 22.4689V22.4862H150.171C150.41 22.5871 150.664 22.6515 150.932 22.6515H152.693V23.5625H152.411V24.6834H148.818L148.059 15.4278H149.5V12.7289H143.383L143.746 10.9881H144.053V9.09186H142.833V8.53887H141.957V6.66412H142.456V5.34154H141.957V1.81193H143.349V1.24488H141.957V0.756349H142.973V0H140.625V0.756349H141.454V1.24488H140.062V1.81193H141.454V5.34154H141.142V6.66412H141.454V9.09186H136.728V10.9881H138.508L140.18 12.7289H136.446V14.8699H136.259V15.4278H138.422V15.7502L139.757 17.6357L123.184 40.4005V36.5369H122.69V28.4419H119.731V36.5369H118.948V28.4419H117.618V17.6902H117.337V28.4419H115.514V36.5369H114.581V28.4419H113.393V17.6902H113.111V28.4419H111.148V36.5369H109.833L109.298 44.0673H112.109V44.0566H112.379V44.0673H115.266V44.0566H115.537V44.0673H118.423V44.0566H118.694V44.0673H121.58V44.0566H121.851V44.0673H123.184V40.6542L139.849 17.7646L140.074 18.0829L125.08 44.0673H125.25L140.168 18.216L141.425 19.9899V20.1668L141.455 20.1461V40.6014H132.597V36.6584H130.907V40.6014H128.375L128.129 44.0574H128.166V44.0681H129.248V44.5972H128.166V46.0933H127.986L127.984 46.1173H124.067L124.738 44.9567V44.6616L123.897 46.1173H123.184V44.5972H121.851V46.0933H121.58V44.5972H118.694V46.0933H118.423V44.5972H115.537V46.0933H115.266V44.5972H112.379V46.0933H112.109V44.5972H109.261L109.222 45.1394V46.0933H109.154L109.152 46.1173H107.47V44.5972H106.065V46.0933H105.793V44.5972H102.367V44.0681H105.793V44.0574H106.065V44.0681H107.47V39.8574H107.335V32.26H108.602V30.4283H107.335V27.026H108.461V24.4833H107.335V21H106.49V24.4833H101.982V26.9888C101.889 26.9731 101.797 26.954 101.701 26.954C100.612 26.954 99.7284 27.9923 99.7284 29.271C99.7284 29.6951 99.8318 30.0861 100.002 30.4283H99.3053V32.26H101.811L101.141 35.6665H94.2961L86.5788 28.0716L86.3071 28.4519L93.6379 35.6665H87.8276L87.4777 40.6014H84.8605L82.8831 52.7938V62.008H107.87V61.9014H108.231V62.008H110.486V61.9014H110.847V62.008H142.833V62.0196H50.9919L50.6758 61.6038H51.0721C51.9563 61.0831 52.6743 60.1035 52.8806 58.9636C53.1854 57.2848 52.2738 55.925 50.8441 55.925H48.1811C47.3054 55.925 46.8351 56.4392 46.5296 57.2203H44.9458V57.8188H34.1924V58.118H44.9458V58.6164H46.1594C46.1368 58.733 46.1136 58.8446 46.0918 58.9645C46.0784 59.0422 46.0868 59.1116 46.077 59.1876L0 56.7285L13.3143 74.2385H272.255L272.811 69.2442L273 67.5347L271.494 67.5355ZM161.531 39.3556H160.394V37.6743H161.531V39.3556ZM158.577 37.6743H159.713V39.3556H158.577V37.6743ZM105.794 44.069H106.065V44.598H105.794V44.069ZM115.266 44.598V44.069H115.537V44.598H115.266ZM124.945 44.598H124.774L125.008 44.1921V44.4872L124.945 44.598ZM118.424 44.598V44.069H118.695V44.598H118.424ZM112.38 44.598H112.11V44.069H112.38V44.598ZM128.13 44.069H128.167V44.598H128.092L128.13 44.069ZM121.581 44.598V44.069H121.852V44.598H121.581ZM192.628 57.1418H192.417V54.991H219.04V57.1418H218.828V55.2389H216.398V57.1418H216.187V55.2389H213.757V57.1418H213.545V55.2389H211.115V57.1418H210.904V55.2389H210.658V57.0583H210.024V55.2389H208.473V57.1418H208.262V55.2389H205.833V57.1418H205.622V55.2389H204.953V57.0583H204.318V55.2389H203.192V57.1418H202.98V55.2389H200.55V57.1418H200.339V55.2389H197.909V57.1418H197.698V55.2389H195.268V57.1418H195.056V55.2389H192.626V57.1418H192.628ZM252.487 82.3368V84.7067H225.733C235 83.8652 244.488 83.0171 252.487 82.3368ZM17.369 89.0613C14.8932 94.2929 15.8858 93.9969 25.7754 93.9969C33.0429 93.9969 39.6838 88.7711 44.812 88.7711C104.55 88.7711 200.073 88.7711 200.073 88.7711C200.073 88.7711 201.913 87.4601 211.526 86.1582H258.668V84.7067H255.207V82.1087C258.476 81.8359 261.436 81.5978 263.951 81.4085L265.343 89.3522H269.794L271.267 80.9481C271.555 80.939 271.817 80.9332 272.019 80.9332L272.266 75.9976H14.1548C14.1548 75.9976 19.8419 83.8354 17.369 89.0613Z" fill="#1B2024"/>
</svg>
