<!-- <?xml version="1.0" encoding="UTF-8"?>
<!DOCTYPE svg PUBLIC "-//W3C//DTD SVG 1.1//EN" "http://www.w3.org/Graphics/SVG/1.1/DTD/svg11.dtd">
Creator: CorelDRAW 2020 (64-Bit) -->
<svg xmlns="http://www.w3.org/2000/svg" xml:space="preserve" width="90" height="90" version="1.1" style="shape-rendering:geometricPrecision; text-rendering:geometricPrecision; image-rendering:optimizeQuality; fill-rule:evenodd; clip-rule:evenodd"
viewBox="0 0 4330.71 4330.71"
 xmlns:xlink="http://www.w3.org/1999/xlink"
 xmlns:xodm="http://www.corel.com/coreldraw/odm/2003">
 <defs>
  <style type="text/css">
   <![CDATA[
    .fil0 {fill:#1D1D1E;fill-rule:nonzero}
   ]]>
  </style>
 </defs>
 <g id="Layer_x0020_1">
  <metadata id="CorelCorpID_0Corel-Layer"/>
  <path class="fil0" d="M3720.76 2457.24c45.65,-32.99 76.92,-78.54 94.64,-137.57 13.75,-0.12 27.47,-0.78 41.09,-1.92 -2.8,38.72 -6.55,101.15 -7.84,172.82 -3.3,182.5 9.33,424.43 94.11,484.11 18.5,13 39.63,17.72 62.83,14.05 23.28,-3.73 42.36,-15.02 56.65,-33.53 93.04,-120.48 -36.46,-544.28 -75.22,-662.58 42.21,-13.04 78.79,-29.58 105.08,-47.06 26.17,-17.39 40.17,-34.8 40.45,-50.36 0.28,-15.59 -13.09,-33.3 -38.65,-51.29 -25.24,-17.78 -60.51,-34.89 -101.4,-48.79 45.25,-124.19 184.47,-534.3 97.11,-655.03 -13.61,-18.86 -32.27,-30.55 -55.41,-34.79 -23.06,-4.22 -44.35,0 -63.34,12.6 -86.86,57.67 -108.22,299.21 -111.52,481.73 -1.23,68 0.04,127.63 1.39,166.69 -15.47,-1.63 -31.08,-2.63 -46.7,-2.94 -16.96,-52.06 -45.36,-93.8 -86.34,-125.39 -124.94,-96.38 -351.4,-91.45 -614.42,-83.52 -107.8,-214.22 -216.25,-383.87 -246.62,-444.23 -111.26,-25.89 -835.69,75.47 -795.51,125.76l200 367.06c-303.28,25.95 -617.41,55.35 -851.17,79.68 -145.91,15.19 -261.15,27.18 -317.65,31.69 -12.46,1 -26.06,1.76 -40.38,2.37l-196.78 -525.41c-32.13,-85.87 -129.3,-144.44 -241.77,-145.72l-195.67 -2.24c-3.77,-0.04 -7.44,1.2 -10.05,3.41 -2.31,1.95 -3.59,4.52 -3.64,7.17 -0,0.35 0.02,0.69 0.04,1.02l69.21 687.93c-30.02,5.7 -57.58,12.89 -81.98,21.74 -115.88,12.04 -204.92,39.62 -205.76,85.69 -0.57,31.93 38.81,56.93 117.02,74.31 530.78,118.17 1379.44,167.51 1955.13,230.18 318.37,30.71 1160.23,214.01 1453.07,2.38z"/>
 </g>
</svg>
