<svg width="60" height="62" viewBox="0 0 60 62" fill="none" xmlns="http://www.w3.org/2000/svg">
<g id="Fire">
<path id="Vector" d="M29.8113 5.16431L28.3814 14.4517L25.7744 7.31817L23.3944 6.166L22.2488 9.53614L21.2627 12.1199L17.5822 8.96366L18.08 13.6757L16.1497 14.0892L12.8801 13.2354L17.5687 20.4841L11.9404 17.7918L13.4726 21.088L12.7373 22.5464L11.7242 23.8739L5.27393 23.3753L11.9938 27.35L12.848 29.0564L6.96561 30.0188L12.6595 31.945L8.97764 33.7024L8.63673 35.5402L9.16933 37.2629L12.9972 37.8184L5.27777 42.8897L9.21114 43.2848L15.3984 41.5176L8.51323 48.8082L13.8045 46.9298L12.1571 51.4449L13.3278 53.4797L15.0974 54.8386L21.7992 47.0148L20.5906 53.3174L23.0567 51.9526L23.8466 55.8999L25.3904 58.9056L27.8951 55.4569L29.8113 57.5296L31.8124 56.5358L32.7837 50.031L34.8561 52.2059L35.3984 48.4955L39.4154 54.2171L42.5904 55.9581L39.8586 47.5939L42.0931 48.0015L47.5342 51.5287L44.5246 45.722L44.8262 43.8318L46.5784 43.0879L52.7959 44.6045L49.6916 40.8176L55.0781 40.7685L46.7173 36.307L51.4232 35.6154L55.4119 34.1008L54.1956 31.945L47.2628 30.4683L46.5257 29.0989L47.8951 27.2846L47.3078 25.8334L47.6378 23.9943L46.5771 22.721L48.9474 19.2285L45.8271 19.2684L43.2246 19.3869L44.2306 16.0148L45.8573 10.9795L39.3588 17.074L41.1006 10.7354L39.8412 8.69476L35.3116 15.6601L34.2078 14.3012L32.8988 13.1595L31.6078 9.91628L29.8113 5.16431Z" fill="#FDF4A4"/>
<path id="Vector_2" d="M29.8114 5.1644L28.3808 14.4511L25.7738 7.31762L23.3938 6.16545L22.2489 9.53623L21.2628 12.1193L17.5822 8.96311L18.0807 13.6752L16.1504 14.0887L12.8809 13.2355L17.5694 20.4842L11.9411 17.7919L13.4733 21.0874L12.7381 22.5458L11.725 23.8733L5.27466 23.3741L11.9945 27.3488L12.8487 29.0552L6.96699 30.0176L12.6609 31.9438L8.97902 33.7012L8.63746 35.539L9.17006 37.2617L12.9979 37.8172L5.27851 42.8884L9.21188 43.2836L15.3998 41.5158L8.51461 48.8064L13.8058 46.9279L12.1585 51.4431L13.3286 53.4779L15.0987 54.8361L21.8006 47.013L20.5919 53.3149L23.0574 51.9501L23.8473 55.8974L25.3911 58.9031L27.8958 55.4544L29.8127 57.5271L31.8137 56.5333L32.7844 50.0285L34.8569 52.2033L35.3991 48.493L39.4155 54.2139L42.5905 55.9549L39.8587 47.5913L42.0939 47.9983L47.535 51.5262L44.5247 45.7195L44.827 43.8293L46.5791 43.0847L52.7972 44.6013L49.693 40.8151L55.0794 40.766L46.7194 36.3045L51.4246 35.6129L55.4139 34.0983L54.1969 31.9431L47.2642 30.4664L46.527 29.097L47.8965 27.2821L47.3092 25.8309L47.6392 23.9918L46.5785 22.7185L48.9488 19.2267L45.8278 19.2666L43.2253 19.385L44.2313 16.0129L45.8581 10.9776L39.3595 17.0722L41.1014 10.7336L39.8419 8.6929L35.3123 15.6583L34.2079 14.3L32.8989 13.1576L31.6079 9.91442L29.8114 5.16309V5.1644ZM16.6579 25.5973L28.6754 31.3438L27.3549 32.8853L22.8465 34.1735L20.3642 33.8137L25.9462 31.1482L18.1078 28.4958L17.2471 26.7763L16.6566 25.598L16.6573 25.5967L16.6579 25.5973ZM41.5787 24.487L42.3621 25.4285L42.1923 26.3818L42.2476 26.5205L40.6505 28.6377L42.1955 31.508L42.3891 31.8692L30.9325 33.552L42.1357 39.5314L40.3938 40.272L40.0336 42.5247L36.8702 41.9482L32.3142 35.4592L31.4445 41.4105L29.3978 39.2631L28.0496 48.2941L27.4385 47.6339L27.2757 47.8577L26.9651 46.3044L29.3199 34.0231L30.0024 33.3007L30.3337 34.2075L30.5652 32.704L30.863 32.3893L31.3223 32.6092L31.0509 32.1904L31.5192 31.6958L30.8547 31.8855L30.8521 31.8809L38.5941 24.6205L41.5793 24.4857L41.5787 24.487ZM32.5084 20.0936L33.1768 20.9154L31.3693 27.4908L32.5084 20.0936ZM24.3632 17.8704L27.7093 27.025L23.4067 20.3749L24.3632 17.8704Z" fill="#FDE400"/>
<path id="Vector_3" d="M29.8114 5.1644L28.3808 14.4511L25.7738 7.31762L23.3938 6.16545L22.2489 9.53623L21.2628 12.1193L17.5822 8.96311L18.0807 13.6752L16.1504 14.0887L12.8809 13.2355L17.5694 20.4842L11.9411 17.7919L13.4733 21.0874L12.7381 22.5458L11.725 23.8733L5.27466 23.3741L11.9945 27.3488L12.8487 29.0552L6.96699 30.0176L12.6609 31.9438L8.97902 33.7012L8.63746 35.539L9.17006 37.2617L12.9979 37.8172L5.27851 42.8884L9.21188 43.2836L15.3998 41.5158L8.51461 48.8064L13.8058 46.9279L12.1585 51.4431L13.3286 53.4779L15.0987 54.8361L21.8006 47.013L20.5919 53.3149L23.0574 51.9501L23.8473 55.8974L25.3911 58.9031L27.8958 55.4544L29.8127 57.5271L31.8137 56.5333L32.7844 50.0285L34.8569 52.2033L35.3991 48.493L39.4155 54.2139L42.5905 55.9549L39.8587 47.5913L42.0939 47.9983L47.535 51.5262L44.5247 45.7195L44.827 43.8293L46.5791 43.0847L52.7972 44.6013L49.693 40.8151L55.0794 40.766L46.7194 36.3045L51.4246 35.6129L55.4139 34.0983L54.1969 31.9431L47.2642 30.4664L46.527 29.097L47.8965 27.2821L47.3092 25.8309L47.6392 23.9918L46.5785 22.7185L48.9488 19.2267L45.8278 19.2666L43.2253 19.385L44.2313 16.0129L45.8581 10.9776L39.3595 17.0722L41.1014 10.7336L39.8419 8.6929L35.3123 15.6583L34.2079 14.3L32.8989 13.1576L31.6079 9.91442L29.8114 5.16309V5.1644ZM24.3966 13.1576L25.2959 15.6184L29.6834 27.6236L31.4291 16.2883L31.8511 16.6554L32.7747 17.7932L34.9932 20.5241L33.068 27.5274L39.0231 21.9432L38.7246 22.941L42.5454 22.7683L42.4374 22.9279L44.0647 24.8835L44.1207 24.9509L44.0692 25.2342L43.8975 26.1993L44.1297 26.775L43.9142 27.0609L42.6085 28.7908L43.637 30.7046L44.3728 32.074L44.9678 33.1804L36.1929 34.4693L43.3212 38.2739L44.8829 40.1785L43.5572 40.7411L41.8687 41.4569L41.5754 43.2934L41.3883 44.4711L40.4356 44.2978L35.9176 43.4753L33.3408 39.8042L32.5786 45.0083L30.5241 42.8512L29.5271 49.5274L29.1662 51.9462L27.5884 50.2405L26.3984 51.8788L26.2794 51.2827L25.3917 46.8448L25.1576 46.975L27.3767 35.4062L19.3158 44.8146L17.1725 47.3166L18.8674 42.6732L26.143 34.9691L21.2821 36.3575L22.1807 35.768L14.6755 34.6793L21.515 31.4138L16.9455 29.8671L15.7786 27.5366L14.9244 25.8296L14.7147 25.4109L15.3348 24.5996L15.5233 24.3522L15.6635 24.0735L15.9896 23.4284L16.1665 23.5141L26.7348 28.5684L20.3153 18.6444L19.164 16.8634L21.1831 16.431L22.6618 17.6983L24.3298 13.331L24.3954 13.1576H24.3966Z" fill="#FD9800"/>
<path id="Vector_4" d="M25.0198 55.4753L25.5691 56.5457L27.7799 53.5014L30.0865 55.9955L30.6886 55.6965L31.9358 47.3381L34.0025 49.5071L34.6271 45.2353L40.2528 53.2495L40.4374 53.3516L38.0317 45.9864L42.5504 46.8088L44.2704 47.9237L43.24 45.9354L43.7179 42.9414L46.4741 41.7709L49.4639 42.5004L47.0749 39.585L50.1515 39.5569L42.7704 35.6175L51.1138 34.3914L53.6159 33.4407L53.3998 33.0573L46.451 31.578L45.0564 28.9838L46.4825 27.093L46.0284 25.9696L46.3178 24.3522L45.023 22.7977L46.5732 20.5143L45.8412 20.5241L41.5354 20.7184L43.2014 15.1761L36.998 20.9939L39.6906 11.1994L35.4202 17.7657L33.3226 15.1833L31.8663 13.9127L30.3155 9.9962L28.8682 19.3909L24.7901 8.23161L24.1083 7.90185L23.4136 9.94646L21.7869 14.211L19.1361 11.9394L19.4243 14.669L16.1213 15.3769L15.664 15.2579L21.0054 23.5154L14.5242 20.4161L14.8471 21.1103L13.7105 23.3159L12.2909 25.176L10.5451 25.0412L12.9277 26.4498L14.7152 30.0222L12.1326 30.4448L15.9804 31.7462L10.0724 34.5667L9.90577 35.4638L10.1122 36.1318L16.441 37.0497L8.91647 41.994L9.10044 42.0124L19.4269 39.0629L12.9753 45.8955L15.8749 44.8669L13.5175 51.3253L14.2682 52.6299L14.9223 53.1317L23.8909 42.6634L22.3041 50.9399L23.9327 50.0383L25.0198 55.476V55.4753ZM25.2102 61.2669L22.6713 56.3246L22.1793 53.8671L18.8776 55.6945L19.7073 51.3678L15.2716 56.5451L12.388 54.3303L10.796 51.5654L11.7345 48.9948L4.04978 51.7211L11.3685 43.9726L9.32106 44.5575L1.63895 43.7861L9.55326 38.5872L8.225 38.3949L7.36628 35.6168L7.88279 32.8388L9.33715 32.1446L1.79783 29.593L10.8314 28.1156L0 21.7103L11.1562 22.572L11.6914 21.8706L12.096 21.0665L9.35323 15.1695L14.1299 17.4542L10.0936 11.2151L16.1766 12.8011L16.733 12.682L16.0255 5.98942L20.7365 10.0289L21.0974 9.08415L22.6778 4.43162L26.7552 6.4062L27.8918 9.51399L29.3056 0.333252L32.7585 9.46754L33.9298 12.4078L35.2009 13.5554L39.8668 6.37936L42.4353 10.5405L41.7168 13.1557L48.5119 6.78307L44.9111 18.0555L45.7711 18.0163L51.3196 17.9436L48.1285 22.6446L48.9538 23.6371L48.5859 25.6994L49.305 27.4777L47.9922 29.2168L48.07 29.36L54.9886 30.8341L57.2039 34.761L51.5968 36.86L50.6616 36.998L60 41.9816L52.3063 42.0516L56.1245 46.7107L46.68 44.407L45.9319 44.7243L45.8071 45.5114L50.7966 55.1364L41.6904 49.2323L44.7406 58.5668L38.5765 55.1861L36.1689 51.7564L35.7077 54.9068L33.6281 52.7248L32.9341 57.3766L29.5346 59.066L28.0076 57.4146L25.2082 61.2689L25.2102 61.2669Z" fill="#EC3B33"/>
</g>
</svg>
