<svg width="28" height="26" viewBox="0 0 28 26" fill="none" xmlns="http://www.w3.org/2000/svg">
<path d="M25.7867 3.14666C25.1057 2.46533 24.2971 1.92485 23.4071 1.5561C22.5172 1.18735 21.5633 0.997559 20.6 0.997559C19.6367 0.997559 18.6828 1.18735 17.7929 1.5561C16.9029 1.92485 16.0943 2.46533 15.4133 3.14666L14 4.55999L12.5867 3.14666C11.2111 1.77107 9.34537 0.998272 7.4 0.998272C5.45462 0.998272 3.58892 1.77107 2.21333 3.14666C0.83774 4.52225 0.0649414 6.38795 0.0649414 8.33333C0.0649414 10.2787 0.83774 12.1444 2.21333 13.52L3.62666 14.9333L14 25.3067L24.3733 14.9333L25.7867 13.52C26.468 12.839 27.0085 12.0304 27.3772 11.1405C27.746 10.2505 27.9358 9.29664 27.9358 8.33333C27.9358 7.37001 27.746 6.41613 27.3772 5.52619C27.0085 4.63624 26.468 3.82767 25.7867 3.14666Z" fill="#566A47"/>
</svg>
