<svg width="37" height="31" viewBox="0 0 37 31" fill="none" xmlns="http://www.w3.org/2000/svg">
<path d="M36.2328 22.3667C36.6396 21.4096 36.9909 20.4369 36.9943 20.4272C37.0082 20.3881 36.9962 20.3447 36.9641 20.3186L36.208 19.705C36.147 19.6394 34.9716 18.3908 32.5254 16.5695C31.7858 16.0188 30.8758 15.3775 29.7968 14.6754C29.793 14.6726 29.7901 14.6686 29.7858 14.6662C29.7836 14.6649 29.7808 14.6649 29.7785 14.6639C28.3415 13.7299 26.6042 12.689 24.5538 11.6068C24.5522 11.6056 24.5513 11.604 24.5493 11.603C24.5472 11.6016 24.5447 11.6017 24.5424 11.6008C24.2992 11.4724 24.0482 11.343 23.796 11.2136C23.7933 11.2117 23.7916 11.209 23.7886 11.2074C23.7852 11.2054 23.781 11.2054 23.7774 11.2039C23.6206 11.1234 23.4603 11.0425 23.3 10.9619C23.3127 10.938 23.3256 10.9131 23.3383 10.8893C24.2137 9.23774 24.97 7.81101 24.5805 6.64528C24.4397 6.22381 24.1533 5.85133 23.7162 5.51936C23.755 5.42818 23.7894 5.33515 23.8194 5.24106C24.1315 5.40054 24.6373 5.65266 25.2265 5.92215C26.7269 6.60853 28.7651 7.40608 29.5044 7.06377C29.6655 6.98897 29.7657 6.86662 29.8025 6.7001C29.839 6.53273 29.8009 6.36575 29.689 6.2039C28.9615 5.15079 25.0802 4.4625 23.9893 4.28771C24.0036 3.96148 23.9727 3.65975 23.9041 3.42248C23.8359 3.18637 23.7325 3.03049 23.6046 2.97192C23.4765 2.91327 23.2911 2.93708 23.0683 3.04028C22.8482 3.14227 22.6046 3.31277 22.3711 3.5322C21.4746 2.78128 18.4844 0.368352 17.2327 0.505627C17.0374 0.526911 16.8865 0.607454 16.7844 0.744806C16.6827 0.881623 16.6561 1.03758 16.7054 1.20892C16.9311 1.99246 18.8676 3.01311 20.3682 3.69956C20.9273 3.95535 21.4244 4.16406 21.7515 4.29743C21.6932 4.3936 21.6397 4.49312 21.592 4.59511C21.1122 4.51747 20.6846 4.553 20.3045 4.70849C19.1454 5.18249 18.5307 6.69589 17.835 8.46148C17.6674 8.39227 17.4999 8.32321 17.3347 8.2563C17.3311 8.25461 17.3283 8.25132 17.3247 8.2501C17.3214 8.24879 17.3182 8.24925 17.3149 8.24841C17.0521 8.14237 16.7904 8.0371 16.534 7.93696C16.5318 7.93588 16.5304 7.93397 16.5279 7.93328C16.5261 7.93252 16.524 7.93282 16.5221 7.93229C14.363 7.08888 12.4401 6.45533 10.7944 5.97919C10.7922 5.9782 10.7904 5.97613 10.7881 5.97529C10.7834 5.9736 10.7787 5.97414 10.7741 5.97314C9.53791 5.61591 8.45802 5.34717 7.55839 5.14796C4.58265 4.48899 2.87109 4.41687 2.7817 4.41365L1.82376 4.24315C1.78303 4.23603 1.74238 4.25532 1.72221 4.29146C1.71709 4.30034 1.21356 5.20347 0.758315 6.13836C-0.189994 8.08602 -0.0143309 8.27015 0.0700244 8.35866C0.09799 8.38837 0.130158 8.41141 0.165841 8.4278C0.212069 8.44893 0.263797 8.4585 0.319576 8.45597C0.713768 8.43836 1.28026 7.79202 1.45241 7.58431L15.7854 14.1411C15.1223 16.2383 14.4697 18.4775 13.9943 20.1097C13.6975 21.1284 13.4632 21.933 13.337 22.3225C13.3091 22.4084 13.2761 22.5009 13.2397 22.5978L8.32293 21.9837C7.51942 21.8832 6.75357 22.3115 6.41738 23.0494L5.83239 24.3332C5.82108 24.358 5.82085 24.3868 5.83155 24.4121C5.84102 24.4344 5.85852 24.4522 5.88045 24.4622C5.8832 24.4635 5.88618 24.4646 5.88893 24.4657L11.781 26.5139C11.7412 26.7328 11.721 26.941 11.7237 27.1344C11.4879 27.9435 11.4582 28.6319 11.837 28.8051C12.0994 28.9252 12.4203 28.7562 12.7906 28.3031C12.8991 28.1704 13.0105 28.0142 13.1213 27.8404C13.29 27.7089 13.4539 27.5414 13.6127 27.3476L19.0516 30.487C19.0542 30.4885 19.0568 30.49 19.0597 30.4912C19.0816 30.5012 19.1065 30.5027 19.1297 30.4955C19.1556 30.487 19.1771 30.4679 19.1884 30.4431L19.7734 29.1592C20.1096 28.4213 19.931 27.5609 19.3289 27.0183L15.6445 23.6975C15.694 23.6066 15.7423 23.5214 15.7888 23.444C15.9997 23.0938 16.4521 22.3909 17.0247 21.501C17.9445 20.0709 19.2068 18.1084 20.3547 16.2312L34.6877 22.788C34.6432 23.0596 34.5284 23.9077 34.7724 24.2167C34.807 24.2605 34.8483 24.2936 34.8944 24.3147C34.9299 24.3309 34.9684 24.3402 35.0091 24.3419C35.1311 24.3479 35.3849 24.3602 36.2327 22.3665L36.2328 22.3667Z" fill="#566A47"/>
</svg>
