<svg width="174" height="60" viewBox="0 0 174 60" fill="none" xmlns="http://www.w3.org/2000/svg">
<g id="War_ship">
<path id="Vector" d="M148.569 35.375C149.262 35.375 149.832 35.3296 150.949 35.3016V34.7951H153.013V35.2863C155.668 35.3539 156.992 36.8534 155.758 36.8534C155.218 36.8534 154.634 36.8534 154.03 36.8534V37.4H153.597V38.5222H150.365V37.4H149.841V36.8534C149.788 36.8534 149.735 36.8534 149.681 36.8534C147.792 36.8534 148.254 35.375 148.568 35.375H148.569ZM170.886 43.1009H169.416V42.3264H170.886V43.1009ZM167.262 43.1009H159.509C159.06 43.1009 158.621 43.0798 158.191 43.0455V42.3264H160.07C160.278 42.6467 160.545 42.9163 160.849 43.0951H163.482C163.721 42.9163 163.89 42.6467 163.983 42.3264H167.262L167.262 43.1009ZM124.973 38.9486H124.075V37.0486H124.973V38.9486ZM123.447 38.9486H122.549V37.0486H123.447V38.9486ZM121.92 38.9486H121.023V37.0486H121.92V38.9486ZM120.394 38.9486H119.496V37.0486H120.394V38.9486ZM118.868 38.9486H117.97V37.0486H118.868V38.9486ZM117.432 30.3969H109.62V29.8682H117.432V30.3969ZM117.341 38.9486H116.444V37.0486H117.341V38.9486ZM114.648 36.3089V33.036H115.097V36.3089H114.648ZM115.815 38.9486H114.917V37.0486H115.815V38.9486ZM114.289 38.9486H113.391V37.0486H114.289V38.9486ZM112.224 33.3526V31.2405H113.84V33.3526H112.224ZM112.763 38.9486H111.865V37.0486H112.763V38.9486ZM111.044 35.0072H109.979C109.856 35.0072 109.758 34.7708 109.758 34.4791C109.758 34.1873 109.856 33.9509 109.979 33.9509H111.044C111.167 33.9509 111.266 34.1873 111.266 34.4791C111.266 34.7708 111.167 35.0072 111.044 35.0072ZM111.044 36.2039H109.979C109.856 36.2039 109.758 35.967 109.758 35.6762C109.758 35.3845 109.856 35.1476 109.979 35.1476H111.044C111.167 35.1476 111.266 35.3845 111.266 35.6762C111.266 35.967 111.167 36.2039 111.044 36.2039ZM111.236 38.9491H110.339V37.0491H111.236V38.9491ZM109.71 38.9491H108.812V37.0491H109.71V38.9491ZM108.159 35.6762C108.159 35.3845 108.259 35.1476 108.382 35.1476H109.447C109.57 35.1476 109.668 35.3845 109.668 35.6762C109.668 35.967 109.569 36.2039 109.447 36.2039H108.382C108.259 36.2039 108.159 35.967 108.159 35.6762ZM108.184 38.9491H107.286V37.0491H108.184V38.9491ZM106.561 35.6762C106.561 35.3845 106.661 35.1476 106.783 35.1476H107.849C107.971 35.1476 108.07 35.3845 108.07 35.6762C108.07 35.967 107.971 36.2039 107.849 36.2039H106.783C106.661 36.2039 106.561 35.967 106.561 35.6762ZM106.658 38.9491H105.76V37.0491H106.658V38.9491ZM104.964 35.6762C104.964 35.3845 105.063 35.1476 105.185 35.1476H106.251C106.373 35.1476 106.472 35.3845 106.472 35.6762C106.472 35.967 106.373 36.2039 106.251 36.2039H105.185C105.062 36.2039 104.964 35.967 104.964 35.6762ZM105.131 38.9491H104.234V37.0491H105.131V38.9491ZM103.366 35.6762C103.366 35.3845 103.465 35.1476 103.588 35.1476H104.653C104.776 35.1476 104.875 35.3845 104.875 35.6762C104.875 35.967 104.776 36.2039 104.653 36.2039H103.588C103.465 36.2039 103.366 35.967 103.366 35.6762ZM103.588 33.9514H104.653C104.776 33.9514 104.875 34.1878 104.875 34.4796C104.875 34.7714 104.776 35.0077 104.653 35.0077H103.588C103.465 35.0077 103.366 34.7714 103.366 34.4796C103.366 34.1878 103.465 33.9514 103.588 33.9514ZM103.483 26.9947H104.353V29.111H103.483V26.9947ZM105.185 33.9514H106.251C106.373 33.9514 106.472 34.1878 106.472 34.4796C106.472 34.7714 106.373 35.0077 106.251 35.0077H105.185C105.062 35.0077 104.964 34.7714 104.964 34.4796C104.964 34.1878 105.063 33.9514 105.185 33.9514ZM105.342 26.9947H106.212V29.111H105.342V26.9947ZM106.783 33.9514H107.849C107.971 33.9514 108.07 34.1878 108.07 34.4796C108.07 34.7714 107.971 35.0077 107.849 35.0077H106.783C106.661 35.0077 106.561 34.7714 106.561 34.4796C106.561 34.1878 106.661 33.9514 106.783 33.9514ZM106.885 24.3086H107.25V25.1528H106.885V24.3086ZM106.885 22.8049H107.25V23.1368H106.885V22.8049ZM108.072 26.9947V29.111H107.202V26.9947H108.072ZM108.381 33.9514H109.446C109.569 33.9514 109.668 34.1878 109.668 34.4796C109.668 34.7714 109.569 35.0077 109.446 35.0077H108.381C108.258 35.0077 108.159 34.7714 108.159 34.4796C108.159 34.1878 108.258 33.9514 108.381 33.9514ZM108.871 22.8054H111.565V23.1373H108.871V22.8054ZM109.93 26.9953V29.1116H109.061V26.9953H109.93ZM111.625 25.1533H108.931V24.3092H111.625V25.1533ZM111.924 22.8054H114.618V23.1373H111.924V22.8054ZM112.044 25.9632V28.4964H111.236V25.9632H112.044ZM113.211 25.9632V28.4964H112.403V25.9632H113.211ZM114.379 25.9632V28.4964H113.57V25.9632H114.379ZM111.985 25.1533V24.3092H114.678V25.1533H111.985ZM101.002 36.6376H93.5801C93.0435 36.6376 92.5966 35.8599 92.4943 34.8268H102.087C101.984 35.8604 101.538 36.6376 101.002 36.6376ZM90.1577 8.12011H89.4654L88.3998 7.00893H90.1577V8.12011ZM90.1577 8.82448H90.1411L89.6682 8.33116H90.1581L90.1577 8.82448ZM90.1577 9.48718H88.8216V8.96536H90.1559L90.1577 8.96695V9.48718ZM90.1577 10.0127L89.3914 11.3428L89.2617 11.1597L90.1577 9.92774V10.0127ZM90.1577 12.4271L89.451 11.4267L90.1577 10.2V12.4271ZM88.3321 9.84333H90.1007L89.2038 11.0774L88.3321 9.84333ZM87.2055 9.48718V8.96536H88.7022V9.48718H87.2055ZM87.2055 8.33169H88.7022V8.82501H87.2055V8.33169ZM88.822 8.33169H89.5484L90.0213 8.82501H88.8216L88.822 8.33169ZM89.6215 39.482H89.3344V32.654H89.6215V39.482ZM87.8107 39.482H87.5236V32.654H87.8107V39.482ZM85.829 32.8524H82.2975V31.3038H85.829V32.8524ZM82.8364 27.6886H85.2305V29.4324H82.8364V27.6886ZM70.6498 39.2377H70.4196V33.1278H70.6498V39.2377ZM68.983 39.2377H68.7528V33.1278H68.983V39.2377ZM66.0855 24.5249L67.419 25.4367H64.7521L66.0855 24.5249ZM64.4883 24.4711L64.6677 23.5557L65.9307 24.4199L64.4883 25.4061V24.4711ZM64.7337 23.2196H67.6868L66.0855 24.3144L64.7045 23.37L64.7337 23.2196ZM64.7799 22.9843L66.4108 21.8694L67.7658 23.008H64.7759L64.7804 22.9838L64.7799 22.9843ZM65.1985 20.8516L66.2717 21.7528L64.8279 22.74L65.1985 20.8516ZM65.2501 20.5878H67.873V20.658L66.4104 21.6584L65.234 20.6707L65.2501 20.5878ZM67.873 17.2469V18.9686L65.3125 17.2469H67.873ZM67.873 19.4186H65.9034C66.011 19.2002 66.0779 18.9501 66.0779 18.6799C66.0779 18.3512 65.9832 18.05 65.8284 17.8046L67.873 19.1786V19.4186ZM67.873 22.8877L66.5485 21.7755L67.873 20.8696V22.8877ZM67.873 25.4372H67.7276L66.2394 24.4199L67.8726 23.303V25.4367L67.873 25.4372ZM60.6011 32.1939H57.3693V27.2322H60.6011V32.1939ZM90.4785 29.8756H90.6328L93.0148 31.0031L90.4785 32.1206V29.8756ZM90.4785 29.1506L92.8658 28.0178L95.5345 29.5194H90.6328L90.4785 29.4461V29.1506ZM90.4785 26.6745L92.5226 27.8247L90.4785 28.7939V26.6745ZM90.4785 22.9537L92.6689 24.4036L90.4785 25.8809V22.9537ZM90.4785 19.5468L92.4634 20.7836L90.4785 22.1907V19.5468ZM90.4785 16.1859L92.4064 17.4754L90.4785 18.787V16.1859ZM90.4785 13.2001L92.257 14.3571L90.4785 15.6065V13.2001ZM90.4785 12.6292L92.2498 11.3755L94.0427 12.645H90.4785V12.6292ZM90.4785 10.1224L91.9981 11.1983L90.4785 12.273V10.1224ZM93.9112 9.8449L92.2498 11.0204L90.5884 9.8449H93.9112ZM91.0366 8.33327H91.2242L91.1214 8.8266H91.0366V8.33327ZM91.0366 7.01105H91.4987L91.2681 8.12222H91.0371L91.0366 7.01105ZM92.8918 8.96695V9.48876H91.1035L91.2121 8.96695H92.8918ZM92.8918 8.33274V8.82607H91.2412L91.3439 8.33274H92.8918ZM93.0117 8.96695H95.0468V9.48876H93.0117V8.96695ZM93.0117 8.33274H95.0468V8.82607H93.0117V8.33274ZM92.502 11.1983L94.0674 10.0902L94.2598 12.4424L92.502 11.1983ZM94.5079 15.4662L92.7833 14.3445L94.3276 13.2597L94.5079 15.4662ZM94.7736 18.7047L92.934 17.4738L94.5811 16.3531L94.7736 18.7047ZM95.0463 22.0383L92.9982 20.7614L94.835 19.4592L95.0463 22.0383ZM99.1 16.1088L98.0932 18.9248H95.1123L94.8817 16.1088H99.1ZM97.0299 14.3302V14.0342H97.3215V14.3302H97.0299ZM96.985 11.5528H96.3789V11.2046H96.985V11.5528ZM96.985 12.187H96.3789V11.7122H96.985V12.187ZM96.985 13.0317H96.3789V12.3453H96.985V13.0317ZM96.985 13.2164H96.9626V13.6385H96.985V13.8759H96.3789V13.19H96.985V13.2164ZM96.985 14.3302H96.3789V14.0342H96.985V14.3302ZM96.334 11.5528H95.7274V11.3112C95.8746 11.2452 96.033 11.2046 96.1994 11.2046H96.334V11.5528ZM96.334 12.187H95.7274V11.7122H96.334V12.187ZM96.334 13.0317H95.7274V12.3453H96.334V13.0317ZM96.334 13.8759H95.7274V13.19H96.334V13.8759ZM96.334 14.3302H96.1994C96.033 14.3302 95.8746 14.2901 95.7274 14.2242V14.0342H96.334V14.3302ZM97.0299 13.6385H97.3215V13.8759H97.0299V13.6385ZM97.0299 12.3453H97.6356V13.0317H97.0299V12.3453ZM97.0299 11.7122H97.6356V12.187H97.0299V11.7122ZM97.0299 11.2051H97.6356V11.5533H97.0299V11.2051ZM97.6805 14.0348H97.815V14.3307H97.6805V14.0348ZM97.6805 12.3458H97.815V13.0323H97.6805V12.3458ZM97.6805 11.7127H98.287V12.1875H98.1749V11.9501H97.815V12.1875H97.6805V11.7127ZM97.6805 11.2056H98.287V11.5539H97.6805V11.2056ZM98.1749 13.0328V12.3464H98.287V13.0328H98.1749ZM98.3992 14.4574V15.0388H97.5458V14.4574H98.3992ZM98.3319 12.3464H98.9376V13.0328H98.3319V12.3464ZM98.3319 11.7132H98.9376V12.1881H98.3319V11.7132ZM98.3319 11.2062H98.9376V11.5544H98.3319V11.2062ZM98.9825 14.0358H99.5886V14.3318H98.9825V14.0358ZM98.9825 13.6401H99.0273V13.218H98.9825V13.1916H99.5886V13.8775H98.9825V13.6401ZM98.9825 12.3469H99.5886V13.0333H98.9825V12.3469ZM98.9825 11.7137H99.5886V12.1886H98.9825V11.7137ZM98.9825 11.2067H99.5886V11.5549H98.9825V11.2067ZM99.6335 14.0363H100.239V14.2833C100.138 14.3128 100.034 14.3323 99.9251 14.3323H99.6335V14.0363ZM99.6335 13.1921H100.239V13.878H99.6335V13.1921ZM99.6335 12.3474H100.239V13.0339H99.6335V12.3474ZM99.6335 11.7143H100.239V12.1891H99.6335V11.7143ZM99.6335 11.2072H99.9251C100.034 11.2072 100.138 11.2273 100.239 11.2563V11.5555H99.6335V11.2072ZM100.284 14.0369H100.697C100.573 14.1408 100.434 14.2178 100.284 14.2674V14.0369ZM100.284 13.1927H100.846V13.8786H100.284V13.1927ZM100.284 12.3479H100.846V13.0344H100.284V12.3479ZM100.284 11.7148H100.846V12.1897H100.284V11.7148ZM100.284 11.2727C100.457 11.3307 100.614 11.4272 100.752 11.5555H100.284V11.2727ZM98.9376 13.8786H98.6235V13.6411H98.9376V13.8786ZM98.9376 14.3329H98.6235V14.0369H98.9376V14.3329ZM96.8343 22.4461H95.4003L95.141 19.2835H97.9658L96.8343 22.4461ZM95.6677 25.7084L95.429 22.8023H96.7073L95.6677 25.7084ZM95.7126 30.1721L95.862 31.9977L93.7932 31.0184L95.7126 30.1721ZM95.4367 26.8011L95.6345 29.2224L93.2091 27.8579L95.4367 26.8011ZM95.1818 26.5658L92.8663 27.6638L90.9132 26.5658H95.1818ZM95.3873 26.2059L95.3878 26.2096H90.5229L92.9349 24.583L95.3873 26.2059ZM95.1329 23.1004L95.3564 25.8292L93.2014 24.4031L95.1329 23.1004ZM95.0472 22.8023L92.9349 24.2268L90.7831 22.8023H95.0472ZM95.0764 22.416L95.0791 22.4461H90.6248L92.7303 20.9529L95.0764 22.416ZM94.5847 19.2835L92.7303 20.5978L90.6207 19.2835H94.5847ZM94.569 18.9274H90.8011L92.6698 17.6558L94.569 18.9274ZM94.4164 16.1115L92.6698 17.2997L90.8944 16.1115H94.4164ZM90.7181 13.0033H94.1885L92.5199 14.1756L90.7181 13.0033ZM94.4007 15.7559H90.7773L92.5195 14.5318L94.4007 15.7559ZM91.3848 29.8787H95.5717L93.4038 30.8343L91.3848 29.8787ZM95.6821 11.5565H95.3725C95.4672 11.4673 95.5686 11.3882 95.6821 11.3317V11.5565ZM95.6821 12.1907H95.0764V11.9797H95.0598C95.1078 11.8842 95.1621 11.7966 95.2253 11.7159H95.6821V12.1907ZM95.6821 13.0354H95.0764V12.349H95.6821V13.0354ZM95.6821 13.8796H95.2639C95.1836 13.7868 95.1177 13.6781 95.0593 13.5631H95.076V13.1937H95.6816L95.6821 13.8796ZM95.6821 14.211C95.591 14.1656 95.5062 14.1055 95.4268 14.0379H95.6821V14.211ZM95.0315 13.0354H94.8969V13.085C94.879 12.9832 94.8696 12.8782 94.8696 12.7706C94.8696 12.6234 94.8924 12.4841 94.9256 12.3485H95.0315V13.0354ZM100.89 13.1937H101.198C101.139 13.438 101.034 13.6586 100.89 13.8385V13.1937ZM100.89 12.349H101.198C101.23 12.4846 101.253 12.6239 101.253 12.7711C101.253 12.8787 101.244 12.9837 101.227 13.0856V13.036H100.89V12.3495L100.89 12.349ZM100.89 11.7159H100.898C101.006 11.8536 101.095 12.0134 101.156 12.1907H100.89V11.7159ZM173.04 43.1078V42.3332H173.992V41.7001H173.04V39.5685H170.885V41.7001H169.416V39.5685H167.262V41.7001H164.041C164.036 41.6051 164.041 41.5154 164.023 41.4168C164.009 41.3403 163.994 41.2685 163.98 41.1941H164.753V40.876H166.863V40.685H164.753V40.304H163.744C163.55 39.8049 163.25 39.4767 162.691 39.4767H160.994C160.083 39.4767 159.502 40.3452 159.696 41.4168C159.714 41.5149 159.752 41.6051 159.781 41.7001H158.191V38.5328H139.652V36.4798H117.749V29.4371H116.907L115.098 22.3791H112.045V19.4228H111.417V22.3791H109.117V19.7394H108.308V16.4666H107.477V19.7394H106.668V21.6415H105.287V25.9168H104.852V21.6415H103.253V25.9168H102.84V25.1238H100.464V29.4371H97.4225V32.5875H90.3309V32.5459L90.4018 32.5142H90.4785V32.4804L93.4042 31.1909L95.8916 32.3691L95.9033 32.5142H96.1994L96.2142 32.5216V32.5142H96.2241L96.2142 32.3902V32.1649L96.1949 32.1565L95.7009 26.1268L99.2342 16.2476L99.2117 16.112H100.913V15.7559H98.8025V15.0404H98.6231V14.459H99.9247C100.287 14.459 100.613 14.297 100.866 14.0369H100.912V13.992C101.188 13.6844 101.361 13.2518 101.361 12.7695C101.361 11.8367 100.718 11.0801 99.9242 11.0801H96.1985C96.0276 11.0801 95.8656 11.1212 95.7135 11.1856H95.6816V11.1972C95.1446 11.441 94.7619 12.0509 94.7619 12.769C94.7619 13.2512 94.9351 13.6834 95.2105 13.9915V14.0363H95.2572C95.3819 14.1651 95.5237 14.2701 95.6816 14.3418V14.3529H95.7135C95.8656 14.4173 96.0276 14.4584 96.1985 14.4584H97.3206V15.0399H97.1412V15.7553H94.8512L94.3675 9.84754H95.2855V8.12486H91.387L91.6181 7.01369H91.8137V5.80332H91.0362V5.45034H90.478V4.25369H90.7961V3.4095H90.478V1.15655H91.3655V0.794602H90.478V0.482776H91.1259V0H89.6292V0.482776H90.1577V0.794602H89.2702V1.15655H90.1577V3.4095H89.9589V4.25369H90.1577V5.80332H87.1454V7.01369H88.28L89.3456 8.12486H86.9659V9.4914H86.8461V9.84754H88.2253V10.0533L89.076 11.2568L78.5126 25.7875V23.3214H78.1981V18.1544H76.3124V23.3214H75.813V18.1544H74.9655V11.2916H74.786V18.1544H73.6244V23.3214H73.0299V18.1544H72.2721V11.2916H72.0927V18.1544H70.8414V23.3214H70.0033L69.6627 28.1281H71.4542V28.1212H71.6261V28.1281H73.466V28.1212H73.6388V28.1281H75.4783V28.1212H75.651V28.1281H77.4906V28.1212H77.6633V28.1281H78.5126V25.9495L89.1347 11.3391L89.2779 11.5423L79.7213 28.1281H79.8299L89.338 11.6272L90.1388 12.7595V12.8724L90.1581 12.8592V25.9158H84.5126V23.399H83.4349V25.9158H81.8215L81.6649 28.1217H81.6883V28.1286H82.3779V28.4663H81.6883V29.4213H81.5734L81.5721 29.4366H79.0757L79.5033 28.6958V28.5074L78.9676 29.4366H78.5126V28.4663H77.6633V29.4213H77.4906V28.4663H75.651V29.4213H75.4783V28.4663H73.6388V29.4213H73.466V28.4663H71.6261V29.4213H71.4542V28.4663H69.6389L69.6138 28.8124V29.4213H69.5707L69.5694 29.4366H68.4975V28.4663H67.6016V29.4213H67.4288V28.4663H65.2452V28.1286H67.4288V28.1217H67.6016V28.1286H68.4975V25.4409H68.4114V20.5915H69.219V19.4223H68.4114V17.2506H69.1293V15.6276H68.4114V13.4042H67.8726V15.6276H64.9998V17.2269C64.9405 17.2169 64.8813 17.2047 64.8203 17.2047C64.1262 17.2047 63.5631 17.8674 63.5631 18.6836C63.5631 18.9543 63.6291 19.2039 63.7377 19.4223H63.2935V20.5915H64.8907L64.4636 22.7659H60.1008L55.1821 17.9181L55.0089 18.1608L59.6813 22.7659H55.978L55.755 25.9158H54.0869L52.8266 33.6982V39.5796H68.7524V39.5115H68.9825V39.5796H70.4196V39.5115H70.6498V39.5796H91.0366V39.587H32.5003L32.2989 39.3216H32.5515C33.115 38.9892 33.5726 38.3639 33.7041 37.6364C33.8984 36.5648 33.3173 35.6968 32.4061 35.6968H30.7088C30.1507 35.6968 29.851 36.025 29.6562 36.5236H28.6468V36.9056H21.793V37.0966H28.6468V37.4148H29.4202C29.4059 37.4892 29.3911 37.5604 29.3772 37.6369C29.3687 37.6865 29.374 37.7308 29.3678 37.7793L0 36.2097L8.48603 47.3863H173.525L173.879 44.1984L174 43.1073L173.04 43.1078ZM102.954 25.1206H102.229V24.0474H102.954V25.1206ZM101.071 24.0474H101.795V25.1206H101.071V24.0474ZM67.4293 28.1291H67.602V28.4668H67.4293V28.1291ZM73.4665 28.4668V28.1291H73.6392V28.4668H73.4665ZM79.6352 28.4668H79.5266L79.6756 28.2077V28.3961L79.6352 28.4668ZM75.4788 28.4668V28.1291H75.6515V28.4668H75.4788ZM71.6265 28.4668H71.4547V28.1291H71.6265V28.4668ZM81.6654 28.1291H81.6887V28.4668H81.6412L81.6654 28.1291ZM77.491 28.4668V28.1291H77.6637V28.4668H77.491ZM122.774 36.4735H122.639V35.1006H139.608V36.4735H139.473V35.2589H137.924V36.4735H137.789V35.2589H136.24V36.4735H136.106V35.2589H134.557V36.4735H134.422V35.2589H134.265V36.4202H133.861V35.2589H132.873V36.4735H132.739V35.2589H131.19V36.4735H131.056V35.2589H130.629V36.4202H130.225V35.2589H129.507V36.4735H129.372V35.2589H127.823V36.4735H127.688V35.2589H126.14V36.4735H126.005V35.2589H124.456V36.4735H124.322V35.2589H122.773V36.4735H122.774ZM160.926 52.5554V54.0681H143.874C149.78 53.531 155.827 52.9896 160.926 52.5554ZM11.0703 56.8476C9.49238 60.1869 10.125 59.998 16.4283 59.998C21.0603 59.998 25.293 56.6624 28.5615 56.6624C66.6365 56.6624 127.519 56.6624 127.519 56.6624C127.519 56.6624 128.692 55.8256 134.819 54.9946H164.866V54.0681H162.659V52.4098C164.743 52.2357 166.629 52.0837 168.232 51.9629L169.12 57.0333H171.956L172.895 51.669C173.079 51.6632 173.246 51.6595 173.375 51.6595L173.532 48.5091H9.02174C9.02174 48.5091 12.6465 53.512 11.0703 56.8476Z" fill="#D9D9D9"/>
</g>
</svg>
