<svg width="380" height="804" viewBox="0 0 380 804" fill="none" xmlns="http://www.w3.org/2000/svg">
<g opacity="0.5">
<path d="M138.333 406.649C134.634 430.844 125.393 453.296 110.868 473.377C95.9702 493.975 76.0519 510.799 53.263 522.03L48.9745 513.494C70.347 502.961 89.0291 487.181 103.006 467.858C116.634 449.016 125.302 427.959 128.77 405.272L138.335 406.646L138.333 406.649Z" fill="#2D362E"/>
<path d="M8.87659 231.644L7.29158 241.081C-13.1794 237.831 -34.6415 238.965 -54.7629 244.359L-57.2616 235.137C-35.8144 229.388 -12.9439 228.178 8.87659 231.644Z" fill="#2D362E"/>
<path d="M-87.0716 490.04L-91.0731 496.044C-91.7577 495.6 -92.442 495.151 -93.1189 494.696L-89.012 488.762C-88.3715 489.193 -87.7222 489.62 -87.0716 490.04ZM-103.667 477.319C-103.091 477.839 -102.511 478.354 -101.925 478.866L-106.759 484.242C-107.374 483.705 -107.981 483.163 -108.592 482.615L-103.669 477.318L-103.667 477.319ZM-70.7307 498.98L-73.8098 505.484C-74.5537 505.145 -75.2982 504.796 -76.0384 504.443L-72.849 497.987C-72.1473 498.325 -71.4398 498.655 -70.7307 498.98ZM-116.453 463.909C-115.967 464.505 -115.471 465.094 -114.972 465.68L-120.538 470.315C-121.072 469.689 -121.598 469.06 -122.116 468.431L-116.453 463.909ZM-53.2385 505.46L-55.3129 512.341C-56.1056 512.112 -56.8948 511.875 -57.6833 511.629L-55.4719 504.791C-54.7294 505.022 -53.9834 505.244 -53.2385 505.46ZM-127.119 448.758C-126.722 449.422 -126.319 450.083 -125.911 450.739L-132.105 454.516C-132.539 453.82 -132.966 453.122 -133.385 452.422L-127.118 448.756L-127.119 448.758ZM-34.954 509.34L-35.9973 516.437C-36.8089 516.325 -37.6203 516.207 -38.4332 516.08L-37.2668 508.999C-36.4973 509.118 -35.7262 509.233 -34.9543 509.337L-34.954 509.34ZM-135.412 432.228C-135.119 432.942 -134.815 433.65 -134.507 434.36L-141.192 437.21C-141.516 436.461 -141.835 435.708 -142.145 434.957L-135.412 432.228ZM-16.2894 510.544L-16.2712 517.712C-17.0928 517.718 -17.9184 517.716 -18.7417 517.705L-18.6289 510.538C-17.8501 510.548 -17.0692 510.549 -16.2884 510.542L-16.2894 510.544ZM-141.164 414.683C-140.983 415.425 -140.788 416.168 -140.592 416.909L-147.614 418.777C-147.829 417.988 -148.032 417.197 -148.227 416.402L-141.163 414.681L-141.164 414.683ZM2.38477 509.063L3.45306 516.147C2.63768 516.269 1.82247 516.386 1.00476 516.495L0.0574314 509.395C0.836387 509.291 1.6128 509.179 2.38477 509.063ZM-144.282 396.471C-144.206 397.237 -144.123 398.006 -144.035 398.773L-151.259 399.609C-151.352 398.804 -151.434 397.999 -151.514 397.193L-144.282 396.471ZM20.6618 504.928L22.7625 511.78C21.9678 512.018 21.177 512.252 20.3823 512.477L18.4121 505.587C19.1645 505.375 19.914 505.153 20.6618 504.928ZM-144.688 378.019C-144.729 378.787 -144.759 379.555 -144.786 380.322L-152.046 380.125C-152.023 379.312 -151.986 378.499 -151.945 377.687L-144.688 378.019ZM38.1551 498.227L41.248 504.699C40.4973 505.05 39.7455 505.394 38.9912 505.731L36.0246 499.203C36.7389 498.885 37.4496 498.561 38.1561 498.225L38.1551 498.227ZM-142.377 359.696C-142.529 360.447 -142.674 361.201 -142.809 361.955L-149.966 360.716C-149.819 359.917 -149.661 359.117 -149.5 358.32L-142.377 359.696ZM54.4871 489.085L58.5065 495.038C57.8168 495.494 57.1229 495.94 56.4252 496.385L52.5165 490.362C53.1775 489.942 53.834 489.517 54.4861 489.087L54.4871 489.085ZM-137.365 341.891C-137.631 342.613 -137.886 343.338 -138.136 344.063L-145.021 341.807C-144.754 341.031 -144.483 340.256 -144.2 339.481L-137.365 341.891ZM69.2952 477.69L74.1545 482.993C73.5421 483.538 72.9247 484.082 72.3034 484.618L67.5382 479.231C68.1279 478.722 68.7145 478.209 69.2952 477.69ZM-129.763 324.955C-130.134 325.64 -130.498 326.328 -130.854 327.018L-137.322 323.781C-136.949 323.061 -136.568 322.342 -136.181 321.62L-129.763 324.955ZM82.2531 464.295L87.847 468.842C87.3206 469.471 86.7887 470.095 86.2553 470.71L80.7402 466.074C81.2467 465.484 81.7551 464.892 82.2517 464.294L82.2531 464.295ZM-125.294 304.644L-119.461 308.892C-119.927 309.514 -120.387 310.136 -120.843 310.767L-121.144 311.188L-127.054 307.042L-126.78 306.661C-126.271 305.958 -125.786 305.299 -125.294 304.644ZM99.3363 452.901C98.9056 453.598 98.4714 454.289 98.0278 454.982L91.8932 451.17C92.3132 450.516 92.7244 449.86 93.1315 449.201L99.3363 452.901ZM-112.372 289.807L-107.228 294.846C-107.784 295.392 -108.328 295.945 -108.869 296.504L-114.103 291.557C-113.531 290.969 -112.956 290.387 -112.372 289.807ZM108.38 435.5C108.057 436.251 107.727 436.998 107.391 437.744L100.756 434.853C101.075 434.148 101.387 433.443 101.691 432.73L108.38 435.5ZM-97.3908 276.961L-93.0537 282.696C-93.6813 283.157 -94.3114 283.625 -94.9312 284.105L-99.3731 278.456C-98.7189 277.951 -98.0543 277.453 -97.3908 276.961ZM114.752 416.988C114.546 417.778 114.329 418.565 114.106 419.351L107.109 417.454C107.319 416.713 107.52 415.966 107.717 415.223L114.752 416.988ZM-80.6731 266.41L-77.2393 272.71C-77.9283 273.077 -78.6167 273.456 -79.2991 273.835L-82.8455 267.594C-82.1233 267.195 -81.3994 266.799 -80.6744 266.409L-80.6731 266.41ZM118.312 397.79C118.224 398.598 118.127 399.404 118.022 400.212L110.815 399.344C110.914 398.58 111.003 397.819 111.086 397.057L118.311 397.792L118.312 397.79ZM-62.587 258.381L-60.1231 265.114C-60.8559 265.378 -61.5938 265.654 -62.3261 265.929L-64.9048 259.242C-64.1367 258.952 -63.3636 258.663 -62.587 258.381ZM118.998 378.297C119.03 379.106 119.052 379.918 119.07 380.733L111.803 380.909C111.79 380.138 111.765 379.371 111.736 378.599L118.998 378.297ZM-43.5304 253.022L-42.0807 260.039C-42.8457 260.197 -43.6129 260.363 -44.3769 260.534L-45.947 253.546C-45.1453 253.362 -44.3404 253.192 -43.5304 253.022ZM116.814 358.911C116.966 359.711 117.107 360.511 117.243 361.316L110.075 362.528C109.948 361.771 109.811 361.01 109.67 360.255L116.814 358.911ZM-23.9072 250.44L-23.5155 257.593C-24.2957 257.639 -25.0697 257.694 -25.843 257.752L-26.3782 250.61C-25.5545 250.544 -24.733 250.486 -23.9072 250.44ZM111.811 340.056C112.073 340.823 112.331 341.595 112.586 342.361L105.671 344.6C105.431 343.865 105.182 343.131 104.929 342.397L111.811 340.056ZM-4.14801 250.687L-4.80111 257.827C-5.57577 257.763 -6.35334 257.703 -7.12938 257.652L-6.60589 250.499C-5.78394 250.551 -4.96139 250.614 -4.14706 250.686L-4.14801 250.687ZM104.069 322.123C104.447 322.846 104.817 323.574 105.182 324.303L98.6566 327.49C98.3125 326.8 97.9616 326.111 97.6025 325.424L104.068 322.122L104.069 322.123ZM15.3626 253.762L13.6571 260.737C12.8994 260.559 12.1435 260.393 11.3861 260.231L12.9519 253.225C13.7568 253.398 14.5601 253.575 15.3626 253.762ZM93.7458 305.499C94.2269 306.161 94.703 306.822 95.1728 307.489L89.1916 311.595C88.7439 310.96 88.294 310.325 87.8358 309.699L93.7458 305.499ZM34.2139 259.638L31.4704 266.289C30.7508 266.002 30.0297 265.727 29.3034 265.458L31.8971 258.744C32.6721 259.032 33.4433 259.333 34.2126 259.637L34.2139 259.638ZM81.0625 290.56C81.6359 291.143 82.2041 291.73 82.7657 292.321L77.4492 297.238C76.9191 296.678 76.3804 296.123 75.8371 295.569L81.0611 290.559L81.0625 290.56ZM51.9563 268.161L48.2812 274.364C47.6044 273.974 46.926 273.596 46.2483 273.222L49.8104 266.955C50.5291 267.351 51.245 267.752 51.9563 268.161ZM66.3048 277.639C66.9583 278.134 67.6076 278.633 68.2506 279.137L63.7121 284.76C63.1017 284.279 62.4882 283.808 61.8677 283.338L66.3048 277.639Z" fill="#2D362E"/>
<path d="M-104.189 521.797L-106.773 525.851C-107.464 525.425 -108.157 524.99 -108.848 524.554L-106.209 520.534C-105.536 520.961 -104.862 521.383 -104.19 521.798L-104.189 521.797ZM-121.623 509.424C-121.008 509.921 -120.39 510.415 -119.769 510.906L-122.805 514.646C-123.449 514.141 -124.085 513.632 -124.716 513.118L-121.624 509.423L-121.623 509.424ZM-87.441 530.841L-89.5338 535.163C-90.2728 534.817 -91.0111 534.462 -91.7483 534.105L-89.5952 529.813C-88.8786 530.162 -88.1594 530.504 -87.4414 530.839L-87.441 530.841ZM-135.632 496.633C-135.08 497.197 -134.526 497.759 -133.963 498.32L-137.417 501.691C-137.991 501.116 -138.564 500.539 -139.133 499.957L-135.632 496.635L-135.632 496.633ZM-69.7323 537.896L-71.2982 542.423C-72.0738 542.167 -72.8499 541.901 -73.6255 541.632L-71.9924 537.125C-71.2374 537.387 -70.4893 537.643 -69.7326 537.894L-69.7323 537.896ZM-148.024 482.315C-147.542 482.944 -147.059 483.565 -146.567 484.186L-150.395 487.137C-150.897 486.5 -151.394 485.861 -151.89 485.216L-148.024 482.315ZM-51.3027 542.854L-52.3236 547.53C-53.1227 547.364 -53.9225 547.193 -54.7221 547.016L-53.6292 542.354C-52.8541 542.528 -52.0792 542.694 -51.3027 542.854ZM-158.631 466.65C-158.231 467.325 -157.822 468.002 -157.407 468.677L-161.551 471.17C-161.979 470.478 -162.398 469.78 -162.815 469.08L-158.63 466.649L-158.631 466.65ZM-32.4066 545.653L-32.8668 550.413C-33.6812 550.342 -34.4948 550.261 -35.3124 550.177L-34.7823 545.425C-33.9911 545.509 -33.2002 545.584 -32.4076 545.654L-32.4066 545.653ZM-167.31 449.858C-166.991 450.577 -166.665 451.298 -166.334 452.015L-170.743 454.016C-171.085 453.28 -171.417 452.539 -171.747 451.796L-167.31 449.858ZM-13.2847 546.268L-13.1861 551.044C-14.0054 551.065 -14.8246 551.079 -15.6469 551.09L-15.6765 546.309C-14.879 546.301 -14.0813 546.288 -13.2834 546.269L-13.2847 546.268ZM-173.935 432.182C-173.703 432.934 -173.464 433.686 -173.223 434.437L-177.834 435.917C-178.085 435.146 -178.331 434.376 -178.57 433.601L-173.936 432.183L-173.935 432.182ZM5.79539 544.694L6.44984 549.425C5.63564 549.541 4.82356 549.648 4.0084 549.75L3.42116 545.011C4.21296 544.912 5.00223 544.806 5.79307 544.694L5.79539 544.694ZM-178.452 413.855C-178.307 414.631 -178.159 415.404 -178.003 416.176L-182.759 417.12C-182.916 416.327 -183.072 415.529 -183.218 414.736L-178.453 413.855L-178.452 413.855ZM24.5779 540.959L25.7837 545.583C24.9882 545.789 24.1907 545.989 23.3933 546.184L22.2535 541.545C23.0275 541.354 23.8035 541.161 24.5765 540.958L24.5779 540.959ZM-180.784 395.136C-180.732 395.92 -180.674 396.706 -180.613 397.489L-185.443 397.885C-185.506 397.079 -185.565 396.272 -185.616 395.466L-180.783 395.137L-180.784 395.136ZM42.8109 535.115L44.5509 539.566C43.7849 539.862 43.0154 540.151 42.2452 540.435L40.565 535.961C41.3159 535.684 42.0638 535.402 42.8109 535.115ZM-180.907 376.262C-180.948 377.051 -180.985 377.836 -181.012 378.622L-185.856 378.462C-185.823 377.656 -185.784 376.851 -185.747 376.042L-180.906 376.261L-180.907 376.262ZM60.2432 527.227L62.4989 531.444C61.7691 531.826 61.0385 532.204 60.3043 532.574L58.1115 528.324C58.823 527.962 59.5328 527.596 60.2418 527.226L60.2432 527.227ZM-178.818 357.497C-178.953 358.274 -179.076 359.051 -179.198 359.826L-183.986 359.121C-183.862 358.322 -183.734 357.526 -183.595 356.728L-178.819 357.496L-178.818 357.497ZM76.6361 517.389L79.3776 521.315C78.6964 521.78 78.0132 522.239 77.3264 522.692L74.6477 518.724C75.3136 518.283 75.9755 517.84 76.6348 517.388L76.6361 517.389ZM-174.52 339.088C-174.746 339.846 -174.966 340.598 -175.176 341.357L-179.849 340.108C-179.63 339.326 -179.404 338.543 -179.17 337.763L-174.521 339.087L-174.52 339.088ZM91.7553 505.743L94.942 509.323C94.3257 509.86 93.7041 510.393 93.0766 510.92L89.9398 507.293C90.5515 506.78 91.1531 506.263 91.7539 505.742L91.7553 505.743ZM-168.073 321.28C-168.387 322.009 -168.694 322.737 -168.997 323.47L-173.48 321.682C-173.17 320.933 -172.853 320.186 -172.532 319.438L-168.073 321.28ZM105.4 492.441L108.993 495.63C108.442 496.233 107.883 496.832 107.324 497.429L103.783 494.185C104.325 493.61 104.866 493.027 105.403 492.441L105.4 492.441ZM-159.566 304.338C-159.965 305.023 -160.352 305.714 -160.737 306.402L-164.978 304.112C-164.585 303.401 -164.18 302.693 -163.774 301.982L-159.566 304.338ZM121.342 480.438L121.235 480.586C120.791 481.2 120.346 481.807 119.893 482.412L115.996 479.593C116.434 479.008 116.865 478.417 117.295 477.822L121.341 480.437L121.342 480.438ZM-152.818 285.348L-148.921 288.169C-149.394 288.802 -149.864 289.444 -150.329 290.086L-150.544 290.383L-154.484 287.619L-154.269 287.323C-153.789 286.66 -153.306 286.003 -152.819 285.35L-152.818 285.348ZM131.857 463.955C131.461 464.664 131.059 465.37 130.652 466.076L126.442 463.732C126.838 463.043 127.232 462.354 127.617 461.663L131.857 463.955ZM-140.235 270.349L-136.693 273.585C-137.236 274.163 -137.777 274.746 -138.314 275.333L-141.903 272.141C-141.353 271.539 -140.794 270.94 -140.235 270.349ZM140.374 446.391C140.063 447.144 139.742 447.894 139.422 448.641L134.967 446.785C135.283 446.062 135.589 445.335 135.891 444.603L140.374 446.391ZM-125.973 256.87L-122.839 260.497C-123.447 261.011 -124.053 261.526 -124.657 262.048L-127.839 258.464C-127.219 257.926 -126.595 257.395 -125.974 256.871L-125.973 256.87ZM146.759 427.975C146.539 428.755 146.311 429.538 146.08 430.32L141.433 428.99C141.66 428.233 141.877 427.477 142.091 426.722L146.759 427.977L146.759 427.975ZM-110.208 245.114L-107.531 249.083C-108.197 249.525 -108.864 249.97 -109.525 250.419L-112.258 246.486C-111.575 246.022 -110.894 245.566 -110.208 245.114ZM150.92 408.966C150.796 409.765 150.662 410.565 150.523 411.364L145.75 410.581C145.882 409.808 146.009 409.034 146.132 408.261L150.92 408.966ZM-93.1643 235.247L-90.9923 239.509C-91.7041 239.863 -92.4092 240.228 -93.1176 240.594L-95.372 236.378C-94.6389 235.994 -93.9049 235.615 -93.1657 235.246L-93.1643 235.247ZM152.815 389.624C152.782 390.432 152.747 391.238 152.704 392.047L147.866 391.823C147.907 391.035 147.941 390.253 147.972 389.467L152.814 389.626L152.815 389.624ZM-75.1064 227.408L-73.4262 231.882C-74.1808 232.159 -74.932 232.442 -75.6801 232.73L-77.4091 228.273C-76.6424 227.982 -75.8753 227.693 -75.1064 227.408ZM152.422 370.207C152.485 371.013 152.543 371.816 152.597 372.623L147.76 372.954C147.71 372.167 147.652 371.382 147.593 370.596L152.422 370.205L152.422 370.207ZM-56.2403 221.679L-55.1174 226.325C-55.8926 226.508 -56.6659 226.704 -57.434 226.9L-58.6377 222.281C-57.8437 222.074 -57.0438 221.873 -56.239 221.68L-56.2403 221.679ZM149.762 350.965C149.916 351.756 150.068 352.551 150.214 353.342L145.45 354.23C145.307 353.455 145.158 352.68 145.004 351.906L149.762 350.965ZM-36.859 218.135L-36.2787 222.875C-37.0682 222.973 -37.8569 223.076 -38.6524 223.189L-39.3026 218.454C-38.4876 218.343 -37.6759 218.234 -36.858 218.133L-36.859 218.135ZM144.859 332.169C145.107 332.94 145.353 333.712 145.593 334.484L140.958 335.901C140.726 335.149 140.488 334.395 140.245 333.644L144.861 332.168L144.859 332.169ZM-17.2031 216.82L-17.1799 221.599C-17.9797 221.606 -18.7765 221.618 -19.5717 221.639L-19.6624 216.861C-18.8426 216.842 -18.0248 216.827 -17.2018 216.821L-17.2031 216.82ZM137.781 314.063C138.122 314.798 138.453 315.537 138.782 316.277L134.346 318.216C134.024 317.494 133.701 316.77 133.37 316.05L137.781 314.061L137.781 314.063ZM2.45743 217.754L1.92267 222.507C1.1319 222.425 0.339147 222.347 -0.449701 222.277L0.0129098 217.516C0.828032 217.592 1.64214 217.67 2.45648 217.755L2.45743 217.754ZM128.612 296.897C129.039 297.591 129.458 298.288 129.873 298.992L125.683 301.41C125.282 300.73 124.874 300.057 124.463 299.38L128.613 296.895L128.612 296.897ZM21.865 220.938L20.7703 225.596C19.9923 225.427 19.2162 225.254 18.4425 225.095L19.4704 220.418C20.2712 220.588 21.0664 220.76 21.865 220.938ZM117.474 280.919C117.98 281.558 118.481 282.2 118.972 282.849L115.096 285.731C114.618 285.107 114.133 284.487 113.646 283.864L117.476 280.92L117.474 280.919ZM40.7623 226.336L39.1228 230.84C38.3708 230.574 37.618 230.319 36.8633 230.065L38.4407 225.543C39.2176 225.799 39.9928 226.067 40.7623 226.336ZM104.514 266.35C105.091 266.923 105.66 267.504 106.228 268.087L102.718 271.4C102.169 270.834 101.615 270.273 101.054 269.717L104.514 266.35ZM58.8789 233.882L56.7176 238.169C56.006 237.822 55.2849 237.482 54.567 237.141L56.668 232.825C57.4071 233.171 58.1473 233.524 58.8789 233.882ZM89.9149 253.378C90.5533 253.883 91.1911 254.392 91.8227 254.906L88.731 258.6C88.1165 258.102 87.5001 257.607 86.8794 257.114L89.9149 253.378ZM75.969 243.458L73.3226 247.472C72.6504 247.045 71.9795 246.626 71.3085 246.206L73.892 242.153C74.5859 242.581 75.2764 243.016 75.9676 243.457L75.969 243.458Z" fill="#2D362E"/>
<path d="M-94.6178 491.9C-34.4904 534.078 49.4659 519.972 92.5343 460.449C135.6 400.93 121.717 318.191 61.5897 276.012C1.46096 233.832 -82.494 247.94 -125.559 307.459C-168.627 366.98 -154.748 449.719 -94.6178 491.9ZM63.0006 274.062C124.216 317.004 138.347 401.232 94.5014 461.829C50.6559 522.426 -34.8149 536.79 -96.0286 493.85C-157.244 450.908 -171.375 366.674 -127.529 306.077C-83.6838 245.48 1.78551 231.12 63.0006 274.062Z" fill="#2D362E"/>
<path d="M179.378 321.956C192.584 362.92 192.168 407.859 178.209 448.489L155.274 440.925C167.587 405.091 167.949 365.449 156.296 329.297L179.378 321.956Z" fill="#2D362E"/>
<path d="M117.29 632.526L133.085 662.051C125.574 665.988 117.802 669.675 109.985 673.01L96.6532 642.317C103.636 639.336 110.581 636.044 117.29 632.526Z" fill="#2D362E"/>
<path d="M-156.425 629.46L-173.157 658.691C-187.25 650.886 -200.994 641.843 -213.755 632.014L-192.765 605.579C-181.349 614.387 -169.037 622.476 -156.427 629.46L-156.425 629.46ZM-245.96 551.77C-237.327 563.269 -227.706 574.203 -217.364 584.265L-241.266 608.174C-252.843 596.912 -263.617 584.671 -273.283 571.794L-245.962 551.77L-245.96 551.77ZM-85.5522 657.094L-93.8135 689.624C-109.608 685.795 -125.222 680.717 -140.218 674.534L-126.994 643.617C-113.6 649.141 -99.6582 653.672 -85.5522 657.094ZM-282.621 485.86C-277.401 499.253 -271.095 512.339 -263.874 524.745L-293.342 541.531C-301.423 527.644 -308.481 513.002 -314.321 498.016L-282.621 485.86ZM-9.65595 665.079L-8.88356 698.565C-25.1752 699.01 -41.6138 698.222 -57.7379 696.218L-53.3264 662.983C-38.9165 664.775 -24.2223 665.48 -9.65595 665.079ZM-300.255 412.599C-298.807 426.887 -296.233 441.172 -292.607 455.059L-325.49 463.571C-329.542 448.043 -332.421 432.069 -334.039 416.096L-300.255 412.599ZM65.8261 652.978L75.5157 685.032C59.9226 689.693 43.8358 693.211 27.7042 695.486L23.0661 662.325C37.4907 660.291 51.8772 657.147 65.8261 652.978Z" fill="#2D362E"/>
<path d="M28.4388 483.17L32.3558 491.899C-6.3798 508.976 -51.8092 504.597 -86.1996 480.471L-80.555 472.67C-48.9404 494.848 -7.17684 498.873 28.4374 483.17L28.4388 483.17Z" fill="#2D362E"/>
<path d="M80.4302 313.961C93.1905 331.152 100.979 351.536 102.956 372.905L93.3052 373.821C91.4834 354.173 84.3241 335.433 72.5988 319.635L80.4292 313.963L80.4302 313.961Z" fill="#2D362E"/>
<path d="M-107.655 509.918C-37.4895 559.139 60.4773 542.673 110.733 473.217C160.988 403.761 144.793 307.214 74.6271 257.993C4.46395 208.775 -93.5084 225.236 -143.763 294.691C-194.019 364.147 -177.82 460.699 -107.655 509.918ZM75.333 257.018C146.041 306.618 162.362 403.916 111.718 473.909C61.0739 543.902 -37.6536 560.494 -108.361 510.894C-179.068 461.294 -195.39 363.995 -144.746 294.002C-94.1022 224.009 4.62671 207.418 75.333 257.018Z" fill="#2D362E"/>
<path d="M-121.55 529.121C-40.6895 585.844 72.2153 566.869 130.132 486.825C188.047 406.783 169.382 295.513 88.5217 238.79C7.66255 182.068 -105.244 201.042 -163.159 281.085C-221.076 361.129 -202.409 472.399 -121.55 529.121ZM89.2276 237.814C170.631 294.918 189.422 406.936 131.117 487.517C72.8109 568.1 -40.8509 587.202 -122.256 530.097C-203.66 472.993 -222.452 360.978 -164.145 280.393C-105.84 199.813 7.82395 180.711 89.2276 237.814Z" fill="#2D362E"/>
<path d="M-157.548 578.872C-48.9731 655.035 102.625 629.561 180.392 522.083C258.157 414.607 233.095 265.201 124.52 189.037C15.9459 112.873 -135.654 138.351 -213.42 245.828C-291.188 353.307 -266.122 502.708 -157.548 578.872ZM125.226 188.062C234.343 264.606 259.534 414.754 181.377 522.772C103.222 630.786 -49.1362 656.39 -158.253 579.846C-267.372 503.3 -292.558 353.15 -214.403 245.136C-136.246 137.119 16.1088 111.517 125.226 188.062Z" fill="#2D362E"/>
<path d="M242.435 488.843C241.737 490.501 241.024 492.152 240.298 493.8L220.302 485.284C220.978 483.76 221.638 482.23 222.282 480.695L242.435 488.843ZM251.768 463.031C250.791 466.221 249.752 469.415 248.675 472.519L228.031 465.657C229.024 462.793 229.981 459.849 230.881 456.908L251.769 463.03L251.768 463.031ZM258.443 436.487C257.803 439.711 257.09 442.979 256.327 446.203L235.081 441.408C235.789 438.431 236.444 435.416 237.037 432.44L258.445 436.487L258.443 436.487ZM262.43 409.418C262.115 412.674 261.735 415.996 261.296 419.292L239.664 416.603C240.068 413.561 240.419 410.493 240.708 407.487L262.429 409.419L262.43 409.418ZM263.686 382.102C263.699 385.417 263.652 388.762 263.546 392.048L241.736 391.465C241.836 388.437 241.88 385.352 241.87 382.295L263.686 382.102ZM262.213 354.807C262.555 358.095 262.842 361.424 263.064 364.709L241.296 366.253C241.09 363.225 240.828 360.149 240.51 357.117L262.214 354.808L262.213 354.807ZM-66.0836 112.234L-62.2582 133.405C-65.2834 133.953 -68.3521 134.563 -71.3889 135.221L-75.9816 114.204C-72.695 113.488 -69.3656 112.827 -66.086 112.234L-66.0836 112.234ZM258.025 327.794C258.689 331.013 259.306 334.299 259.86 337.568L238.337 341.215C237.829 338.196 237.259 335.163 236.648 332.195L258.027 327.795L258.025 327.794ZM-38.5774 108.623L-36.8852 130.077C-39.9549 130.323 -43.0678 130.634 -46.1393 130.998L-48.6236 109.631C-45.293 109.235 -41.9142 108.897 -38.5784 108.624L-38.5774 108.623ZM251.169 301.322C252.152 304.468 253.095 307.681 253.967 310.865L232.903 316.58C232.098 313.64 231.227 310.676 230.317 307.767L251.169 301.322ZM-10.8737 107.694L-11.3097 129.217C-14.4131 129.168 -17.5455 129.177 -20.6201 129.236L-20.9488 107.72C-17.6229 107.654 -14.2293 107.648 -10.8737 107.694ZM241.694 275.646C242.99 278.678 244.25 281.785 245.437 284.883L225.032 292.599C223.935 289.745 222.773 286.882 221.58 284.089L241.692 275.646L241.694 275.646ZM16.7901 109.466L14.1904 130.845C11.1528 130.502 8.03823 130.208 4.93753 129.968L6.75423 108.507C10.1169 108.768 13.4913 109.092 16.7901 109.466ZM229.687 251.02C231.285 253.914 232.85 256.885 234.345 259.845L214.8 269.511C213.423 266.78 211.979 264.045 210.509 261.378L229.687 251.02ZM44.1171 113.924L39.3959 134.96C36.3842 134.319 33.3167 133.718 30.2791 133.182L34.237 111.995C37.5297 112.576 40.8535 113.229 44.1185 113.925L44.1171 113.924ZM215.245 227.691C217.134 230.426 218.997 233.231 220.778 236.024L202.285 247.544C200.647 244.972 198.938 242.392 197.201 239.877L215.245 227.691ZM70.8483 121.042L64.0317 141.519C61.0837 140.577 58.0919 139.682 55.1498 138.854L61.2153 118.15C64.4093 119.047 67.6534 120.019 70.8479 121.04L70.8483 121.042ZM198.507 205.898C200.639 208.402 202.773 211.005 204.851 213.637L187.623 226.926C185.7 224.5 183.733 222.099 181.769 219.792L198.505 205.898L198.507 205.898ZM96.709 130.741L87.8765 150.464C85.0266 149.233 82.1403 148.05 79.3078 146.937L87.4356 126.925C90.5041 128.126 93.626 129.409 96.71 130.739L96.709 130.741ZM179.677 185.905C182.061 188.194 184.443 190.565 186.755 192.957L170.941 207.865C168.808 205.66 166.612 203.469 164.413 201.359L179.678 185.904L179.677 185.905ZM121.454 142.936L110.672 161.702C107.985 160.206 105.241 158.746 102.522 157.359L112.604 138.224C115.558 139.729 118.539 141.314 121.454 142.936ZM158.939 167.863C161.558 169.924 164.166 172.053 166.688 174.189L152.43 190.549C150.105 188.582 147.701 186.619 145.282 184.715L158.94 167.862L158.939 167.863ZM144.848 157.468L132.275 175.119C129.743 173.369 127.155 171.649 124.581 170L136.516 151.925C139.305 153.709 142.108 155.572 144.848 157.465L144.848 157.468Z" fill="#2D362E"/>
<path d="M82.066 554.711L103.487 592.063C56.8922 618.218 2.04828 628.609 -50.938 621.322L-44.7055 578.729C-1.2027 584.709 43.8197 576.177 82.066 554.711Z" fill="#2D362E"/>
<path d="M124.638 188.75C154.815 209.923 179.044 236.811 196.65 268.67L158.304 289.433C143.868 263.32 123.991 241.266 99.22 223.887C78.7736 209.541 56.1675 199.274 32.0285 193.367L42.734 151.564C72.1823 158.772 99.7419 171.28 124.639 188.749L124.638 188.75Z" fill="#2D362E"/>
</g>
</svg>
