<svg width="301" height="337" viewBox="0 0 301 337" fill="none" xmlns="http://www.w3.org/2000/svg">
<path d="M75.0239 297.326C75.0282 297.329 75.032 297.332 75.0352 297.335C75.0321 297.333 75.0289 297.33 75.0259 297.328L75.0239 297.326ZM75.0556 297.35L75.0535 297.348L75.0453 297.342C75.0404 297.334 75.0322 297.321 75.0213 297.301C74.9908 297.244 74.9537 297.157 74.9126 297.034C74.8305 296.789 74.7481 296.451 74.6676 296.037C74.507 295.212 74.3644 294.141 74.242 293.03C74.0532 291.317 73.9157 289.544 73.8328 288.475C73.8081 288.157 73.7882 287.9 73.7733 287.727L73.6675 286.498L72.8877 287.454L70.2009 290.747C48.5805 270.197 42.7261 253.912 32.4782 225.406L32.2266 224.706L31.9589 223.961L31.4013 224.523L16.687 239.336C17.6296 207.793 19.671 180.679 26.6291 149.634L26.8546 148.628L25.925 149.074L0.624736 161.206C4.1885 135.847 6.01693 126.381 16.0859 101.458C18.3524 95.8484 20.7053 90.4182 22.8568 86.0074C25.0199 81.5729 26.9489 78.2348 28.3599 76.7503L28.3724 76.7371L28.3839 76.7231C30.1722 74.5453 31.9344 73.826 34.8028 72.8194C41.9398 70.7201 49.1867 68.8563 56.5078 67.2554L56.8197 67.1872L56.889 66.8755C59.0969 56.9494 64.6804 45.2137 71.3797 33.8543C78.0015 22.6264 85.6926 11.8007 92.2317 3.50767C93.0827 3.78249 93.9331 4.05605 94.7828 4.32936C100.336 6.1157 105.857 7.89179 111.315 9.94408L111.619 10.0586L111.847 9.82666L120.935 0.586206C157.326 14.8955 185.574 31.1856 213.784 58.0376L214.277 58.507L214.577 57.896L222.748 41.2764C224.171 42.5522 225.603 43.821 227.036 45.0902C232.957 50.3362 238.887 55.5893 244.191 61.3788L244.618 61.8457L244.973 61.3213L249.751 54.2643C258.871 62.535 264.56 68.5108 269.149 75.398C273.813 82.3957 277.356 90.3567 282.192 102.67C290.908 124.86 290.472 136.989 289.888 153.253C289.672 159.258 289.436 165.826 289.633 173.673C289.828 181.464 290.838 186.326 292.016 189.457C293.201 192.607 294.549 193.985 295.357 194.806C296.818 196.292 297.859 197.47 298.642 198.775C299.421 200.074 299.958 201.522 300.37 203.56C300.545 204.424 300.546 205.669 300.359 207.192C300.174 208.706 299.807 210.465 299.268 212.341C298.19 216.095 296.431 220.289 294.09 223.911C291.639 227.702 288.602 230.911 285.491 234.198C284.752 234.979 284.008 235.765 283.267 236.564L283.087 236.758L283.147 237.016C283.628 239.104 284.262 241.696 284.98 244.633C286.773 251.96 289.092 261.443 290.884 270.652C292.139 277.1 293.131 283.392 293.5 288.694C293.684 291.344 293.712 293.737 293.542 295.77C293.372 297.811 293.005 299.456 292.423 300.633C290.861 303.796 287.297 308.217 282.69 312.837C278.094 317.447 272.498 322.217 266.91 326.082C256.76 333.103 250.04 335.809 243.162 336.38C237.638 336.838 231.998 335.927 224.345 334.69C222.589 334.406 220.727 334.105 218.736 333.8L225.04 318.546L225.183 318.2L224.891 317.965C222.535 316.073 218.982 313.413 215.052 310.471C212.298 308.41 209.36 306.21 206.519 304.04C203.065 301.4 199.749 298.799 197.066 296.529C194.367 294.245 192.354 292.333 191.462 291.065C179.156 273.558 170.128 263.74 163.645 259.721C160.402 257.712 157.692 257.088 155.491 257.818C153.282 258.551 151.767 260.585 150.77 263.451C148.779 269.173 148.689 278.671 149.69 289.867C150.677 300.894 152.733 313.654 155.151 326.254C137.172 324.166 124.599 322.332 112.863 318.377C100.997 314.378 89.9598 308.201 75.0556 297.35Z" stroke="#566A47"/>
<path d="M245.666 86.8126C242.179 91.9277 238.166 96.6403 233.647 101.281L233.302 101.636L232.944 101.294C229.48 97.9853 224.33 93.9821 218.951 89.9372C217.383 88.7581 215.796 87.5756 214.227 86.4067C210.426 83.5746 206.732 80.8226 203.681 78.3938C197.116 73.1805 180.906 62.1231 161.119 50.6818C141.437 39.3019 118.251 27.5619 97.5295 20.8175C95.2149 23.8838 89.3678 33.5495 83.9376 42.9178C81.1413 47.742 78.4643 52.472 76.4517 56.1534C75.4452 57.9945 74.6066 59.5703 74.0027 60.7632C73.7006 61.3601 73.4592 61.8573 73.2855 62.242C73.2711 62.2739 73.2572 62.3048 73.244 62.3348C87.9409 61.6171 104.691 63.1155 119.728 65.9606C135.013 68.8526 148.591 73.1478 156.449 77.9615L156.097 78.8795C117.805 71.7826 76.898 75.9128 39.127 87.0055C38.7339 87.4656 38.1518 88.4333 37.418 89.8546C36.6406 91.3604 35.7212 93.3174 34.7136 95.5808C32.6989 100.107 30.3405 105.837 28.0738 111.59C25.8073 117.341 23.6343 123.111 21.9903 127.713C21.1681 130.014 20.4793 132.02 19.9774 133.586C19.6887 134.486 19.4664 135.227 19.3155 135.79C29.0259 131.181 39.1311 127.158 49.5176 123.767C69.4157 115.81 96.8187 111.424 124.087 110.925C150.846 110.435 177.538 113.687 196.937 121.024C193.341 112.897 187.234 103.519 182.465 98.738L183.113 97.9807C183.756 98.4489 184.392 98.9181 185.02 99.3872L185.021 99.3875C185.649 99.8574 186.27 100.326 186.885 100.797L186.886 100.797C187.5 101.267 188.108 101.737 188.709 102.209C189.31 102.68 189.903 103.151 190.491 103.622C191.079 104.094 191.658 104.566 192.232 105.038C192.807 105.511 193.373 105.984 193.933 106.456L193.934 106.457C194.494 106.93 195.047 107.403 195.595 107.876C196.143 108.35 196.683 108.825 197.217 109.298C197.752 109.771 198.279 110.246 198.801 110.72L198.802 110.721C199.322 111.195 199.838 111.669 200.347 112.143C200.857 112.618 201.36 113.094 201.856 113.568L201.511 113.93L201.856 113.568C202.354 114.044 202.844 114.519 203.329 114.994C203.813 115.47 204.292 115.945 204.764 116.421C205.236 116.897 205.703 117.372 206.163 117.848C206.624 118.324 207.079 118.799 207.528 119.275C207.977 119.75 208.42 120.226 208.858 120.702C209.296 121.178 209.727 121.653 210.154 122.129C210.581 122.605 211.001 123.081 211.416 123.556C211.832 124.032 212.241 124.508 212.646 124.984C213.05 125.46 213.448 125.935 213.842 126.409C214.237 126.885 214.625 127.361 215.007 127.835C215.39 128.31 215.768 128.785 216.141 129.26C216.513 129.734 216.881 130.209 217.243 130.683L217.243 130.683C217.605 131.157 217.963 131.631 218.315 132.105C218.669 132.579 219.016 133.053 219.358 133.525L219.359 133.526C219.701 134 220.039 134.472 220.372 134.945C220.704 135.418 221.033 135.891 221.356 136.363C221.679 136.834 221.999 137.306 222.313 137.778C222.627 138.25 222.937 138.721 223.242 139.192C223.547 139.662 223.848 140.133 224.144 140.603L224.145 140.603C224.44 141.073 224.733 141.542 225.02 142.011L225.02 142.012C225.308 142.481 225.591 142.95 225.87 143.417L225.87 143.418C226.15 143.887 226.424 144.354 226.694 144.82L226.695 144.821C226.966 145.289 227.232 145.755 227.494 146.221L227.494 146.221C227.757 146.687 228.016 147.152 228.271 147.618C228.525 148.083 228.776 148.548 229.023 149.012C229.269 149.476 229.513 149.939 229.752 150.402L229.752 150.402C229.991 150.866 230.226 151.327 230.458 151.789C230.69 152.25 230.918 152.711 231.143 153.171C231.368 153.632 231.588 154.09 231.806 154.55C232.023 155.009 232.238 155.467 232.449 155.925C232.659 156.382 232.866 156.838 233.07 157.293L233.071 157.294C233.275 157.75 233.476 158.204 233.673 158.659C233.87 159.113 234.065 159.566 234.256 160.019C234.447 160.471 234.636 160.922 234.821 161.374C235.005 161.825 235.187 162.275 235.366 162.724L235.367 162.724C235.545 163.172 235.721 163.621 235.895 164.068C235.895 164.068 235.895 164.068 235.895 164.069L235.429 164.249C235.603 164.695 235.771 165.14 235.939 165.584C236.107 166.029 236.272 166.471 236.433 166.914L245.666 86.8126ZM245.666 86.8126C251.046 93.5424 256.096 104.214 259.834 115.267C263.669 126.606 266.098 138.27 266.108 146.382C266.112 149.889 265.989 153.389 265.866 156.893L265.848 157.405C265.719 161.077 265.597 164.752 265.63 168.423C265.697 175.765 266.384 183.112 268.891 190.443C272.045 199.663 275.263 203.602 277.314 205.978C277.396 206.072 277.475 206.164 277.552 206.253C277.957 206.72 278.294 207.11 278.569 207.473C278.894 207.902 279.104 208.26 279.217 208.613C279.43 209.28 279.335 210.066 278.59 211.507C278.268 212.13 277.555 213.158 276.627 214.421C276.083 215.161 275.479 215.965 274.852 216.799C274.414 217.382 273.965 217.979 273.518 218.58C272.436 220.032 271.375 221.492 270.549 222.756C270.137 223.387 269.779 223.977 269.506 224.496C269.354 224.785 269.222 225.063 269.122 225.322M245.666 86.8126L269.122 225.322M269.122 225.322C267.926 224.878 266.821 224.498 265.745 224.127C263.981 223.519 262.292 222.938 260.397 222.145C260.982 221.846 261.564 221.619 262.13 221.418C262.349 221.341 262.57 221.266 262.79 221.191C263.387 220.989 263.973 220.791 264.474 220.552C265.181 220.216 265.809 219.764 266.195 219.013C266.576 218.271 266.681 217.314 266.513 216.046C266.453 215.601 266.398 215.162 266.344 214.73C266.213 213.681 266.087 212.678 265.921 211.747C265.686 210.425 265.362 209.198 264.797 208.106L264.234 207.017L263.875 208.189C263.63 208.988 263.465 210.219 263.302 211.435C263.264 211.721 263.226 212.005 263.187 212.283C263.082 213.032 262.97 213.746 262.832 214.346C262.69 214.962 262.535 215.392 262.375 215.62C262.197 215.875 261.781 216.223 261.161 216.623C260.557 217.011 259.815 217.415 259.047 217.792C257.622 218.491 256.158 219.074 255.37 219.302C253.197 218.045 251.031 216.141 249.328 214.444C248.109 213.228 247.609 212.615 247.422 212.025C247.239 211.446 247.335 210.829 247.613 209.476C248.557 204.873 249.349 198.588 249.247 192.386C249.145 186.2 248.154 180.02 245.467 175.686L244.865 174.714L244.561 175.817L242.266 184.135C242.209 183.919 242.153 183.703 242.096 183.487C241.987 183.072 241.875 182.657 241.764 182.242L241.764 182.242C241.652 181.826 241.538 181.408 241.423 180.99C241.319 180.61 241.212 180.23 241.106 179.851L241.072 179.73L241.072 179.729C240.953 179.308 240.833 178.886 240.711 178.462C240.589 178.037 240.465 177.613 240.339 177.186C240.213 176.761 240.086 176.333 239.955 175.904C239.825 175.476 239.694 175.047 239.559 174.615L239.559 174.614C239.425 174.185 239.29 173.752 239.151 173.319M269.122 225.322L237.382 168.07C237.382 168.07 237.382 168.07 237.382 168.07C237.539 168.51 237.693 168.951 237.845 169.391M239.151 173.319C239.151 173.319 239.151 173.319 239.151 173.319L238.675 173.471L239.151 173.319ZM239.151 173.319C239.013 172.886 238.873 172.452 238.729 172.015M238.729 172.015C238.587 171.58 238.442 171.143 238.295 170.706M238.729 172.015C238.73 172.016 238.73 172.016 238.73 172.016L238.255 172.172L238.729 172.015ZM238.295 170.706C238.147 170.269 237.998 169.831 237.845 169.391M238.295 170.706C238.295 170.706 238.295 170.707 238.295 170.707L237.821 170.867L238.295 170.706ZM237.845 169.391C237.845 169.391 237.846 169.392 237.846 169.392L237.373 169.555L237.845 169.391ZM79.8405 195.654C85.997 192.276 91.0957 189.13 95.7021 186.287C96.3164 185.908 96.922 185.534 97.5202 185.166C102.608 182.035 107.153 179.312 112.009 177.076C121.393 172.755 131.977 170.238 149.868 170.239C131.741 181.322 113.378 196.026 98.578 212.817C83.6178 229.79 72.2725 248.925 68.5249 268.633C67.9372 267.922 67.2569 266.931 66.5012 265.693C65.4525 263.975 64.2799 261.818 63.0333 259.355C60.5403 254.43 57.7624 248.306 55.1013 242.078C49.8794 229.857 45.1307 217.29 43.865 212.625C53.0326 203.389 69.3479 188.275 87.7256 177.208C87.4237 177.592 87.1149 178.001 86.8013 178.431C85.4818 180.239 84.0313 182.472 82.5835 184.793C81.3881 186.709 80.1974 188.68 79.0802 190.53C77.4784 193.182 76.0277 195.584 74.9307 197.215L75.5761 197.938C77.0548 197.17 78.4738 196.408 79.8405 195.654ZM79.8405 195.654C79.8402 195.654 79.8399 195.654 79.8397 195.654L79.5992 195.216L79.8406 195.654C79.8406 195.654 79.8405 195.654 79.8405 195.654ZM75.3456 197.494C75.6529 197.334 75.9576 197.175 76.2597 197.016M75.3456 197.494C75.5249 197.227 75.7137 196.94 75.9112 196.634L76.2597 197.016M75.3456 197.494L75.7605 197.773C75.9195 197.537 76.0862 197.284 76.2597 197.016M75.3456 197.494L76.2597 197.016M150.687 169.741C151.003 169.742 151.323 169.745 151.644 169.747C151.371 169.911 151.098 170.076 150.825 170.242L150.687 169.741Z" stroke="#566A47"/>
<path d="M249.147 250.324H249.544L249.634 249.937C250.327 246.941 249.843 243.089 248.614 239.47C247.385 235.848 245.382 232.376 242.954 230.155L242.599 229.83L242.261 230.172C241.208 231.237 239.732 232.237 237.165 232.996L236.257 233.264L236.99 233.863C238.628 235.2 240.808 238.013 242.975 241.15C245.13 244.27 247.234 247.654 248.719 250.085L248.865 250.324H249.146H249.147ZM226.099 187.576C225.2 185.936 225.299 183.958 225.799 181.577C228.693 184.929 231.203 189.752 232.684 193.512C232.352 193.238 231.993 192.943 231.618 192.637C231.032 192.157 230.409 191.648 229.805 191.143C228.939 190.419 228.101 189.698 227.427 189.061C226.737 188.408 226.273 187.893 226.099 187.576L226.099 187.576ZM233.792 195.09L233.767 195.099L233.792 195.09ZM249.167 319.368C245.508 321.123 242.232 322.091 239.731 321.933C242.201 315.837 246.557 303.438 247.609 297.397C248.608 291.664 247.501 285.043 245.058 278.128C242.613 271.205 238.815 263.946 234.385 256.916C225.744 243.203 214.663 230.31 206.41 222.421C208.829 221.665 210.972 221.058 213.387 220.727C216.064 220.36 219.094 220.331 223.203 220.84C231.423 221.857 243.912 225.017 266.453 231.875C266.462 231.889 266.473 231.907 266.486 231.929C266.539 232.023 266.604 232.159 266.678 232.342C266.827 232.706 267.001 233.216 267.195 233.86C267.583 235.145 268.044 236.923 268.553 239.049C269.571 243.297 270.775 248.904 271.971 254.665C272.908 259.179 273.842 263.793 274.676 267.918C275.968 274.303 277.023 279.518 277.49 281.383C277.546 281.608 277.608 281.854 277.675 282.118C278.075 283.692 278.639 285.914 279.016 288.089C279.237 289.358 279.391 290.596 279.414 291.666C279.437 292.753 279.321 293.599 279.058 294.131C278.099 296.074 275.802 298.889 272.676 302.018C269.563 305.134 265.667 308.522 261.555 311.608C257.441 314.695 253.123 317.47 249.167 319.368Z" fill="#566A47" stroke="#566A47"/>
<mask id="path-4-inside-1_2217_211" fill="white">
<path fill-rule="evenodd" clip-rule="evenodd" d="M247.394 290.782C246.186 287.824 243.6 284.494 242.162 282.232C230.353 263.658 212.727 247.657 190.26 239.065C190.288 241.254 210.78 271.85 214.005 276.874C215.362 272.758 215.172 269.882 213.565 263.67C216.511 266.72 224.933 285.079 225.303 299.89C221.728 297.019 204.491 284.646 203.245 282.875C191.688 266.435 174.896 243.988 157.363 231.773C158.9 229.572 177.654 214.526 181.675 214.178C211.041 211.633 222.052 213.114 249.861 224.263C254.048 225.942 260.459 228.256 264.438 230.517C264.104 230.492 263.796 230.472 263.468 230.449C262.16 230.055 260.887 229.673 259.65 229.305L259.589 229.287C258.983 229.107 258.386 228.93 257.798 228.756L257.743 228.739C257.185 228.575 256.634 228.413 256.091 228.254L255.857 228.186C255.309 228.026 254.769 227.869 254.237 227.714L254.229 227.712C253.661 227.547 253.099 227.385 252.547 227.226L252.529 227.221C251.98 227.063 251.44 226.908 250.908 226.757L250.873 226.746C248.181 225.98 245.686 225.29 243.367 224.671L243.336 224.663C233.115 221.933 226.328 220.576 221.238 220.127L221.229 220.126C221.002 220.106 220.78 220.089 220.56 220.072L220.542 220.071C220.33 220.056 220.12 220.042 219.914 220.03L219.869 220.026C219.672 220.015 219.479 220.005 219.288 219.996L219.213 219.992C219.03 219.984 218.849 219.978 218.669 219.972L218.579 219.968C218.399 219.963 218.221 219.959 218.045 219.957L217.973 219.956C217.802 219.954 217.633 219.953 217.465 219.954H217.366C217.205 219.955 217.047 219.957 216.89 219.96L216.781 219.962C216.628 219.965 216.478 219.97 216.329 219.976L216.211 219.98C216.065 219.986 215.92 219.992 215.776 220L215.656 220.006C215.514 220.014 215.373 220.023 215.233 220.034L215.113 220.043C214.975 220.053 214.839 220.064 214.704 220.076L214.585 220.088C214.452 220.1 214.319 220.113 214.188 220.127L214.053 220.141C213.926 220.156 213.8 220.17 213.675 220.186L213.552 220.201C213.424 220.218 213.297 220.235 213.172 220.252L213.041 220.272C212.92 220.289 212.8 220.307 212.681 220.327L212.542 220.349C212.424 220.368 212.306 220.388 212.19 220.409L212.05 220.434C211.936 220.455 211.823 220.476 211.709 220.498L211.566 220.526C211.45 220.549 211.334 220.573 211.219 220.596L211.097 220.623C210.984 220.647 210.869 220.671 210.756 220.697L210.596 220.734C210.49 220.758 210.384 220.782 210.278 220.808L210.123 220.845C210.017 220.871 209.912 220.896 209.807 220.923L209.633 220.968L209.342 221.043L209.141 221.097C209.048 221.122 208.955 221.147 208.862 221.172L208.704 221.216C208.595 221.246 208.485 221.277 208.375 221.308L208.283 221.335C208.156 221.371 208.029 221.408 207.902 221.445L207.753 221.489L207.432 221.585L207.414 221.59C207.266 221.635 207.118 221.68 206.969 221.726L206.932 221.737L206.47 221.879L206.445 221.887L205.964 222.038L205.952 222.042L205.451 222.2C205.7 222.435 205.952 222.674 206.208 222.919L206.441 223.145C206.614 223.312 206.787 223.479 206.962 223.648L207.307 223.988C207.452 224.131 207.598 224.273 207.744 224.419C207.86 224.533 207.975 224.65 208.092 224.766C208.243 224.916 208.393 225.068 208.546 225.221L208.901 225.58L209.361 226.049L209.72 226.418L210.178 226.892L210.548 227.278C210.71 227.447 210.872 227.619 211.035 227.79L211.382 228.157C211.553 228.339 211.725 228.523 211.897 228.707C212.008 228.825 212.117 228.942 212.229 229.061C212.409 229.255 212.591 229.453 212.772 229.649C212.88 229.767 212.989 229.883 213.097 230.002C213.378 230.309 213.66 230.62 213.945 230.934L213.954 230.944L214.079 231.084C214.32 231.351 214.563 231.621 214.805 231.893C214.947 232.053 215.089 232.215 215.231 232.376C215.379 232.542 215.525 232.707 215.672 232.875C215.812 233.034 215.952 233.195 216.093 233.355C216.252 233.538 216.411 233.72 216.57 233.904C216.711 234.066 216.852 234.23 216.994 234.394C217.141 234.565 217.288 234.737 217.436 234.909C217.591 235.089 217.745 235.271 217.901 235.453L218.318 235.947C218.477 236.135 218.635 236.323 218.795 236.512L219.213 237.014C219.369 237.201 219.526 237.389 219.681 237.579C219.827 237.754 219.972 237.931 220.117 238.108C220.265 238.288 220.414 238.469 220.562 238.65C220.722 238.847 220.883 239.046 221.044 239.244C221.183 239.416 221.322 239.587 221.46 239.76C221.596 239.93 221.733 240.101 221.869 240.272C222.516 241.083 223.164 241.905 223.808 242.738L224.088 243.1C224.265 243.33 224.442 243.562 224.619 243.793C224.737 243.948 224.855 244.101 224.973 244.257C225.143 244.481 225.313 244.708 225.482 244.932C225.605 245.096 225.729 245.259 225.852 245.424C226.022 245.653 226.193 245.883 226.364 246.113L226.715 246.587C226.89 246.824 227.063 247.062 227.237 247.301L227.587 247.782C227.755 248.013 227.922 248.244 228.088 248.476L228.45 248.982C228.618 249.217 228.786 249.453 228.952 249.689L229.279 250.154C229.456 250.406 229.633 250.658 229.809 250.912C229.905 251.05 230 251.188 230.095 251.327C230.28 251.595 230.465 251.863 230.648 252.133L230.853 252.435C231.792 253.818 232.712 255.216 233.606 256.622C233.679 256.736 233.752 256.851 233.825 256.965C234.003 257.246 234.179 257.528 234.354 257.81L234.599 258.202C234.769 258.477 234.938 258.753 235.106 259.029L235.368 259.458C235.531 259.725 235.691 259.994 235.852 260.263L236.118 260.709C236.279 260.983 236.441 261.257 236.601 261.53L236.833 261.929C236.997 262.213 237.161 262.498 237.323 262.782C237.397 262.913 237.47 263.043 237.544 263.174C237.708 263.463 237.871 263.753 238.03 264.042L238.206 264.363C238.379 264.676 238.551 264.988 238.72 265.302L238.794 265.442C239.598 266.938 240.36 268.433 241.076 269.923C241.119 270.013 241.164 270.104 241.207 270.195C241.348 270.491 241.486 270.787 241.624 271.083C241.68 271.205 241.738 271.327 241.794 271.448C241.926 271.734 242.054 272.02 242.182 272.306L242.354 272.693C242.478 272.974 242.6 273.254 242.721 273.534L242.889 273.929C243.008 274.208 243.124 274.487 243.238 274.766C243.292 274.897 243.344 275.027 243.398 275.157C243.511 275.438 243.624 275.719 243.734 276C243.781 276.121 243.827 276.242 243.874 276.363C243.986 276.652 244.096 276.941 244.204 277.229C244.24 277.326 244.274 277.424 244.311 277.523C244.425 277.835 244.539 278.148 244.647 278.458L244.661 278.495C245.052 279.616 245.406 280.726 245.723 281.823C245.736 281.866 245.749 281.909 245.761 281.952C245.846 282.249 245.926 282.545 246.005 282.841C246.031 282.941 246.059 283.04 246.085 283.139C246.158 283.416 246.225 283.691 246.293 283.967C246.322 284.085 246.351 284.203 246.379 284.321C246.44 284.583 246.499 284.843 246.556 285.102C246.584 285.234 246.613 285.364 246.641 285.494C246.694 285.749 246.745 286.001 246.793 286.253C246.819 286.384 246.842 286.515 246.867 286.645C246.913 286.899 246.958 287.152 246.999 287.404C247.019 287.526 247.038 287.649 247.056 287.771C247.096 288.029 247.134 288.285 247.168 288.539C247.184 288.653 247.197 288.767 247.211 288.881C247.244 289.143 247.276 289.404 247.302 289.665C247.312 289.756 247.319 289.846 247.328 289.937C247.355 290.218 247.381 290.498 247.401 290.776V290.78L247.394 290.782ZM213.096 230.003C213.377 230.31 213.659 230.621 213.944 230.935L213.096 230.003ZM235.624 208.367C232.546 205.457 227.151 197.878 225.415 194.708C223.184 190.639 223.254 184.599 225.523 180.525C228.968 184.176 231.932 190.006 233.464 194.153C231.91 189.937 229.056 184.167 225.523 180.525C224.855 183.326 224.545 185.782 225.66 187.817C226.529 189.401 232.272 193.685 233.81 195.14C235.117 199.042 236.509 205.378 235.624 208.367Z"/>
</mask>
<path d="M247.394 290.782L246.469 291.16L246.822 292.025L247.709 291.731L247.394 290.782ZM242.162 282.232L241.318 282.769H241.318L242.162 282.232ZM190.26 239.065L190.617 238.131L189.242 237.605L189.26 239.078L190.26 239.065ZM214.005 276.874L213.164 277.414L214.297 279.18L214.955 277.187L214.005 276.874ZM213.565 263.67L214.285 262.975L211.646 260.243L212.597 263.92L213.565 263.67ZM225.303 299.89L224.677 300.67L226.357 302.019L226.303 299.865L225.303 299.89ZM203.245 282.875L202.427 283.45L202.427 283.451L203.245 282.875ZM157.363 231.773L156.543 231.201L155.97 232.022L156.791 232.594L157.363 231.773ZM181.675 214.178L181.762 215.175L181.762 215.175L181.675 214.178ZM249.861 224.263L250.233 223.335L250.233 223.335L249.861 224.263ZM264.438 230.517L264.366 231.514L264.932 229.647L264.438 230.517ZM263.468 230.449L263.18 231.406L263.286 231.438L263.397 231.446L263.468 230.449ZM259.65 229.305L259.364 230.263L259.365 230.264L259.65 229.305ZM259.589 229.287L259.875 228.329L259.874 228.328L259.589 229.287ZM257.798 228.756L258.081 227.797L258.08 227.797L257.798 228.756ZM257.743 228.739L257.459 229.698L257.46 229.699L257.743 228.739ZM256.091 228.254L256.371 227.294L256.37 227.294L256.091 228.254ZM255.857 228.186L255.576 229.146L255.577 229.146L255.857 228.186ZM254.237 227.714L254.515 226.754L254.51 226.752L254.237 227.714ZM254.229 227.712L253.951 228.672L253.956 228.674L254.229 227.712ZM252.547 227.226L252.825 226.265L252.812 226.261L252.547 227.226ZM252.529 227.221L252.252 228.182L252.263 228.185L252.529 227.221ZM250.908 226.757L250.627 227.716L250.634 227.718L250.908 226.757ZM250.873 226.746L251.154 225.787L251.147 225.785L250.873 226.746ZM243.367 224.671L243.625 223.705L243.624 223.704L243.367 224.671ZM243.336 224.663L243.078 225.629L243.08 225.629L243.336 224.663ZM221.238 220.127L221.128 221.121L221.139 221.122L221.15 221.123L221.238 220.127ZM221.229 220.126L221.339 219.132L221.328 219.131L221.318 219.13L221.229 220.126ZM220.56 220.072L220.634 219.075L220.626 219.074L220.618 219.074L220.56 220.072ZM220.542 220.071L220.471 221.069L220.484 221.07L220.542 220.071ZM219.914 220.03L219.846 221.027L219.855 221.028L219.914 220.03ZM219.869 220.026L219.936 219.029L219.925 219.028L219.869 220.026ZM219.288 219.996L219.233 220.994L219.24 220.995L219.288 219.996ZM219.213 219.992L219.267 218.993L219.257 218.993L219.213 219.992ZM218.669 219.972L218.635 220.971L218.635 220.971L218.669 219.972ZM218.579 219.968L218.613 218.969L218.607 218.969L218.579 219.968ZM218.045 219.957L218.031 220.957L218.033 220.957L218.045 219.957ZM217.973 219.956L217.988 218.956L217.985 218.956L217.973 219.956ZM217.465 219.954V220.954L217.471 220.954L217.465 219.954ZM217.366 219.954V218.954L217.36 218.954L217.366 219.954ZM216.89 219.96L216.909 220.96L216.91 220.96L216.89 219.96ZM216.781 219.962L216.762 218.963L216.761 218.963L216.781 219.962ZM216.329 219.976L216.295 218.976L216.294 218.976L216.329 219.976ZM216.211 219.98L216.177 218.98L216.169 218.981L216.211 219.98ZM215.776 220L215.827 220.999L215.832 220.998L215.776 220ZM215.656 220.006L215.605 219.007L215.599 219.008L215.656 220.006ZM215.233 220.034L215.16 219.036L215.158 219.036L215.233 220.034ZM215.113 220.043L215.186 221.04L215.189 221.04L215.113 220.043ZM214.704 220.076L214.614 219.08L214.61 219.081L214.704 220.076ZM214.585 220.088L214.676 221.083L214.679 221.083L214.585 220.088ZM214.188 220.127L214.293 221.122L214.296 221.121L214.188 220.127ZM214.053 220.141L213.948 219.147L213.942 219.148L214.053 220.141ZM213.675 220.186L213.798 221.179L213.804 221.178L213.675 220.186ZM213.552 220.201L213.429 219.209L213.426 219.209L213.552 220.201ZM213.172 220.252L213.035 219.262L213.026 219.263L213.172 220.252ZM213.041 220.272L213.183 221.262L213.187 221.261L213.041 220.272ZM212.681 220.327L212.84 221.314L212.84 221.314L212.681 220.327ZM212.542 220.349L212.383 219.362L212.379 219.362L212.542 220.349ZM212.19 220.409L212.368 221.393L212.37 221.393L212.19 220.409ZM212.05 220.434L212.226 221.419L212.228 221.418L212.05 220.434ZM211.709 220.498L211.524 219.515L211.514 219.517L211.709 220.498ZM211.566 220.526L211.371 219.545L211.367 219.546L211.566 220.526ZM211.219 220.596L211.019 219.616L211.007 219.619L211.219 220.596ZM211.097 220.623L211.308 221.6L211.31 221.6L211.097 220.623ZM210.756 220.697L210.537 219.721L210.532 219.722L210.756 220.697ZM210.596 220.734L210.82 221.708L210.82 221.708L210.596 220.734ZM210.278 220.808L210.044 219.836L210.043 219.836L210.278 220.808ZM210.123 220.845L210.358 221.818L210.358 221.817L210.123 220.845ZM209.807 220.923L209.563 219.953L209.557 219.954L209.807 220.923ZM209.633 220.968L209.384 219.999L209.382 220L209.633 220.968ZM209.342 221.043L209.092 220.075L209.084 220.077L209.342 221.043ZM209.141 221.097L208.882 220.131L208.877 220.132L209.141 221.097ZM208.862 221.172L208.598 220.207L208.594 220.209L208.862 221.172ZM208.704 221.216L208.437 220.252L208.436 220.253L208.704 221.216ZM208.375 221.308L208.1 220.347L208.099 220.347L208.375 221.308ZM208.283 221.335L208.007 220.374L208.005 220.374L208.283 221.335ZM207.902 221.445L207.625 220.484L207.615 220.487L207.902 221.445ZM207.753 221.489L208.039 222.448L208.04 222.447L207.753 221.489ZM207.432 221.585L207.699 222.549L207.708 222.546L207.717 222.544L207.432 221.585ZM207.414 221.59L207.147 220.626L207.135 220.63L207.123 220.633L207.414 221.59ZM206.969 221.726L207.259 222.682L207.262 222.682L206.969 221.726ZM206.932 221.737L206.641 220.78L206.637 220.781L206.932 221.737ZM206.47 221.879L206.175 220.924L206.165 220.927L206.155 220.93L206.47 221.879ZM206.445 221.887L206.744 222.842L206.752 222.839L206.759 222.837L206.445 221.887ZM205.964 222.038L205.665 221.084L205.657 221.086L205.649 221.089L205.964 222.038ZM205.952 222.042L206.252 222.996L206.26 222.993L206.267 222.991L205.952 222.042ZM205.451 222.2L205.151 221.246L203.523 221.758L204.765 222.928L205.451 222.2ZM206.208 222.919L206.904 222.201L206.9 222.197L206.208 222.919ZM206.441 223.145L205.745 223.863L205.746 223.864L206.441 223.145ZM206.962 223.648L207.663 222.935L207.658 222.931L206.962 223.648ZM207.307 223.988L206.606 224.701L206.607 224.702L207.307 223.988ZM207.744 224.419L207.039 225.128L207.042 225.131L207.744 224.419ZM208.092 224.766L208.797 224.057L208.092 224.766ZM208.546 225.221L209.257 224.518L209.256 224.517L208.546 225.221ZM208.901 225.58L209.614 224.88L209.612 224.878L208.901 225.58ZM209.361 226.049L210.077 225.351L210.075 225.349L209.361 226.049ZM209.72 226.418L210.439 225.723L210.436 225.72L209.72 226.418ZM210.178 226.892L210.9 226.2L210.897 226.197L210.178 226.892ZM210.548 227.278L211.271 226.587L211.271 226.587L210.548 227.278ZM211.035 227.79L211.761 227.103L211.76 227.101L211.035 227.79ZM211.382 228.157L212.111 227.472L212.108 227.469L211.382 228.157ZM211.897 228.707L211.166 229.389L211.167 229.39L211.897 228.707ZM212.229 229.061L212.962 228.381L212.959 228.377L212.229 229.061ZM212.772 229.649L213.508 228.973L213.507 228.971L212.772 229.649ZM213.097 230.002L212.358 230.675L212.359 230.677L213.097 230.002ZM213.945 230.934L213.203 231.605L213.204 231.606L213.945 230.934ZM213.954 230.944L214.699 230.277L214.695 230.272L213.954 230.944ZM214.079 231.084L213.334 231.751L213.336 231.753L214.079 231.084ZM214.805 231.893L214.058 232.558L214.058 232.558L214.805 231.893ZM215.231 232.376L214.482 233.038L214.484 233.04L215.231 232.376ZM215.672 232.875L214.92 233.535L214.923 233.537L215.672 232.875ZM216.093 233.355L215.339 234.012L215.34 234.014L216.093 233.355ZM216.57 233.904L215.814 234.559L215.817 234.561L216.57 233.904ZM216.994 234.394L216.236 235.047L216.994 234.394ZM217.436 234.909L218.196 234.258L218.194 234.256L217.436 234.909ZM217.901 235.453L218.664 234.808L218.661 234.804L217.901 235.453ZM218.318 235.947L219.083 235.303L219.082 235.301L218.318 235.947ZM218.795 236.512L219.563 235.872L219.559 235.868L218.795 236.512ZM219.213 237.014L218.445 237.654L218.446 237.655L219.213 237.014ZM219.681 237.579L218.909 238.213L218.912 238.217L219.681 237.579ZM220.117 238.108L219.344 238.742L219.345 238.743L220.117 238.108ZM220.562 238.65L221.338 238.019L221.336 238.016L220.562 238.65ZM221.044 239.244L221.821 238.615L221.821 238.615L221.044 239.244ZM221.46 239.76L220.678 240.384L220.679 240.385L221.46 239.76ZM221.869 240.272L221.087 240.894L221.088 240.896L221.869 240.272ZM223.808 242.738L223.017 243.35L223.017 243.35L223.808 242.738ZM224.088 243.1L224.881 242.49L224.879 242.488L224.088 243.1ZM224.619 243.793L225.415 243.188L225.413 243.185L224.619 243.793ZM224.973 244.257L224.175 244.86L224.176 244.861L224.973 244.257ZM225.482 244.932L226.283 244.333L226.28 244.33L225.482 244.932ZM225.852 245.424L225.049 246.021L225.05 246.022L225.852 245.424ZM226.364 246.113L227.168 245.518L227.167 245.516L226.364 246.113ZM226.715 246.587L227.519 245.993L227.519 245.992L226.715 246.587ZM227.237 247.301L228.046 246.713L228.046 246.713L227.237 247.301ZM227.587 247.782L228.396 247.195L228.396 247.194L227.587 247.782ZM228.088 248.476L228.901 247.894L228.9 247.892L228.088 248.476ZM228.45 248.982L229.264 248.401L229.263 248.4L228.45 248.982ZM228.952 249.689L229.771 249.114L229.769 249.112L228.952 249.689ZM229.279 250.154L230.097 249.58L230.097 249.579L229.279 250.154ZM229.809 250.912L228.987 251.482L228.987 251.482L229.809 250.912ZM230.095 251.327L229.271 251.893L229.271 251.894L230.095 251.327ZM230.648 252.133L231.476 251.572L231.475 251.571L230.648 252.133ZM230.853 252.435L230.025 252.995L230.025 252.996L230.853 252.435ZM233.606 256.622L232.762 257.159L232.763 257.16L233.606 256.622ZM233.825 256.965L234.669 256.43L234.668 256.428L233.825 256.965ZM234.354 257.81L233.504 258.337L233.506 258.34L234.354 257.81ZM234.599 258.202L235.45 257.677L235.447 257.672L234.599 258.202ZM235.106 259.029L235.96 258.508L235.959 258.506L235.106 259.029ZM235.368 259.458L236.223 258.939L236.222 258.937L235.368 259.458ZM235.852 260.263L236.711 259.751L236.71 259.75L235.852 260.263ZM236.118 260.709L236.979 260.201L236.977 260.198L236.118 260.709ZM236.601 261.53L237.465 261.027L237.464 261.027L236.601 261.53ZM236.833 261.929L237.698 261.427L237.697 261.426L236.833 261.929ZM237.323 262.782L238.192 262.287L238.192 262.287L237.323 262.782ZM237.544 263.174L238.415 262.682L238.414 262.68L237.544 263.174ZM238.03 264.042L238.907 263.561L238.906 263.559L238.03 264.042ZM238.206 264.363L237.33 264.844L237.331 264.846L238.206 264.363ZM238.72 265.302L239.603 264.832L239.6 264.828L238.72 265.302ZM238.794 265.442L237.911 265.912L237.913 265.916L238.794 265.442ZM241.076 269.923L241.98 269.494L241.977 269.49L241.076 269.923ZM241.207 270.195L240.303 270.623L240.304 270.625L241.207 270.195ZM241.624 271.083L242.532 270.664L242.53 270.66L241.624 271.083ZM241.794 271.448L242.702 271.029L242.701 271.027L241.794 271.448ZM242.182 272.306L243.095 271.898L243.094 271.897L242.182 272.306ZM242.354 272.693L243.27 272.29L243.268 272.286L242.354 272.693ZM242.721 273.534L243.64 273.141L243.639 273.138L242.721 273.534ZM242.889 273.929L243.809 273.538L243.809 273.537L242.889 273.929ZM243.238 274.766L242.313 275.146L242.314 275.147L243.238 274.766ZM243.398 275.157L244.325 274.783L244.323 274.779L243.398 275.157ZM243.734 276L244.666 275.638L244.665 275.634L243.734 276ZM243.874 276.363L244.807 276.003L244.806 276.001L243.874 276.363ZM244.204 277.229L243.267 277.578L243.268 277.582L244.204 277.229ZM244.311 277.523L245.25 277.179L245.248 277.173L244.311 277.523ZM244.647 278.458L243.703 278.788L243.704 278.791L244.647 278.458ZM244.661 278.495L245.605 278.165L245.604 278.163L244.661 278.495ZM245.723 281.823L246.684 281.547L246.684 281.546L245.723 281.823ZM245.761 281.952L246.723 281.677L246.722 281.676L245.761 281.952ZM246.005 282.841L245.038 283.098L245.038 283.098L246.005 282.841ZM246.085 283.139L247.053 282.885L247.051 282.879L246.085 283.139ZM246.293 283.967L247.265 283.731L247.264 283.729L246.293 283.967ZM246.379 284.321L245.405 284.549L245.405 284.55L246.379 284.321ZM246.556 285.102L247.533 284.889L247.532 284.887L246.556 285.102ZM246.641 285.494L247.62 285.29L247.619 285.287L246.641 285.494ZM246.793 286.253L245.811 286.44L245.812 286.444L246.793 286.253ZM246.867 286.645L247.851 286.467L247.849 286.46L246.867 286.645ZM246.999 287.404L246.012 287.564L246.012 287.569L246.999 287.404ZM247.056 287.771L246.067 287.92L246.068 287.924L247.056 287.771ZM247.168 288.539L248.16 288.406L248.159 288.404L247.168 288.539ZM247.211 288.881L248.204 288.757L248.204 288.756L247.211 288.881ZM247.302 289.665L248.297 289.565L248.297 289.563L247.302 289.665ZM247.328 289.937L248.324 289.843L248.323 289.837L247.328 289.937ZM247.401 290.776H248.401V290.741L248.398 290.706L247.401 290.776ZM247.401 290.78L247.715 291.729L248.401 291.502V290.78H247.401ZM213.096 230.003L213.834 229.328L212.356 230.676L213.096 230.003ZM213.944 230.935L213.204 231.608L214.685 230.264L213.944 230.935ZM235.624 208.367L234.937 209.094L236.12 210.212L236.583 208.651L235.624 208.367ZM225.415 194.708L226.292 194.228L226.292 194.228L225.415 194.708ZM225.523 180.525L226.241 179.829L225.304 178.863L224.65 180.038L225.523 180.525ZM233.464 194.153L232.526 194.499L234.402 193.807L233.464 194.153ZM225.66 187.817L224.783 188.297L224.783 188.297L225.66 187.817ZM233.81 195.14L234.759 194.822L234.679 194.585L234.498 194.413L233.81 195.14ZM248.32 290.403C247.677 288.831 246.684 287.192 245.7 285.696C244.673 284.136 243.735 282.843 243.006 281.696L241.318 282.769C242.027 283.884 243.101 285.386 244.029 286.796C244.999 288.269 245.903 289.775 246.469 291.16L248.32 290.403ZM243.006 281.696C231.097 262.965 213.31 246.81 190.617 238.131L189.903 239.999C212.143 248.504 229.608 264.351 241.318 282.769L243.006 281.696ZM189.26 239.078C189.263 239.301 189.323 239.514 189.37 239.661C189.424 239.827 189.497 240.009 189.581 240.199C189.749 240.579 189.986 241.049 190.276 241.587C190.857 242.665 191.683 244.076 192.674 245.708C194.657 248.976 197.328 253.172 200.094 257.449C205.65 266.04 211.539 274.883 213.164 277.414L214.847 276.334C213.247 273.841 207.277 264.873 201.773 256.363C199.01 252.09 196.351 247.913 194.383 244.671C193.399 243.048 192.594 241.671 192.036 240.637C191.757 240.119 191.548 239.702 191.411 239.392C191.342 239.236 191.298 239.121 191.273 239.043C191.241 238.945 191.259 238.965 191.26 239.052L189.26 239.078ZM214.955 277.187C215.664 275.036 215.98 273.169 215.896 271.019C215.813 268.897 215.341 266.54 214.533 263.42L212.597 263.92C213.397 267.012 213.823 269.199 213.897 271.097C213.971 272.968 213.703 274.596 213.055 276.561L214.955 277.187ZM212.846 264.365C213.467 265.008 214.489 266.604 215.698 268.986C216.889 271.33 218.214 274.338 219.462 277.716C221.963 284.488 224.122 292.664 224.304 299.915L226.303 299.865C226.114 292.305 223.877 283.896 221.338 277.023C220.066 273.579 218.71 270.5 217.482 268.08C216.272 265.699 215.136 263.857 214.285 262.975L212.846 264.365ZM225.929 299.111C224.124 297.661 218.888 293.825 213.999 290.169C211.544 288.333 209.17 286.537 207.333 285.091C206.414 284.368 205.637 283.738 205.055 283.238C204.435 282.705 204.133 282.4 204.063 282.3L202.427 283.451C202.668 283.793 203.178 284.262 203.752 284.756C204.366 285.283 205.168 285.932 206.096 286.663C207.953 288.125 210.345 289.933 212.802 291.771C217.737 295.462 222.907 299.249 224.677 300.67L225.929 299.111ZM204.063 282.3C192.517 265.876 175.633 243.283 157.934 230.953L156.791 232.594C174.158 244.693 190.859 266.994 202.427 283.45L204.063 282.3ZM158.183 232.346C158.305 232.171 158.686 231.765 159.366 231.131C160.018 230.523 160.879 229.764 161.891 228.907C163.913 227.194 166.513 225.108 169.192 223.078C171.872 221.046 174.617 219.082 176.933 217.609C178.092 216.871 179.128 216.266 179.985 215.839C180.879 215.393 181.464 215.2 181.762 215.175L181.589 213.182C180.881 213.243 180.001 213.597 179.093 214.049C178.149 214.52 177.048 215.165 175.859 215.921C173.48 217.435 170.686 219.435 167.983 221.484C165.279 223.534 162.65 225.643 160.598 227.381C159.573 228.25 158.685 229.031 158.002 229.668C157.346 230.28 156.805 230.825 156.543 231.201L158.183 232.346ZM181.762 215.175C196.426 213.904 206.426 213.646 216.208 215.075C225.988 216.503 235.606 219.625 249.489 225.191L250.233 223.335C236.308 217.752 226.515 214.559 216.497 213.096C206.479 211.633 196.291 211.908 181.589 213.182L181.762 215.175ZM249.489 225.191C253.745 226.897 260.043 229.17 263.945 231.386L264.932 229.647C260.875 227.342 254.352 224.986 250.233 223.335L249.489 225.191ZM264.511 229.52C264.179 229.495 263.857 229.474 263.539 229.451L263.397 231.446C263.735 231.47 264.029 231.49 264.366 231.514L264.511 229.52ZM263.756 229.491C262.447 229.097 261.174 228.715 259.935 228.347L259.365 230.264C260.601 230.632 261.872 231.013 263.18 231.406L263.756 229.491ZM259.936 228.347L259.875 228.329L259.302 230.245L259.364 230.263L259.936 228.347ZM259.874 228.328C259.268 228.148 258.67 227.971 258.081 227.797L257.514 229.715C258.102 229.889 258.699 230.065 259.304 230.245L259.874 228.328ZM258.08 227.797L258.025 227.78L257.46 229.699L257.515 229.715L258.08 227.797ZM258.026 227.781C257.467 227.615 256.915 227.453 256.371 227.294L255.81 229.214C256.353 229.373 256.903 229.534 257.459 229.698L258.026 227.781ZM256.37 227.294L256.136 227.226L255.577 229.146L255.811 229.214L256.37 227.294ZM256.137 227.226C255.59 227.066 255.049 226.908 254.515 226.754L253.958 228.674C254.49 228.829 255.029 228.986 255.576 229.146L256.137 227.226ZM254.51 226.752L254.503 226.75L253.956 228.674L253.963 228.676L254.51 226.752ZM254.508 226.751C253.939 226.587 253.376 226.424 252.825 226.265L252.269 228.186C252.823 228.346 253.382 228.508 253.951 228.672L254.508 226.751ZM252.812 226.261L252.794 226.256L252.263 228.185L252.282 228.19L252.812 226.261ZM252.805 226.259C252.256 226.102 251.715 225.947 251.181 225.795L250.634 227.718C251.166 227.87 251.705 228.024 252.252 228.182L252.805 226.259ZM251.189 225.797L251.154 225.787L250.592 227.706L250.627 227.716L251.189 225.797ZM251.147 225.785C248.45 225.017 245.95 224.326 243.625 223.705L243.109 225.637C245.421 226.255 247.912 226.943 250.599 227.708L251.147 225.785ZM243.624 223.704L243.593 223.696L243.08 225.629L243.11 225.637L243.624 223.704ZM243.594 223.697C233.357 220.963 226.504 219.587 221.326 219.131L221.15 221.123C226.153 221.564 232.873 222.903 243.078 225.629L243.594 223.697ZM221.348 219.133L221.339 219.132L221.119 221.12L221.128 221.121L221.348 219.133ZM221.318 219.13C221.084 219.109 220.856 219.091 220.634 219.075L220.486 221.07C220.704 221.086 220.92 221.102 221.139 221.122L221.318 219.13ZM220.618 219.074L220.601 219.073L220.484 221.07L220.501 221.071L220.618 219.074ZM220.614 219.074C220.399 219.058 220.185 219.044 219.972 219.031L219.855 221.028C220.055 221.04 220.26 221.054 220.471 221.069L220.614 219.074ZM219.981 219.032L219.936 219.029L219.801 221.024L219.846 221.027L219.981 219.032ZM219.925 219.028C219.726 219.017 219.53 219.006 219.335 218.997L219.24 220.995C219.428 221.004 219.618 221.014 219.812 221.025L219.925 219.028ZM219.342 218.997L219.267 218.993L219.158 220.99L219.233 220.994L219.342 218.997ZM219.257 218.993C219.068 218.984 218.882 218.978 218.703 218.972L218.635 220.971C218.816 220.977 218.992 220.983 219.168 220.991L219.257 218.993ZM218.703 218.972L218.613 218.969L218.545 220.968L218.635 220.971L218.703 218.972ZM218.607 218.969C218.424 218.964 218.24 218.959 218.057 218.957L218.033 220.957C218.202 220.959 218.374 220.963 218.551 220.968L218.607 218.969ZM218.059 218.957L217.988 218.956L217.959 220.956L218.031 220.957L218.059 218.957ZM217.985 218.956C217.81 218.954 217.635 218.953 217.459 218.954L217.471 220.954C217.631 220.953 217.793 220.954 217.962 220.956L217.985 218.956ZM217.465 218.954H217.366V220.954H217.465V218.954ZM217.36 218.954C217.195 218.955 217.032 218.957 216.871 218.961L216.91 220.96C217.062 220.957 217.216 220.955 217.372 220.954L217.36 218.954ZM216.872 218.96L216.762 218.963L216.799 220.962L216.909 220.96L216.872 218.96ZM216.761 218.963C216.6 218.966 216.443 218.971 216.295 218.976L216.363 220.975C216.513 220.97 216.657 220.965 216.801 220.962L216.761 218.963ZM216.294 218.976L216.177 218.98L216.246 220.979L216.363 220.975L216.294 218.976ZM216.169 218.981C216.024 218.987 215.872 218.993 215.719 219.002L215.832 220.998C215.968 220.991 216.106 220.985 216.253 220.979L216.169 218.981ZM215.725 219.001L215.605 219.007L215.707 221.005L215.827 220.999L215.725 219.001ZM215.599 219.008C215.452 219.016 215.305 219.026 215.16 219.036L215.306 221.031C215.44 221.021 215.576 221.012 215.713 221.004L215.599 219.008ZM215.158 219.036L215.037 219.046L215.189 221.04L215.309 221.031L215.158 219.036ZM215.039 219.045C214.896 219.056 214.754 219.068 214.614 219.08L214.794 221.072C214.923 221.061 215.054 221.05 215.186 221.04L215.039 219.045ZM214.61 219.081L214.491 219.092L214.679 221.083L214.798 221.072L214.61 219.081ZM214.494 219.092C214.356 219.104 214.217 219.118 214.08 219.133L214.296 221.121C214.421 221.108 214.548 221.095 214.676 221.083L214.494 219.092ZM214.083 219.133L213.948 219.147L214.158 221.136L214.293 221.122L214.083 219.133ZM213.942 219.148C213.816 219.162 213.681 219.177 213.545 219.195L213.804 221.178C213.919 221.163 214.036 221.15 214.165 221.135L213.942 219.148ZM213.551 219.194L213.429 219.209L213.676 221.194L213.798 221.179L213.551 219.194ZM213.426 219.209C213.293 219.226 213.161 219.244 213.035 219.262L213.308 221.243C213.433 221.226 213.556 221.209 213.678 221.193L213.426 219.209ZM213.026 219.263L212.895 219.282L213.187 221.261L213.318 221.242L213.026 219.263ZM212.899 219.282C212.772 219.3 212.646 219.319 212.521 219.339L212.84 221.314C212.954 221.295 213.068 221.278 213.183 221.262L212.899 219.282ZM212.522 219.339L212.383 219.362L212.7 221.336L212.84 221.314L212.522 219.339ZM212.379 219.362C212.263 219.381 212.137 219.402 212.01 219.425L212.37 221.393C212.476 221.373 212.584 221.355 212.704 221.336L212.379 219.362ZM212.011 219.425L211.871 219.451L212.228 221.418L212.368 221.393L212.011 219.425ZM211.873 219.45C211.755 219.471 211.637 219.494 211.524 219.515L211.894 221.48C212.008 221.459 212.118 221.438 212.226 221.419L211.873 219.45ZM211.514 219.517L211.371 219.545L211.761 221.507L211.904 221.478L211.514 219.517ZM211.367 219.546C211.254 219.569 211.135 219.593 211.019 219.616L211.419 221.576C211.533 221.553 211.646 221.53 211.764 221.506L211.367 219.546ZM211.007 219.619L210.885 219.645L211.31 221.6L211.432 221.573L211.007 219.619ZM210.887 219.645C210.776 219.669 210.656 219.694 210.537 219.721L210.975 221.673C211.083 221.648 211.192 221.625 211.308 221.6L210.887 219.645ZM210.532 219.722L210.373 219.759L210.82 221.708L210.98 221.672L210.532 219.722ZM210.373 219.759C210.267 219.783 210.155 219.809 210.044 219.836L210.513 221.78C210.612 221.756 210.713 221.733 210.82 221.708L210.373 219.759ZM210.043 219.836L209.888 219.874L210.358 221.817L210.514 221.78L210.043 219.836ZM209.888 219.873C209.784 219.899 209.674 219.925 209.563 219.953L210.05 221.893C210.151 221.868 210.251 221.843 210.358 221.818L209.888 219.873ZM209.557 219.954L209.384 219.999L209.882 221.936L210.056 221.891L209.557 219.954ZM209.382 220L209.092 220.075L209.593 222.011L209.884 221.936L209.382 220ZM209.084 220.077L208.882 220.131L209.4 222.063L209.601 222.009L209.084 220.077ZM208.877 220.132C208.834 220.144 208.79 220.156 208.743 220.168C208.697 220.181 208.648 220.194 208.598 220.207L209.125 222.137C209.169 222.125 209.213 222.113 209.26 222.1C209.306 222.088 209.355 222.075 209.405 222.061L208.877 220.132ZM208.594 220.209L208.437 220.252L208.972 222.179L209.13 222.136L208.594 220.209ZM208.436 220.253C208.327 220.283 208.214 220.314 208.1 220.347L208.65 222.27C208.757 222.239 208.863 222.21 208.973 222.179L208.436 220.253ZM208.099 220.347L208.007 220.374L208.559 222.296L208.651 222.269L208.099 220.347ZM208.005 220.374C207.942 220.392 207.879 220.411 207.815 220.429C207.752 220.447 207.688 220.466 207.625 220.484L208.18 222.405C208.243 222.387 208.307 222.369 208.37 222.351C208.434 222.332 208.497 222.314 208.56 222.296L208.005 220.374ZM207.615 220.487L207.466 220.532L208.04 222.447L208.19 222.403L207.615 220.487ZM207.468 220.531L207.147 220.627L207.717 222.544L208.039 222.448L207.468 220.531ZM207.165 220.621L207.147 220.626L207.68 222.554L207.699 222.549L207.165 220.621ZM207.123 220.633C206.978 220.677 206.826 220.723 206.676 220.769L207.262 222.682C207.41 222.636 207.555 222.592 207.704 222.547L207.123 220.633ZM206.678 220.769L206.641 220.78L207.222 222.694L207.259 222.682L206.678 220.769ZM206.637 220.781L206.175 220.924L206.764 222.835L207.226 222.692L206.637 220.781ZM206.155 220.93L206.131 220.938L206.759 222.837L206.784 222.829L206.155 220.93ZM206.146 220.933L205.665 221.084L206.263 222.992L206.744 222.842L206.146 220.933ZM205.649 221.089L205.637 221.093L206.267 222.991L206.279 222.987L205.649 221.089ZM205.652 221.088L205.151 221.246L205.751 223.154L206.252 222.996L205.652 221.088ZM204.765 222.928C205.013 223.161 205.262 223.398 205.516 223.641L206.9 222.197C206.642 221.95 206.388 221.709 206.137 221.472L204.765 222.928ZM205.512 223.637L205.745 223.863L207.137 222.426L206.904 222.201L205.512 223.637ZM205.746 223.864C205.919 224.031 206.091 224.197 206.265 224.366L207.658 222.931C207.482 222.76 207.308 222.592 207.135 222.425L205.746 223.864ZM206.261 224.362L206.606 224.701L208.008 223.275L207.663 222.935L206.261 224.362ZM206.607 224.702C206.753 224.845 206.895 224.985 207.039 225.128L208.449 223.71C208.3 223.561 208.152 223.416 208.007 223.274L206.607 224.702ZM207.042 225.131C207.158 225.245 207.259 225.348 207.386 225.474L208.797 224.057C208.691 223.951 208.561 223.82 208.446 223.707L207.042 225.131ZM207.386 225.474C207.535 225.622 207.683 225.771 207.836 225.926L209.256 224.517C209.104 224.364 208.951 224.21 208.797 224.057L207.386 225.474ZM207.834 225.924L208.189 226.283L209.612 224.878L209.257 224.518L207.834 225.924ZM208.187 226.281L208.647 226.75L210.075 225.349L209.614 224.88L208.187 226.281ZM208.645 226.747L209.004 227.116L210.436 225.72L210.077 225.351L208.645 226.747ZM209.001 227.113L209.459 227.587L210.897 226.197L210.439 225.723L209.001 227.113ZM209.456 227.583L209.826 227.97L211.271 226.587L210.9 226.2L209.456 227.583ZM209.826 227.97C209.986 228.138 210.145 228.305 210.311 228.48L211.76 227.101C211.6 226.933 211.434 226.757 211.271 226.587L209.826 227.97ZM210.309 228.478L210.656 228.844L212.108 227.469L211.761 227.103L210.309 228.478ZM210.652 228.841C210.824 229.023 210.995 229.206 211.166 229.389L212.628 228.025C212.456 227.839 212.282 227.654 212.111 227.472L210.652 228.841ZM211.167 229.39C211.277 229.508 211.387 229.625 211.499 229.745L212.959 228.377C212.847 228.259 212.738 228.142 212.627 228.024L211.167 229.39ZM211.495 229.741C211.674 229.934 211.855 230.13 212.036 230.327L213.507 228.971C213.326 228.775 213.143 228.577 212.962 228.381L211.495 229.741ZM212.035 230.326C212.154 230.455 212.249 230.556 212.358 230.675L213.836 229.329C213.728 229.21 213.606 229.08 213.508 228.973L212.035 230.326ZM212.359 230.677C212.639 230.983 212.92 231.292 213.203 231.605L214.686 230.263C214.401 229.947 214.117 229.636 213.835 229.327L212.359 230.677ZM213.204 231.606L213.213 231.616L214.695 230.272L214.686 230.262L213.204 231.606ZM213.209 231.611L213.334 231.751L214.824 230.417L214.699 230.277L213.209 231.611ZM213.336 231.753C213.577 232.02 213.818 232.288 214.058 232.558L215.552 231.229C215.308 230.954 215.063 230.682 214.821 230.414L213.336 231.753ZM214.058 232.558C214.199 232.717 214.337 232.874 214.482 233.038L215.98 231.713C215.841 231.556 215.695 231.39 215.552 231.229L214.058 232.558ZM214.484 233.04C214.629 233.204 214.774 233.368 214.92 233.535L216.424 232.216C216.275 232.047 216.128 231.879 215.979 231.712L214.484 233.04ZM214.923 233.537C215.06 233.693 215.198 233.851 215.339 234.012L216.846 232.698C216.707 232.538 216.564 232.375 216.422 232.213L214.923 233.537ZM215.34 234.014C215.499 234.195 215.656 234.376 215.814 234.559L217.326 233.249C217.165 233.064 217.006 232.88 216.845 232.696L215.34 234.014ZM215.817 234.561C215.955 234.72 216.092 234.88 216.236 235.047L217.751 233.741C217.613 233.581 217.468 233.411 217.324 233.246L215.817 234.561ZM216.236 235.047C216.378 235.211 216.534 235.393 216.679 235.562L218.194 234.256C218.043 234.081 217.904 233.919 217.751 233.741L216.236 235.047ZM216.677 235.56C216.831 235.739 216.981 235.917 217.14 236.103L218.661 234.804C218.509 234.626 218.351 234.439 218.196 234.258L216.677 235.56ZM217.137 236.099L217.554 236.592L219.082 235.301L218.664 234.808L217.137 236.099ZM217.553 236.591C217.712 236.779 217.87 236.968 218.03 237.157L219.559 235.868C219.4 235.679 219.241 235.491 219.083 235.303L217.553 236.591ZM218.027 237.153L218.445 237.654L219.981 236.374L219.563 235.872L218.027 237.153ZM218.446 237.655C218.601 237.841 218.756 238.027 218.909 238.213L220.454 236.944C220.296 236.752 220.138 236.561 219.98 236.373L218.446 237.655ZM218.912 238.217C219.055 238.39 219.198 238.565 219.344 238.742L220.89 237.473C220.745 237.297 220.598 237.118 220.451 236.94L218.912 238.217ZM219.345 238.743C219.492 238.922 219.64 239.102 219.788 239.284L221.336 238.016C221.187 237.835 221.038 237.653 220.889 237.472L219.345 238.743ZM219.786 239.281C219.946 239.477 220.106 239.675 220.266 239.873L221.821 238.615C221.661 238.417 221.499 238.217 221.338 238.019L219.786 239.281ZM220.266 239.873C220.408 240.048 220.543 240.214 220.678 240.384L222.241 239.136C222.101 238.96 221.958 238.784 221.821 238.615L220.266 239.873ZM220.679 240.385C220.816 240.556 220.952 240.725 221.087 240.894L222.651 239.649C222.514 239.477 222.376 239.304 222.241 239.135L220.679 240.385ZM221.088 240.896C221.732 241.703 222.376 242.521 223.017 243.35L224.599 242.126C223.951 241.288 223.301 240.462 222.65 239.648L221.088 240.896ZM223.017 243.35L223.297 243.712L224.879 242.488L224.599 242.126L223.017 243.35ZM223.296 243.71C223.472 243.939 223.647 244.168 223.825 244.401L225.413 243.185C225.238 242.956 225.059 242.721 224.881 242.49L223.296 243.71ZM223.823 244.398C223.949 244.563 224.057 244.703 224.175 244.86L225.771 243.654C225.654 243.499 225.525 243.332 225.415 243.188L223.823 244.398ZM224.176 244.861C224.346 245.085 224.51 245.304 224.684 245.535L226.28 244.33C226.115 244.111 225.939 243.876 225.77 243.653L224.176 244.861ZM224.682 245.532C224.812 245.706 224.926 245.855 225.049 246.021L226.654 244.827C226.532 244.663 226.398 244.486 226.283 244.333L224.682 245.532ZM225.05 246.022C225.22 246.25 225.39 246.479 225.561 246.709L227.167 245.516C226.996 245.287 226.825 245.056 226.653 244.826L225.05 246.022ZM225.56 246.707L225.911 247.182L227.519 245.992L227.168 245.518L225.56 246.707ZM225.91 247.18C226.083 247.415 226.255 247.651 226.429 247.889L228.046 246.713C227.871 246.473 227.696 246.233 227.519 245.993L225.91 247.18ZM226.428 247.889L226.778 248.37L228.396 247.194L228.046 246.713L226.428 247.889ZM226.778 248.37C226.945 248.599 227.11 248.829 227.276 249.06L228.9 247.892C228.733 247.659 228.565 247.427 228.396 247.195L226.778 248.37ZM227.275 249.058L227.637 249.564L229.263 248.4L228.901 247.894L227.275 249.058ZM227.636 249.563C227.803 249.797 227.97 250.031 228.136 250.266L229.769 249.112C229.601 248.874 229.433 248.637 229.264 248.401L227.636 249.563ZM228.134 250.263L228.46 250.728L230.097 249.579L229.771 249.114L228.134 250.263ZM228.46 250.728C228.637 250.981 228.813 251.231 228.987 251.482L230.63 250.341C230.452 250.086 230.274 249.832 230.097 249.58L228.46 250.728ZM228.987 251.482C229.082 251.618 229.175 251.755 229.271 251.893L230.919 250.76C230.824 250.622 230.728 250.482 230.63 250.341L228.987 251.482ZM229.271 251.894C229.458 252.165 229.64 252.428 229.821 252.694L231.475 251.571C231.29 251.298 231.102 251.026 230.918 250.759L229.271 251.894ZM229.82 252.693L230.025 252.995L231.681 251.874L231.476 251.572L229.82 252.693ZM230.025 252.996C230.959 254.372 231.874 255.762 232.762 257.159L234.45 256.086C233.55 254.671 232.624 253.265 231.68 251.873L230.025 252.996ZM232.763 257.16C232.799 257.217 232.836 257.275 232.873 257.332C232.909 257.39 232.946 257.446 232.981 257.503L234.668 256.428C234.631 256.37 234.595 256.312 234.558 256.255C234.521 256.198 234.485 256.141 234.449 256.085L232.763 257.16ZM232.98 257.501C233.156 257.778 233.33 258.056 233.504 258.337L235.203 257.282C235.028 256.999 234.85 256.714 234.669 256.43L232.98 257.501ZM233.506 258.34L233.751 258.732L235.447 257.672L235.202 257.28L233.506 258.34ZM233.748 258.728C233.917 259.001 234.084 259.275 234.253 259.551L235.959 258.506C235.791 258.231 235.621 257.954 235.45 257.677L233.748 258.728ZM234.253 259.549L234.514 259.979L236.222 258.937L235.96 258.508L234.253 259.549ZM234.514 259.977C234.674 260.241 234.833 260.507 234.994 260.776L236.71 259.75C236.55 259.481 236.387 259.21 236.223 258.939L234.514 259.977ZM234.993 260.774L235.259 261.221L236.977 260.198L236.711 259.751L234.993 260.774ZM235.257 261.218C235.418 261.492 235.579 261.763 235.737 262.034L237.464 261.027C237.303 260.75 237.14 260.474 236.979 260.201L235.257 261.218ZM235.736 262.033L235.968 262.432L237.697 261.426L237.465 261.027L235.736 262.033ZM235.968 262.431C236.131 262.712 236.293 262.995 236.454 263.276L238.192 262.287C238.029 262.001 237.864 261.714 237.698 261.427L235.968 262.431ZM236.453 263.276C236.489 263.34 236.525 263.403 236.562 263.469C236.599 263.534 236.637 263.601 236.675 263.669L238.414 262.68C238.378 262.617 238.342 262.553 238.305 262.487C238.268 262.422 238.23 262.355 238.192 262.287L236.453 263.276ZM236.674 263.667C236.837 263.954 236.997 264.241 237.155 264.526L238.906 263.559C238.744 263.266 238.58 262.973 238.415 262.682L236.674 263.667ZM237.154 264.524L237.33 264.844L239.083 263.882L238.907 263.561L237.154 264.524ZM237.331 264.846C237.503 265.159 237.673 265.467 237.839 265.776L239.6 264.828C239.429 264.51 239.255 264.193 239.082 263.88L237.331 264.846ZM237.837 265.771L237.911 265.912L239.677 264.973L239.603 264.832L237.837 265.771ZM237.913 265.916C238.71 267.399 239.466 268.881 240.175 270.356L241.977 269.49C241.255 267.986 240.486 266.477 239.675 264.969L237.913 265.916ZM240.173 270.351C240.196 270.402 240.22 270.451 240.242 270.496C240.264 270.542 240.284 270.583 240.303 270.623L242.11 269.766C242.087 269.716 242.063 269.666 242.041 269.622C242.019 269.576 241.999 269.535 241.979 269.494L240.173 270.351ZM240.304 270.625C240.443 270.916 240.58 271.209 240.718 271.505L242.53 270.66C242.393 270.365 242.253 270.065 242.11 269.764L240.304 270.625ZM240.716 271.501C240.773 271.625 240.833 271.753 240.887 271.869L242.701 271.027C242.642 270.901 242.588 270.785 242.532 270.664L240.716 271.501ZM240.886 271.867C241.015 272.147 241.14 272.427 241.269 272.714L243.094 271.897C242.967 271.612 242.837 271.321 242.702 271.029L240.886 271.867ZM241.268 272.713L241.441 273.1L243.268 272.286L243.095 271.898L241.268 272.713ZM241.439 273.097C241.562 273.374 241.682 273.652 241.802 273.93L243.639 273.138C243.517 272.856 243.395 272.574 243.27 272.29L241.439 273.097ZM241.801 273.926L241.969 274.322L243.809 273.537L243.64 273.141L241.801 273.926ZM241.969 274.321C242.085 274.594 242.199 274.869 242.313 275.146L244.163 274.386C244.048 274.105 243.93 273.822 243.809 273.538L241.969 274.321ZM242.314 275.147C242.368 275.278 242.415 275.395 242.472 275.535L244.323 274.779C244.274 274.659 244.217 274.516 244.162 274.384L242.314 275.147ZM242.471 275.532C242.583 275.811 242.695 276.089 242.804 276.366L244.665 275.634C244.553 275.349 244.439 275.065 244.325 274.783L242.471 275.532ZM242.802 276.362C242.825 276.421 242.847 276.479 242.871 276.54C242.894 276.6 242.918 276.663 242.942 276.725L244.806 276.001C244.784 275.942 244.761 275.883 244.738 275.823C244.714 275.762 244.69 275.7 244.666 275.638L242.802 276.362ZM242.941 276.723C243.052 277.01 243.161 277.295 243.267 277.578L245.141 276.879C245.031 276.587 244.919 276.294 244.807 276.003L242.941 276.723ZM243.268 277.582C243.321 277.723 243.309 277.697 243.374 277.872L245.248 277.173C245.24 277.151 245.159 276.93 245.139 276.876L243.268 277.582ZM243.372 277.867C243.486 278.178 243.598 278.485 243.703 278.788L245.591 278.128C245.48 277.81 245.365 277.492 245.25 277.179L243.372 277.867ZM243.704 278.791L243.718 278.828L245.604 278.163L245.59 278.125L243.704 278.791ZM243.717 278.826C244.102 279.929 244.451 281.021 244.763 282.101L246.684 281.546C246.362 280.43 246.002 279.303 245.605 278.165L243.717 278.826ZM244.762 282.099C244.77 282.127 244.778 282.154 244.784 282.174C244.791 282.196 244.796 282.212 244.8 282.228L246.722 281.676C246.714 281.648 246.706 281.621 246.7 281.601C246.694 281.579 246.689 281.563 246.684 281.547L244.762 282.099ZM244.8 282.226C244.882 282.514 244.96 282.803 245.038 283.098L246.971 282.584C246.892 282.286 246.81 281.983 246.723 281.677L244.8 282.226ZM245.038 283.098C245.064 283.196 245.097 283.313 245.12 283.399L247.051 282.879C247.021 282.767 246.998 282.685 246.971 282.583L245.038 283.098ZM245.118 283.393C245.188 283.66 245.254 283.928 245.322 284.205L247.264 283.729C247.197 283.455 247.128 283.171 247.053 282.885L245.118 283.393ZM245.321 284.203C245.353 284.332 245.379 284.436 245.405 284.549L247.353 284.093C247.324 283.971 247.291 283.838 247.265 283.731L245.321 284.203ZM245.405 284.55C245.465 284.805 245.522 285.06 245.579 285.318L247.532 284.887C247.475 284.626 247.415 284.36 247.352 284.093L245.405 284.55ZM245.579 285.316C245.608 285.449 245.636 285.575 245.662 285.702L247.619 285.287C247.591 285.153 247.561 285.018 247.533 284.889L245.579 285.316ZM245.662 285.699C245.714 285.949 245.764 286.196 245.811 286.44L247.775 286.066C247.726 285.806 247.674 285.548 247.62 285.29L245.662 285.699ZM245.812 286.444C245.837 286.573 245.857 286.689 245.884 286.83L247.849 286.46C247.827 286.34 247.801 286.196 247.775 286.062L245.812 286.444ZM245.883 286.823C245.929 287.076 245.972 287.321 246.012 287.564L247.986 287.244C247.943 286.982 247.897 286.722 247.851 286.467L245.883 286.823ZM246.012 287.569C246.031 287.681 246.048 287.795 246.067 287.92L248.045 287.622C248.027 287.503 248.007 287.371 247.985 287.239L246.012 287.569ZM246.068 287.924C246.107 288.177 246.144 288.427 246.178 288.675L248.159 288.404C248.124 288.142 248.085 287.88 248.044 287.618L246.068 287.924ZM246.177 288.673C246.192 288.782 246.203 288.879 246.219 289.006L248.204 288.756C248.191 288.655 248.176 288.525 248.16 288.406L246.177 288.673ZM246.219 289.005C246.252 289.265 246.282 289.517 246.308 289.766L248.297 289.563C248.269 289.291 248.237 289.02 248.204 288.757L246.219 289.005ZM246.307 289.765C246.311 289.804 246.315 289.845 246.319 289.891C246.323 289.935 246.328 289.986 246.333 290.037L248.323 289.837C248.319 289.797 248.315 289.757 248.311 289.711C248.307 289.666 248.303 289.616 248.297 289.565L246.307 289.765ZM246.332 290.031C246.359 290.315 246.385 290.582 246.403 290.845L248.398 290.706C248.378 290.414 248.35 290.121 248.324 289.843L246.332 290.031ZM246.401 290.776V290.78H248.401V290.776H246.401ZM247.086 289.83L247.08 289.832L247.709 291.731L247.715 291.729L247.086 289.83ZM212.358 230.678C212.638 230.984 212.919 231.293 213.202 231.606L214.685 230.264C214.4 229.949 214.116 229.637 213.834 229.328L212.358 230.678ZM214.683 230.262L213.836 229.33L212.356 230.676L213.204 231.608L214.683 230.262ZM236.311 207.64C234.842 206.252 232.769 203.692 230.822 201.043C228.881 198.401 227.129 195.755 226.292 194.228L224.538 195.189C225.438 196.831 227.251 199.56 229.211 202.227C231.165 204.888 233.328 207.573 234.937 209.094L236.311 207.64ZM226.292 194.228C224.23 190.467 224.291 184.792 226.397 181.012L224.65 180.038C222.217 184.405 222.138 190.811 224.538 195.189L226.292 194.228ZM224.796 181.211C228.111 184.726 231.017 190.416 232.526 194.499L234.402 193.806C232.846 189.596 229.824 183.627 226.251 179.839L224.796 181.211ZM234.402 193.807C232.829 189.538 229.915 183.617 226.241 179.829L224.805 181.221C228.196 184.717 230.992 190.336 232.525 194.499L234.402 193.807ZM224.551 180.293C223.885 183.084 223.466 185.893 224.783 188.297L226.537 187.336C225.625 185.67 225.826 183.567 226.496 180.757L224.551 180.293ZM224.783 188.297C225.087 188.851 225.724 189.515 226.397 190.151C227.104 190.82 227.97 191.565 228.843 192.294C230.63 193.787 232.383 195.166 233.123 195.866L234.498 194.413C233.7 193.659 231.812 192.168 230.125 190.759C229.261 190.037 228.433 189.324 227.771 188.698C227.074 188.039 226.668 187.574 226.537 187.336L224.783 188.297ZM232.862 195.457C233.5 197.363 234.161 199.871 234.552 202.257C234.952 204.694 235.038 206.826 234.665 208.083L236.583 208.651C237.096 206.919 236.928 204.388 236.526 201.934C236.115 199.43 235.427 196.818 234.759 194.822L232.862 195.457Z" fill="#566A47" mask="url(#path-4-inside-1_2217_211)"/>
<path d="M270.206 225.849L270.03 225.744L279.034 211.733L279.478 211.963C279.478 211.963 279.478 211.963 279.478 211.963C280.262 210.445 280.505 209.356 280.169 208.305C280.007 207.798 279.721 207.335 279.366 206.866C279.07 206.474 278.705 206.054 278.301 205.587C278.226 205.5 278.149 205.411 278.071 205.321C276.087 203.023 272.942 199.193 269.837 190.117C267.378 182.927 266.695 175.699 266.629 168.411C266.597 164.765 266.718 161.111 266.847 157.437L266.865 156.918C266.988 153.419 267.112 149.903 267.108 146.378C267.098 138.112 264.633 126.333 260.781 114.943C256.984 103.716 251.813 92.7932 246.251 85.9428L252.44 76.8007C252.749 77.1648 253.118 77.672 253.541 78.3127C254.159 79.2492 254.867 80.4354 255.633 81.7977C257.165 84.5216 258.919 87.9283 260.633 91.4037C264.063 98.3587 267.316 105.556 268.302 108.066C276.41 128.709 275.905 138.645 275.177 152.978C274.877 158.89 274.538 165.551 274.751 174.02C275.084 187.306 277.701 194.954 280.347 199.556C281.67 201.857 282.993 203.382 284.019 204.46C284.268 204.721 284.488 204.945 284.685 205.145C284.907 205.371 285.1 205.568 285.274 205.756C285.604 206.114 285.74 206.32 285.777 206.45L286.257 206.312L285.777 206.45C285.786 206.481 285.799 206.584 285.775 206.794C285.752 206.992 285.701 207.246 285.619 207.552C285.455 208.163 285.177 208.948 284.792 209.852C284.025 211.659 282.85 213.908 281.377 216.152C279.903 218.398 278.139 220.625 276.196 222.396C274.307 224.119 272.277 225.385 270.206 225.849ZM124.903 18.0855C175.331 37.9587 208.484 71.1378 229.316 96.7611C226.404 94.3419 223.015 91.7396 219.551 89.135C217.976 87.9505 216.385 86.7654 214.816 85.5959C211.018 82.7662 207.342 80.0276 204.303 77.6078L204.302 77.6074C193.041 68.6635 153.777 42.7765 116.573 26.9552L124.903 18.0855Z" fill="#566A47" stroke="#566A47"/>
<path d="M245.02 85.9784C241.633 90.9866 237.733 95.6104 233.328 100.169C229.075 94.7781 224.248 88.9756 218.801 82.9761L227.425 65.4359C227.671 65.6659 228.006 65.9836 228.421 66.3868C229.375 67.3148 230.75 68.6957 232.429 70.5036C235.742 74.0694 240.237 79.2945 245.02 85.9784ZM225.279 175.284L217.339 169.439L216.798 169.041L216.572 169.674C213.427 178.466 215.778 187.074 217.199 191.749C218.478 195.958 219.916 199.352 222.271 202.602C224.349 205.47 227.126 208.206 231.101 211.29C228.336 210.734 224.625 209.702 221.033 208.413C218.76 207.597 216.546 206.682 214.661 205.725C212.767 204.764 211.24 203.779 210.31 202.834C207.612 200.095 204.872 196.216 202.503 192.73C202.113 192.158 201.734 191.595 201.366 191.05C200.621 189.945 199.925 188.914 199.299 188.022C198.374 186.703 197.565 185.632 196.944 185.067L196.358 184.533L196.129 185.293C195.351 187.875 195.809 191.483 196.556 194.858C197.1 197.317 197.819 199.729 198.379 201.611C198.526 202.105 198.663 202.563 198.782 202.976C188.404 204.967 174.622 204.652 161.712 203.616C151.247 202.776 141.392 201.465 134.431 200.54C132.664 200.305 131.083 200.094 129.726 199.923L127.927 199.696L129.355 200.813C142.563 211.146 155.124 214.195 163.821 215.405C157.263 218.572 149.165 223.039 141.586 228.376C133.412 234.132 125.801 240.928 121.394 248.228L122.118 248.889C130.201 242.95 139.739 238.643 146.595 237.605C146.229 238.585 145.866 239.553 145.506 240.512C141.592 250.955 138.115 260.228 136.163 270.302C134.012 281.404 133.711 293.469 136.67 309.174C116.214 306.635 99.3832 296.668 88.8937 289.054C87.6248 277.962 87.8274 261.453 89.1466 248.688L89.2771 247.426L88.3208 248.26C82.1367 253.65 75.0579 261.428 69.6912 267.885C73.5704 248.743 84.675 230.104 99.3277 213.481C114.464 196.308 133.361 181.316 151.901 170.178L153.42 169.265L151.648 169.249C131.634 169.068 120.377 171.888 110.155 176.848C105.205 179.25 100.504 182.151 95.1887 185.431L94.7187 185.721C89.6059 188.876 83.8955 192.382 76.8103 196.157C77.735 194.693 78.8125 192.91 79.9608 191.009C81.0766 189.162 82.2591 187.204 83.4329 185.322C84.8768 183.007 86.3121 180.799 87.61 179.021C88.9225 177.222 90.0506 175.927 90.8767 175.374L90.4659 174.476C69.7648 180.178 48.7861 186.515 32.6844 202.169C33.1316 196.284 35.4562 181.137 38.5299 165.526C40.1943 157.073 42.0751 148.5 43.9901 141.212C45.879 134.024 47.7895 128.132 49.5421 124.828C69.2348 116.877 96.5213 112.458 123.762 111.927C151.082 111.395 178.289 114.776 197.685 122.381L198.787 122.813L198.329 121.722C195.492 114.971 190.77 107.15 186.388 101.672C222.138 129.057 234.072 157.729 240.674 182.038C238.256 177.459 236.049 173.37 232.767 169.374C228.593 164.292 222.697 159.372 212.443 153.69L211.21 153.007L211.736 154.314C211.864 154.63 212.19 155.091 212.596 155.619C213.017 156.167 213.574 156.849 214.215 157.63C214.313 157.749 214.413 157.871 214.515 157.995C215.75 159.498 217.262 161.337 218.766 163.334C220.396 165.496 222.007 167.83 223.24 170.103C224.235 171.936 224.967 173.7 225.279 175.284Z" fill="#566A47" stroke="#566A47"/>
</svg>
