<svg width="301" height="352" viewBox="0 0 301 352" fill="none" xmlns="http://www.w3.org/2000/svg">
<g clip-path="url(#clip0_177_420)">
<mask id="path-1-inside-1_177_420" fill="white">
<path d="M0.618585 1.12662C-0.248692 3.38333 0.0114913 136.355 0.965496 149.895C2.96023 179.493 8.07717 202.407 17.9641 226.015C39.9062 278.527 80.4081 319.755 135.22 345.273C142.245 348.571 149.01 351.262 150.397 351.262C151.698 351.262 157.162 349.266 162.539 346.836C233.396 314.981 281.703 255.96 295.753 184.18C299.916 162.741 300.003 161.005 300.089 78.028L300.176 -0.262115H150.657C15.1021 -0.262115 1.13895 -0.175323 0.618585 1.12662ZM23.0811 18.9198C27.0705 21.0029 35.6566 29.075 35.6566 30.7241C35.6566 31.3317 36.0035 31.8524 36.3504 31.8524C37.2177 31.8524 39.3859 36.713 41.4673 43.3095C43.1152 48.6041 44.763 49.6457 46.0639 46.2606C47.5383 42.3548 48.6657 42.7888 48.6657 47.2154C48.6657 56.7629 53.6092 75.7713 55.8641 74.9901C56.4712 74.8165 56.9916 73.2542 57.165 71.5183C57.4252 68.1332 59.9403 65.0086 59.9403 68.0464C59.9403 69.8691 62.6289 76.9864 66.2714 84.7981C69.0467 90.787 70.3476 97.9043 70.3476 106.931C70.3476 111.792 70.7813 114.482 71.6486 115.697C72.8627 117.347 72.9495 117.347 73.3831 115.611C73.73 114.656 74.5973 112.312 75.4646 110.403L77.0257 106.931L78.847 111.965C79.8877 114.656 81.8824 119.169 83.2701 121.947C88.1268 131.668 89.6879 137.57 89.8614 146.944C90.1216 159.182 91.3357 160.745 94.6314 153.107L96.5394 148.593L98.9678 155.971C100.269 160.05 102.524 165.952 103.911 169.077C107.987 177.844 109.549 184.266 110.156 194.422C110.503 201.278 111.023 203.969 111.977 204.577C113.018 205.184 113.451 204.49 114.405 201.278C115.793 196.505 118.048 193.467 118.048 196.418C118.048 199.543 121.43 208.743 126.807 219.94C133.399 233.827 133.399 237.125 127.154 239.816C123.685 241.205 120.216 240.337 118.135 237.299C116.834 235.563 108.161 215.513 103.738 204.143C102.61 201.278 99.3147 193.033 96.2792 185.916C93.3305 178.711 90.2083 171.16 89.341 168.99C81.1886 148.246 67.2254 119.69 69.914 129.064C71.3884 134.272 87.6065 175.413 91.8561 184.787C92.8968 187.044 93.7641 189.04 93.7641 189.301C93.7641 189.561 95.9323 195.029 98.6209 201.278C101.223 207.615 104.171 214.558 105.039 216.728C105.906 218.898 107.901 223.325 109.288 226.536C110.763 229.834 111.977 233.046 111.977 233.653C111.977 234.348 112.324 235.042 112.757 235.303C114.232 236.257 114.405 240.597 113.104 243.461C110.936 248.062 104.432 249.537 100.876 246.239C98.6209 244.069 97.7536 242.246 90.7287 223.238C84.0506 205.271 82.2293 201.105 79.3673 197.633L77.1124 195.029H80.4948C82.3161 195.029 84.2241 195.376 84.6577 195.81C85.1781 196.244 86.3923 196.852 87.5197 197.199C90.9888 198.241 89.7747 194.595 85.4383 190.776C83.1833 188.78 81.0152 187.217 80.4948 187.217C78.0664 187.217 73.2097 179.319 69.1335 168.99C67.3989 164.477 64.7971 158.922 63.4094 156.578C61.1545 152.933 61.0678 152.499 62.4554 152.499C63.3227 152.499 65.7511 153.107 67.7458 153.801C72.3424 155.45 72.0822 155.45 72.0822 153.28C72.0822 151.197 69.3936 148.593 63.5829 144.948C58.8996 141.91 55.5172 136.702 52.0481 126.894C49.4463 119.43 46.4108 112.66 45.2833 111.705C45.0232 111.444 44.1559 110.49 43.4621 109.622C42.2479 107.973 42.3346 107.973 46.0639 108.58C48.2321 108.927 50.7472 109.709 51.7879 110.403C52.8287 111.011 54.0428 111.271 54.7367 110.837C56.1243 109.969 53.6959 106.41 50.1401 104.327C46.671 102.244 41.9877 98.0779 39.993 95.1268C39.039 93.8249 36.6973 88.2699 34.7893 82.8886C32.8813 77.5072 30.106 71.3447 28.6316 69.2616L25.9431 65.4425L28.8918 66.0501C30.4529 66.3105 33.1415 67.3521 34.9627 68.3068C37.2177 69.522 38.2584 69.6956 38.5186 68.9144C39.1257 67.3521 37.5646 64.835 32.5344 59.4536C27.0705 53.5515 25.1625 48.2569 22.9943 33.328C22.2138 27.6862 20.8261 21.6973 20.0456 20.0482C18.2243 16.5763 18.4845 16.4895 23.0811 18.9198ZM282.484 24.2144C281.53 34.2827 278.668 51.0344 277.193 55.2874C273.377 66.2237 269.474 68.9144 242.502 79.5903C239.206 80.8922 231.141 84.1905 224.723 86.968C218.305 89.6587 205.903 94.7796 197.144 98.3383L181.272 104.761L175.028 102.071C167.309 98.6855 163.927 96.342 164.534 94.8664C164.968 93.7381 174.421 88.7907 192.2 80.4583C201.567 76.0317 212.061 69.9559 215.617 67.0049C218.045 64.9218 218.045 64.835 216.05 65.5294C214.836 66.0501 212.321 67.1785 210.413 68.1332C208.505 69.088 201.48 72.473 194.802 75.5109C188.124 78.6356 178.15 83.2357 172.686 85.8396C167.222 88.4435 157.682 92.8701 151.525 95.6476C141.378 100.421 136.694 103.806 138.255 105.369C138.602 105.629 141.464 104.588 144.673 103.025C153.693 98.5987 156.555 98.5987 168.784 103.372C174.508 105.629 179.278 107.625 179.451 107.712C180.058 108.32 170.258 127.849 168.61 129.324C167.656 130.192 165.141 131.147 163.06 131.494L159.244 132.189L163.753 134.532C166.182 135.834 168.523 137.223 168.784 137.744C169.13 138.351 170.171 137.917 171.472 136.615C174.161 133.925 183.787 131.234 187.864 132.015C190.292 132.536 199.659 138.698 206.423 144.34C206.944 144.774 198.618 156.578 195.929 159.182C194.021 161.005 192.547 161.613 189.945 161.613C187.257 161.613 186.649 161.873 186.996 162.915C187.343 163.609 187.95 165.866 188.557 167.862C189.425 171.247 189.685 171.507 191.68 170.9C194.975 170.032 201.22 170.379 202.694 171.681C203.388 172.202 206.163 176.021 208.765 180.1L213.535 187.478L210.326 190.169C202.868 196.418 197.317 200.237 195.669 200.237C194.715 200.237 193.067 199.629 192.027 198.935C190.205 197.633 190.119 197.807 189.251 202.06C188.731 204.403 188.297 206.486 188.297 206.573C188.297 206.66 190.292 206.833 192.72 206.92C195.496 207.007 197.664 207.528 198.618 208.396C200.266 210.045 203.995 224.366 202.954 225.061C201.306 226.102 183.354 231.484 181.533 231.484C180.232 231.484 179.278 230.789 178.757 229.227L177.89 226.97L174.421 230.268L170.952 233.653L173.207 234.261C176.416 235.129 178.757 237.472 178.757 239.903C178.757 241.031 178.15 244.677 177.456 247.888C176.242 253.183 175.895 253.79 174.161 253.53C173.12 253.356 168.957 252.835 164.881 252.228C155.774 251.013 154.127 250.231 154.82 247.541L155.341 245.631L149.27 247.888C143.286 250.145 143.199 250.405 147.709 251.707C148.489 251.967 151.872 256.047 155.167 260.734C160.718 268.459 166.615 275.229 166.615 273.753C166.615 273.406 164.1 269.327 160.978 264.553C154.994 255.526 154.387 254.05 156.902 254.05C162.366 254.05 164.447 255.7 173.38 266.896C178.15 272.972 184.568 280.263 187.43 283.04C190.379 285.818 192.634 288.161 192.46 288.335C191.506 289.029 177.717 290.505 170.518 290.678C155.254 290.939 153.346 289.463 142.071 267.677C134.092 252.488 133.919 251.794 137.648 248.756C139.903 246.846 143.286 241.118 144.847 236.344C146.234 232.178 146.668 231.744 151.958 229.227C166.702 222.11 177.023 205.618 177.023 189.387C176.936 174.892 169.824 160.918 159.417 154.756C151.178 149.982 136.868 148.159 127.761 150.676C124.292 151.631 123.512 151.544 115.446 148.42C105.299 144.514 105.039 144.08 105.039 132.97C105.039 113.528 114.665 100.335 136.521 90.0927C141.378 87.7491 152.565 82.4546 161.412 78.2884C170.258 74.1222 179.625 69.6956 182.226 68.5672C186.996 66.3105 202.954 58.9328 224.289 49.0381C248.746 37.6678 265.398 29.075 273.724 23.7804C278.494 20.6558 282.57 18.1387 282.744 18.0519C282.917 17.9651 282.83 20.8293 282.484 24.2144ZM281.616 89.5719C281.269 92.6097 280.142 98.9458 278.928 103.459C275.372 117.694 271.122 124.898 264.444 128.283C262.623 129.238 250.047 132.71 236.605 136.095C223.162 139.48 211.454 142.344 210.673 142.604C209.025 143.125 196.103 132.276 196.103 130.366C196.103 128.717 196.363 128.63 208.418 124.377C214.316 122.294 221.254 119.69 223.942 118.562C236.518 113.18 230.534 114.309 203.475 122.554C182.4 128.891 173.9 131.06 173.727 130.279C173.38 128.977 176.416 122.815 178.15 121.426C178.844 120.818 198.531 113.962 221.774 106.15C245.104 98.3383 267.913 90.1794 272.423 88.0096C276.933 85.8396 281.009 84.0169 281.443 84.0169C281.876 83.9301 281.963 86.4472 281.616 89.5719ZM282.137 146.857C282.83 147.552 278.841 157.967 275.285 165.084C270.255 175.066 266.265 179.753 260.195 182.791L254.817 185.482H235.824C216.917 185.482 216.831 185.482 214.923 183.398C211.974 180.187 207.898 172.028 208.505 170.553C208.852 169.598 211.367 168.904 217.958 168.122C229.146 166.82 239.206 164.824 242.068 163.262L244.237 162.133L241.635 162.481C240.247 162.654 232.442 163.435 224.289 164.217C216.224 164.998 206.423 165.952 202.694 166.473C198.878 166.907 195.496 166.994 195.062 166.56C194.195 165.692 202.781 156.839 204.602 156.839C206.076 156.839 210.586 156.318 233.396 153.801C249.267 152.065 268.694 149.288 275.459 147.812C282.05 146.25 281.616 146.337 282.137 146.857ZM219.086 198.501C222.468 198.935 228.279 199.716 232.095 200.237C235.911 200.844 246.145 201.886 254.904 202.667L270.689 204.143L267.566 208.743C265.832 211.347 261.669 216.381 258.287 219.94C251.262 227.317 244.063 231.484 238.166 231.484C233.656 231.484 210.153 224.974 208.245 223.238C207.377 222.457 206.076 219.506 205.209 216.555C203.128 209.003 203.735 208.656 214.316 210.218C222.902 211.52 238.252 211.954 234.263 210.739C233.049 210.392 225.07 209.003 216.484 207.615C207.898 206.226 200.526 204.837 200.092 204.49C199.052 203.622 200.96 201.278 204.342 199.195C207.204 197.459 210.153 197.286 219.086 198.501ZM141.985 232.525C141.031 238.167 137.995 243.548 133.138 248.235C128.022 253.096 125.767 254.398 119.089 256.307C112.411 258.304 103.304 257.522 97.4067 254.571C91.8561 251.794 91.4225 250.926 93.7641 248.322L95.7589 246.239L97.6669 248.322C100.529 251.447 105.733 252.749 109.635 251.533C112.931 250.405 117.181 246.152 117.181 243.895C117.181 243.027 117.614 242.767 118.742 243.201C127.068 246.586 135.48 241.465 135.74 232.872L135.827 228.88H139.209H142.592L141.985 232.525ZM202.087 236.171C206.163 238.254 212.061 241.378 215.096 243.114C218.132 244.85 224.983 248.235 230.273 250.579C235.564 252.922 239.987 255.179 240.16 255.613C240.247 255.96 237.906 257.696 234.957 259.432C216.917 269.761 207.291 271.93 198.878 267.504C191.853 263.685 180.925 254.658 180.579 252.228C180.145 249.19 182.14 241.031 183.441 240.51C184.048 240.25 188.731 242.246 193.848 244.85C206.423 251.533 211.107 251.533 199.138 244.937C194.368 242.246 188.818 239.295 186.823 238.254C182.4 235.997 182.053 234.435 185.956 233.306C191.419 231.744 194.455 232.265 202.087 236.171ZM133.138 262.123C134.526 265.508 136.608 270.281 137.735 272.625C138.776 274.968 139.556 277.138 139.296 277.312C138.342 278.353 128.976 281.738 128.282 281.304C127.935 281.044 127.588 280.35 127.588 279.655C127.588 278.353 122.991 266.983 120.997 263.338C120.216 261.949 119.869 260.647 120.129 260.387C120.563 259.866 129.062 256.134 130.19 255.873C130.45 255.873 131.751 258.651 133.138 262.123ZM143.546 280.61C144.326 280.957 144.933 282.172 144.933 283.561C144.933 285.557 144.326 286.252 141.291 287.727C133.746 291.199 131.317 291.807 129.756 290.505C127.068 288.248 128.542 285.905 134.526 282.954C140.424 280.003 141.291 279.742 143.546 280.61ZM145.801 290.678C145.801 291.286 147.362 295.279 149.183 299.618C154.387 311.77 154.473 310.902 148.749 313.072C145.627 314.2 143.459 314.547 142.939 314.027C142.505 313.593 140.597 309.426 138.689 304.739C136.868 299.966 134.96 295.799 134.439 295.279C133.919 294.758 135.393 293.63 138.602 292.154C144.326 289.463 145.801 289.203 145.801 290.678ZM157.682 315.676C159.504 316.63 161.412 317.412 162.019 317.412C165.054 317.412 161.759 324.876 157.509 327.567C153.953 329.91 149.443 330.084 145.714 328.174C143.459 327.046 143.112 326.438 143.633 324.616C143.893 323.401 144.326 321.404 144.587 320.102C144.933 318.366 146.148 317.325 149.096 315.936C154.213 313.593 153.866 313.593 157.682 315.676Z"/>
</mask>
<path d="M0.618585 1.12662C-0.248692 3.38333 0.0114913 136.355 0.965496 149.895C2.96023 179.493 8.07717 202.407 17.9641 226.015C39.9062 278.527 80.4081 319.755 135.22 345.273C142.245 348.571 149.01 351.262 150.397 351.262C151.698 351.262 157.162 349.266 162.539 346.836C233.396 314.981 281.703 255.96 295.753 184.18C299.916 162.741 300.003 161.005 300.089 78.028L300.176 -0.262115H150.657C15.1021 -0.262115 1.13895 -0.175323 0.618585 1.12662ZM23.0811 18.9198C27.0705 21.0029 35.6566 29.075 35.6566 30.7241C35.6566 31.3317 36.0035 31.8524 36.3504 31.8524C37.2177 31.8524 39.3859 36.713 41.4673 43.3095C43.1152 48.6041 44.763 49.6457 46.0639 46.2606C47.5383 42.3548 48.6657 42.7888 48.6657 47.2154C48.6657 56.7629 53.6092 75.7713 55.8641 74.9901C56.4712 74.8165 56.9916 73.2542 57.165 71.5183C57.4252 68.1332 59.9403 65.0086 59.9403 68.0464C59.9403 69.8691 62.6289 76.9864 66.2714 84.7981C69.0467 90.787 70.3476 97.9043 70.3476 106.931C70.3476 111.792 70.7813 114.482 71.6486 115.697C72.8627 117.347 72.9495 117.347 73.3831 115.611C73.73 114.656 74.5973 112.312 75.4646 110.403L77.0257 106.931L78.847 111.965C79.8877 114.656 81.8824 119.169 83.2701 121.947C88.1268 131.668 89.6879 137.57 89.8614 146.944C90.1216 159.182 91.3357 160.745 94.6314 153.107L96.5394 148.593L98.9678 155.971C100.269 160.05 102.524 165.952 103.911 169.077C107.987 177.844 109.549 184.266 110.156 194.422C110.503 201.278 111.023 203.969 111.977 204.577C113.018 205.184 113.451 204.49 114.405 201.278C115.793 196.505 118.048 193.467 118.048 196.418C118.048 199.543 121.43 208.743 126.807 219.94C133.399 233.827 133.399 237.125 127.154 239.816C123.685 241.205 120.216 240.337 118.135 237.299C116.834 235.563 108.161 215.513 103.738 204.143C102.61 201.278 99.3147 193.033 96.2792 185.916C93.3305 178.711 90.2083 171.16 89.341 168.99C81.1886 148.246 67.2254 119.69 69.914 129.064C71.3884 134.272 87.6065 175.413 91.8561 184.787C92.8968 187.044 93.7641 189.04 93.7641 189.301C93.7641 189.561 95.9323 195.029 98.6209 201.278C101.223 207.615 104.171 214.558 105.039 216.728C105.906 218.898 107.901 223.325 109.288 226.536C110.763 229.834 111.977 233.046 111.977 233.653C111.977 234.348 112.324 235.042 112.757 235.303C114.232 236.257 114.405 240.597 113.104 243.461C110.936 248.062 104.432 249.537 100.876 246.239C98.6209 244.069 97.7536 242.246 90.7287 223.238C84.0506 205.271 82.2293 201.105 79.3673 197.633L77.1124 195.029H80.4948C82.3161 195.029 84.2241 195.376 84.6577 195.81C85.1781 196.244 86.3923 196.852 87.5197 197.199C90.9888 198.241 89.7747 194.595 85.4383 190.776C83.1833 188.78 81.0152 187.217 80.4948 187.217C78.0664 187.217 73.2097 179.319 69.1335 168.99C67.3989 164.477 64.7971 158.922 63.4094 156.578C61.1545 152.933 61.0678 152.499 62.4554 152.499C63.3227 152.499 65.7511 153.107 67.7458 153.801C72.3424 155.45 72.0822 155.45 72.0822 153.28C72.0822 151.197 69.3936 148.593 63.5829 144.948C58.8996 141.91 55.5172 136.702 52.0481 126.894C49.4463 119.43 46.4108 112.66 45.2833 111.705C45.0232 111.444 44.1559 110.49 43.4621 109.622C42.2479 107.973 42.3346 107.973 46.0639 108.58C48.2321 108.927 50.7472 109.709 51.7879 110.403C52.8287 111.011 54.0428 111.271 54.7367 110.837C56.1243 109.969 53.6959 106.41 50.1401 104.327C46.671 102.244 41.9877 98.0779 39.993 95.1268C39.039 93.8249 36.6973 88.2699 34.7893 82.8886C32.8813 77.5072 30.106 71.3447 28.6316 69.2616L25.9431 65.4425L28.8918 66.0501C30.4529 66.3105 33.1415 67.3521 34.9627 68.3068C37.2177 69.522 38.2584 69.6956 38.5186 68.9144C39.1257 67.3521 37.5646 64.835 32.5344 59.4536C27.0705 53.5515 25.1625 48.2569 22.9943 33.328C22.2138 27.6862 20.8261 21.6973 20.0456 20.0482C18.2243 16.5763 18.4845 16.4895 23.0811 18.9198ZM282.484 24.2144C281.53 34.2827 278.668 51.0344 277.193 55.2874C273.377 66.2237 269.474 68.9144 242.502 79.5903C239.206 80.8922 231.141 84.1905 224.723 86.968C218.305 89.6587 205.903 94.7796 197.144 98.3383L181.272 104.761L175.028 102.071C167.309 98.6855 163.927 96.342 164.534 94.8664C164.968 93.7381 174.421 88.7907 192.2 80.4583C201.567 76.0317 212.061 69.9559 215.617 67.0049C218.045 64.9218 218.045 64.835 216.05 65.5294C214.836 66.0501 212.321 67.1785 210.413 68.1332C208.505 69.088 201.48 72.473 194.802 75.5109C188.124 78.6356 178.15 83.2357 172.686 85.8396C167.222 88.4435 157.682 92.8701 151.525 95.6476C141.378 100.421 136.694 103.806 138.255 105.369C138.602 105.629 141.464 104.588 144.673 103.025C153.693 98.5987 156.555 98.5987 168.784 103.372C174.508 105.629 179.278 107.625 179.451 107.712C180.058 108.32 170.258 127.849 168.61 129.324C167.656 130.192 165.141 131.147 163.06 131.494L159.244 132.189L163.753 134.532C166.182 135.834 168.523 137.223 168.784 137.744C169.13 138.351 170.171 137.917 171.472 136.615C174.161 133.925 183.787 131.234 187.864 132.015C190.292 132.536 199.659 138.698 206.423 144.34C206.944 144.774 198.618 156.578 195.929 159.182C194.021 161.005 192.547 161.613 189.945 161.613C187.257 161.613 186.649 161.873 186.996 162.915C187.343 163.609 187.95 165.866 188.557 167.862C189.425 171.247 189.685 171.507 191.68 170.9C194.975 170.032 201.22 170.379 202.694 171.681C203.388 172.202 206.163 176.021 208.765 180.1L213.535 187.478L210.326 190.169C202.868 196.418 197.317 200.237 195.669 200.237C194.715 200.237 193.067 199.629 192.027 198.935C190.205 197.633 190.119 197.807 189.251 202.06C188.731 204.403 188.297 206.486 188.297 206.573C188.297 206.66 190.292 206.833 192.72 206.92C195.496 207.007 197.664 207.528 198.618 208.396C200.266 210.045 203.995 224.366 202.954 225.061C201.306 226.102 183.354 231.484 181.533 231.484C180.232 231.484 179.278 230.789 178.757 229.227L177.89 226.97L174.421 230.268L170.952 233.653L173.207 234.261C176.416 235.129 178.757 237.472 178.757 239.903C178.757 241.031 178.15 244.677 177.456 247.888C176.242 253.183 175.895 253.79 174.161 253.53C173.12 253.356 168.957 252.835 164.881 252.228C155.774 251.013 154.127 250.231 154.82 247.541L155.341 245.631L149.27 247.888C143.286 250.145 143.199 250.405 147.709 251.707C148.489 251.967 151.872 256.047 155.167 260.734C160.718 268.459 166.615 275.229 166.615 273.753C166.615 273.406 164.1 269.327 160.978 264.553C154.994 255.526 154.387 254.05 156.902 254.05C162.366 254.05 164.447 255.7 173.38 266.896C178.15 272.972 184.568 280.263 187.43 283.04C190.379 285.818 192.634 288.161 192.46 288.335C191.506 289.029 177.717 290.505 170.518 290.678C155.254 290.939 153.346 289.463 142.071 267.677C134.092 252.488 133.919 251.794 137.648 248.756C139.903 246.846 143.286 241.118 144.847 236.344C146.234 232.178 146.668 231.744 151.958 229.227C166.702 222.11 177.023 205.618 177.023 189.387C176.936 174.892 169.824 160.918 159.417 154.756C151.178 149.982 136.868 148.159 127.761 150.676C124.292 151.631 123.512 151.544 115.446 148.42C105.299 144.514 105.039 144.08 105.039 132.97C105.039 113.528 114.665 100.335 136.521 90.0927C141.378 87.7491 152.565 82.4546 161.412 78.2884C170.258 74.1222 179.625 69.6956 182.226 68.5672C186.996 66.3105 202.954 58.9328 224.289 49.0381C248.746 37.6678 265.398 29.075 273.724 23.7804C278.494 20.6558 282.57 18.1387 282.744 18.0519C282.917 17.9651 282.83 20.8293 282.484 24.2144ZM281.616 89.5719C281.269 92.6097 280.142 98.9458 278.928 103.459C275.372 117.694 271.122 124.898 264.444 128.283C262.623 129.238 250.047 132.71 236.605 136.095C223.162 139.48 211.454 142.344 210.673 142.604C209.025 143.125 196.103 132.276 196.103 130.366C196.103 128.717 196.363 128.63 208.418 124.377C214.316 122.294 221.254 119.69 223.942 118.562C236.518 113.18 230.534 114.309 203.475 122.554C182.4 128.891 173.9 131.06 173.727 130.279C173.38 128.977 176.416 122.815 178.15 121.426C178.844 120.818 198.531 113.962 221.774 106.15C245.104 98.3383 267.913 90.1794 272.423 88.0096C276.933 85.8396 281.009 84.0169 281.443 84.0169C281.876 83.9301 281.963 86.4472 281.616 89.5719ZM282.137 146.857C282.83 147.552 278.841 157.967 275.285 165.084C270.255 175.066 266.265 179.753 260.195 182.791L254.817 185.482H235.824C216.917 185.482 216.831 185.482 214.923 183.398C211.974 180.187 207.898 172.028 208.505 170.553C208.852 169.598 211.367 168.904 217.958 168.122C229.146 166.82 239.206 164.824 242.068 163.262L244.237 162.133L241.635 162.481C240.247 162.654 232.442 163.435 224.289 164.217C216.224 164.998 206.423 165.952 202.694 166.473C198.878 166.907 195.496 166.994 195.062 166.56C194.195 165.692 202.781 156.839 204.602 156.839C206.076 156.839 210.586 156.318 233.396 153.801C249.267 152.065 268.694 149.288 275.459 147.812C282.05 146.25 281.616 146.337 282.137 146.857ZM219.086 198.501C222.468 198.935 228.279 199.716 232.095 200.237C235.911 200.844 246.145 201.886 254.904 202.667L270.689 204.143L267.566 208.743C265.832 211.347 261.669 216.381 258.287 219.94C251.262 227.317 244.063 231.484 238.166 231.484C233.656 231.484 210.153 224.974 208.245 223.238C207.377 222.457 206.076 219.506 205.209 216.555C203.128 209.003 203.735 208.656 214.316 210.218C222.902 211.52 238.252 211.954 234.263 210.739C233.049 210.392 225.07 209.003 216.484 207.615C207.898 206.226 200.526 204.837 200.092 204.49C199.052 203.622 200.96 201.278 204.342 199.195C207.204 197.459 210.153 197.286 219.086 198.501ZM141.985 232.525C141.031 238.167 137.995 243.548 133.138 248.235C128.022 253.096 125.767 254.398 119.089 256.307C112.411 258.304 103.304 257.522 97.4067 254.571C91.8561 251.794 91.4225 250.926 93.7641 248.322L95.7589 246.239L97.6669 248.322C100.529 251.447 105.733 252.749 109.635 251.533C112.931 250.405 117.181 246.152 117.181 243.895C117.181 243.027 117.614 242.767 118.742 243.201C127.068 246.586 135.48 241.465 135.74 232.872L135.827 228.88H139.209H142.592L141.985 232.525ZM202.087 236.171C206.163 238.254 212.061 241.378 215.096 243.114C218.132 244.85 224.983 248.235 230.273 250.579C235.564 252.922 239.987 255.179 240.16 255.613C240.247 255.96 237.906 257.696 234.957 259.432C216.917 269.761 207.291 271.93 198.878 267.504C191.853 263.685 180.925 254.658 180.579 252.228C180.145 249.19 182.14 241.031 183.441 240.51C184.048 240.25 188.731 242.246 193.848 244.85C206.423 251.533 211.107 251.533 199.138 244.937C194.368 242.246 188.818 239.295 186.823 238.254C182.4 235.997 182.053 234.435 185.956 233.306C191.419 231.744 194.455 232.265 202.087 236.171ZM133.138 262.123C134.526 265.508 136.608 270.281 137.735 272.625C138.776 274.968 139.556 277.138 139.296 277.312C138.342 278.353 128.976 281.738 128.282 281.304C127.935 281.044 127.588 280.35 127.588 279.655C127.588 278.353 122.991 266.983 120.997 263.338C120.216 261.949 119.869 260.647 120.129 260.387C120.563 259.866 129.062 256.134 130.19 255.873C130.45 255.873 131.751 258.651 133.138 262.123ZM143.546 280.61C144.326 280.957 144.933 282.172 144.933 283.561C144.933 285.557 144.326 286.252 141.291 287.727C133.746 291.199 131.317 291.807 129.756 290.505C127.068 288.248 128.542 285.905 134.526 282.954C140.424 280.003 141.291 279.742 143.546 280.61ZM145.801 290.678C145.801 291.286 147.362 295.279 149.183 299.618C154.387 311.77 154.473 310.902 148.749 313.072C145.627 314.2 143.459 314.547 142.939 314.027C142.505 313.593 140.597 309.426 138.689 304.739C136.868 299.966 134.96 295.799 134.439 295.279C133.919 294.758 135.393 293.63 138.602 292.154C144.326 289.463 145.801 289.203 145.801 290.678ZM157.682 315.676C159.504 316.63 161.412 317.412 162.019 317.412C165.054 317.412 161.759 324.876 157.509 327.567C153.953 329.91 149.443 330.084 145.714 328.174C143.459 327.046 143.112 326.438 143.633 324.616C143.893 323.401 144.326 321.404 144.587 320.102C144.933 318.366 146.148 317.325 149.096 315.936C154.213 313.593 153.866 313.593 157.682 315.676Z" fill="#1B2024" stroke="#566A47" stroke-width="8" mask="url(#path-1-inside-1_177_420)"/>
</g>
<defs>
<clipPath id="clip0_177_420">
<rect width="301" height="352" fill="white"/>
</clipPath>
</defs>
</svg>
