<svg width="1480" height="626" viewBox="0 0 1480 626" fill="none" xmlns="http://www.w3.org/2000/svg">
<path fill-rule="evenodd" clip-rule="evenodd" d="M213.88 606.976L213.704 601.988H64.4249L13.3142 530.399C12.6079 529.44 11.5531 529.44 10.8468 530.399C10.4922 530.891 10.3164 531.531 10.3164 532.169C10.3164 532.807 10.4922 533.447 10.8468 533.939L62.488 606.24C62.6638 606.708 63.1942 606.976 63.7216 606.976H213.883H213.88Z" fill="#1F1B20"/>
<path fill-rule="evenodd" clip-rule="evenodd" d="M496.227 593.188L495.875 598.176H625.24C626.122 598.176 627.001 597.044 627.001 595.694C627.001 594.317 626.119 593.188 625.24 593.188H496.23H496.227Z" fill="#1F1B20"/>
<path fill-rule="evenodd" clip-rule="evenodd" d="M373.559 545.662L372.677 540.674H350.999C350.468 540.674 350.117 540.945 349.765 541.413L306.584 601.99H261.993L263.754 606.979H307.287C307.818 606.979 308.169 606.707 308.521 606.243L351.702 545.665H373.557L373.559 545.662Z" fill="#1F1B20"/>
<path fill-rule="evenodd" clip-rule="evenodd" d="M495.875 598.176L496.226 593.188H477.367L440.357 541.41C440.005 540.942 439.65 540.671 439.123 540.671H412.861L413.743 545.659H438.417L475.251 597.437C475.602 597.905 476.133 598.176 476.66 598.176H495.872H495.875Z" fill="#1F1B20"/>
<path fill-rule="evenodd" clip-rule="evenodd" d="M263.758 606.976L261.997 601.987H213.705L213.881 606.976H263.758Z" fill="#1F1B20"/>
<path fill-rule="evenodd" clip-rule="evenodd" d="M413.743 545.662L412.861 540.671H372.678L373.56 545.662H413.743Z" fill="#1F1B20"/>
<path fill-rule="evenodd" clip-rule="evenodd" d="M344.655 555.588L343.421 550.281L306.763 601.74L310.288 603.656L344.655 555.588Z" fill="#1F1B20"/>
<path fill-rule="evenodd" clip-rule="evenodd" d="M155.701 16.0437C155.701 17.4651 154.894 18.5319 153.913 18.5319H14.539V148.332L30.9193 171.357C31.259 171.801 31.4289 172.424 31.4289 173.136V205.054C31.4289 205.677 31.259 206.389 30.9193 206.83L13.9013 230.746V317.338C13.9013 318.67 13.0937 319.827 12.1133 319.827C11.1359 319.827 10.3701 318.67 10.3701 317.338V229.68C10.3701 229.057 10.54 228.434 10.8797 227.901L27.8977 204.073V174.114L11.5203 151.088C11.1806 150.644 11.0108 150.022 11.0108 149.399V16.0437C11.0108 15.4209 11.1806 14.7087 11.5203 14.2647C11.8183 13.8207 12.2862 13.5525 12.754 13.5525H153.913C154.891 13.5525 155.701 14.7087 155.701 16.0407V16.0437Z" fill="#1F1B20"/>
<path fill-rule="evenodd" clip-rule="evenodd" d="M28.9646 168.601L28.9229 171.268C29.0063 170.735 29.6887 180.693 31.4319 189.228V173.136C31.4319 172.424 31.262 171.801 30.9223 171.357L28.9646 168.601Z" fill="#1F1B20"/>
<path d="M19.289 327.357V307.257H4.96777V327.357H19.289Z" fill="#1F1B20"/>
<path d="M15.2244 321.653V312.964H9.03223V321.653H15.2244Z" fill="#1F1B20"/>
<path d="M19.289 278.916V258.82H4.96777V278.916H19.289Z" fill="#1F1B20"/>
<path d="M15.2244 273.212V264.517H9.03223V273.212H15.2244Z" fill="#1F1B20"/>
<path d="M161.068 26.0978V5.99854H146.744V26.0978H161.068Z" fill="#1F1B20"/>
<path d="M157.001 20.3942V11.699H150.809V20.3942H157.001Z" fill="#1F1B20"/>
<path d="M493.852 26.0978V5.99854H479.53V26.0978H493.852Z" fill="#1F1B20"/>
<path d="M489.79 20.3942V11.699H483.595V20.3942H489.79Z" fill="#1F1B20"/>
<path d="M465.173 26.0978V5.99854H450.849V26.0978H465.173Z" fill="#1F1B20"/>
<path d="M461.111 20.3942V11.699H454.919V20.3942H461.111Z" fill="#1F1B20"/>
<path d="M436.498 26.0978V5.99854H422.177V26.0978H436.498Z" fill="#1F1B20"/>
<path d="M432.433 20.3942V11.699H426.238V20.3942H432.433Z" fill="#1F1B20"/>
<path d="M407.819 26.0978V5.99854H393.498V26.0978H407.819Z" fill="#1F1B20"/>
<path d="M403.758 20.3942V11.699H397.562V20.3942H403.758Z" fill="#1F1B20"/>
<path d="M379.142 26.0978V5.99854H364.82V26.0978H379.142Z" fill="#1F1B20"/>
<path d="M375.08 20.3942V11.699H368.888V20.3942H375.08Z" fill="#1F1B20"/>
<path d="M350.466 26.0978V5.99854H336.145V26.0978H350.466Z" fill="#1F1B20"/>
<path d="M346.401 20.3942V11.699H340.209V20.3942H346.401Z" fill="#1F1B20"/>
<path d="M689.241 11.699L717.904 53.3218H706.033L677.369 11.699H689.241Z" fill="#1F1B20"/>
<path d="M714.955 11.699L743.618 53.3218H731.746L703.083 11.699H714.955Z" fill="#1F1B20"/>
<path d="M740.668 11.699L769.331 53.3218H757.462L728.796 11.699H740.668Z" fill="#1F1B20"/>
<path d="M766.379 11.699L795.045 53.3218H783.173L754.51 11.699H766.379Z" fill="#1F1B20"/>
<path d="M792.094 11.699L820.758 53.3218H808.886L780.223 11.699H792.094Z" fill="#1F1B20"/>
<path fill-rule="evenodd" clip-rule="evenodd" d="M1471.56 467.92V617.173C1471.56 617.867 1471.56 618.562 1471.28 618.907C1470.71 619.429 1470.43 619.774 1469.87 619.774H1396.29C1396.01 619.774 1395.44 619.426 1395.16 618.907L1348.65 553.654H1295.09L1254.78 610.403C1254.5 610.751 1253.93 611.097 1253.65 611.097H1186.28C1185.15 611.097 1184.31 609.884 1184.31 608.493C1184.31 607.28 1185.15 606.064 1186.28 606.064H1252.81L1293.12 549.488C1293.4 548.97 1293.96 548.794 1294.53 548.794H1349.22C1349.78 548.794 1350.34 548.967 1350.63 549.488L1397.14 614.741H1468.18V468.963L1432.1 418.287C1431.53 417.766 1431.53 417.245 1431.53 416.553V266.26C1431.53 265.566 1431.53 264.872 1432.1 264.526L1466.77 215.415V181.146H1460.72V161.05H1466.77V140.963H1470.44V161.05H1475.04V181.146H1470.44V216.455C1470.44 217.149 1470.16 217.844 1469.87 218.189L1434.92 267.303V415.513L1471.28 466.189C1471.56 466.71 1471.56 467.402 1471.56 467.923L1471.56 467.92ZM1475.04 60.4141V40.3178H1470.43V16.0051C1470.43 15.3108 1470.15 14.7893 1469.87 14.2678C1469.59 13.7463 1469.02 13.5735 1468.74 13.5735H867.447C866.883 13.5735 866.6 13.7463 866.32 14.2678L832.776 61.2991H701.128L668.427 15.8292C668.147 15.3078 667.864 15.1349 667.301 15.1349H483.782C482.936 15.1349 482.09 16.1779 482.09 17.5635C482.09 18.9522 482.936 19.9921 483.782 19.9921H666.454L699.156 65.6348C699.439 65.9834 699.719 66.3291 700.282 66.3291H833.339C833.902 66.3291 834.465 65.9805 834.749 65.6348L868.296 18.6035H1466.77V40.3119H1460.72V60.4081H1466.77V80.549H1460.72V100.645H1466.77V120.792H1460.72V140.888H1475.04V120.792H1470.44V100.645H1475.04V80.549H1470.44V60.4081H1475.04L1475.04 60.4141Z" fill="#1F1B20"/>
<path fill-rule="evenodd" clip-rule="evenodd" d="M662.342 612.847H668.546L676.758 596.425L668.546 580.003H662.342L670.554 596.425L662.342 612.847ZM718.366 580.003V586.118L715.309 580.003H718.366ZM718.366 606.732V612.847H715.309L718.366 606.732ZM679.998 612.847H686.202L694.414 596.425L686.202 580.003H679.998L688.21 596.425L679.998 612.847ZM697.653 612.847H703.857L712.07 596.425L703.857 580.003H697.653L705.866 596.425L697.653 612.847Z" fill="#1F1B20"/>
<path fill-rule="evenodd" clip-rule="evenodd" d="M763.351 599.801V593.052L765.037 596.428L763.351 599.804V599.801ZM768.276 612.847H774.48L782.693 596.425L774.48 580.003H768.276L776.489 596.425L768.276 612.847ZM785.932 612.847H792.136L800.349 596.425L792.136 580.003H785.932L794.145 596.425L785.932 612.847ZM803.588 612.847H809.792L818.004 596.425L809.792 580.003H803.588L811.8 596.425L803.588 612.847Z" fill="#1F1B20"/>
<path fill-rule="evenodd" clip-rule="evenodd" d="M718.366 612.847V606.732L723.521 596.425L718.366 586.118V580.003H721.513L729.726 596.425L721.513 612.847H718.366ZM745.969 593.594V599.253L739.172 612.844H732.968L741.18 596.422L732.968 580H739.172L745.969 593.591V593.594Z" fill="#1F1B20"/>
<path fill-rule="evenodd" clip-rule="evenodd" d="M745.966 599.256V593.597L747.381 596.428L745.966 599.259V599.256ZM763.347 593.052V599.801L756.824 612.847H750.62L758.833 596.425L750.62 580.003H756.824L763.347 593.049V593.052Z" fill="#1F1B20"/>
<path d="M885.637 609V583.406H899.348V585.674H888.309V593.971H893.178C895.779 593.971 897.748 594.662 899.084 596.045C900.432 597.428 901.105 599.232 901.105 601.459C901.105 603.686 900.432 605.502 899.084 606.908C897.748 608.303 895.779 609 893.178 609H885.637ZM888.309 596.238V606.732H893.178C895.123 606.732 896.482 606.223 897.256 605.203C898.041 604.172 898.434 602.924 898.434 601.459C898.434 600.006 898.041 598.775 897.256 597.768C896.482 596.748 895.123 596.238 893.178 596.238H888.309ZM904.691 609V583.406H919.141V585.674H907.363V594.656H917.471V596.924H907.363V606.732H919.316V609H904.691ZM936.719 609L926.699 596.115L928.844 594.814L939.953 609H936.719ZM923.852 594.656H927.332L936.156 583.406H939.18L928.457 596.906H923.852V594.656ZM922.516 609V583.406H925.188V609H922.516ZM954.842 583.055V586.447H955.299C959.002 586.447 961.785 587.32 963.648 589.066C965.523 590.801 966.461 593.115 966.461 596.01C966.461 598.904 965.523 601.225 963.648 602.971C961.785 604.717 959.002 605.59 955.299 605.59H954.842V609.352H952.24V605.59H951.783C948.08 605.59 945.291 604.717 943.416 602.971C941.541 601.213 940.604 598.893 940.604 596.01C940.604 593.115 941.541 590.801 943.416 589.066C945.291 587.32 948.08 586.447 951.783 586.447H952.24V583.055H954.842ZM955.299 588.645H954.842V603.393H955.299C958.428 603.393 960.631 602.719 961.908 601.371C963.197 600.023 963.842 598.248 963.842 596.045C963.842 593.842 963.197 592.061 961.908 590.701C960.631 589.33 958.428 588.645 955.299 588.645ZM951.783 588.645C948.643 588.645 946.428 589.318 945.139 590.666C943.861 592.002 943.223 593.777 943.223 595.992C943.223 598.195 943.861 599.982 945.139 601.354C946.428 602.713 948.643 603.393 951.783 603.393H952.24V588.645H951.783ZM967.709 609L976.463 583.318H979.311L988.047 609H985.287L978.555 588.662C978.414 588.229 978.291 587.83 978.186 587.467C978.092 587.104 977.992 586.723 977.887 586.324H977.764C977.658 586.723 977.553 587.104 977.447 587.467C977.342 587.83 977.219 588.229 977.078 588.662L970.363 609H967.709ZM971.365 601.986L972.121 599.789H983.582L984.355 601.986H971.365ZM991.105 594.762H1002.79V597.012H991.105V594.762ZM989.752 596.959V595.447C989.752 591.299 990.666 588.182 992.494 586.096C994.334 584.01 996.666 582.967 999.49 582.967C1002.3 582.967 1004.48 583.74 1006.01 585.287C1007.56 586.834 1008.33 588.838 1008.33 591.299V591.65H1005.64V591.299C1005.64 589.424 1005.13 587.953 1004.11 586.887C1003.09 585.82 1001.55 585.287 999.49 585.287C997.346 585.287 995.635 586.119 994.357 587.783C993.08 589.447 992.441 591.938 992.441 595.254V597.029C992.441 600.287 993.092 602.783 994.393 604.518C995.693 606.252 997.41 607.119 999.543 607.119C1001.5 607.119 1002.98 606.592 1003.99 605.537C1005 604.471 1005.54 602.994 1005.62 601.107L1005.64 600.756H1008.33L1008.31 601.195C1008.2 603.586 1007.41 605.561 1005.94 607.119C1004.48 608.666 1002.32 609.439 999.473 609.439C996.531 609.439 994.176 608.391 992.406 606.293C990.637 604.184 989.752 601.072 989.752 596.959ZM1012.13 609V583.406H1019.67C1022.27 583.406 1024.24 584.109 1025.58 585.516C1026.92 586.922 1027.6 588.762 1027.6 591.035C1027.6 593.297 1026.92 595.143 1025.58 596.572C1024.24 597.99 1022.27 598.699 1019.67 598.699H1014.8V609H1012.13ZM1014.8 596.432H1019.67C1021.62 596.432 1022.97 595.91 1023.75 594.867C1024.53 593.812 1024.93 592.535 1024.93 591.035C1024.93 589.535 1024.53 588.27 1023.75 587.238C1022.97 586.195 1021.62 585.674 1019.67 585.674H1014.8V596.432ZM1052.77 609L1042.75 596.115L1044.89 594.814L1056 609H1052.77ZM1039.9 594.656H1043.38L1052.21 583.406H1055.23L1044.51 596.906H1039.9V594.656ZM1038.57 609V583.406H1041.24V609H1038.57ZM1063.93 609V586.184L1057.66 588.645V586.078L1065.83 583.055H1066.6V609H1063.93Z" fill="#2D362E"/>
</svg>
