<svg preserveAspectRatio="none" viewBox="0 0 1482 631" fill="none" xmlns="http://www.w3.org/2000/svg">
<path d="M1481 55.9442V35.6531H1466.58V55.9442H1481Z" fill="#2D362E" stroke="#1B2024" stroke-width="0.755519" stroke-miterlimit="10"/>
<path d="M1476.91 50.1862V41.4113H1470.67V50.1862H1476.91Z" fill="#2D362E" stroke="#1B2024" stroke-width="0.755519" stroke-miterlimit="10"/>
<path d="M1481 96.5739V76.2808H1466.58V96.5739H1481Z" fill="#2D362E" stroke="#1B2024" stroke-width="0.755519" stroke-miterlimit="10"/>
<path d="M1476.91 90.8197V82.0467H1470.67V90.8197H1476.91Z" fill="#2D362E" stroke="#1B2024" stroke-width="0.755519" stroke-miterlimit="10"/>
<path d="M1481 137.207V116.914H1466.58V137.207H1481Z" fill="#2D362E" stroke="#1B2024" stroke-width="0.755519" stroke-miterlimit="10"/>
<path d="M1476.91 131.455V122.674H1470.67V131.455H1476.91Z" fill="#2D362E" stroke="#1B2024" stroke-width="0.755519" stroke-miterlimit="10"/>
<path d="M1481 177.843V157.552H1466.58V177.843H1481Z" fill="#2D362E" stroke="#1B2024" stroke-width="0.755519" stroke-miterlimit="10"/>
<path d="M1476.91 172.085V163.31H1470.67V172.085H1476.91Z" fill="#2D362E" stroke="#1B2024" stroke-width="0.755519" stroke-miterlimit="10"/>
<path fill-rule="evenodd" clip-rule="evenodd" d="M211.325 621L211.147 615.964H60.8591L9.40219 543.682C8.69327 542.714 7.62781 542.714 6.9175 543.682C6.56234 544.178 6.38477 544.824 6.38477 545.469C6.38477 546.115 6.56234 546.76 6.9175 547.256L58.9058 620.256C59.0833 620.726 59.6147 621 60.1474 621H211.323H211.325Z" fill="#2D362E"/>
<path fill-rule="evenodd" clip-rule="evenodd" d="M495.578 607.079L495.223 612.117H625.462C626.349 612.117 627.236 610.975 627.236 609.61C627.236 608.22 626.349 607.079 625.462 607.079H495.578Z" fill="#2D362E"/>
<path fill-rule="evenodd" clip-rule="evenodd" d="M372.083 559.091L371.195 554.055H349.37C348.837 554.055 348.483 554.329 348.128 554.799L341.74 563.781V563.755L334.465 574.152L304.655 615.962H259.763L261.538 620.998H305.364C305.897 620.998 306.252 620.724 306.606 620.254L333.932 581.868L342.981 569.114V569.088L350.079 559.089H372.08L372.083 559.091Z" fill="#2D362E"/>
<path fill-rule="evenodd" clip-rule="evenodd" d="M495.223 612.117L495.578 607.079H476.593L439.331 554.797C438.976 554.325 438.621 554.053 438.088 554.053H411.65L412.538 559.089H437.379L474.463 611.371C474.819 611.843 475.35 612.115 475.883 612.115H495.223V612.117Z" fill="#2D362E"/>
<path fill-rule="evenodd" clip-rule="evenodd" d="M261.54 621L259.766 615.964H211.148L211.325 621H261.54Z" fill="#2D362E"/>
<path fill-rule="evenodd" clip-rule="evenodd" d="M412.538 559.091L411.652 554.055H371.196L372.083 559.091H412.538Z" fill="#2D362E"/>
<path fill-rule="evenodd" clip-rule="evenodd" d="M342.984 569.141V569.116V569.09L341.741 563.781V563.755L334.467 574.154L304.834 615.716L308.384 617.651L333.934 581.87L342.984 569.141Z" fill="#2D362E"/>
<path fill-rule="evenodd" clip-rule="evenodd" d="M152.752 11.1426C152.752 12.5791 151.938 13.6556 150.953 13.6556H10.6384V144.715L27.1279 167.964C27.4705 168.413 27.6425 169.04 27.6425 169.759V201.985C27.6425 202.613 27.4719 203.331 27.1279 203.78L9.9952 227.926V315.359C9.9952 316.705 9.18142 317.874 8.19565 317.874C7.21129 317.874 6.43945 316.707 6.43945 315.359V226.85C6.43945 226.222 6.61144 225.592 6.95401 225.055L24.0867 200.997V170.747L7.5972 147.498C7.25463 147.049 7.08405 146.421 7.08405 145.791V11.1426C7.08405 10.5148 7.25463 9.79654 7.5972 9.34588C7.89783 8.8972 8.36904 8.62756 8.84025 8.62756H150.953C151.938 8.62756 152.752 9.79454 152.752 11.1426Z" fill="#2D362E"/>
<path fill-rule="evenodd" clip-rule="evenodd" d="M25.1591 165.181L25.1157 167.876C25.201 167.336 25.8876 177.39 27.6424 186.008V169.761C27.6424 169.043 27.4718 168.415 27.1278 167.966L25.1577 165.183L25.1591 165.181Z" fill="#2D362E"/>
<path d="M15.4187 325.476V305.183H1V325.476H15.4187Z" fill="#2D362E" stroke="#1B2024" stroke-width="0.755519" stroke-miterlimit="10"/>
<path d="M11.3261 319.718V310.943H5.09131V319.718H11.3261Z" fill="#2D362E" stroke="#1B2024" stroke-width="0.755519" stroke-miterlimit="10"/>
<path d="M15.4187 276.566V256.272H1V276.566H15.4187Z" fill="#2D362E" stroke="#1B2024" stroke-width="0.755519" stroke-miterlimit="10"/>
<path d="M11.3261 270.805V262.029H5.09131V270.805H11.3261Z" fill="#2D362E" stroke="#1B2024" stroke-width="0.755519" stroke-miterlimit="10"/>
<path d="M158.156 21.2952V1H143.734V21.2952H158.156Z" fill="#2D362E" stroke="#1B2024" stroke-width="0.755519" stroke-miterlimit="10"/>
<path d="M154.06 15.537V6.7561H147.825V15.537H154.06Z" fill="#2D362E" stroke="#1B2024" stroke-width="0.755519" stroke-miterlimit="10"/>
<path d="M493.187 21.2952V1H478.768V21.2952H493.187Z" fill="#2D362E" stroke="#1B2024" stroke-width="0.755519" stroke-miterlimit="10"/>
<path d="M489.097 15.537V6.7561H482.861V15.537H489.097Z" fill="#2D362E" stroke="#1B2024" stroke-width="0.755519" stroke-miterlimit="10"/>
<path d="M464.314 21.2952V1H449.895V21.2952H464.314Z" fill="#2D362E" stroke="#1B2024" stroke-width="0.755519" stroke-miterlimit="10"/>
<path d="M460.226 15.537V6.7561H453.991V15.537H460.226Z" fill="#2D362E" stroke="#1B2024" stroke-width="0.755519" stroke-miterlimit="10"/>
<path d="M435.446 21.2952V1H421.025V21.2952H435.446Z" fill="#2D362E" stroke="#1B2024" stroke-width="0.755519" stroke-miterlimit="10"/>
<path d="M431.352 15.537V6.7561H425.118V15.537H431.352Z" fill="#2D362E" stroke="#1B2024" stroke-width="0.755519" stroke-miterlimit="10"/>
<path d="M406.573 21.2952V1H392.156V21.2952H406.573Z" fill="#2D362E" stroke="#1B2024" stroke-width="0.755519" stroke-miterlimit="10"/>
<path d="M402.484 15.537V6.7561H396.248V15.537H402.484Z" fill="#2D362E" stroke="#1B2024" stroke-width="0.755519" stroke-miterlimit="10"/>
<path d="M377.702 21.2952V1H363.283V21.2952H377.702Z" fill="#2D362E" stroke="#1B2024" stroke-width="0.755519" stroke-miterlimit="10"/>
<path d="M373.614 15.537V6.7561H367.379V15.537H373.614Z" fill="#2D362E" stroke="#1B2024" stroke-width="0.755519" stroke-miterlimit="10"/>
<path d="M348.834 21.2952V1H334.416V21.2952H348.834Z" fill="#2D362E" stroke="#1B2024" stroke-width="0.755519" stroke-miterlimit="10"/>
<path d="M344.741 15.537V6.7561H338.506V15.537H344.741Z" fill="#2D362E" stroke="#1B2024" stroke-width="0.755519" stroke-miterlimit="10"/>
<path d="M689.896 6.7561L718.754 48.7849H706.802L677.946 6.7561H689.896Z" fill="#2D362E" stroke="#1B2024" stroke-width="0.755519" stroke-miterlimit="10"/>
<path d="M715.781 6.7561L744.64 48.7849H732.69L703.832 6.7561H715.781Z" fill="#2D362E" stroke="#1B2024" stroke-width="0.755519" stroke-miterlimit="10"/>
<path d="M741.67 6.7561L770.528 48.7849H758.577L729.718 6.7561H741.67Z" fill="#2D362E" stroke="#1B2024" stroke-width="0.755519" stroke-miterlimit="10"/>
<path d="M767.556 6.7561L796.414 48.7849H784.462L755.605 6.7561H767.556Z" fill="#2D362E" stroke="#1B2024" stroke-width="0.755519" stroke-miterlimit="10"/>
<path d="M793.443 6.7561L822.3 48.7849H810.349L781.492 6.7561H793.443Z" fill="#2D362E" stroke="#1B2024" stroke-width="0.755519" stroke-miterlimit="10"/>
<path fill-rule="evenodd" clip-rule="evenodd" d="M1477.5 467.404V618.104C1477.5 618.804 1477.5 619.505 1477.22 619.857C1476.65 620.382 1476.36 620.733 1475.8 620.733H1401.72C1401.44 620.733 1400.87 620.382 1400.59 619.857L1353.76 553.969H1299.84L1259.25 611.269C1258.97 611.619 1258.4 611.97 1258.12 611.97H1190.29C1189.15 611.97 1188.3 610.744 1188.3 609.34C1188.3 608.114 1189.15 606.888 1190.29 606.888H1257.27L1297.85 549.764C1298.14 549.238 1298.7 549.063 1299.27 549.063H1354.33C1354.9 549.063 1355.46 549.238 1355.75 549.764L1402.58 615.649H1474.1V468.457L1437.77 417.289C1437.2 416.764 1437.2 416.238 1437.2 415.536V263.786C1437.2 263.085 1437.2 262.385 1437.77 262.034L1472.68 212.443V177.924H1476.37V213.496C1476.37 214.196 1476.08 214.899 1475.8 215.249L1440.61 264.839V414.485L1477.22 465.653C1477.5 466.178 1477.5 466.879 1477.5 467.406L1477.5 467.404ZM1476.36 11.1034V35.6355H1472.67V13.7306H870.155L836.382 61.2184C836.098 61.5687 835.531 61.919 834.963 61.919H701.007C700.439 61.919 700.155 61.5687 699.871 61.2184L666.949 15.1317H483.043C482.192 15.1317 481.34 14.0809 481.34 12.6778C481.34 11.2766 482.192 10.2257 483.043 10.2257H667.801C668.369 10.2257 668.652 10.4009 668.936 10.9263L701.857 56.8358H834.394L868.167 9.34805C868.451 8.82262 868.735 8.64746 869.302 8.64746H1474.66C1474.94 8.64746 1475.51 8.82262 1475.79 9.34805C1476.08 9.87348 1476.36 10.3989 1476.36 11.1014L1476.36 11.1034ZM1476.36 55.9621V76.2887H1472.67V55.9621H1476.36ZM1476.36 96.6153V116.942H1472.67V96.6153H1476.36ZM1476.36 137.269V157.595H1472.67V137.269H1476.36Z" fill="#2D362E"/>
<path d="M928.637 622V596.406H942.348V598.674H931.309V606.971H936.178C938.779 606.971 940.748 607.662 942.084 609.045C943.432 610.428 944.105 612.232 944.105 614.459C944.105 616.686 943.432 618.502 942.084 619.908C940.748 621.303 938.779 622 936.178 622H928.637ZM931.309 609.238V619.732H936.178C938.123 619.732 939.482 619.223 940.256 618.203C941.041 617.172 941.434 615.924 941.434 614.459C941.434 613.006 941.041 611.775 940.256 610.768C939.482 609.748 938.123 609.238 936.178 609.238H931.309ZM947.691 622V596.406H962.141V598.674H950.363V607.656H960.471V609.924H950.363V619.732H962.316V622H947.691ZM979.719 622L969.699 609.115L971.844 607.814L982.953 622H979.719ZM966.852 607.656H970.332L979.156 596.406H982.18L971.457 609.906H966.852V607.656ZM965.516 622V596.406H968.188V622H965.516ZM997.842 596.055V599.447H998.299C1002 599.447 1004.79 600.32 1006.65 602.066C1008.52 603.801 1009.46 606.115 1009.46 609.01C1009.46 611.904 1008.52 614.225 1006.65 615.971C1004.79 617.717 1002 618.59 998.299 618.59H997.842V622.352H995.24V618.59H994.783C991.08 618.59 988.291 617.717 986.416 615.971C984.541 614.213 983.604 611.893 983.604 609.01C983.604 606.115 984.541 603.801 986.416 602.066C988.291 600.32 991.08 599.447 994.783 599.447H995.24V596.055H997.842ZM998.299 601.645H997.842V616.393H998.299C1001.43 616.393 1003.63 615.719 1004.91 614.371C1006.2 613.023 1006.84 611.248 1006.84 609.045C1006.84 606.842 1006.2 605.061 1004.91 603.701C1003.63 602.33 1001.43 601.645 998.299 601.645ZM994.783 601.645C991.643 601.645 989.428 602.318 988.139 603.666C986.861 605.002 986.223 606.777 986.223 608.992C986.223 611.195 986.861 612.982 988.139 614.354C989.428 615.713 991.643 616.393 994.783 616.393H995.24V601.645H994.783ZM1010.71 622L1019.46 596.318H1022.31L1031.05 622H1028.29L1021.55 601.662C1021.41 601.229 1021.29 600.83 1021.19 600.467C1021.09 600.104 1020.99 599.723 1020.89 599.324H1020.76C1020.66 599.723 1020.55 600.104 1020.45 600.467C1020.34 600.83 1020.22 601.229 1020.08 601.662L1013.36 622H1010.71ZM1014.37 614.986L1015.12 612.789H1026.58L1027.36 614.986H1014.37ZM1034.11 607.762H1045.79V610.012H1034.11V607.762ZM1032.75 609.959V608.447C1032.75 604.299 1033.67 601.182 1035.49 599.096C1037.33 597.01 1039.67 595.967 1042.49 595.967C1045.3 595.967 1047.48 596.74 1049.01 598.287C1050.56 599.834 1051.33 601.838 1051.33 604.299V604.65H1048.64V604.299C1048.64 602.424 1048.13 600.953 1047.11 599.887C1046.09 598.82 1044.55 598.287 1042.49 598.287C1040.35 598.287 1038.63 599.119 1037.36 600.783C1036.08 602.447 1035.44 604.938 1035.44 608.254V610.029C1035.44 613.287 1036.09 615.783 1037.39 617.518C1038.69 619.252 1040.41 620.119 1042.54 620.119C1044.5 620.119 1045.98 619.592 1046.99 618.537C1048 617.471 1048.54 615.994 1048.62 614.107L1048.64 613.756H1051.33L1051.31 614.195C1051.2 616.586 1050.41 618.561 1048.94 620.119C1047.48 621.666 1045.32 622.439 1042.47 622.439C1039.53 622.439 1037.18 621.391 1035.41 619.293C1033.64 617.184 1032.75 614.072 1032.75 609.959ZM1055.13 622V596.406H1062.67C1065.27 596.406 1067.24 597.109 1068.58 598.516C1069.92 599.922 1070.6 601.762 1070.6 604.035C1070.6 606.297 1069.92 608.143 1068.58 609.572C1067.24 610.99 1065.27 611.699 1062.67 611.699H1057.8V622H1055.13ZM1057.8 609.432H1062.67C1064.62 609.432 1065.97 608.91 1066.75 607.867C1067.53 606.812 1067.93 605.535 1067.93 604.035C1067.93 602.535 1067.53 601.27 1066.75 600.238C1065.97 599.195 1064.62 598.674 1062.67 598.674H1057.8V609.432ZM1095.77 622L1085.75 609.115L1087.89 607.814L1099 622H1095.77ZM1082.9 607.656H1086.38L1095.21 596.406H1098.23L1087.51 609.906H1082.9V607.656ZM1081.57 622V596.406H1084.24V622H1081.57ZM1106.93 622V599.184L1100.66 601.645V599.078L1108.83 596.055H1109.6V622H1106.93Z" fill="#2D362E"/>
<path fill-rule="evenodd" clip-rule="evenodd" d="M671 593.9H678.294L687.947 608.949L678.294 624H671L680.655 608.949L671 593.9ZM736.863 624V618.397L733.27 624H736.863ZM736.863 599.503V593.9H733.27L736.863 599.503ZM691.758 593.9H699.052L708.707 608.949L699.052 624H691.758L701.413 608.949L691.758 593.9ZM712.514 593.9H719.808L729.461 608.949L719.808 624H712.514L722.169 608.949L712.514 593.9Z" fill="#2D362E"/>
<path fill-rule="evenodd" clip-rule="evenodd" d="M789.747 605.857V612.043L791.731 608.949L789.747 605.857ZM795.539 593.9H802.833L812.488 608.949L802.833 624H795.539L805.194 608.949L795.539 593.9ZM816.295 593.9H823.589L833.244 608.949L823.589 624H816.295L825.95 608.949L816.295 593.9ZM837.051 593.9H844.345L854 608.949L844.345 624H837.051L846.704 608.949L837.051 593.9Z" fill="#2D362E"/>
<path fill-rule="evenodd" clip-rule="evenodd" d="M736.863 593.9V599.503L742.925 608.95L736.863 618.396V623.999H740.564L750.219 608.948L740.564 593.899H736.863V593.9ZM769.312 611.543V606.356L761.321 593.899H754.027L763.681 608.948L754.027 623.999H761.321L769.312 611.542V611.543Z" fill="#2D362E"/>
<path fill-rule="evenodd" clip-rule="evenodd" d="M769.312 606.357V611.544L770.975 608.951L769.312 606.357ZM789.747 612.043V605.857L782.077 593.9H774.783L784.437 608.949L774.783 624H782.077L789.747 612.043Z" fill="#2D362E"/>
</svg>
