<svg viewBox="0 0 730 487" fill="none"  preserveAspectRatio="none" xmlns="http://www.w3.org/2000/svg">
<path d="M729 43.892V28.0518H721.908V43.892H729Z" fill="#2D362E" stroke="#1B2024" stroke-miterlimit="10"/>
<path d="M726.986 39.397V32.5469H723.919V39.397H726.986Z" fill="#2D362E" stroke="#1B2024" stroke-miterlimit="10"/>
<path d="M729 75.6094V59.7676H721.908V75.6094H729Z" fill="#2D362E" stroke="#1B2024" stroke-miterlimit="10"/>
<path d="M726.986 71.1173V64.2687H723.919V71.1173H726.986Z" fill="#2D362E" stroke="#1B2024" stroke-miterlimit="10"/>
<path d="M729 107.33V91.488H721.908V107.33H729Z" fill="#2D362E" stroke="#1B2024" stroke-miterlimit="10"/>
<path d="M726.986 102.839V95.9846H723.919V102.839H726.986Z" fill="#2D362E" stroke="#1B2024" stroke-miterlimit="10"/>
<path d="M729 139.052V123.211H721.908V139.052H729Z" fill="#2D362E" stroke="#1B2024" stroke-miterlimit="10"/>
<path d="M726.986 134.557V127.706H723.919V134.557H726.986Z" fill="#2D362E" stroke="#1B2024" stroke-miterlimit="10"/>
<path fill-rule="evenodd" clip-rule="evenodd" d="M104.457 485L104.369 481.069H30.4439L5.13268 424.642C4.78397 423.887 4.25988 423.887 3.91048 424.642C3.73579 425.03 3.64844 425.533 3.64844 426.037C3.64844 426.541 3.73579 427.045 3.91048 427.432L29.4831 484.419C29.5704 484.786 29.8318 485 30.0938 485H104.456H104.457Z" fill="#2D362E"/>
<path fill-rule="evenodd" clip-rule="evenodd" d="M244.278 474.133L244.104 478.065H308.167C308.603 478.065 309.04 477.174 309.04 476.108C309.04 475.024 308.603 474.133 308.167 474.133H244.278Z" fill="#2D362E"/>
<path fill-rule="evenodd" clip-rule="evenodd" d="M183.532 436.671L183.096 432.74H172.36C172.098 432.74 171.924 432.954 171.749 433.321L168.607 440.332V440.312L165.028 448.428L150.365 481.067H128.283L129.156 484.998H150.714C150.976 484.998 151.151 484.785 151.325 484.418L164.766 454.452L169.218 444.495V444.475L172.709 436.67H183.531L183.532 436.671Z" fill="#2D362E"/>
<path fill-rule="evenodd" clip-rule="evenodd" d="M244.104 478.065L244.279 474.132H234.94L216.611 433.319C216.437 432.95 216.262 432.738 216 432.738H202.995L203.432 436.67H215.651L233.893 477.483C234.067 477.852 234.329 478.064 234.591 478.064H244.104V478.065Z" fill="#2D362E"/>
<path fill-rule="evenodd" clip-rule="evenodd" d="M129.157 485L128.284 481.069H104.37L104.457 485H129.157Z" fill="#2D362E"/>
<path fill-rule="evenodd" clip-rule="evenodd" d="M203.431 436.671L202.995 432.74H183.096L183.532 436.671H203.431Z" fill="#2D362E"/>
<path fill-rule="evenodd" clip-rule="evenodd" d="M169.219 444.517V444.497V444.477L168.607 440.332V440.312L165.029 448.43L150.453 480.875L152.199 482.385L164.767 454.453L169.219 444.517Z" fill="#2D362E"/>
<path fill-rule="evenodd" clip-rule="evenodd" d="M75.6458 8.91779C75.6458 10.0393 75.2455 10.8796 74.7606 10.8796H5.74121V113.19L13.8523 131.34C14.0208 131.69 14.1054 132.18 14.1054 132.741V157.898C14.1054 158.388 14.0215 158.949 13.8523 159.299L5.42482 178.149V246.403C5.42482 247.454 5.02453 248.366 4.53964 248.366C4.05544 248.366 3.67578 247.455 3.67578 246.403V177.309C3.67578 176.819 3.76038 176.327 3.92889 175.908L12.3563 157.127V133.512L4.24527 115.363C4.07676 115.012 3.99285 114.522 3.99285 114.031V8.91779C3.99285 8.42773 4.07676 7.86702 4.24527 7.51522C4.39314 7.16496 4.62493 6.95447 4.85671 6.95447H74.7606C75.2455 6.95447 75.6458 7.86547 75.6458 8.91779Z" fill="#2D362E"/>
<path fill-rule="evenodd" clip-rule="evenodd" d="M12.8836 129.167L12.8623 131.271C12.9043 130.85 13.242 138.698 14.1051 145.426V132.742C14.1051 132.182 14.0212 131.692 13.852 131.341L12.8829 129.169L12.8836 129.167Z" fill="#2D362E"/>
<path d="M8.09246 254.301V238.459H1V254.301H8.09246Z" fill="#2D362E" stroke="#1B2024" stroke-miterlimit="10"/>
<path d="M6.07954 249.806V242.956H3.0127V249.806H6.07954Z" fill="#2D362E" stroke="#1B2024" stroke-miterlimit="10"/>
<path d="M8.09246 216.119V200.277H1V216.119H8.09246Z" fill="#2D362E" stroke="#1B2024" stroke-miterlimit="10"/>
<path d="M6.07954 211.622V204.771H3.0127V211.622H6.07954Z" fill="#2D362E" stroke="#1B2024" stroke-miterlimit="10"/>
<path d="M78.3038 16.8433V1H71.21V16.8433H78.3038Z" fill="#2D362E" stroke="#1B2024" stroke-miterlimit="10"/>
<path d="M76.2895 12.3483V5.49353H73.2227V12.3483H76.2895Z" fill="#2D362E" stroke="#1B2024" stroke-miterlimit="10"/>
<path d="M243.102 16.8433V1H236.01V16.8433H243.102Z" fill="#2D362E" stroke="#1B2024" stroke-miterlimit="10"/>
<path d="M241.091 12.3483V5.49353H238.023V12.3483H241.091Z" fill="#2D362E" stroke="#1B2024" stroke-miterlimit="10"/>
<path d="M228.9 16.8433V1H221.808V16.8433H228.9Z" fill="#2D362E" stroke="#1B2024" stroke-miterlimit="10"/>
<path d="M226.889 12.3483V5.49353H223.822V12.3483H226.889Z" fill="#2D362E" stroke="#1B2024" stroke-miterlimit="10"/>
<path d="M214.701 16.8433V1H207.607V16.8433H214.701Z" fill="#2D362E" stroke="#1B2024" stroke-miterlimit="10"/>
<path d="M212.687 12.3483V5.49353H209.62V12.3483H212.687Z" fill="#2D362E" stroke="#1B2024" stroke-miterlimit="10"/>
<path d="M200.498 16.8433V1H193.406V16.8433H200.498Z" fill="#2D362E" stroke="#1B2024" stroke-miterlimit="10"/>
<path d="M198.486 12.3483V5.49353H195.419V12.3483H198.486Z" fill="#2D362E" stroke="#1B2024" stroke-miterlimit="10"/>
<path d="M186.297 16.8433V1H179.204V16.8433H186.297Z" fill="#2D362E" stroke="#1B2024" stroke-miterlimit="10"/>
<path d="M184.286 12.3483V5.49353H181.219V12.3483H184.286Z" fill="#2D362E" stroke="#1B2024" stroke-miterlimit="10"/>
<path d="M172.096 16.8433V1H165.004V16.8433H172.096Z" fill="#2D362E" stroke="#1B2024" stroke-miterlimit="10"/>
<path d="M170.083 12.3483V5.49353H167.017V12.3483H170.083Z" fill="#2D362E" stroke="#1B2024" stroke-miterlimit="10"/>
<path d="M339.862 5.49353L354.057 38.3031H348.178L333.984 5.49353H339.862Z" fill="#2D362E" stroke="#1B2024" stroke-miterlimit="10"/>
<path d="M352.595 5.49353L366.79 38.3031H360.912L346.717 5.49353H352.595Z" fill="#2D362E" stroke="#1B2024" stroke-miterlimit="10"/>
<path d="M365.329 5.49353L379.524 38.3031H373.645L359.45 5.49353H365.329Z" fill="#2D362E" stroke="#1B2024" stroke-miterlimit="10"/>
<path d="M378.062 5.49353L392.257 38.3031H386.378L372.184 5.49353H378.062Z" fill="#2D362E" stroke="#1B2024" stroke-miterlimit="10"/>
<path d="M390.796 5.49353L404.991 38.3031H399.113L384.918 5.49353H390.796Z" fill="#2D362E" stroke="#1B2024" stroke-miterlimit="10"/>
<path fill-rule="evenodd" clip-rule="evenodd" d="M727.278 365.096V482.739C727.278 483.286 727.278 483.833 727.138 484.108C726.859 484.518 726.72 484.791 726.44 484.791H690.004C689.864 484.791 689.585 484.518 689.446 484.108L666.412 432.673H639.887L619.924 477.404C619.784 477.677 619.505 477.95 619.366 477.95H586.001C585.443 477.95 585.024 476.993 585.024 475.898C585.024 474.941 585.443 473.984 586.001 473.984H618.947L638.91 429.39C639.05 428.98 639.329 428.843 639.609 428.843H666.692C666.971 428.843 667.25 428.98 667.39 429.39L690.424 480.823H725.604V365.918L707.735 325.974C707.456 325.564 707.456 325.154 707.456 324.605V206.143C707.456 205.596 707.456 205.049 707.735 204.775L724.906 166.062V139.115H726.722V166.884C726.722 167.431 726.582 167.979 726.442 168.253L709.131 206.964V323.785L727.14 363.729C727.279 364.139 727.279 364.686 727.279 365.098L727.278 365.096ZM726.72 8.8872V28.038H724.904V10.9381H428.53L411.917 48.0092C411.778 48.2827 411.499 48.5561 411.219 48.5561H345.327C345.048 48.5561 344.909 48.2827 344.769 48.0092L328.575 12.0319H238.113C237.694 12.0319 237.275 11.2115 237.275 10.1162C237.275 9.02239 237.694 8.20204 238.113 8.20204H328.994C329.273 8.20204 329.413 8.33878 329.552 8.74895L345.746 44.588H410.939L427.552 7.51688C427.692 7.10671 427.832 6.96997 428.111 6.96997H725.88C726.02 6.96997 726.299 7.10671 726.439 7.51688C726.579 7.92706 726.718 8.33722 726.718 8.88566L726.72 8.8872ZM726.72 43.9059V59.7738H724.904V43.9059H726.72ZM726.72 75.6417V91.5095H724.904V75.6417H726.72ZM726.72 107.377V123.245H724.904V107.377H726.72Z" fill="#2D362E"/>
<path fill-rule="evenodd" clip-rule="evenodd" d="M323 466.001H326.986L332.261 476L326.986 486H323L328.276 476L323 466.001ZM358.991 486V482.277L357.028 486H358.991ZM358.991 469.724V466.001H357.028L358.991 469.724ZM334.343 466.001H338.329L343.605 476L338.329 486H334.343L339.619 476L334.343 466.001ZM345.685 466.001H349.671L354.946 476L349.671 486H345.685L350.961 476L345.685 466.001Z" fill="#2D362E"/>
<path fill-rule="evenodd" clip-rule="evenodd" d="M387.889 473.945V478.056L388.973 476L387.889 473.945ZM391.054 466.001H395.04L400.315 476L395.04 486H391.054L396.329 476L391.054 466.001ZM402.396 466.001H406.382L411.657 476L406.382 486H402.396L407.672 476L402.396 466.001ZM413.738 466.001H417.724L423 476L417.724 486H413.738L419.013 476L413.738 466.001Z" fill="#2D362E"/>
<path fill-rule="evenodd" clip-rule="evenodd" d="M358.991 466.001V469.724L362.304 476L358.991 482.276V485.999H361.014L366.289 475.999L361.014 466H358.991V466.001ZM376.723 477.723V474.277L372.356 466H368.37L373.646 475.999L368.37 485.999H372.356L376.723 477.722V477.723Z" fill="#2D362E"/>
<path fill-rule="evenodd" clip-rule="evenodd" d="M376.723 474.278V477.724L377.632 476.001L376.723 474.278ZM387.89 478.056V473.945L383.698 466.001H379.712L384.988 476L379.712 486H383.698L387.89 478.056Z" fill="#2D362E"/>
<path d="M447.611 482V467.781H455.951V469.246H449.379V473.572H452.172C453.702 473.572 454.874 473.956 455.688 474.725C456.501 475.493 456.908 476.508 456.908 477.771C456.908 479.035 456.501 480.057 455.688 480.838C454.874 481.613 453.702 482 452.172 482H447.611ZM449.379 475.037V480.535H452.172C453.272 480.535 454.04 480.268 454.477 479.734C454.919 479.194 455.141 478.54 455.141 477.771C455.141 476.997 454.919 476.349 454.477 475.828C454.04 475.301 453.272 475.037 452.172 475.037H449.379ZM459.018 482V467.781H467.689V469.246H460.785V473.934H466.791V475.398H460.785V480.535H467.787V482H459.018ZM478.373 482L472.396 474.793L473.852 474.002L480.541 482H478.373ZM470.854 473.934H472.904L478.109 467.781H480.111L473.627 475.398H470.854V473.934ZM469.975 482V467.781H471.742V482H469.975ZM489.506 467.586V469.471H489.779C491.837 469.471 493.396 469.949 494.457 470.906C495.525 471.857 496.059 473.152 496.059 474.793C496.059 476.427 495.525 477.723 494.457 478.68C493.396 479.63 491.837 480.105 489.779 480.105H489.506V482.195H487.797V480.105H487.533C485.469 480.105 483.904 479.627 482.836 478.67C481.775 477.713 481.244 476.417 481.244 474.783C481.244 473.149 481.775 471.857 482.836 470.906C483.904 469.949 485.469 469.471 487.533 469.471H487.797V467.586H489.506ZM489.779 470.877H489.506V478.699H489.779C491.439 478.699 492.615 478.361 493.305 477.684C494.001 477.007 494.35 476.049 494.35 474.812C494.35 473.582 494.001 472.618 493.305 471.922C492.615 471.225 491.439 470.877 489.779 470.877ZM487.533 470.877C485.867 470.877 484.685 471.215 483.988 471.893C483.298 472.57 482.953 473.527 482.953 474.764C482.953 475.994 483.298 476.958 483.988 477.654C484.685 478.351 485.867 478.699 487.533 478.699H487.797V470.877H487.533ZM497.006 482L502.26 467.693H503.92L509.174 482H507.338L503.471 471.102C503.393 470.88 503.324 470.669 503.266 470.467C503.214 470.265 503.161 470.057 503.109 469.842H503.021C502.969 470.057 502.914 470.265 502.855 470.467C502.797 470.669 502.729 470.88 502.65 471.102L498.764 482H497.006ZM499.242 478.24L499.779 476.785H506.371L506.898 478.24H499.242ZM511.146 473.943H518.061V475.408H511.146V473.943ZM510.248 475.33V474.451C510.248 472.231 510.795 470.519 511.889 469.314C512.989 468.104 514.366 467.498 516.02 467.498C517.68 467.498 518.975 467.954 519.906 468.865C520.837 469.777 521.303 470.893 521.303 472.215V472.342H519.535V472.215C519.535 471.271 519.242 470.503 518.656 469.91C518.077 469.318 517.198 469.021 516.02 469.021C514.848 469.021 513.891 469.467 513.148 470.359C512.406 471.245 512.035 472.544 512.035 474.256V475.398C512.035 477.065 512.406 478.377 513.148 479.334C513.891 480.285 514.851 480.76 516.029 480.76C517.143 480.76 517.982 480.46 518.549 479.861C519.122 479.262 519.447 478.497 519.525 477.566L519.535 477.439H521.303L521.293 477.576C521.182 478.885 520.691 479.998 519.818 480.916C518.946 481.827 517.68 482.283 516.02 482.283C514.34 482.283 512.956 481.678 511.869 480.467C510.788 479.256 510.248 477.544 510.248 475.33ZM523.686 482V467.781H528.246C529.776 467.781 530.948 468.175 531.762 468.963C532.576 469.744 532.982 470.779 532.982 472.068C532.982 473.357 532.576 474.402 531.762 475.203C530.948 475.997 529.776 476.395 528.246 476.395H525.453V482H523.686ZM525.453 474.93H528.246C529.346 474.93 530.115 474.653 530.551 474.1C530.993 473.54 531.215 472.863 531.215 472.068C531.215 471.274 530.993 470.607 530.551 470.066C530.115 469.52 529.346 469.246 528.246 469.246H525.453V474.93ZM548.178 482L542.201 474.793L543.656 474.002L550.346 482H548.178ZM540.658 473.934H542.709L547.914 467.781H549.916L543.432 475.398H540.658V473.934ZM539.779 482V467.781H541.547V482H539.779ZM555.238 482V469.705L551.674 471.17V469.461L556.674 467.586H557.006V482H555.238Z" fill="#2D362E"/>
</svg>
