<svg width="986" height="482" viewBox="0 0 986 482" fill="none" xmlns="http://www.w3.org/2000/svg">
<path d="M985 43.0443V27.5042H975.415V43.0443H985Z" fill="#2D362E" stroke="#1B2024" stroke-width="0.755519" stroke-miterlimit="10"/>
<path d="M982.279 38.6343V31.9139H978.133V38.6343H982.279Z" fill="#2D362E" stroke="#1B2024" stroke-width="0.755519" stroke-miterlimit="10"/>
<path d="M985 74.1607V58.619H975.415V74.1607H985Z" fill="#2D362E" stroke="#1B2024" stroke-width="0.755519" stroke-miterlimit="10"/>
<path d="M982.279 69.7539V63.035H978.133V69.7539H982.279Z" fill="#2D362E" stroke="#1B2024" stroke-width="0.755519" stroke-miterlimit="10"/>
<path d="M985 105.28V89.7386H975.415V105.28H985Z" fill="#2D362E" stroke="#1B2024" stroke-width="0.755519" stroke-miterlimit="10"/>
<path d="M982.279 100.875V94.1501H978.133V100.875H982.279Z" fill="#2D362E" stroke="#1B2024" stroke-width="0.755519" stroke-miterlimit="10"/>
<path d="M985 136.401V120.861H975.415V136.401H985Z" fill="#2D362E" stroke="#1B2024" stroke-width="0.755519" stroke-miterlimit="10"/>
<path d="M982.279 131.991V125.271H978.133V131.991H982.279Z" fill="#2D362E" stroke="#1B2024" stroke-width="0.755519" stroke-miterlimit="10"/>
<path fill-rule="evenodd" clip-rule="evenodd" d="M140.837 475.797L140.719 471.94H40.7982L6.58625 416.583C6.11492 415.841 5.40653 415.841 4.93427 416.583C4.69814 416.963 4.58008 417.457 4.58008 417.951C4.58008 418.446 4.69814 418.94 4.93427 419.32L39.4994 475.227C39.6175 475.588 39.9708 475.797 40.325 475.797H140.836H140.837Z" fill="#2D362E"/>
<path fill-rule="evenodd" clip-rule="evenodd" d="M329.827 465.135L329.591 468.994H416.182C416.773 468.994 417.362 468.12 417.362 467.074C417.362 466.01 416.773 465.135 416.182 465.135H329.827Z" fill="#2D362E"/>
<path fill-rule="evenodd" clip-rule="evenodd" d="M247.72 428.383L247.13 424.527H232.619C232.265 424.527 232.029 424.736 231.793 425.096L227.546 431.975V431.955L222.709 439.918L202.89 471.939H173.042L174.222 475.795H203.361C203.715 475.795 203.951 475.586 204.187 475.226L222.355 445.827L228.371 436.059V436.04L233.09 428.382H247.718L247.72 428.383Z" fill="#2D362E"/>
<path fill-rule="evenodd" clip-rule="evenodd" d="M329.591 468.994L329.827 465.135H317.205L292.431 425.095C292.194 424.733 291.958 424.525 291.604 424.525H274.026L274.617 428.382H291.133L315.789 468.422C316.025 468.784 316.378 468.992 316.732 468.992H329.591V468.994Z" fill="#2D362E"/>
<path fill-rule="evenodd" clip-rule="evenodd" d="M174.224 475.797L173.044 471.94H140.72L140.837 475.797H174.224Z" fill="#2D362E"/>
<path fill-rule="evenodd" clip-rule="evenodd" d="M274.617 428.383L274.028 424.527H247.13L247.72 428.383H274.617Z" fill="#2D362E"/>
<path fill-rule="evenodd" clip-rule="evenodd" d="M228.373 436.081V436.061V436.041L227.546 431.975V431.956L222.71 439.919L203.008 471.75L205.369 473.232L222.356 445.829L228.373 436.081Z" fill="#2D362E"/>
<path fill-rule="evenodd" clip-rule="evenodd" d="M101.895 8.73241C101.895 9.83263 101.354 10.657 100.698 10.657H7.40843V111.03L18.3717 128.835C18.5995 129.179 18.7139 129.66 18.7139 130.21V154.891C18.7139 155.372 18.6004 155.922 18.3717 156.265L6.98079 174.758V241.719C6.98079 242.75 6.43973 243.645 5.78433 243.645C5.12986 243.645 4.6167 242.752 4.6167 241.719V173.934C4.6167 173.453 4.73105 172.971 4.95881 172.559L16.3498 154.134V130.966L5.38645 113.161C5.15868 112.817 5.04527 112.337 5.04527 111.854V8.73241C5.04527 8.25163 5.15868 7.70154 5.38645 7.3564C5.58632 7.01278 5.89961 6.80627 6.2129 6.80627H100.698C101.354 6.80627 101.895 7.70002 101.895 8.73241Z" fill="#2D362E"/>
<path fill-rule="evenodd" clip-rule="evenodd" d="M17.0625 126.704L17.0337 128.768C17.0904 128.355 17.5469 136.055 18.7136 142.655V130.212C18.7136 129.661 18.6001 129.181 18.3715 128.837L17.0616 126.706L17.0625 126.704Z" fill="#2D362E"/>
<path d="M10.5865 249.467V233.926H1V249.467H10.5865Z" fill="#2D362E" stroke="#1B2024" stroke-width="0.755519" stroke-miterlimit="10"/>
<path d="M7.86551 245.058V238.337H3.72021V245.058H7.86551Z" fill="#2D362E" stroke="#1B2024" stroke-width="0.755519" stroke-miterlimit="10"/>
<path d="M10.5865 212.009V196.467H1V212.009H10.5865Z" fill="#2D362E" stroke="#1B2024" stroke-width="0.755519" stroke-miterlimit="10"/>
<path d="M7.86551 207.597V200.876H3.72021V207.597H7.86551Z" fill="#2D362E" stroke="#1B2024" stroke-width="0.755519" stroke-miterlimit="10"/>
<path d="M105.488 16.5079V0.964722H95.8994V16.5079H105.488Z" fill="#2D362E" stroke="#1B2024" stroke-width="0.755519" stroke-miterlimit="10"/>
<path d="M102.764 12.0979V5.37305H98.6187V12.0979H102.764Z" fill="#2D362E" stroke="#1B2024" stroke-width="0.755519" stroke-miterlimit="10"/>
<path d="M328.237 16.5079V0.964722H318.651V16.5079H328.237Z" fill="#2D362E" stroke="#1B2024" stroke-width="0.755519" stroke-miterlimit="10"/>
<path d="M325.518 12.0979V5.37305H321.372V12.0979H325.518Z" fill="#2D362E" stroke="#1B2024" stroke-width="0.755519" stroke-miterlimit="10"/>
<path d="M309.041 16.5079V0.964722H299.455V16.5079H309.041Z" fill="#2D362E" stroke="#1B2024" stroke-width="0.755519" stroke-miterlimit="10"/>
<path d="M306.323 12.0979V5.37305H302.178V12.0979H306.323Z" fill="#2D362E" stroke="#1B2024" stroke-width="0.755519" stroke-miterlimit="10"/>
<path d="M289.848 16.5079V0.964722H280.26V16.5079H289.848Z" fill="#2D362E" stroke="#1B2024" stroke-width="0.755519" stroke-miterlimit="10"/>
<path d="M287.126 12.0979V5.37305H282.981V12.0979H287.126Z" fill="#2D362E" stroke="#1B2024" stroke-width="0.755519" stroke-miterlimit="10"/>
<path d="M270.652 16.5079V0.964722H261.066V16.5079H270.652Z" fill="#2D362E" stroke="#1B2024" stroke-width="0.755519" stroke-miterlimit="10"/>
<path d="M267.933 12.0979V5.37305H263.787V12.0979H267.933Z" fill="#2D362E" stroke="#1B2024" stroke-width="0.755519" stroke-miterlimit="10"/>
<path d="M251.456 16.5079V0.964722H241.869V16.5079H251.456Z" fill="#2D362E" stroke="#1B2024" stroke-width="0.755519" stroke-miterlimit="10"/>
<path d="M248.738 12.0979V5.37305H244.592V12.0979H248.738Z" fill="#2D362E" stroke="#1B2024" stroke-width="0.755519" stroke-miterlimit="10"/>
<path d="M232.263 16.5079V0.964722H222.676V16.5079H232.263Z" fill="#2D362E" stroke="#1B2024" stroke-width="0.755519" stroke-miterlimit="10"/>
<path d="M229.541 12.0979V5.37305H225.396V12.0979H229.541Z" fill="#2D362E" stroke="#1B2024" stroke-width="0.755519" stroke-miterlimit="10"/>
<path d="M459.022 5.37305L478.209 37.5612H470.263L451.078 5.37305H459.022Z" fill="#2D362E" stroke="#1B2024" stroke-width="0.755519" stroke-miterlimit="10"/>
<path d="M476.233 5.37305L495.42 37.5612H487.475L468.288 5.37305H476.233Z" fill="#2D362E" stroke="#1B2024" stroke-width="0.755519" stroke-miterlimit="10"/>
<path d="M493.446 5.37305L512.632 37.5612H504.686L485.499 5.37305H493.446Z" fill="#2D362E" stroke="#1B2024" stroke-width="0.755519" stroke-miterlimit="10"/>
<path d="M510.656 5.37305L529.843 37.5612H521.896L502.71 5.37305H510.656Z" fill="#2D362E" stroke="#1B2024" stroke-width="0.755519" stroke-miterlimit="10"/>
<path d="M527.868 5.37305L547.054 37.5612H539.108L519.922 5.37305H527.868Z" fill="#2D362E" stroke="#1B2024" stroke-width="0.755519" stroke-miterlimit="10"/>
<path fill-rule="evenodd" clip-rule="evenodd" d="M982.673 358.165V473.579C982.673 474.115 982.673 474.652 982.484 474.922C982.107 475.324 981.918 475.592 981.54 475.592H932.291C932.103 475.592 931.725 475.324 931.536 474.922L900.403 424.461H864.551L837.568 468.344C837.379 468.613 837.002 468.881 836.813 468.881H791.716C790.961 468.881 790.395 467.942 790.395 466.867C790.395 465.928 790.961 464.989 791.716 464.989H836.248L863.231 421.24C863.419 420.838 863.797 420.703 864.174 420.703H900.781C901.158 420.703 901.536 420.838 901.725 421.24L932.859 471.699H980.41V358.971L956.258 319.784C955.88 319.381 955.88 318.979 955.88 318.441V202.222C955.88 201.685 955.88 201.148 956.258 200.88L979.467 162.9V136.463H981.921V163.706C981.921 164.243 981.732 164.781 981.543 165.049L958.145 203.028V317.636L982.486 356.823C982.675 357.226 982.674 357.762 982.674 358.166L982.673 358.165ZM981.918 8.70257V27.4906H979.464V10.7146H578.871L556.416 47.0835C556.227 47.3518 555.85 47.6201 555.472 47.6201H466.41C466.032 47.6201 465.843 47.3518 465.655 47.0835L443.766 11.7877H321.494C320.927 11.7877 320.361 10.9829 320.361 9.90829C320.361 8.8352 320.927 8.03039 321.494 8.03039H444.332C444.71 8.03039 444.899 8.16453 445.087 8.56694L466.975 43.7271H555.094L577.549 7.35821C577.738 6.9558 577.926 6.82166 578.304 6.82166H980.784C980.972 6.82166 981.35 6.9558 981.538 7.35821C981.727 7.76062 981.916 8.16301 981.916 8.70106L981.918 8.70257ZM981.918 43.058V58.6253H979.464V43.058H981.918ZM981.918 74.1926V89.7599H979.464V74.1926H981.918ZM981.918 105.327V120.895H979.464V105.327H981.918Z" fill="#2D362E"/>
<path fill-rule="evenodd" clip-rule="evenodd" d="M446 457.804H451.58L458.965 468.332L451.58 478.862H446L453.386 468.332L446 457.804ZM496.387 478.862V474.942L493.639 478.862H496.387ZM496.387 461.724V457.804H493.639L496.387 461.724ZM461.881 457.804H467.461L474.847 468.332L467.461 478.862H461.881L469.267 468.332L461.881 457.804ZM477.76 457.804H483.34L490.724 468.332L483.34 478.862H477.76L485.146 468.332L477.76 457.804Z" fill="#2D362E"/>
<path fill-rule="evenodd" clip-rule="evenodd" d="M536.845 466.169V470.497L538.363 468.332L536.845 466.169ZM541.276 457.804H546.856L554.242 468.332L546.856 478.862H541.276L548.662 468.332L541.276 457.804ZM557.155 457.804H562.735L570.121 468.332L562.735 478.862H557.155L564.541 468.332L557.155 457.804ZM573.034 457.804H578.614L586 468.332L578.614 478.862H573.034L580.418 468.332L573.034 457.804Z" fill="#2D362E"/>
<path fill-rule="evenodd" clip-rule="evenodd" d="M496.387 457.804V461.724L501.025 468.332L496.387 474.941V478.86H499.219L506.605 468.331L499.219 457.803H496.387V457.804ZM521.211 470.147V466.518L515.098 457.803H509.518L516.904 468.331L509.518 478.86H515.098L521.211 470.146V470.147Z" fill="#2D362E"/>
<path fill-rule="evenodd" clip-rule="evenodd" d="M521.211 466.519V470.148L522.484 468.333L521.211 466.519ZM536.845 470.497V466.169L530.977 457.804H525.396L532.783 468.332L525.396 478.862H530.977L536.845 470.497Z" fill="#2D362E"/>
<path d="M628.887 476V458.938H638.684V460.637H630.926V465.91H634.254C636.066 465.91 637.449 466.371 638.402 467.293C639.363 468.215 639.844 469.43 639.844 470.938C639.844 472.445 639.363 473.668 638.402 474.605C637.449 475.535 636.066 476 634.254 476H628.887ZM630.926 467.609V474.301H634.254C635.566 474.301 636.484 473.977 637.008 473.328C637.539 472.672 637.805 471.875 637.805 470.938C637.805 470 637.539 469.211 637.008 468.57C636.484 467.93 635.566 467.609 634.254 467.609H630.926ZM642.34 476V458.938H652.559V460.637H644.379V466.344H651.469V468.043H644.379V474.301H652.676V476H642.34ZM665.109 476L658.066 467.363L659.73 466.438L667.594 476H665.109ZM656.203 466.344H658.629L664.781 458.938H667.078L659.461 468.043H656.203V466.344ZM655.184 476V458.938H657.223V476H655.184ZM678.152 458.703V460.965H678.469C680.938 460.965 682.805 461.539 684.07 462.688C685.344 463.836 685.98 465.391 685.98 467.352C685.98 469.305 685.344 470.855 684.07 472.004C682.805 473.152 680.938 473.727 678.469 473.727H678.152V476.234H676.172V473.727H675.855C673.387 473.727 671.516 473.152 670.242 472.004C668.977 470.848 668.344 469.293 668.344 467.34C668.344 465.387 668.977 463.836 670.242 462.688C671.516 461.539 673.387 460.965 675.855 460.965H676.172V458.703H678.152ZM678.469 462.594H678.152V472.098H678.469C680.484 472.098 681.91 471.68 682.746 470.844C683.59 470.008 684.012 468.848 684.012 467.363C684.012 465.895 683.59 464.734 682.746 463.883C681.91 463.023 680.484 462.594 678.469 462.594ZM675.855 462.594C673.84 462.594 672.41 463.012 671.566 463.848C670.73 464.676 670.312 465.832 670.312 467.316C670.312 468.793 670.73 469.961 671.566 470.82C672.41 471.672 673.84 472.098 675.855 472.098H676.172V462.594H675.855ZM687.047 476L693.234 458.844H695.203L701.391 476H699.281L694.676 462.805C694.582 462.531 694.5 462.273 694.43 462.031C694.359 461.789 694.293 461.539 694.23 461.281H694.137C694.074 461.539 694.008 461.789 693.938 462.031C693.867 462.273 693.785 462.531 693.691 462.805L689.074 476H687.047ZM689.672 471.453L690.281 469.766H698.121L698.73 471.453H689.672ZM703.664 466.379H711.844V468.078H703.664V466.379ZM702.645 467.984V466.953C702.645 464.258 703.289 462.195 704.578 460.766C705.867 459.328 707.492 458.609 709.453 458.609C711.422 458.609 712.953 459.148 714.047 460.227C715.141 461.305 715.688 462.645 715.688 464.246V464.41H713.637V464.246C713.637 463.082 713.289 462.145 712.594 461.434C711.906 460.723 710.859 460.367 709.453 460.367C708.039 460.367 706.891 460.906 706.008 461.984C705.133 463.062 704.695 464.648 704.695 466.742V468.066C704.695 470.105 705.137 471.699 706.02 472.848C706.91 473.996 708.062 474.57 709.477 474.57C710.805 474.57 711.809 474.215 712.488 473.504C713.168 472.785 713.551 471.848 713.637 470.691V470.527H715.688L715.676 470.715C715.551 472.293 714.973 473.625 713.941 474.711C712.918 475.789 711.422 476.328 709.453 476.328C707.453 476.328 705.816 475.609 704.543 474.172C703.277 472.727 702.645 470.664 702.645 467.984ZM718.465 476V458.938H723.832C725.645 458.938 727.027 459.41 727.98 460.355C728.941 461.293 729.422 462.531 729.422 464.07C729.422 465.609 728.941 466.855 727.98 467.809C727.027 468.762 725.645 469.238 723.832 469.238H720.504V476H718.465ZM720.504 467.539H723.832C725.145 467.539 726.062 467.203 726.586 466.531C727.117 465.852 727.383 465.031 727.383 464.07C727.383 463.102 727.117 462.289 726.586 461.633C726.062 460.969 725.145 460.637 723.832 460.637H720.504V467.539ZM747.281 476L740.238 467.363L741.902 466.438L749.766 476H747.281ZM738.375 466.344H740.801L746.953 458.938H749.25L741.633 468.043H738.375V466.344ZM737.355 476V458.938H739.395V476H737.355ZM755.496 476V461.129L751.242 462.863V460.895L757.102 458.703H757.535V476H755.496Z" fill="#2D362E"/>
</svg>
