<svg width="380" height="220" viewBox="0 0 380 220" fill="none" xmlns="http://www.w3.org/2000/svg">
<path fill-rule="evenodd" clip-rule="evenodd" d="M54.0029 216.761L53.9578 215.905H15.3698L2.15807 203.617C1.97598 203.453 1.70207 203.453 1.52074 203.617C1.4297 203.702 1.38379 203.811 1.38379 203.921C1.38379 204.031 1.42893 204.141 1.52074 204.225L14.8687 216.634C14.9138 216.714 15.0508 216.761 15.1878 216.761H54.0029Z" fill="#2D362E"/>
<path fill-rule="evenodd" clip-rule="evenodd" d="M126.988 214.394L126.896 215.25H160.336C160.564 215.25 160.792 215.056 160.792 214.824C160.792 214.588 160.564 214.394 160.336 214.394H126.988V214.394Z" fill="#2D362E"/>
<path fill-rule="evenodd" clip-rule="evenodd" d="M95.2784 206.237L95.0504 205.381H89.4468C89.3099 205.381 89.2188 205.427 89.1278 205.507L77.9657 215.905H66.4395L66.8955 216.761H78.1478C78.2848 216.761 78.3758 216.714 78.4668 216.634L89.6289 206.237H95.2777H95.2784Z" fill="#2D362E"/>
<path fill-rule="evenodd" clip-rule="evenodd" d="M126.897 215.251L126.988 214.395H122.113L112.546 205.507C112.455 205.427 112.364 205.381 112.227 205.381H105.439L105.667 206.237H112.045L121.567 215.124C121.658 215.205 121.795 215.251 121.931 215.251H126.898H126.897Z" fill="#2D362E"/>
<path fill-rule="evenodd" clip-rule="evenodd" d="M66.8966 216.761L66.4406 215.905H53.958L54.0032 216.761H66.8966Z" fill="#2D362E"/>
<path fill-rule="evenodd" clip-rule="evenodd" d="M105.667 206.237L105.439 205.38H95.0518L95.279 206.237H105.667Z" fill="#2D362E"/>
<path fill-rule="evenodd" clip-rule="evenodd" d="M87.8075 207.941L87.4885 207.03L78.0127 215.863L78.9239 216.191L87.8075 207.941Z" fill="#2D362E"/>
<path fill-rule="evenodd" clip-rule="evenodd" d="M341.036 215.036C341.036 214.792 341.245 214.609 341.498 214.609H377.525V192.33L373.291 188.377C373.203 188.301 373.16 188.194 373.16 188.072V182.594C373.16 182.487 373.203 182.365 373.291 182.289L377.69 178.184V163.321C377.69 163.092 377.899 162.894 378.152 162.894C378.405 162.894 378.603 163.092 378.603 163.321V178.367C378.603 178.474 378.559 178.581 378.471 178.672L374.072 182.762V187.904L378.306 191.857C378.394 191.933 378.438 192.04 378.438 192.147V215.036C378.438 215.143 378.395 215.265 378.306 215.342C378.229 215.418 378.108 215.464 377.987 215.464H341.498C341.245 215.464 341.036 215.265 341.036 215.036Z" fill="#2D362E"/>
<path fill-rule="evenodd" clip-rule="evenodd" d="M373.797 188.851L373.809 188.394C373.787 188.485 373.611 186.776 373.16 185.311V188.074C373.16 188.196 373.204 188.302 373.292 188.378L373.797 188.851Z" fill="#2D362E"/>
<path d="M376.298 161.602V165.052H380V161.602H376.298Z" fill="#2D362E"/>
<path d="M377.348 162.581V164.073H378.949V162.581H377.348Z" fill="#2D362E"/>
<path d="M376.298 169.917V173.366H380V169.917H376.298Z" fill="#2D362E"/>
<path d="M377.348 170.896V172.388H378.949V170.896H377.348Z" fill="#2D362E"/>
<path d="M339.648 213.311V216.761H343.352V213.311H339.648Z" fill="#2D362E"/>
<path d="M340.7 214.29V215.782H342.301V214.29H340.7Z" fill="#2D362E"/>
<path fill-rule="evenodd" clip-rule="evenodd" d="M38.964 1.72364C38.964 1.96801 38.7551 2.1509 38.5018 2.1509H2.47549V24.4302L6.7088 28.3827C6.79678 28.4589 6.84039 28.5656 6.84039 28.6875V34.1657C6.84039 34.2729 6.79678 34.3948 6.7088 34.471L2.31023 38.5759V53.4389C2.31023 53.6681 2.10135 53.8662 1.84811 53.8662C1.59486 53.8662 1.39746 53.6675 1.39746 53.4389V38.393C1.39746 38.2863 1.44107 38.1791 1.52906 38.0877L5.92763 33.998V28.8557L1.69432 24.9032C1.60633 24.827 1.56196 24.7198 1.56196 24.6131V1.72364C1.56196 1.61696 1.60557 1.49503 1.69432 1.41831C1.77083 1.34211 1.89248 1.29639 2.01337 1.29639H38.5018C38.7551 1.29639 38.964 1.49503 38.964 1.72364Z" fill="#2D362E"/>
<path fill-rule="evenodd" clip-rule="evenodd" d="M6.20288 27.9094L6.19141 28.3672C6.21359 28.2757 6.38957 29.9847 6.84021 31.4494V28.6872C6.84021 28.5653 6.7966 28.4586 6.70862 28.3824L6.20288 27.9094Z" fill="#2D362E"/>
<path d="M3.70233 55.1582V51.7086H0V55.1582H3.70233Z" fill="#2D362E"/>
<path d="M2.65137 54.1791V52.6875H1.05078V54.1791H2.65137Z" fill="#2D362E"/>
<path d="M3.70233 46.8437V43.3942H0V46.8437H3.70233Z" fill="#2D362E"/>
<path d="M2.65137 45.8647V44.3726H1.05078V45.8647H2.65137Z" fill="#2D362E"/>
<path d="M40.3515 3.44955V0H36.6484V3.44955H40.3515Z" fill="#2D362E"/>
<path d="M39.2998 2.47049V0.978394H37.6992V2.47049H39.2998Z" fill="#2D362E"/>
<path d="M126.371 3.44955V0H122.67V3.44955H126.371Z" fill="#2D362E"/>
<path d="M125.322 2.47049V0.978394H123.722V2.47049H125.322Z" fill="#2D362E"/>
<path d="M118.958 3.44955V0H115.257V3.44955H118.958Z" fill="#2D362E"/>
<path d="M117.909 2.47049V0.978394H116.309V2.47049H117.909Z" fill="#2D362E"/>
<path d="M111.547 3.44955V0H107.845V3.44955H111.547Z" fill="#2D362E"/>
<path d="M110.496 2.47049V0.978394H108.896V2.47049H110.496Z" fill="#2D362E"/>
<path d="M104.134 3.44955V0H100.433V3.44955H104.134Z" fill="#2D362E"/>
<path d="M103.085 2.47049V0.978394H101.483V2.47049H103.085Z" fill="#2D362E"/>
<path d="M96.7211 3.44955V0H93.0195V3.44955H96.7211Z" fill="#2D362E"/>
<path d="M95.6709 2.47049V0.978394H94.0703V2.47049H95.6709Z" fill="#2D362E"/>
<path d="M89.3088 3.44955V0H85.6064V3.44955H89.3088Z" fill="#2D362E"/>
<path d="M88.2588 2.47049V0.978394H86.6582V2.47049H88.2588Z" fill="#2D362E"/>
<path d="M176.88 0.978394L184.289 8.12236H181.22L173.812 0.978394H176.88Z" fill="#2D362E"/>
<path d="M183.526 0.978394L190.935 8.12236H187.867L180.458 0.978394H183.526Z" fill="#2D362E"/>
<path d="M190.173 0.978394L197.582 8.12236H194.514L187.104 0.978394H190.173Z" fill="#2D362E"/>
<path d="M196.819 0.978394L204.229 8.12236H201.16L193.751 0.978394H196.819Z" fill="#2D362E"/>
<path d="M203.465 0.978394L210.875 8.12236H207.806L200.396 0.978394H203.465Z" fill="#2D362E"/>
<path fill-rule="evenodd" clip-rule="evenodd" d="M377.882 36.1236L377.863 30.0613H376.298V26.6117H377.863V23.1637H378.81V26.6117H380.001V30.0613H378.81V36.1221C377.985 36.1231 378.471 36.1231 377.882 36.1236ZM380 9.33958V5.89003H378.81V1.71704C378.81 1.59765 378.737 1.50875 378.663 1.41883C378.591 1.32941 378.445 1.29944 378.372 1.29944H222.942C222.797 1.29944 222.723 1.32941 222.651 1.41883L213.979 9.49148H179.949L171.496 1.68707C171.423 1.59765 171.351 1.56819 171.205 1.56819H123.767C123.549 1.56819 123.329 1.74702 123.329 1.98478C123.329 2.22304 123.548 2.40187 123.767 2.40187H170.987L179.439 10.2358C179.512 10.2952 179.586 10.3551 179.731 10.3551H214.125C214.271 10.3551 214.417 10.2957 214.489 10.2358L223.16 2.1636H377.862V5.89003H376.297V9.33958H377.862V12.7967H376.297V16.2463H377.862V19.704H376.297V23.1535H379.999V19.704H378.808V16.2463H379.999V12.7967H378.808V9.33958H379.999H380Z" fill="#2D362E"/>
<path fill-rule="evenodd" clip-rule="evenodd" d="M168.841 217.282H170.434L172.542 214.482L170.434 211.683H168.841L170.949 214.482L168.841 217.282ZM183.225 211.683V212.725L182.441 211.683H183.225ZM183.225 216.24V217.282H182.441L183.225 216.24ZM173.374 217.282H174.967L177.076 214.482L174.967 211.683H173.374L175.483 214.482L173.374 217.282ZM177.907 217.282H179.5L181.609 214.482L179.5 211.683H177.907L180.016 214.482L177.907 217.282Z" fill="#2D362E"/>
<path fill-rule="evenodd" clip-rule="evenodd" d="M194.774 215.058V213.907L195.207 214.483L194.774 215.058V215.058ZM196.039 217.282H197.632L199.741 214.482L197.632 211.682H196.039L198.148 214.482L196.039 217.282ZM200.572 217.282H202.165L204.274 214.482L202.165 211.682H200.572L202.681 214.482L200.572 217.282ZM205.106 217.282H206.699L208.807 214.482L206.699 211.682H205.106L207.214 214.482L205.106 217.282Z" fill="#2D362E"/>
<path fill-rule="evenodd" clip-rule="evenodd" d="M183.225 217.282V216.239L184.548 214.482L183.225 212.725V211.682H184.033L186.141 214.482L184.033 217.282H183.225ZM190.312 214V214.964L188.567 217.281H186.974L189.082 214.482L186.974 211.682H188.567L190.312 213.999V214Z" fill="#2D362E"/>
<path fill-rule="evenodd" clip-rule="evenodd" d="M190.312 214.965V214L190.675 214.483L190.312 214.965V214.965ZM194.774 213.907V215.058L193.1 217.282H191.507L193.615 214.482L191.507 211.682H193.1L194.774 213.907V213.907Z" fill="#2D362E"/>
<path d="M225.312 219.48V208.105H232.133V209.316H226.789V212.722H229.039C230.284 212.722 231.237 213.029 231.898 213.644C232.565 214.259 232.898 215.074 232.898 216.089C232.898 217.105 232.565 217.925 231.898 218.55C231.237 219.17 230.284 219.48 229.039 219.48H225.312ZM226.789 213.933V218.269H229.039C229.924 218.269 230.544 218.058 230.898 217.636C231.253 217.209 231.43 216.693 231.43 216.089C231.43 215.48 231.253 214.969 230.898 214.558C230.544 214.141 229.924 213.933 229.039 213.933H226.789ZM234.609 219.48V208.105H241.688V209.316H236.086V213.003H240.969V214.222H236.086V218.269H241.766V219.48H234.609ZM250.422 219.48L245.555 213.706L246.773 213.058L252.227 219.48H250.422ZM244.328 213.003H245.992L250.219 208.105H251.883L246.594 214.222H244.328V213.003ZM243.594 219.48V208.105H245.07V219.48H243.594ZM259.547 207.949V209.456H259.766C261.411 209.456 262.661 209.837 263.516 210.597C264.375 211.357 264.805 212.397 264.805 213.714C264.805 215.027 264.375 216.063 263.516 216.824C262.661 217.584 261.411 217.964 259.766 217.964H259.547V219.636H258.125V217.964H257.906C256.255 217.964 255 217.584 254.141 216.824C253.286 216.058 252.859 215.019 252.859 213.706C252.859 212.394 253.286 211.357 254.141 210.597C255 209.837 256.255 209.456 257.906 209.456H258.125V207.949H259.547ZM259.766 210.62H259.547V216.8H259.766C261.078 216.8 262.01 216.537 262.562 216.011C263.115 215.485 263.391 214.725 263.391 213.73C263.391 212.745 263.115 211.982 262.562 211.441C262.01 210.894 261.078 210.62 259.766 210.62ZM257.906 210.62C256.594 210.62 255.661 210.884 255.109 211.41C254.557 211.936 254.281 212.696 254.281 213.691C254.281 214.675 254.557 215.441 255.109 215.988C255.661 216.529 256.594 216.8 257.906 216.8H258.125V210.62H257.906ZM265.609 219.48L269.891 208.027H271.234L275.516 219.48H273.984L270.875 210.847C270.812 210.67 270.758 210.503 270.711 210.347C270.664 210.186 270.622 210.016 270.586 209.839H270.508C270.471 210.016 270.43 210.186 270.383 210.347C270.336 210.503 270.281 210.67 270.219 210.847L267.078 219.48H265.609ZM267.445 216.495L267.891 215.285H273.211L273.656 216.495H267.445ZM277.148 213.011H282.766V214.222H277.148V213.011ZM276.406 214.152V213.433C276.406 211.678 276.852 210.313 277.742 209.339C278.633 208.36 279.75 207.87 281.094 207.87C282.438 207.87 283.49 208.24 284.25 208.98C285.01 209.719 285.391 210.613 285.391 211.66V211.745H283.922V211.66C283.922 210.925 283.688 210.321 283.219 209.847C282.75 209.373 282.042 209.136 281.094 209.136C280.161 209.136 279.393 209.49 278.789 210.199C278.19 210.902 277.891 211.923 277.891 213.261V214.206C277.891 215.514 278.19 216.548 278.789 217.308C279.388 218.068 280.156 218.449 281.094 218.449C281.99 218.449 282.667 218.209 283.125 217.73C283.583 217.245 283.846 216.644 283.914 215.925L283.922 215.839H285.391L285.383 215.925C285.284 216.967 284.88 217.86 284.172 218.605C283.464 219.344 282.438 219.714 281.094 219.714C279.745 219.714 278.625 219.227 277.734 218.253C276.849 217.274 276.406 215.907 276.406 214.152ZM287.359 219.48V208.105H291.086C292.331 208.105 293.284 208.42 293.945 209.05C294.612 209.675 294.945 210.506 294.945 211.542C294.945 212.584 294.612 213.425 293.945 214.066C293.284 214.701 292.331 215.019 291.086 215.019H288.836V219.48H287.359ZM288.836 213.8H291.086C291.971 213.8 292.591 213.581 292.945 213.144C293.299 212.706 293.477 212.173 293.477 211.542C293.477 210.917 293.299 210.391 292.945 209.964C292.591 209.532 291.971 209.316 291.086 209.316H288.836V213.8ZM307.344 219.48L302.477 213.706L303.695 213.058L309.148 219.48H307.344ZM301.25 213.003H302.914L307.141 208.105H308.805L303.516 214.222H301.25V213.003ZM300.516 219.48V208.105H301.992V219.48H300.516ZM313.164 219.48V209.714L310.297 210.917V209.488L314.391 207.949H314.641V219.48H313.164Z" fill="#2D362E"/>
</svg>
