<svg width="280" height="169" viewBox="0 0 280 169" fill="none" xmlns="http://www.w3.org/2000/svg">
<path fill-rule="evenodd" clip-rule="evenodd" d="M39.7914 164.777L39.7582 164.13H11.325L1.59005 154.84C1.45588 154.715 1.25405 154.715 1.12044 154.84C1.05336 154.904 1.01953 154.987 1.01953 155.069C1.01953 155.152 1.05279 155.235 1.12044 155.299L10.9558 164.681C10.989 164.742 11.0899 164.777 11.1909 164.777H39.7914Z" fill="#2D362E"/>
<path fill-rule="evenodd" clip-rule="evenodd" d="M93.57 162.988L93.5029 163.636H118.143C118.311 163.636 118.479 163.489 118.479 163.313C118.479 163.135 118.311 162.988 118.143 162.988H93.57V162.988Z" fill="#2D362E"/>
<path fill-rule="evenodd" clip-rule="evenodd" d="M70.2048 156.82L70.0368 156.173H65.9078C65.8069 156.173 65.7398 156.208 65.6728 156.269L57.4481 164.13H48.9551L49.2911 164.777H57.5823C57.6832 164.777 57.7503 164.742 57.8174 164.681L66.042 156.82H70.2042H70.2048Z" fill="#2D362E"/>
<path fill-rule="evenodd" clip-rule="evenodd" d="M93.503 163.635L93.5701 162.988H89.9784L82.9291 156.269C82.862 156.208 82.795 156.173 82.694 156.173H77.6924L77.8604 156.82H82.5599L89.5758 163.54C89.6429 163.601 89.7438 163.635 89.8442 163.635H93.5035H93.503Z" fill="#2D362E"/>
<path fill-rule="evenodd" clip-rule="evenodd" d="M49.2925 164.778L48.9565 164.13H39.7588L39.7921 164.778H49.2925Z" fill="#2D362E"/>
<path fill-rule="evenodd" clip-rule="evenodd" d="M77.8597 156.821L77.6917 156.173H70.0381L70.2055 156.821H77.8597Z" fill="#2D362E"/>
<path fill-rule="evenodd" clip-rule="evenodd" d="M64.7006 158.109L64.4655 157.42L57.4834 164.098L58.1548 164.347L64.7006 158.109Z" fill="#2D362E"/>
<path fill-rule="evenodd" clip-rule="evenodd" d="M251.289 163.473C251.289 163.289 251.443 163.15 251.63 163.15H278.175V146.306L275.056 143.317C274.991 143.26 274.959 143.179 274.959 143.087V138.945C274.959 138.864 274.991 138.772 275.056 138.714L278.297 135.611V124.373C278.297 124.2 278.451 124.05 278.638 124.05C278.824 124.05 278.97 124.2 278.97 124.373V135.749C278.97 135.83 278.937 135.911 278.873 135.98L275.632 139.072V142.96L278.751 145.948C278.816 146.006 278.848 146.087 278.848 146.167V163.473C278.848 163.554 278.816 163.646 278.751 163.704C278.694 163.762 278.605 163.796 278.516 163.796H251.63C251.443 163.796 251.289 163.646 251.289 163.473Z" fill="#2D362E"/>
<path fill-rule="evenodd" clip-rule="evenodd" d="M275.43 143.676L275.438 143.33C275.422 143.399 275.292 142.107 274.96 140.999V143.088C274.96 143.18 274.992 143.261 275.057 143.318L275.43 143.676Z" fill="#2D362E"/>
<path d="M277.271 123.074V125.682H280V123.074H277.271Z" fill="#2D362E"/>
<path d="M278.045 123.814V124.942H279.225V123.814H278.045Z" fill="#2D362E"/>
<path d="M277.271 129.36V131.968H280V129.36H277.271Z" fill="#2D362E"/>
<path d="M278.045 130.1V131.229H279.225V130.1H278.045Z" fill="#2D362E"/>
<path d="M250.267 162.169V164.777H252.995V162.169H250.267Z" fill="#2D362E"/>
<path d="M251.042 162.909V164.038H252.221V162.909H251.042Z" fill="#2D362E"/>
<path fill-rule="evenodd" clip-rule="evenodd" d="M28.7098 2.19449C28.7098 2.37925 28.5559 2.51753 28.3693 2.51753H1.82363V19.3622L4.9429 22.3506C5.00774 22.4082 5.03987 22.4888 5.03987 22.581V26.7229C5.03987 26.8039 5.00774 26.8961 4.9429 26.9537L1.70186 30.0573V41.2948C1.70186 41.468 1.54795 41.6178 1.36135 41.6178C1.17475 41.6178 1.0293 41.4676 1.0293 41.2948V29.919C1.0293 29.8384 1.06143 29.7573 1.12626 29.6882L4.36731 26.5961V22.7082L1.24803 19.7198C1.1832 19.6622 1.1505 19.5811 1.1505 19.5005V2.19449C1.1505 2.11383 1.18264 2.02165 1.24803 1.96365C1.30441 1.90603 1.39405 1.87146 1.48312 1.87146H28.3693C28.5559 1.87146 28.7098 2.02165 28.7098 2.19449Z" fill="#2D362E"/>
<path fill-rule="evenodd" clip-rule="evenodd" d="M4.57096 21.9928L4.5625 22.3389C4.57885 22.2697 4.70851 23.5619 5.04057 24.6693V22.5809C5.04057 22.4887 5.00843 22.408 4.9436 22.3504L4.57096 21.9928Z" fill="#2D362E"/>
<path d="M2.72803 42.5947V39.9866H0V42.5947H2.72803Z" fill="#2D362E"/>
<path d="M1.9538 41.855V40.7266H0.774414V41.855H1.9538Z" fill="#2D362E"/>
<path d="M2.72803 36.3083V33.7002H0V36.3083H2.72803Z" fill="#2D362E"/>
<path d="M1.9538 35.5689V34.4401H0.774414V35.5689H1.9538Z" fill="#2D362E"/>
<path d="M29.7325 3.49945V0.891357H27.0039V3.49945H29.7325Z" fill="#2D362E"/>
<path d="M28.9577 2.75996V1.6311H27.7783V2.75996H28.9577Z" fill="#2D362E"/>
<path d="M93.1161 3.49945V0.891357H90.3887V3.49945H93.1161Z" fill="#2D362E"/>
<path d="M92.3425 2.75996V1.6311H91.1631V2.75996H92.3425Z" fill="#2D362E"/>
<path d="M87.6532 3.49945V0.891357H84.9258V3.49945H87.6532Z" fill="#2D362E"/>
<path d="M86.8805 2.75996V1.6311H85.7012V2.75996H86.8805Z" fill="#2D362E"/>
<path d="M82.1929 3.49945V0.891357H79.4648V3.49945H82.1929Z" fill="#2D362E"/>
<path d="M81.4177 2.75996V1.6311H80.2383V2.75996H81.4177Z" fill="#2D362E"/>
<path d="M76.7304 3.49945V0.891357H74.0029V3.49945H76.7304Z" fill="#2D362E"/>
<path d="M75.9573 2.75996V1.6311H74.7773V2.75996H75.9573Z" fill="#2D362E"/>
<path d="M71.2685 3.49945V0.891357H68.541V3.49945H71.2685Z" fill="#2D362E"/>
<path d="M70.4938 2.75996V1.6311H69.3145V2.75996H70.4938Z" fill="#2D362E"/>
<path d="M65.8062 3.49945V0.891357H63.0781V3.49945H65.8062Z" fill="#2D362E"/>
<path d="M65.0329 2.75996V1.6311H63.8535V2.75996H65.0329Z" fill="#2D362E"/>
<path d="M130.332 1.6311L135.791 7.03243H133.53L128.071 1.6311H130.332Z" fill="#2D362E"/>
<path d="M135.229 1.6311L140.689 7.03243H138.428L132.969 1.6311H135.229Z" fill="#2D362E"/>
<path d="M140.127 1.6311L145.586 7.03243H143.326L137.866 1.6311H140.127Z" fill="#2D362E"/>
<path d="M145.024 1.6311L150.484 7.03243H148.223L142.764 1.6311H145.024Z" fill="#2D362E"/>
<path d="M149.921 1.6311L155.381 7.03243H153.12L147.66 1.6311H149.921Z" fill="#2D362E"/>
<path fill-rule="evenodd" clip-rule="evenodd" d="M278.439 28.2033L278.425 23.6198H277.272V21.0117H278.425V18.4047H279.123V21.0117H280V23.6198H279.123V28.2022C278.515 28.203 278.873 28.2029 278.439 28.2033ZM280 7.95279V5.3447H279.122V2.18964C279.122 2.09937 279.069 2.03215 279.015 1.96417C278.961 1.89656 278.854 1.8739 278.8 1.8739H164.273C164.166 1.8739 164.112 1.89656 164.058 1.96417L157.669 8.06764H132.594L126.365 2.16698C126.312 2.09937 126.258 2.07709 126.151 2.07709H91.1965C91.0358 2.07709 90.874 2.2123 90.874 2.39206C90.874 2.57221 91.0353 2.70742 91.1965 2.70742H125.99L132.218 8.63036C132.272 8.6753 132.326 8.72062 132.433 8.72062H157.776C157.884 8.72062 157.991 8.67568 158.045 8.63036L164.434 2.52727H278.424V5.3447H277.271V7.95279H278.424V10.5666H277.271V13.1747H278.424V15.789H277.271V18.3971H279.999V15.789H279.121V13.1747H279.999V10.5666H279.121V7.95279H279.999H280Z" fill="#2D362E"/>
<path fill-rule="evenodd" clip-rule="evenodd" d="M124.408 165.171H125.582L127.136 163.055L125.582 160.938H124.408L125.962 163.055L124.408 165.171ZM135.007 160.938V161.726L134.429 160.938H135.007ZM135.007 164.383V165.171H134.429L135.007 164.383ZM127.748 165.171H128.922L130.476 163.055L128.922 160.938H127.748L129.302 163.055L127.748 165.171ZM131.089 165.171H132.262L133.816 163.055L132.262 160.938H131.089L132.642 163.055L131.089 165.171Z" fill="#2D362E"/>
<path fill-rule="evenodd" clip-rule="evenodd" d="M143.518 163.49V162.62L143.837 163.055L143.518 163.49V163.49ZM144.449 165.171H145.623L147.177 163.054L145.623 160.938H144.449L146.003 163.054L144.449 165.171ZM147.79 165.171H148.963L150.517 163.054L148.963 160.938H147.79L149.343 163.054L147.79 165.171ZM151.13 165.171H152.304L153.857 163.054L152.304 160.938H151.13L152.684 163.054L151.13 165.171Z" fill="#2D362E"/>
<path fill-rule="evenodd" clip-rule="evenodd" d="M135.007 165.171V164.383L135.982 163.054L135.007 161.726V160.938H135.602L137.156 163.054L135.602 165.171H135.007ZM140.229 162.689V163.419L138.943 165.171H137.769L139.323 163.054L137.769 160.937H138.943L140.229 162.689V162.689Z" fill="#2D362E"/>
<path fill-rule="evenodd" clip-rule="evenodd" d="M140.229 163.419V162.69L140.496 163.055L140.229 163.42V163.419ZM143.517 162.62V163.49L142.283 165.171H141.109L142.663 163.054L141.109 160.938H142.283L143.517 162.619V162.62Z" fill="#2D362E"/>
<path d="M169.83 165.959V158.849H174.322V159.665H170.812V161.676H172.286C173.103 161.676 173.73 161.873 174.166 162.267C174.605 162.658 174.825 163.175 174.825 163.82C174.825 164.464 174.605 164.982 174.166 165.373C173.73 165.763 173.103 165.959 172.286 165.959H169.83ZM170.812 162.492V165.143H172.286C172.866 165.143 173.271 165.016 173.502 164.762C173.733 164.508 173.849 164.194 173.849 163.82C173.849 163.449 173.733 163.135 173.502 162.878C173.271 162.62 172.866 162.492 172.286 162.492H170.812ZM176.031 165.959V158.849H180.68V159.665H177.013V161.881H180.221V162.702H177.013V165.143H180.733V165.959H176.031ZM186.183 165.959L183.097 162.345L183.927 161.94L187.374 165.959H186.183ZM182.389 161.881H183.399L186.061 158.849H187.179L183.8 162.702H182.389V161.881ZM181.9 165.959V158.849H182.882V165.959H181.9ZM192.242 158.752V159.66H192.389C193.453 159.66 194.269 159.901 194.835 160.382C195.405 160.864 195.689 161.522 195.689 162.355C195.689 163.188 195.405 163.846 194.835 164.328C194.269 164.806 193.453 165.046 192.389 165.046H192.242V166.056H191.275V165.046H191.134C190.063 165.046 189.244 164.805 188.678 164.323C188.111 163.841 187.828 163.184 187.828 162.35C187.828 161.517 188.111 160.861 188.678 160.382C189.244 159.901 190.063 159.66 191.134 159.66H191.275V158.752H192.242ZM192.389 160.465H192.242V164.24H192.389C193.219 164.24 193.813 164.08 194.171 163.761C194.532 163.442 194.713 162.977 194.713 162.365C194.713 161.759 194.532 161.292 194.171 160.964C193.813 160.631 193.219 160.465 192.389 160.465ZM191.134 160.465C190.297 160.465 189.698 160.625 189.337 160.944C188.979 161.263 188.8 161.728 188.8 162.34C188.8 162.946 188.979 163.415 189.337 163.747C189.698 164.075 190.297 164.24 191.134 164.24H191.275V160.465H191.134ZM196.236 165.959L199.015 158.805H199.933L202.706 165.959H201.681L199.688 160.636C199.643 160.519 199.604 160.407 199.571 160.299C199.539 160.192 199.508 160.081 199.479 159.967H199.43C199.404 160.081 199.373 160.192 199.337 160.299C199.304 160.407 199.267 160.519 199.225 160.636L197.213 165.959H196.236ZM197.428 164.132L197.73 163.317L201.192 163.322L201.495 164.137L197.428 164.132ZM203.771 161.881H207.281V162.702H203.771V161.881ZM203.272 162.614V162.194C203.272 161.097 203.564 160.241 204.146 159.626C204.732 159.01 205.466 158.703 206.349 158.703C207.231 158.703 207.911 158.937 208.39 159.406C208.868 159.875 209.129 160.438 209.171 161.095L209.176 161.144H208.194L208.189 161.095C208.163 160.692 208.002 160.334 207.706 160.021C207.413 159.705 206.961 159.547 206.349 159.547C205.74 159.547 205.24 159.777 204.85 160.236C204.459 160.695 204.264 161.336 204.264 162.16V162.624C204.264 163.441 204.459 164.085 204.85 164.557C205.24 165.026 205.74 165.26 206.349 165.26C206.948 165.26 207.394 165.102 207.687 164.787C207.979 164.471 208.147 164.113 208.189 163.713L208.194 163.664H209.176L209.171 163.713C209.106 164.37 208.839 164.933 208.37 165.402C207.905 165.871 207.231 166.105 206.349 166.105C205.466 166.105 204.732 165.797 204.146 165.182C203.564 164.567 203.272 163.711 203.272 162.614ZM210.426 165.959V158.849H212.882C213.699 158.849 214.326 159.048 214.762 159.445C215.201 159.839 215.421 160.365 215.421 161.022C215.421 161.68 215.201 162.21 214.762 162.614C214.326 163.014 213.699 163.214 212.882 163.214H211.407V165.959H210.426ZM211.407 162.399H212.882C213.461 162.399 213.867 162.266 214.098 161.999C214.329 161.732 214.444 161.406 214.444 161.022C214.444 160.638 214.329 160.316 214.098 160.055C213.867 159.795 213.461 159.665 212.882 159.665H211.407V162.399ZM223.224 165.959L220.138 162.345L220.968 161.94L224.415 165.959H223.224ZM219.43 161.881H220.44L223.102 158.849H224.22L220.841 162.702H219.43V161.881ZM218.941 165.959V158.849H219.923V165.959H218.941ZM227.003 165.959V159.914L225.138 160.675V159.728L227.794 158.752H227.989V165.959H227.003Z" fill="#2D362E"/>
</svg>
