<svg width="530" height="415" viewBox="0 0 530 415" fill="none" xmlns="http://www.w3.org/2000/svg">
<path d="M304.921 127.955C305.104 122.114 305.4 116.458 305.703 110.911C307.721 110.993 309.777 111.062 311.767 111.156L307.893 170.564C307.84 171.349 308.389 172.028 309.117 172.082C309.146 172.085 309.178 172.085 309.212 172.085C309.896 172.085 310.477 171.513 310.526 170.762L314.407 111.298C317.426 111.449 320.424 111.608 323.372 111.782L319.733 161.149C319.675 161.931 320.219 162.617 320.942 162.68C320.978 162.683 321.014 162.685 321.05 162.685C321.731 162.685 322.309 162.119 322.362 161.376L326.009 111.934C356.393 113.827 382.894 116.984 405.331 120.538L399.587 193.194H299.447C302.218 168.404 304.387 144.922 304.921 127.955ZM359.631 12.4679C359.94 14.0097 359.597 15.3815 358.575 16.6649C349.308 28.2969 295.554 26.7126 279.665 25.9819C279.203 23.1657 278.541 20.4232 277.716 17.8363C292.151 13.58 342.879 -0.445307 356.666 8.40629C358.329 9.47371 359.297 10.8018 359.63 12.4679H359.631ZM260.385 6.02191C261.995 4.0023 263.542 2.84425 264.627 2.84425C265.712 2.84425 267.255 4.0023 268.865 6.02191C272.721 10.8589 277.271 21.4616 277.7 32.6449C274.268 32.0128 270.541 31.6413 266.43 31.592C266.349 31.5753 266.269 31.5663 266.185 31.5663L265.67 31.5719C265.654 31.5719 265.404 31.5663 265.388 31.5663C265.306 31.5663 265.224 31.5753 265.145 31.592C265.005 31.592 264.881 31.6066 264.741 31.6089C264.643 31.601 264.551 31.6088 264.453 31.62C262.11 31.6681 259.9 31.8337 257.776 32.0721C257.828 31.9378 257.875 31.7991 257.889 31.6458C258.409 25.7056 260.077 19.7966 262.719 14.5513C263.068 13.862 262.83 12.9983 262.188 12.6246C261.555 12.2553 260.75 12.5048 260.402 13.1963C257.591 18.7729 255.814 25.0633 255.261 31.3784C255.232 31.7364 255.337 32.0698 255.519 32.3395C254.138 32.5465 252.824 32.8139 251.544 33.107C251.861 21.7569 256.477 10.926 260.386 6.02079L260.385 6.02191ZM170.382 12.4679C170.714 10.8007 171.683 9.4726 173.343 8.40629C176.539 6.35535 181.715 5.53297 187.967 5.53297C208.274 5.53297 239.888 14.2044 251.593 17.6316C250.738 20.2856 250.054 23.1142 249.579 26.0155C232.788 26.7607 180.559 28.1145 171.438 16.6649C170.419 15.3849 170.073 14.0097 170.382 12.4679ZM130.426 193.194L124.683 120.538C147.12 116.984 173.619 113.827 204.003 111.934L207.651 161.376C207.706 162.119 208.281 162.685 208.962 162.685C208.999 162.685 209.036 162.683 209.07 162.68C209.796 162.617 210.339 161.931 210.279 161.149L206.636 111.782C209.584 111.608 212.585 111.449 215.605 111.298L219.488 170.762C219.535 171.513 220.116 172.085 220.801 172.085C220.833 172.085 220.864 172.085 220.897 172.082C221.623 172.028 222.171 171.348 222.121 170.564L218.242 111.156C220.25 111.063 222.328 110.993 224.368 110.911C224.637 116.439 224.907 122.121 225.09 127.955C225.624 144.918 227.793 168.404 230.565 193.194H130.425H130.426ZM6.54117 211.985C6.02216 212.273 5.57477 212.307 5.0952 212.105C1.8607 210.478 2.10463 179.775 4.18173 151.867L14.4987 148.996V194.433C13.4731 198.789 10.1535 209.995 6.54014 211.985H6.54117ZM35.1327 175.062C34.4019 175.062 33.8123 175.698 33.8123 176.484V193.194H27.1056V165.291C27.1056 164.503 26.515 163.869 25.7863 163.869C25.0555 163.869 24.4669 164.504 24.4669 165.291V193.194H17.1384V148.12C21.4068 146.305 42.4882 137.742 79.2293 129.272C91.1044 126.538 105.423 123.639 122.068 120.943L127.779 193.195H36.4531V176.485C36.4531 175.699 35.8635 175.063 35.1337 175.063L35.1327 175.062ZM167.917 371.444C167.917 360.838 174.228 351.574 183.615 348.397L247.205 326.872C247.322 329.441 247.401 332.204 247.462 335.084L197.753 352.66C197.061 352.905 196.685 353.706 196.911 354.454C197.092 355.052 197.61 355.432 198.165 355.432C198.302 355.432 198.442 355.41 198.579 355.361L247.519 338.061C247.538 339.12 247.556 340.186 247.574 341.265C247.613 343.555 247.653 345.896 247.707 348.26L212.311 360.113C211.613 360.345 211.226 361.142 211.442 361.894C211.617 362.503 212.137 362.895 212.701 362.895C212.83 362.895 212.962 362.875 213.094 362.829L247.774 351.22C247.864 354.609 247.983 358.034 248.163 361.421L225.488 368.462C224.788 368.679 224.384 369.467 224.585 370.224C224.754 370.846 225.279 371.25 225.854 371.25C225.976 371.25 226.094 371.234 226.219 371.196L248.336 364.327C248.742 370.575 249.392 376.635 250.466 382.083L167.913 390.505V371.445L167.917 371.444ZM264.663 412.157C259.462 412.157 255.388 396.132 255.388 375.674C255.388 365.861 256.315 356.738 257.991 349.979C259.722 343.017 262.09 339.188 264.663 339.188C269.548 339.188 273.524 356.072 273.524 376.832C273.524 386.473 272.653 395.341 271.072 401.802C269.435 408.479 267.16 412.157 264.663 412.157ZM362.096 390.504L279.025 382.032C280.16 376.574 280.871 370.495 281.34 364.226L303.787 371.196C303.912 371.234 304.033 371.25 304.154 371.25C304.727 371.25 305.254 370.845 305.421 370.224C305.622 369.467 305.218 368.679 304.518 368.462L281.54 361.328C281.754 357.947 281.908 354.537 282.026 351.149L316.915 362.829C317.045 362.875 317.177 362.895 317.306 362.895C317.868 362.895 318.391 362.503 318.567 361.894C318.784 361.142 318.394 360.345 317.696 360.113L282.126 348.204C282.205 345.565 282.274 342.953 282.338 340.403C282.358 339.608 282.377 338.815 282.399 338.028L331.434 355.362C331.569 355.41 331.709 355.433 331.846 355.433C332.4 355.433 332.918 355.052 333.099 354.455C333.327 353.707 332.949 352.905 332.258 352.661L282.48 335.059C282.562 332.19 282.656 329.435 282.786 326.868L346.399 348.399C355.785 351.58 362.095 360.84 362.095 371.446V390.506L362.096 390.504ZM280.689 319.37C280.087 324.977 279.899 332.433 279.701 340.325C279.353 354.049 278.926 370.657 276.027 383.164C276.112 381.1 276.162 378.987 276.162 376.832C276.162 361.793 273.74 336.344 264.663 336.344C260.671 336.344 257.568 340.682 255.444 349.242C253.705 356.236 252.75 365.624 252.75 375.675C252.75 377.28 252.784 378.882 252.834 380.478C250.706 368.828 250.437 354.209 250.216 341.214C250.076 332.973 249.944 325.189 249.321 319.372C248.679 313.387 247.044 301.247 244.975 285.874C238.985 241.441 228.962 167.078 227.732 127.861C227.532 121.591 227.236 115.475 226.948 109.562C225.599 81.807 224.433 57.8391 235.544 45.1117C241.702 38.0559 251.468 34.5628 265.398 34.4363C265.463 34.4363 265.527 34.4307 265.588 34.4195C265.694 34.4229 265.802 34.4251 265.809 34.4251L265.812 34.377C265.928 34.4139 266.049 34.4363 266.177 34.4363C279.914 34.5628 289.489 37.9675 295.446 44.8432C306.043 57.0816 304.765 80.0772 303.284 106.708C302.902 113.522 302.511 120.571 302.281 127.86C301.048 167.094 291.022 241.492 285.03 285.941C282.962 301.276 281.33 313.393 280.689 319.371V319.37ZM504.222 163.87C503.494 163.87 502.903 164.505 502.903 165.292V193.195H496.196V176.485C496.196 175.699 495.607 175.063 494.875 175.063C494.148 175.063 493.557 175.699 493.557 176.485V193.195H402.234L407.946 120.943C424.588 123.639 438.907 126.538 450.782 129.272C487.524 137.742 508.607 146.305 512.874 148.12V193.194H505.542V165.291C505.542 164.503 504.954 163.869 504.222 163.869V163.87ZM524.917 212.105C524.44 212.307 523.993 212.273 523.468 211.985C519.871 210.002 516.563 198.873 515.514 194.439V148.996L525.831 151.867C527.909 179.779 528.154 210.48 524.917 212.105ZM529.894 181.039C529.533 165.841 528.399 150.775 528.385 150.624C528.337 150.021 527.944 149.517 527.4 149.364L514.602 145.805C513.478 145.303 491.923 135.853 451.436 126.516C439.194 123.694 424.338 120.701 407.051 117.93C406.989 117.915 406.929 117.878 406.864 117.874C406.83 117.87 406.794 117.887 406.76 117.887C383.743 114.209 356.41 110.938 324.979 109.02C324.953 109.014 324.932 108.997 324.902 108.997C324.868 108.992 324.839 109.009 324.805 109.009C321.075 108.781 317.246 108.588 313.4 108.4C313.355 108.391 313.319 108.366 313.273 108.363C313.22 108.357 313.167 108.383 313.114 108.385C310.723 108.269 308.287 108.169 305.851 108.072C305.874 107.677 305.893 107.268 305.917 106.875C307.434 79.595 308.746 56.0277 297.37 42.8985C293.256 38.151 287.62 34.942 280.349 33.1865C280.315 31.7386 280.214 30.293 280.057 28.8597C284.812 29.0812 292.482 29.3565 301.282 29.3565C323.69 29.3565 353.368 27.5641 360.576 18.5178C362.147 16.544 362.696 14.3074 362.212 11.8693C361.721 9.42227 360.309 7.43396 358.015 5.96261C343.096 -3.61291 291.254 10.8421 276.787 15.1521C275.127 10.728 273.045 6.90471 270.862 4.16789C268.691 1.44338 266.535 0 264.624 0C262.71 0 260.554 1.44226 258.382 4.17125C256.235 6.86556 254.185 10.615 252.535 14.9507C237.227 10.4192 186.687 -3.47305 171.991 5.96261C169.695 7.43396 168.285 9.42227 167.797 11.8693C167.311 14.3074 167.861 16.544 169.433 18.52C176.636 27.5641 206.314 29.3565 228.724 29.3565C237.073 29.3565 244.391 29.1092 249.185 28.8933C249.005 30.5258 248.905 32.1739 248.889 33.8209C242.523 35.7074 237.44 38.7798 233.618 43.1581C221.963 56.5088 222.886 80.3659 224.23 108.071C221.77 108.17 219.309 108.27 216.892 108.386C216.839 108.384 216.786 108.358 216.734 108.364C216.686 108.367 216.65 108.392 216.605 108.401C212.759 108.589 208.933 108.783 205.201 109.01C205.166 109.01 205.137 108.993 205.103 108.998C205.077 108.998 205.053 109.015 205.026 109.021C173.595 110.939 146.263 114.21 123.245 117.888C123.212 117.888 123.179 117.871 123.145 117.875C123.078 117.88 123.023 117.916 122.959 117.931C105.67 120.699 90.8116 123.694 78.5722 126.517C38.0869 135.854 16.5291 145.304 15.406 145.806L2.60704 149.365C2.06415 149.518 1.6697 150.022 1.62402 150.625C1.61053 150.776 0.473892 165.842 0.112658 181.04C-0.639915 212.7 2.5676 214.081 4.10908 214.743C4.62186 214.968 5.14918 215.079 5.68169 215.079C6.37198 215.079 7.06539 214.891 7.74011 214.518C12.513 211.886 15.8741 199.85 16.8322 196.04H230.882C234.496 227.954 239.04 261.692 242.355 286.281C244.425 301.63 246.058 313.751 246.692 319.697C246.831 321.008 246.945 322.439 247.039 323.948L182.82 345.685C172.323 349.235 165.271 359.588 165.271 371.442V392.067C165.271 392.465 165.429 392.849 165.703 393.12C165.945 393.359 166.263 393.49 166.59 393.49C166.632 393.49 166.674 393.487 166.714 393.485L251.064 384.88C251.805 388.033 252.727 390.924 253.849 393.479C255.49 405.668 259.001 415 264.657 415C268.576 415 271.591 410.802 273.615 402.527C274.209 400.102 274.705 397.347 275.095 394.364C276.443 391.59 277.524 388.367 278.395 384.824L363.286 393.485C363.329 393.487 363.368 393.49 363.41 393.49C363.738 393.49 364.053 393.359 364.299 393.12C364.571 392.85 364.729 392.465 364.729 392.067V371.442C364.729 359.587 357.677 349.235 347.18 345.685L282.95 323.944C283.05 322.434 283.166 321.008 283.306 319.697C283.94 313.759 285.574 301.662 287.637 286.349C290.952 261.744 295.502 227.978 299.118 196.04H513.169C514.148 199.922 517.506 211.895 522.261 214.518C522.933 214.891 523.631 215.079 524.319 215.079C524.851 215.079 525.378 214.967 525.89 214.743C527.431 214.08 530.638 212.7 529.888 181.04L529.894 181.039Z" fill="#566A47"/>
</svg>
