<svg width="442" height="660" viewBox="0 0 442 660" fill="none" xmlns="http://www.w3.org/2000/svg">
<g opacity="0.5">
<path d="M235.41 200.178C198.892 147.071 138.199 115.363 73.0527 115.363V102.662C142.498 102.662 207.195 136.458 246.123 193.068L235.412 200.178H235.41Z" fill="#2D362E"/>
<path d="M165.054 491.826L159.347 480.431C184.188 468.429 206.657 450.94 224.31 429.865L234.293 437.934C215.476 460.397 191.535 479.035 165.054 491.826Z" fill="#2D362E"/>
<path d="M66.2996 139.614L65.9265 130.094C67.0213 130.055 68.1205 130.022 69.2153 130L69.4187 139.524C68.3819 139.544 67.3385 139.575 66.2996 139.614ZM94.3872 140.78C93.3505 140.655 92.3138 140.538 91.2726 140.429L92.3004 130.957C93.393 131.071 94.4811 131.196 95.5782 131.326L94.3895 140.78H94.3872ZM41.4673 142.341L39.6955 132.978C40.7724 132.781 41.8583 132.594 42.9419 132.414L44.5551 141.807C43.5251 141.974 42.4951 142.154 41.4673 142.341ZM118.871 145.578C117.872 145.304 116.869 145.043 115.864 144.788L118.272 135.56C119.347 135.832 120.415 136.113 121.474 136.401L118.871 145.578ZM17.3187 148.597L14.1571 139.59C15.2006 139.237 16.2462 138.894 17.2986 138.563L20.277 147.626C19.2872 147.94 18.2996 148.265 17.3187 148.597ZM142.419 153.865C141.462 153.448 140.504 153.04 139.543 152.64L143.31 143.864C144.331 144.288 145.345 144.718 146.353 145.157L142.419 153.867V153.865ZM-5.64342 158.264L-10.0986 149.804C-9.12672 149.31 -8.15034 148.823 -7.16501 148.344L-2.85722 156.879C-3.78894 157.333 -4.71841 157.794 -5.64118 158.266L-5.64342 158.264ZM164.467 165.44C163.586 164.891 162.697 164.355 161.803 163.822L166.835 155.676C167.778 156.24 168.719 156.811 169.648 157.388L164.467 165.44ZM-26.9119 171.11L-32.5782 163.379C-31.6889 162.749 -30.7885 162.125 -29.8836 161.513L-24.3604 169.343C-25.2161 169.922 -26.0674 170.513 -26.9119 171.112V171.11ZM184.551 180.037C183.769 179.372 182.971 178.718 182.174 178.066L188.347 170.725C189.203 171.415 190.048 172.115 190.885 172.826L184.551 180.039V180.037ZM-46.0757 186.864L-52.8189 180.02C-52.028 179.269 -51.2325 178.525 -50.4282 177.787L-43.8034 184.741C-44.5698 185.444 -45.3272 186.153 -46.0757 186.864ZM202.292 197.352C201.606 196.582 200.909 195.813 200.209 195.052L207.415 188.673C208.15 189.472 208.874 190.279 209.596 191.089L202.292 197.352ZM-62.717 205.184L-70.4008 199.374C-69.7238 198.513 -69.0468 197.662 -68.3586 196.817L-60.7865 202.767C-61.439 203.567 -62.0802 204.374 -62.717 205.184ZM217.268 216.981C216.708 216.12 216.136 215.269 215.561 214.419L223.621 209.129C224.235 210.025 224.836 210.931 225.43 211.84L217.268 216.981ZM-76.4827 225.684L-84.9485 221.035C-84.4078 220.087 -83.8604 219.145 -83.3041 218.21L-74.9321 223.015C-75.4594 223.9 -75.9777 224.789 -76.4827 225.687V225.684ZM229.186 238.53C228.759 237.604 228.324 236.68 227.877 235.762L236.644 231.677C237.114 232.652 237.572 233.635 238.025 234.618L229.186 238.53ZM-87.0622 247.941L-96.1268 244.556C-95.7358 243.539 -95.3314 242.532 -94.9225 241.522L-85.9227 245.067C-86.3115 246.022 -86.6913 246.979 -87.0622 247.938V247.941ZM237.755 261.568C237.476 260.587 237.183 259.61 236.884 258.637L246.156 255.856C246.478 256.897 246.793 257.939 247.094 258.991L237.755 261.568ZM-94.2076 271.476L-103.674 269.431C-103.438 268.377 -103.194 267.321 -102.939 266.272L-93.5082 268.48C-93.7495 269.477 -93.9841 270.475 -94.2076 271.476ZM242.82 285.628C242.684 284.608 242.539 283.589 242.382 282.573L251.974 281.168C252.135 282.228 252.287 283.295 252.434 284.368L242.82 285.628ZM-97.7624 295.772L-107.435 295.098C-107.357 294.02 -107.269 292.942 -107.173 291.873L-97.5166 292.703C-97.6037 293.724 -97.6909 294.749 -97.7601 295.772H-97.7624ZM253.954 310.962L244.257 310.793C244.275 309.768 244.286 308.747 244.286 307.72L244.281 307.037H253.981L253.983 307.656C253.983 308.802 253.974 309.882 253.954 310.962ZM-107.386 321.031C-107.466 319.951 -107.538 318.875 -107.6 317.791L-97.9188 317.26C-97.8607 318.285 -97.7914 319.306 -97.7155 320.326L-107.386 321.031ZM251.574 336.787L242.005 335.242C242.179 334.23 242.335 333.22 242.485 332.206L252.079 333.585C251.92 334.654 251.753 335.718 251.574 336.787ZM-103.525 346.687C-103.764 345.632 -103.994 344.574 -104.215 343.513L-94.7147 341.608C-94.5069 342.611 -94.2902 343.61 -94.0601 344.611L-103.525 346.687ZM245.383 362.022L236.144 359.114C236.463 358.139 236.781 357.156 237.078 356.168L246.364 358.905C246.049 359.946 245.718 360.988 245.383 362.022ZM-95.8788 371.518C-96.2766 370.509 -96.6608 369.494 -97.0362 368.476L-87.9246 365.223C-87.5694 366.182 -87.2007 367.141 -86.8298 368.094L-95.8788 371.518ZM235.494 386.094L226.793 381.89C227.254 380.97 227.705 380.04 228.149 379.113L236.926 383.168C236.455 384.147 235.979 385.124 235.496 386.094H235.494ZM-84.6312 394.96C-85.1719 394.02 -85.7015 393.076 -86.2243 392.124L-77.6937 387.6C-77.1999 388.5 -76.6971 389.389 -76.1877 390.276L-84.6312 394.958V394.96ZM222.128 408.477L214.143 403.071C214.732 402.23 215.318 401.372 215.899 400.52L223.974 405.791C223.366 406.686 222.751 407.584 222.128 408.477ZM-70.0232 416.542C-70.6957 415.693 -71.3594 414.832 -72.0207 413.965L-64.2475 408.267C-63.6264 409.09 -62.9941 409.9 -62.355 410.712L-70.0232 416.542ZM205.603 428.712L198.498 422.23C199.206 421.479 199.91 420.717 200.607 419.953L207.822 426.315C207.093 427.12 206.352 427.915 205.603 428.712ZM-52.3743 435.833C-53.1697 435.084 -53.954 434.327 -54.736 433.561L-47.8878 426.818C-47.1527 427.54 -46.4042 428.257 -45.6557 428.966L-52.3743 435.833ZM186.274 446.376L180.212 438.943C181.025 438.302 181.825 437.657 182.621 437.007L188.83 444.319C187.985 445.015 187.136 445.7 186.274 446.376ZM-32.0755 452.415C-32.9647 451.785 -33.854 451.146 -34.7343 450.511L-28.9697 442.85C-28.1296 443.463 -27.2806 444.067 -26.4271 444.668L-32.0755 452.415ZM164.567 461.085L159.654 452.876C160.548 452.358 161.441 451.833 162.326 451.299L167.392 459.426C166.455 459.992 165.51 460.547 164.567 461.087V461.085ZM-9.52 465.923C-10.5009 465.427 -11.4772 464.922 -12.4492 464.411L-7.85538 456.021C-6.93707 456.506 -6.01208 456.985 -5.08037 457.455L-9.51775 465.923H-9.52ZM140.904 472.55L137.266 463.722C138.231 463.34 139.185 462.947 140.137 462.547L143.951 471.303C142.939 471.727 141.925 472.144 140.904 472.55ZM14.8141 476.06C13.7684 475.709 12.7294 475.356 11.6927 474.991L14.9705 466.022C15.958 466.369 16.9478 466.714 17.9399 467.043L14.8141 476.06ZM115.752 480.49L113.5 471.224C114.51 470.99 115.511 470.739 116.514 470.48L118.978 479.7C117.908 479.976 116.831 480.235 115.754 480.49H115.752ZM40.3904 482.589C39.3067 482.393 38.2253 482.189 37.1483 481.976L39.0632 472.634C40.082 472.838 41.1053 473.029 42.1331 473.215L40.3926 482.589H40.3904ZM89.722 484.729L88.8372 475.241C89.8806 475.149 90.9173 475.044 91.9496 474.934L93.0087 484.406C91.9139 484.522 90.8191 484.632 89.722 484.729ZM66.6347 485.363C65.5332 485.324 64.434 485.277 63.3369 485.22L63.8485 475.705C64.8919 475.762 65.9309 475.806 66.9765 475.843L66.6347 485.363Z" fill="#2D362E"/>
<path d="M59.9192 92.3281L59.5394 85.9887C60.6275 85.925 61.7245 85.8701 62.8193 85.8174L63.1143 92.1613C62.0441 92.2096 60.9782 92.2645 59.9192 92.326V92.3281ZM88.6458 92.4818C87.5845 92.4116 86.5233 92.3457 85.4597 92.2864L85.8194 85.9447C86.9187 86.0018 88.0114 86.0698 89.1039 86.1466L88.6481 92.4818H88.6458ZM34.5618 95.2498L33.4357 88.9937C34.5127 88.8072 35.5963 88.6316 36.68 88.4582L37.7167 94.7274C36.6621 94.8942 35.6097 95.0697 34.5641 95.2519L34.5618 95.2498ZM113.974 95.6844C112.929 95.4934 111.883 95.3069 110.828 95.1269L111.932 88.8664C113.011 89.053 114.088 89.2417 115.167 89.4393L113.972 95.6823L113.974 95.6844ZM9.72511 101.049L7.86391 94.971C8.90956 94.6593 9.9642 94.3586 11.021 94.0622L12.7928 100.169C11.765 100.459 10.7484 100.749 9.72736 101.051L9.72511 101.049ZM138.744 101.763C137.723 101.449 136.708 101.144 135.683 100.845L137.526 94.7559C138.574 95.0632 139.62 95.3771 140.668 95.6976L138.744 101.763ZM-14.2447 109.661L-16.8164 103.835C-15.8154 103.409 -14.81 102.988 -13.8001 102.573L-11.3177 108.438C-12.2986 108.838 -13.2728 109.246 -14.2447 109.661ZM162.631 110.648C161.664 110.223 160.685 109.801 159.702 109.386L162.249 103.552C163.261 103.975 164.267 104.412 165.272 104.851L162.631 110.651V110.648ZM-37.0214 120.959L-40.2701 115.467C-39.3272 114.927 -38.3776 114.398 -37.4213 113.869L-34.2553 119.405C-35.1826 119.914 -36.1031 120.432 -37.0214 120.957V120.959ZM185.307 122.214C184.393 121.679 183.471 121.148 182.546 120.623L185.77 115.12C186.722 115.656 187.667 116.204 188.612 116.757L185.307 122.214ZM-58.3235 134.788L-62.1933 129.702C-61.3175 129.059 -60.4371 128.422 -59.5501 127.788L-55.7518 132.931C-56.6142 133.543 -57.4722 134.162 -58.3257 134.788H-58.3235ZM206.444 136.292C205.599 135.655 204.746 135.023 203.892 134.395L207.747 129.3C208.627 129.943 209.5 130.589 210.372 131.245L206.444 136.289V136.292ZM-77.8559 150.951L-82.2955 146.334C-81.5001 145.592 -80.7002 144.861 -79.8936 144.133L-75.521 148.808C-76.3053 149.515 -77.0806 150.228 -77.8537 150.948L-77.8559 150.951ZM225.798 152.669C225.029 151.941 224.258 151.218 223.481 150.503L227.916 145.878C228.711 146.615 229.509 147.359 230.293 148.106L225.8 152.669H225.798ZM-95.3618 169.223L-100.318 165.14C-99.6138 164.314 -98.9032 163.493 -98.1882 162.679L-93.2929 166.828C-93.9855 167.62 -94.6781 168.417 -95.3596 169.223H-95.3618ZM243.082 171.128C242.408 170.32 241.726 169.515 241.042 168.716L245.989 164.626C246.693 165.449 247.392 166.277 248.083 167.109L243.08 171.128H243.082ZM-110.609 189.356L-116.009 185.866C-115.408 184.966 -114.798 184.07 -114.184 183.179L-108.83 186.74C-109.429 187.609 -110.021 188.48 -110.609 189.356ZM258.084 191.428C257.507 190.544 256.928 189.668 256.339 188.799L261.739 185.3C262.338 186.195 262.93 187.095 263.526 187.997L258.084 191.431V191.428ZM-123.374 211.092L-129.152 208.245C-128.658 207.279 -128.159 206.318 -127.652 205.361L-121.917 208.291C-122.406 209.222 -122.891 210.155 -123.371 211.092H-123.374ZM270.591 213.287C270.127 212.345 269.648 211.413 269.17 210.482L274.939 207.615C275.433 208.572 275.92 209.529 276.398 210.497L270.594 213.287H270.591ZM-133.47 234.147L-139.548 231.983C-139.172 230.964 -138.79 229.95 -138.399 228.94L-132.358 231.197C-132.735 232.178 -133.106 233.159 -133.468 234.147H-133.47ZM280.413 236.435C280.063 235.445 279.71 234.466 279.341 233.487L285.412 231.294C285.789 232.306 286.16 233.322 286.52 234.343L280.416 236.435H280.413ZM-140.757 258.19L-147.046 256.737C-146.798 255.69 -146.541 254.643 -146.273 253.598L-140.001 255.139C-140.263 256.158 -140.511 257.172 -140.754 258.19H-140.757ZM287.423 260.563C287.19 259.538 286.951 258.517 286.703 257.497L292.993 256.03C293.245 257.075 293.489 258.122 293.728 259.174L287.423 260.563ZM-145.134 282.905L-151.557 282.183C-151.432 281.114 -151.296 280.043 -151.157 278.974L-144.747 279.794C-144.883 280.826 -145.013 281.867 -145.136 282.907L-145.134 282.905ZM291.507 285.317C291.402 284.275 291.279 283.234 291.156 282.198L297.577 281.458C297.709 282.525 297.826 283.596 297.944 284.672L291.507 285.317ZM-153.034 307.958V307.716C-153.034 306.715 -153.028 305.723 -153.012 304.727L-146.548 304.819C-146.564 305.782 -146.568 306.748 -146.568 307.716L-153.032 307.958H-153.034ZM299.119 310.95L292.655 310.855C292.671 309.813 292.678 308.763 292.678 307.716V307.233H299.144V307.716C299.144 308.796 299.135 309.872 299.119 310.947V310.95ZM-151.497 333.737C-151.624 332.67 -151.743 331.603 -151.857 330.532L-145.426 329.874C-145.315 330.919 -145.201 331.961 -145.076 332.999L-151.497 333.737ZM297.236 336.694L290.83 335.882C290.966 334.846 291.096 333.805 291.219 332.765L297.64 333.493C297.515 334.56 297.379 335.631 297.236 336.694ZM-146.935 359.17C-147.189 358.12 -147.43 357.067 -147.67 356.017L-141.358 354.645C-141.132 355.666 -140.893 356.685 -140.645 357.703L-146.935 359.17ZM292.327 362.067L286.057 360.524C286.314 359.508 286.569 358.491 286.815 357.47L293.102 358.93C292.852 359.982 292.59 361.029 292.327 362.065V362.067ZM-139.378 383.908C-139.753 382.899 -140.122 381.88 -140.486 380.859L-134.38 378.774C-134.031 379.764 -133.672 380.745 -133.31 381.724L-139.38 383.906L-139.378 383.908ZM284.424 386.718L278.382 384.459C278.76 383.476 279.135 382.49 279.502 381.505L285.575 383.682C285.197 384.701 284.815 385.711 284.424 386.718ZM-128.935 407.6C-129.429 406.643 -129.913 405.677 -130.392 404.709L-124.578 401.937C-124.113 402.872 -123.642 403.805 -123.166 404.733L-128.935 407.6ZM273.641 410.298L267.919 407.339C268.415 406.417 268.895 405.488 269.378 404.555L275.154 407.403C274.658 408.373 274.157 409.339 273.643 410.298H273.641ZM-115.761 429.935C-116.362 429.037 -116.959 428.14 -117.549 427.233L-112.106 423.809C-111.529 424.691 -110.951 425.563 -110.365 426.434L-115.761 429.933V429.935ZM260.157 432.455L254.804 428.895C255.407 428.023 256.001 427.148 256.589 426.27L261.982 429.775C261.377 430.671 260.769 431.564 260.157 432.455ZM-100.038 450.618C-100.742 449.794 -101.437 448.971 -102.132 448.139L-97.1269 444.116C-96.4522 444.928 -95.7707 445.733 -95.087 446.537L-100.036 450.62L-100.038 450.618ZM244.13 452.944L239.248 448.776C239.948 447.99 240.636 447.193 241.317 446.399L246.266 450.477C245.565 451.302 244.852 452.126 244.128 452.944H244.13ZM-81.9849 469.392C-82.7759 468.655 -83.5668 467.911 -84.3489 467.166L-79.8623 462.596C-79.0959 463.325 -78.3229 464.049 -77.5453 464.769L-81.9849 469.392ZM225.822 471.464L221.456 466.782C222.238 466.078 223.016 465.369 223.793 464.644L228.231 469.267C227.431 470.005 226.633 470.738 225.822 471.467V471.464ZM-61.8403 485.985C-62.7184 485.34 -63.5942 484.692 -64.4634 484.04L-60.5332 478.996C-59.6886 479.632 -58.8351 480.267 -57.9794 480.895L-61.8425 485.987L-61.8403 485.985ZM205.459 487.783L201.669 482.638C202.534 482.023 203.392 481.406 204.241 480.78L208.104 485.875C207.226 486.516 206.348 487.153 205.456 487.783H205.459ZM-39.8724 500.183C-40.822 499.647 -41.7649 499.101 -42.7056 498.55L-39.4032 493.093C-38.4849 493.629 -37.5621 494.166 -36.6349 494.693L-39.8702 500.185L-39.8724 500.183ZM183.319 501.676L180.157 496.135C181.082 495.624 182.007 495.108 182.921 494.586L186.167 500.08C185.22 500.616 184.273 501.149 183.319 501.674V501.676ZM-16.3673 511.782C-17.3795 511.356 -18.3849 510.919 -19.3904 510.474L-16.7337 504.685C-15.7618 505.116 -14.7877 505.535 -13.8068 505.954L-16.3673 511.784V511.782ZM159.682 512.945L157.204 507.082C158.185 506.676 159.166 506.274 160.133 505.86L162.698 511.692C161.693 512.116 160.692 512.533 159.682 512.945ZM8.34431 520.604C7.28972 520.297 6.23956 519.983 5.19389 519.654L7.14223 513.602C8.15437 513.913 9.17096 514.216 10.192 514.519L8.34209 520.604H8.34431ZM134.856 521.436L133.093 515.327C134.121 515.044 135.142 514.75 136.163 514.451L138.009 520.534C136.961 520.846 135.906 521.144 134.856 521.436ZM33.9296 526.522C32.8504 526.34 31.7734 526.145 30.6964 525.945L31.9075 519.704C32.9509 519.9 33.9966 520.086 35.0445 520.262L33.9296 526.522ZM109.188 527.014L108.165 520.745C109.213 520.58 110.265 520.4 111.315 520.224L112.428 526.48C111.351 526.667 110.267 526.847 109.188 527.014ZM60.0421 529.472C58.9495 529.411 57.8547 529.345 56.7621 529.268L57.2179 522.933C58.2792 523.006 59.3405 523.074 60.404 523.135L60.0421 529.472ZM83.0399 529.622L82.7585 523.278C83.8265 523.229 84.8877 523.175 85.949 523.12L86.3289 529.457C85.2363 529.521 84.1415 529.573 83.0422 529.622H83.0399Z" fill="#2D362E"/>
<path d="M73.0503 131.885C-25.6353 131.885 -105.926 210.762 -105.926 307.72C-105.926 404.671 -25.6353 483.548 73.0503 483.548C171.738 483.548 252.026 404.671 252.026 307.72C252.026 210.764 171.74 131.885 73.0503 131.885ZM73.0503 486.724C-27.4205 486.724 -109.154 406.427 -109.154 307.72C-109.154 209.013 -27.4183 128.709 73.0503 128.709C173.521 128.709 255.259 209.013 255.259 307.72C255.259 406.427 173.521 486.724 73.0503 486.724Z" fill="#2D362E"/>
<path d="M243.067 519.063L223.012 494.164C281.415 448.756 314.912 380.8 314.912 307.72H347.236C347.236 390.566 309.272 467.601 243.069 519.065L243.067 519.063Z" fill="#2D362E"/>
<path d="M252.902 148.837C207.07 98.8014 141.517 70.1025 73.0527 70.1025V38.3459C150.673 38.3459 224.98 70.8796 276.928 127.597L252.902 148.834V148.837Z" fill="#2D362E"/>
<path d="M32.1685 -64.2555L27.3692 -108.463C48.8343 -110.71 70.8938 -111.358 92.502 -110.414L90.471 -66.0005C71.1284 -66.861 51.377 -66.2683 32.1707 -64.2576L32.1685 -64.2555ZM190.645 -48.2136C172.211 -54.0855 153.148 -58.5987 133.987 -61.6257L141.17 -105.519C162.619 -102.132 183.964 -97.0811 204.605 -90.5046L190.647 -48.2158L190.645 -48.2136ZM-66.6377 -40.4166L-83.2433 -81.7702C-63.0561 -89.5958 -42.0826 -95.9373 -20.9123 -100.62L-10.9718 -57.2487C-29.8809 -53.0692 -48.6068 -47.4036 -66.6377 -40.4166ZM282.357 -4.85365C266.145 -15.3528 248.994 -24.6974 231.383 -32.6173L250.223 -73.038C269.934 -64.172 289.127 -53.7167 307.265 -41.9685L282.357 -4.85365ZM-155.45 8.42674L-182.63 -27.1186C-165.265 -39.9337 -146.77 -51.5282 -127.659 -61.573L-106.313 -22.3728C-123.392 -13.397 -139.926 -3.03391 -155.45 8.42674ZM359.162 60.8436C346.348 46.5227 332.312 33.058 317.445 20.8203L346.507 -13.2587C363.128 0.427765 378.824 15.4839 393.148 31.4928L359.162 60.8436ZM-228.012 78.6283L-263.763 51.3783C-250.473 34.5441 -235.747 18.5703 -219.995 3.90255L-188.866 36.1706C-202.952 49.2863 -216.123 63.5699 -228.012 78.6283Z" fill="#2D362E"/>
<path d="M402.611 120.172C397.526 111.568 392.023 103.059 386.254 94.8803L423.442 69.5576C429.897 78.7068 436.052 88.2248 441.741 97.8504L402.609 120.175L402.611 120.172Z" fill="#2D362E"/>
<path d="M-53.8122 234.331L-64.9458 227.874C-36.2414 180.088 16.6383 150.402 73.0527 150.402V163.102C21.1919 163.102 -27.4204 190.394 -53.81 234.331H-53.8122Z" fill="#2D362E"/>
<path d="M22.776 457.122C-4.64805 448.223 -29.1764 432.106 -48.1548 410.524L-38.3729 402.222C-20.9184 422.064 1.63043 436.881 26.8314 445.06L22.776 457.12V457.122Z" fill="#2D362E"/>
<path d="M168.805 433.823L161.065 423.646C179.57 410.063 194.763 392.17 204.999 371.896L216.586 377.542C205.448 399.588 188.93 419.05 168.805 433.823Z" fill="#2D362E"/>
<path d="M73.0503 102.535C-42.1112 102.535 -135.796 194.58 -135.796 307.718C-135.796 420.856 -42.1112 512.899 73.0503 512.899C188.207 512.899 281.901 420.854 281.901 307.718C281.901 194.58 188.21 102.535 73.0503 102.535ZM73.0503 514.488C-43.0005 514.488 -137.414 421.73 -137.414 307.718C-137.414 193.704 -43.0005 100.946 73.0503 100.946C189.099 100.946 283.515 193.704 283.515 307.718C283.515 421.73 189.099 514.488 73.0503 514.488Z" fill="#2D362E"/>
<path d="M73.0505 71.2547C-59.6638 71.2547 -167.635 177.333 -167.635 307.718C-167.635 438.101 -59.6638 544.179 73.0505 544.179C205.763 544.179 313.736 438.101 313.736 307.718C313.736 177.333 205.763 71.2547 73.0505 71.2547ZM73.0505 545.768C-60.5553 545.768 -169.253 438.977 -169.253 307.718C-169.253 176.455 -60.5576 69.6655 73.0505 69.6655C206.656 69.6655 315.354 176.453 315.354 307.718C315.354 438.977 206.656 545.768 73.0505 545.768Z" fill="#2D362E"/>
<path d="M73.0507 -9.78428C-105.15 -9.78428 -250.126 132.645 -250.126 307.718C-250.126 482.786 -105.15 625.222 73.0507 625.222C251.251 625.222 396.228 482.789 396.228 307.718C396.228 132.643 251.251 -9.78428 73.0507 -9.78428ZM73.0507 626.812C-106.039 626.812 -251.742 483.671 -251.742 307.72C-251.742 131.774 -106.039 -11.3713 73.0507 -11.3713C252.145 -11.3713 397.843 131.774 397.843 307.72C397.843 483.671 252.143 626.812 73.0507 626.812Z" fill="#2D362E"/>
<path d="M-291.2 391.301C-291.746 388.983 -292.271 386.661 -292.778 384.332L-264.324 378.381C-263.859 380.539 -263.372 382.69 -262.865 384.835L-291.2 391.301ZM-281.039 426.234C-282.487 422.051 -283.87 417.816 -285.141 413.65L-257.283 405.423C-256.11 409.266 -254.835 413.169 -253.498 417.026L-281.039 426.237V426.234ZM-267.409 459.945C-269.25 455.98 -271.047 451.913 -272.754 447.854L-245.868 436.94C-244.295 440.689 -242.635 444.441 -240.937 448.102L-267.412 459.947L-267.409 459.945ZM-250.442 492.186C-252.663 488.433 -254.864 484.558 -256.979 480.669L-231.332 467.188C-229.377 470.777 -227.343 474.355 -225.292 477.819L-250.442 492.184V492.186ZM-230.311 522.626C-232.934 519.057 -235.514 515.41 -237.986 511.782L-213.801 495.894C-211.527 499.239 -209.147 502.602 -206.73 505.895L-230.311 522.626ZM-207.226 550.976C-210.186 547.685 -213.117 544.309 -215.944 540.931L-193.48 522.777C-190.873 525.89 -188.167 529.014 -185.434 532.045L-207.228 550.976H-207.226ZM340.816 564.203L319.992 544.245C322.852 541.363 325.71 538.38 328.496 535.371L350.033 554.58C347.021 557.842 343.92 561.078 340.818 564.201L340.816 564.203ZM-181.41 576.966C-184.666 573.994 -187.923 570.914 -191.098 567.803L-170.556 547.567C-167.627 550.44 -164.619 553.283 -161.619 556.024L-181.412 576.966H-181.41ZM313.736 588.933L295.01 567.055C298.156 564.465 301.298 561.771 304.352 559.051L323.871 580.236C320.56 583.187 317.15 586.11 313.736 588.931V588.933ZM-153.117 600.35C-156.663 597.698 -160.218 594.944 -163.672 592.167L-145.257 570.045C-142.066 572.608 -138.786 575.148 -135.506 577.6L-153.117 600.35ZM284.33 610.917L267.865 587.353C271.279 585.055 274.68 582.673 277.978 580.28L295.269 603.259C291.703 605.849 288.017 608.426 284.33 610.917ZM-122.603 620.892C-126.399 618.6 -130.215 616.201 -133.944 613.756L-117.819 589.972C-114.38 592.222 -110.864 594.432 -107.367 596.544L-122.601 620.89L-122.603 620.892ZM252.842 629.956L238.844 604.907C242.419 602.978 246.038 600.936 249.6 598.847L264.514 623.39C260.651 625.655 256.725 627.861 252.842 629.956ZM-90.1604 638.383C-94.1755 636.468 -98.2174 634.447 -102.172 632.383L-88.5182 607.146C-84.8717 609.052 -81.1472 610.911 -77.4494 612.676L-90.1604 638.383ZM219.606 645.839L208.187 619.555C211.967 617.966 215.777 616.291 219.503 614.57L231.873 640.439C227.833 642.305 223.704 644.118 219.604 645.839H219.606ZM-56.0892 652.629C-60.2964 651.108 -64.5305 649.49 -68.6662 647.824L-57.6153 621.381C-53.8102 622.918 -49.9203 624.408 -46.0504 625.809L-56.0892 652.629ZM184.925 658.4L176.225 631.132C180.173 629.916 184.132 628.617 187.984 627.282L197.681 654.227C193.5 655.678 189.206 657.085 184.927 658.402L184.925 658.4ZM-20.7288 663.479C-25.0187 662.39 -29.389 661.196 -33.7214 659.93L-25.4388 632.535C-21.4371 633.698 -17.4086 634.8 -13.4561 635.803L-20.7266 663.477L-20.7288 663.479ZM149.16 667.516L143.246 639.535C147.315 638.705 151.386 637.796 155.343 636.853L162.251 664.612C157.968 665.639 153.562 666.618 149.16 667.518V667.516ZM15.4896 670.8C11.0947 670.135 6.63721 669.38 2.24005 668.548L7.70969 640.479C11.765 641.243 15.8784 641.945 19.9314 642.558L15.4896 670.802V670.8ZM112.645 673.092L109.604 644.667C113.704 644.248 117.837 643.745 121.888 643.183L125.979 671.476C121.582 672.088 117.091 672.635 112.645 673.092ZM52.2487 674.571C47.7778 674.33 43.2645 674.007 38.8405 673.612L41.4747 645.152C45.5524 645.514 49.7127 645.813 53.8417 646.037L52.2487 674.573V674.571ZM75.7582 675.122L75.5438 646.544C79.675 646.515 83.8442 646.412 87.942 646.243L89.1843 674.795C84.7469 674.982 80.2313 675.093 75.7604 675.124L75.7582 675.122Z" fill="#2D362E"/>
<path d="M73.0502 626.2C23.5755 626.2 -23.9262 615.529 -68.1367 594.48L-42.7704 543.042C-6.52747 560.292 32.4391 569.039 73.0502 569.039C106.572 569.039 139.233 563.003 170.132 551.101L191.375 604.314C153.68 618.833 113.869 626.202 73.0502 626.202V626.2Z" fill="#2D362E"/>
<path d="M334.69 260.361C329.026 229.935 317.979 200.997 301.843 174.35L351.851 145.131C371.527 177.636 385.009 212.947 391.924 250.082L334.692 260.361H334.69Z" fill="#2D362E"/>
</g>
</svg>
