<svg width="139" height="185" viewBox="0 0 139 185" fill="none" xmlns="http://www.w3.org/2000/svg">
<g opacity="0.5">
<path d="M121.907 96.6579C133.836 89.5171 146.951 85.4543 160.885 84.5826C175.178 83.6885 189.581 86.3782 202.539 92.3628L200.3 97.3502C188.148 91.7377 174.638 89.2151 161.23 90.0539C148.156 90.8718 135.855 94.6814 124.67 101.377L121.906 96.658L121.907 96.6579Z" fill="#2D362E"/>
<path d="M237.77 165.513L241.809 165.102C241.855 165.564 241.899 166.028 241.937 166.491L237.892 166.83C237.856 166.392 237.815 165.952 237.77 165.513ZM238.026 177.423C238.051 176.981 238.073 176.539 238.092 176.096L242.148 176.279C242.129 176.744 242.104 177.208 242.079 177.675L238.026 177.424L238.026 177.423ZM235.947 155.084L239.881 154.086C239.994 154.536 240.102 154.991 240.208 155.444L236.256 156.376C236.158 155.945 236.053 155.514 235.947 155.084ZM236.64 187.904C236.73 187.475 236.814 187.044 236.895 186.612L240.885 187.385C240.798 187.846 240.707 188.306 240.613 188.761L236.64 187.904ZM232.64 145.038L236.386 143.462C236.564 143.894 236.738 144.327 236.907 144.763L233.132 146.264C232.972 145.853 232.807 145.444 232.64 145.038ZM233.745 198.083C233.897 197.668 234.045 197.251 234.189 196.834L238.022 198.194C237.87 198.637 237.714 199.078 237.554 199.515L233.744 198.083L233.745 198.083ZM227.914 135.585L231.393 133.476C231.629 133.874 231.863 134.274 232.092 134.678L228.578 136.726C228.36 136.344 228.139 135.964 227.913 135.586L227.914 135.585ZM229.412 207.715C229.622 207.328 229.826 206.938 230.029 206.546L233.628 208.457C233.413 208.871 233.196 209.284 232.975 209.692L229.412 207.715ZM221.882 126.932L225.018 124.33C225.31 124.689 225.599 125.054 225.884 125.42L222.702 127.964C222.432 127.618 222.158 127.273 221.881 126.932L221.882 126.932ZM223.741 216.597C224.003 216.249 224.259 215.894 224.515 215.539L227.802 217.955C227.532 218.335 227.257 218.711 226.977 219.084L223.74 216.597L223.741 216.597ZM214.669 119.247L217.399 116.213C217.74 116.527 218.078 116.844 218.413 117.165L215.632 120.151C215.313 119.846 214.991 119.544 214.669 119.247ZM216.851 224.56C217.16 224.249 217.468 223.934 217.773 223.618L220.679 226.496C220.359 226.828 220.035 227.155 219.71 227.482L216.851 224.56ZM206.432 112.696L208.698 109.292C209.082 109.556 209.462 109.819 209.84 110.088L207.511 113.448C207.154 113.194 206.793 112.944 206.432 112.696ZM208.903 231.416C209.254 231.155 209.601 230.891 209.947 230.625L212.412 233.893C212.048 234.177 211.678 234.455 211.308 234.73L208.903 231.416ZM197.345 107.42L199.096 103.716C199.513 103.92 199.929 104.126 200.341 104.337L198.521 108.005C198.131 107.805 197.739 107.61 197.344 107.42L197.345 107.42ZM200.056 237.029C200.439 236.824 200.82 236.615 201.199 236.401L203.171 240C202.769 240.225 202.363 240.445 201.956 240.663L200.056 237.029ZM187.596 103.538L188.793 99.6144C189.236 99.7528 189.675 99.897 190.116 100.043L188.848 103.943C188.432 103.804 188.015 103.669 187.597 103.538L187.596 103.538ZM190.487 241.265C190.897 241.121 191.305 240.971 191.71 240.819L193.141 244.666C192.707 244.83 192.272 244.991 191.833 245.146L190.487 241.265ZM177.395 101.142L178.012 97.0841C178.466 97.1563 178.922 97.2312 179.375 97.311L178.688 101.358C178.257 101.283 177.826 101.21 177.395 101.142ZM180.389 244.047C180.82 243.962 181.249 243.874 181.677 243.78L182.531 247.8C182.085 247.896 181.635 247.988 181.183 248.079L180.389 244.047ZM166.966 100.285L166.994 96.1765C167.455 96.1809 167.915 96.1891 168.373 96.2013L168.278 100.307C167.842 100.297 167.403 100.288 166.966 100.286L166.966 100.285ZM169.912 249.429L169.725 245.324C170.161 245.304 170.596 245.282 171.033 245.254L171.323 245.234L171.583 249.336L171.319 249.353C170.832 249.384 170.372 249.409 169.912 249.429ZM155.966 96.8869C156.423 96.8242 156.879 96.7654 157.338 96.7101L157.823 100.79C157.389 100.842 156.956 100.898 156.524 100.958L155.966 96.8869ZM158.865 249.11L159.266 245.022C159.701 245.068 160.135 245.108 160.57 245.144L160.241 249.238C159.782 249.199 159.324 249.157 158.865 249.11ZM145.157 99.202C145.6 99.0728 146.044 98.9474 146.489 98.8257L147.553 102.793C147.132 102.907 146.713 103.025 146.293 103.149L145.157 99.202ZM147.967 247.162L148.956 243.178C149.38 243.287 149.806 243.395 150.234 243.495L149.319 247.494C148.868 247.389 148.415 247.277 147.967 247.162ZM134.801 103.096C135.219 102.901 135.64 102.711 136.064 102.525L137.691 106.292C137.292 106.468 136.894 106.649 136.499 106.832L134.801 103.096ZM137.464 243.62L139.019 239.829C139.423 239.999 139.831 240.166 140.237 240.329L138.747 244.148C138.318 243.975 137.89 243.8 137.464 243.621L137.464 243.62ZM125.131 108.476C125.517 108.222 125.904 107.973 126.295 107.727L128.447 111.214C128.078 111.447 127.713 111.683 127.35 111.922L125.132 108.476L125.131 108.476ZM127.587 238.563L129.672 235.043C130.046 235.27 130.427 235.494 130.804 235.717L128.779 239.272C128.382 239.039 127.983 238.803 127.587 238.563ZM116.343 115.228C116.686 114.921 117.034 114.617 117.385 114.314L120.017 117.45C119.684 117.735 119.356 118.023 119.028 118.315L116.343 115.228ZM118.539 232.113L121.106 228.936C121.444 229.216 121.787 229.493 122.13 229.767L119.617 232.988C119.255 232.701 118.898 232.408 118.539 232.113ZM108.61 123.204C108.907 122.848 109.209 122.496 109.513 122.145L112.565 124.862C112.277 125.192 111.992 125.528 111.71 125.863L108.61 123.204ZM110.509 224.409L113.508 221.647C113.802 221.974 114.098 222.295 114.396 222.615L111.452 225.435C111.133 225.096 110.82 224.755 110.509 224.409ZM102.101 132.23C102.345 131.837 102.593 131.444 102.839 131.055L106.252 133.289C106.014 133.66 105.779 134.035 105.546 134.412L102.101 132.23ZM103.672 215.62L107.032 213.324C107.277 213.688 107.524 214.052 107.774 214.412L104.454 216.77C104.188 216.39 103.926 216.005 103.671 215.62L103.672 215.62ZM96.9585 142.128C97.1433 141.7 97.3319 141.273 97.5234 140.849L101.215 142.568C101.033 142.969 100.854 143.373 100.679 143.78L96.9586 142.128L96.9585 142.128ZM98.1631 205.918L101.821 204.145C102.009 204.543 102.202 204.936 102.397 205.328L98.7749 207.173C98.5676 206.757 98.3631 206.339 98.1631 205.918ZM93.2979 152.688C93.4194 152.236 93.5419 151.788 93.6691 151.34L97.5715 152.487C97.4504 152.914 97.3303 153.342 97.2168 153.77L93.2979 152.688ZM94.1135 195.492L97.994 194.293C98.121 194.714 98.2542 195.131 98.3912 195.548L94.5359 196.836C94.3897 196.39 94.2507 195.942 94.1136 195.493L94.1135 195.492ZM91.2054 163.678C91.2595 163.214 91.3174 162.752 91.3792 162.29L95.4039 162.852C95.3443 163.288 95.2904 163.726 95.2386 164.165L91.2055 163.679L91.2054 163.678ZM91.6145 184.597L95.626 183.97C95.6931 184.409 95.7656 184.845 95.8399 185.279L91.8397 185.978C91.7609 185.518 91.685 185.058 91.6145 184.597ZM90.7272 174.85C90.7146 174.383 90.7048 173.917 90.6998 173.452L94.7606 173.415C94.7642 173.858 94.7734 174.298 94.7855 174.742L90.7272 174.85Z" fill="#2D362E"/>
<path d="M257.711 161.558L260.397 161.229C260.453 161.687 260.506 162.149 260.558 162.611L257.867 162.905C257.818 162.453 257.766 162.004 257.712 161.558L257.711 161.558ZM258.414 173.71C258.415 173.26 258.415 172.809 258.412 172.358L261.119 172.341C261.124 172.808 261.124 173.271 261.121 173.736L258.414 173.711L258.414 173.71ZM255.79 150.912L258.421 150.269C258.529 150.72 258.633 151.173 258.735 151.627L256.097 152.232C255.998 151.791 255.895 151.35 255.789 150.913L255.79 150.912ZM257.729 184.507C257.783 184.06 257.834 183.612 257.882 183.162L260.574 183.462C260.524 183.923 260.472 184.384 260.417 184.845L257.73 184.506L257.729 184.507ZM252.659 140.563L255.195 139.614C255.355 140.048 255.511 140.486 255.666 140.925L253.116 141.837C252.965 141.41 252.815 140.987 252.658 140.564L252.659 140.563ZM255.807 195.144C255.913 194.703 256.015 194.266 256.115 193.825L258.754 194.442C258.651 194.894 258.546 195.344 258.438 195.796L255.807 195.144ZM248.356 130.655L250.765 129.412C250.973 129.824 251.179 130.238 251.382 130.654L248.954 131.86C248.758 131.456 248.558 131.055 248.356 130.655ZM252.666 205.482C252.821 205.061 252.975 204.636 253.125 204.209L255.674 205.131C255.521 205.571 255.362 206.007 255.202 206.444L252.665 205.482L252.666 205.482ZM242.941 121.323L245.19 119.803C245.445 120.188 245.696 120.575 245.946 120.965L243.676 122.452C243.435 122.073 243.19 121.697 242.942 121.323L242.941 121.323ZM248.354 215.379C248.557 214.978 248.758 214.574 248.957 214.169L251.383 215.386C251.181 215.803 250.973 216.217 250.763 216.631L248.354 215.379ZM236.49 112.682L238.549 110.91C238.846 111.264 239.141 111.619 239.434 111.977L237.348 113.72C237.065 113.372 236.779 113.026 236.49 112.681L236.49 112.682ZM242.932 224.692C243.18 224.318 243.426 223.94 243.67 223.563L245.94 225.057C245.69 225.446 245.439 225.833 245.183 226.219L242.932 224.692L242.932 224.692ZM229.093 104.852L230.938 102.852C231.275 103.168 231.607 103.487 231.939 103.809L230.067 105.782C229.745 105.469 229.421 105.161 229.094 104.853L229.093 104.852ZM236.484 233.312C236.773 232.968 237.059 232.623 237.343 232.275L239.429 234.027C239.136 234.383 238.841 234.741 238.545 235.092L236.484 233.313L236.484 233.312ZM220.854 97.9346L222.458 95.7302C222.827 96.0059 223.196 96.2846 223.561 96.5653L221.928 98.7459C221.572 98.474 221.215 98.2023 220.854 97.9355L220.854 97.9346ZM229.095 241.113C229.421 240.806 229.745 240.496 230.067 240.186L231.938 242.169C231.607 242.489 231.274 242.807 230.938 243.121L229.095 241.112L229.095 241.113ZM211.883 92.0221L213.223 89.6455C213.622 89.8757 214.019 90.1098 214.414 90.346L213.043 92.7046C212.658 92.4745 212.271 92.2473 211.883 92.0221ZM220.862 247.997C221.223 247.729 221.58 247.461 221.934 247.189L223.567 249.38C223.202 249.657 222.835 249.931 222.467 250.207L220.861 247.997L220.862 247.997ZM202.297 87.202L203.353 84.6828C203.777 84.8659 204.199 85.051 204.62 85.2401L203.527 87.7436C203.118 87.5614 202.708 87.3812 202.297 87.2029L202.297 87.202ZM211.9 253.868C212.288 253.646 212.672 253.419 213.055 253.192L214.429 255.555C214.035 255.79 213.641 256.021 213.242 256.249L211.9 253.869L211.9 253.868ZM192.221 83.5451L192.979 80.9175C193.422 81.0491 193.864 81.1838 194.304 81.3223L193.506 83.9372C193.078 83.8036 192.651 83.6729 192.221 83.5461L192.221 83.5451ZM202.318 258.637C202.729 258.462 203.136 258.287 203.543 258.105L204.638 260.614C204.218 260.801 203.795 260.984 203.371 261.164L202.318 258.638L202.318 258.637ZM181.8 81.1033L182.25 78.4047C182.702 78.4818 183.154 78.5626 183.606 78.6482L183.118 81.3415C182.678 81.258 182.24 81.1801 181.8 81.1042L181.8 81.1033ZM192.243 262.243C192.673 262.117 193.1 261.989 193.528 261.857L194.32 264.478C193.882 264.612 193.443 264.743 193.003 264.872L192.243 262.243ZM171.172 79.9095L171.307 77.1737C171.765 77.1982 172.224 77.2274 172.683 77.2575L172.505 79.9902C172.063 79.96 171.617 79.9329 171.171 79.9086L171.172 79.9095ZM181.824 264.628C182.264 264.556 182.704 264.477 183.141 264.397L183.627 267.093C183.177 267.177 182.725 267.255 182.27 267.333L181.824 264.628ZM160.305 77.2346L160.408 77.2282C160.834 77.2016 161.256 77.178 161.68 77.1581L161.814 79.8942C161.403 79.9132 160.993 79.937 160.581 79.9627L160.305 77.2356L160.305 77.2346ZM171.126 268.529L170.993 265.793C171.437 265.772 171.883 265.747 172.329 265.719L172.534 265.706L172.707 268.441L172.502 268.454C172.042 268.482 171.584 268.507 171.127 268.529L171.126 268.529ZM149.382 78.5703C149.832 78.4881 150.283 78.4096 150.735 78.333L151.188 81.0348C150.746 81.1099 150.306 81.1858 149.867 81.2663L149.382 78.5703ZM160.126 268.417L160.3 265.687C160.744 265.717 161.19 265.744 161.636 265.768L161.498 268.503C161.041 268.479 160.582 268.45 160.126 268.417ZM138.687 81.1761C139.127 81.0405 139.568 80.9105 140.008 80.7815L140.761 83.4143C140.332 83.5369 139.906 83.6651 139.479 83.797L138.687 81.1761ZM149.203 267.016L149.692 264.324C150.131 264.405 150.57 264.486 151.011 264.563L150.558 267.261C150.104 267.183 149.652 267.1 149.204 267.016L149.203 267.016ZM128.368 85.0297C128.787 84.8441 129.21 84.6611 129.635 84.4799L130.685 87.0069C130.273 87.1806 129.865 87.3588 129.459 87.5379L128.368 85.0287L128.368 85.0297ZM138.507 264.33L139.306 261.715C139.735 261.848 140.164 261.981 140.593 262.109L139.829 264.736C139.386 264.603 138.946 264.468 138.507 264.33ZM118.57 90.0762C118.964 89.8419 119.362 89.6112 119.761 89.3832L121.096 91.7681C120.71 91.9895 120.326 92.2137 119.944 92.4397L118.57 90.0762ZM128.19 260.397L129.295 257.898C129.701 258.083 130.109 258.262 130.518 258.441L129.462 260.959C129.036 260.776 128.612 260.59 128.19 260.398L128.19 260.397ZM109.423 96.2413C109.789 95.9632 110.155 95.6871 110.525 95.4135L112.127 97.6242C111.767 97.8914 111.412 98.1593 111.057 98.4301L109.424 96.2412L109.423 96.2413ZM118.406 255.284L119.777 252.925C120.163 253.157 120.552 253.385 120.941 253.61L119.594 255.984C119.197 255.752 118.801 255.519 118.406 255.284ZM101.047 103.441C101.379 103.121 101.71 102.805 102.045 102.489L103.891 104.499C103.563 104.806 103.239 105.115 102.915 105.426L101.046 103.442L101.047 103.441ZM109.263 249.051L110.905 246.875C111.258 247.15 111.615 247.42 111.971 247.687L110.369 249.888C109.999 249.614 109.63 249.334 109.263 249.05L109.263 249.051ZM93.545 111.575C93.8375 111.22 94.1329 110.866 94.4284 110.516L96.4922 112.291C96.2027 112.635 95.9153 112.981 95.6299 113.329L93.545 111.575ZM100.896 241.801L102.771 239.83C103.091 240.142 103.414 240.452 103.742 240.762L101.895 242.761C101.56 242.442 101.227 242.125 100.895 241.801L100.896 241.801ZM87.0266 120.535C87.2776 120.146 87.5296 119.759 87.7836 119.374L90.0342 120.902C89.786 121.276 89.539 121.654 89.2949 122.032L87.0256 120.534L87.0266 120.535ZM93.4109 233.623L95.498 231.884C95.7825 232.233 96.0678 232.58 96.3566 232.922L94.293 234.691C93.9969 234.337 93.7027 233.982 93.4109 233.622L93.4109 233.623ZM81.5755 130.203C81.7779 129.787 81.9852 129.374 82.1944 128.961L84.6036 130.213C84.4004 130.615 84.1963 131.02 83.9971 131.426L81.5746 130.204L81.5755 130.203ZM86.91 224.63L89.1819 223.145C89.4241 223.523 89.6683 223.9 89.9149 224.273L87.6649 225.792C87.4118 225.406 87.1596 225.019 86.9109 224.63L86.91 224.63ZM77.271 140.451C77.4251 140.012 77.584 139.575 77.7466 139.138L80.2795 140.108C80.1225 140.53 79.9703 140.953 79.8182 141.379L77.27 140.452L77.271 140.451ZM81.4846 214.933L83.912 213.73C84.111 214.134 84.3081 214.538 84.5104 214.936L82.0984 216.176C81.8913 215.762 81.6872 215.349 81.4846 214.933ZM74.1797 151.137C74.2822 150.682 74.3876 150.23 74.4997 149.779L77.1258 150.442C77.0203 150.878 76.9186 151.316 76.8171 151.756L74.1797 151.136L74.1797 151.137ZM77.2095 204.66L79.7606 203.752C79.9085 204.18 80.0609 204.604 80.2152 205.027L77.6775 205.97C77.5169 205.535 77.3618 205.097 77.2095 204.66ZM72.347 162.114C72.3956 161.653 72.4499 161.192 72.5061 160.731L75.1927 161.078C75.1375 161.524 75.0861 161.971 75.0395 162.419L72.347 162.114ZM74.1507 193.954L76.7897 193.354C76.8878 193.793 76.9925 194.233 77.0953 194.673L74.4642 195.31C74.3561 194.859 74.2505 194.406 74.1507 193.954ZM71.7906 173.235C71.7875 172.772 71.7863 172.307 71.7897 171.843L74.4963 171.867C74.4939 172.318 74.4933 172.769 74.4956 173.22L71.7906 173.235ZM72.3422 182.965L75.0328 182.677C75.0819 183.128 75.1336 183.575 75.1854 184.022L72.5002 184.352C72.4439 183.891 72.3922 183.43 72.3423 182.966L72.3422 182.965Z" fill="#2D362E"/>
<path d="M241.238 168.163C238.599 126.429 202.904 94.5719 161.666 97.1505C120.432 99.7289 89.0315 135.781 91.6709 177.515C94.3103 219.25 130.005 251.106 171.24 248.528C212.476 245.949 243.878 209.899 241.238 168.163ZM90.32 177.6C87.6328 135.111 119.598 98.4102 161.58 95.7851C203.562 93.1601 239.902 125.59 242.589 168.078C245.276 210.567 213.308 247.27 171.326 249.895C129.345 252.52 93.0071 220.089 90.32 177.6Z" fill="#2D362E"/>
<path d="M70.252 109.248C83.5763 88.6037 103.434 72.5201 126.163 63.9601L130.908 76.7987C110.862 84.3475 93.3473 98.5372 81.5877 116.756L70.252 109.248Z" fill="#2D362E"/>
<path d="M101.563 155.566C104.615 143.733 110.813 132.931 119.484 124.332L123.276 128.248C115.305 136.156 109.606 146.086 106.802 156.96L101.564 155.566L101.563 155.566Z" fill="#2D362E"/>
<path d="M253.721 167.382C250.641 118.681 208.987 81.5092 160.868 84.5181C112.749 87.527 76.1073 129.594 79.1873 178.296C82.2672 226.996 123.921 264.171 172.04 261.162C220.159 258.153 256.801 216.083 253.721 167.382ZM78.5114 178.338C75.4076 129.26 112.334 86.8661 160.825 83.834C209.317 80.8018 251.293 118.262 254.397 167.34C257.501 216.417 220.574 258.812 172.083 261.844C123.592 264.876 81.6151 227.415 78.5114 178.338Z" fill="#2D362E"/>
<path d="M267.025 166.55C263.476 110.426 215.471 67.5858 160.017 71.0533C104.563 74.5208 62.3341 123.003 65.8836 179.128C69.433 235.251 117.438 278.092 172.891 274.625C228.346 271.157 270.575 222.674 267.025 166.55ZM65.2077 179.17C61.6344 122.668 104.147 73.86 159.974 70.3692C215.802 66.8784 264.128 110.005 267.701 166.508C271.274 223.01 228.763 271.818 172.934 275.309C117.108 278.8 68.781 235.672 65.2077 179.17Z" fill="#2D362E"/>
<path d="M301.492 164.396C296.726 89.0347 232.271 31.5122 157.81 36.1682C83.3512 40.8241 26.6486 105.922 31.4146 181.283C36.1807 256.644 100.637 314.166 175.097 309.511C249.559 304.854 306.258 239.756 301.492 164.396ZM30.7387 181.326C25.9489 105.589 82.9318 40.1645 157.766 35.4851C232.599 30.8059 297.377 88.6164 302.167 164.353C306.957 240.092 249.972 305.514 175.14 310.194C100.305 314.873 35.5285 257.063 30.7387 181.326Z" fill="#2D362E"/>
<path d="M121.141 21.0531C122.112 20.7609 123.085 20.4771 124.062 20.2007L127.354 32.0746C126.449 32.3285 125.547 32.5917 124.648 32.8632L121.141 21.0531ZM106.558 26.279C108.298 25.5555 110.062 24.8581 111.799 24.2097L116.043 35.7708C114.44 36.369 112.814 37.0123 111.21 37.6798L106.557 26.2791L106.558 26.279ZM92.5872 32.9388C94.2238 32.0548 95.9054 31.1871 97.5857 30.3573L102.946 41.4359C101.393 42.2008 99.8426 43.0025 98.331 43.8179L92.5862 32.9379L92.5872 32.9388ZM79.3305 40.971C80.8673 39.9321 82.456 38.8984 84.0535 37.9003L90.4716 48.3872C88.9977 49.3094 87.5305 50.2643 86.1124 51.2237L79.3314 40.971L79.3305 40.971ZM66.9248 50.2932C68.3724 49.0891 69.8539 47.9009 71.3308 46.7594L78.7337 56.5635C77.372 57.6143 76.0056 58.7099 74.6701 59.8198L66.9248 50.2932ZM55.4867 60.8088C56.8067 59.4695 58.164 58.1401 59.525 56.8551L67.8452 65.8714C66.5913 67.0568 65.3354 68.284 64.1194 69.5201L55.4866 60.8079L55.4867 60.8088ZM64.5167 292.906L72.4467 283.569C73.7488 284.702 75.0937 285.831 76.448 286.929L68.8553 296.547C67.3877 295.36 65.9288 294.135 64.5176 292.907L64.5167 292.906ZM45.125 72.4163C46.3019 70.9607 47.5244 69.5012 48.7622 68.0759L57.9169 76.2244C56.7733 77.5394 55.6449 78.8867 54.5593 80.2285L45.125 72.4153L45.125 72.4163ZM53.2763 282.112L62.0792 273.612C63.2648 274.874 64.4941 276.13 65.7324 277.35L57.2457 286.167C55.9026 284.845 54.5681 283.481 53.2773 282.112L53.2763 282.112ZM35.9377 85.0022C36.9704 83.4323 38.0468 81.8558 39.1353 80.3213L49.0349 87.5201C48.03 88.9375 47.0377 90.392 46.0827 91.8442L35.9377 85.0022ZM43.1416 270.262L52.7218 262.673C53.7904 264.056 54.8941 265.431 55.9998 266.762L46.6909 274.684C45.4941 273.245 44.2996 271.755 43.1416 270.262ZM28.0185 98.4517C28.8915 96.7855 29.8096 95.108 30.7498 93.4661L41.2948 99.6523C40.43 101.166 39.5841 102.712 38.7796 104.247L28.0194 98.4526L28.0185 98.4517ZM34.2038 257.453L44.481 250.868C45.3971 252.329 46.362 253.805 47.3459 255.255L37.3078 262.215C36.2412 260.641 35.1982 259.04 34.2038 257.453ZM21.4483 112.635C22.1549 110.887 22.9065 109.124 23.6782 107.397L34.7751 112.499C34.0624 114.092 33.3713 115.716 32.7197 117.327L21.4483 112.635ZM26.5607 243.822L37.4324 238.294C38.2093 239.85 39.0234 241.417 39.8548 242.947L29.185 248.865C28.2835 247.207 27.4021 245.509 26.5607 243.821L26.5607 243.822ZM16.3013 127.422C16.8357 125.602 17.4104 123.769 18.0083 121.976L29.5481 125.945C28.9964 127.595 28.4667 129.28 27.9746 130.953L16.3013 127.422ZM20.2921 229.491L31.6547 225.086C32.2774 226.723 32.9359 228.363 33.6064 229.956L22.4077 234.773C21.6789 233.044 20.9657 231.266 20.2912 229.492L20.2921 229.491ZM12.6329 142.663C12.9811 140.82 13.3721 138.94 13.7948 137.074L25.6657 139.848C25.278 141.571 24.9171 143.304 24.5962 145.002L12.6339 142.664L12.6329 142.663ZM15.4592 214.609L27.1996 211.364C27.6613 213.063 28.1566 214.76 28.6638 216.408L17.0442 220.068C16.4928 218.284 15.9587 216.447 15.4582 214.609L15.4592 214.609ZM10.4883 158.173C10.6536 156.297 10.8556 154.392 11.0918 152.51L23.174 154.077C22.9576 155.812 22.7688 157.57 22.6168 159.3L10.4874 158.173L10.4883 158.173ZM12.1118 199.317L24.1176 197.275C24.4056 198.998 24.7298 200.732 25.0771 202.43L13.1554 204.912C12.7774 203.069 12.4248 201.185 12.1118 199.317ZM9.86765 173.817C9.85077 171.92 9.86731 170.003 9.91703 168.122L22.0896 168.479C22.0446 170.213 22.0288 171.98 22.044 173.732L9.86669 173.817L9.86765 173.817ZM10.262 183.773L22.4087 182.922C22.5313 184.668 22.6867 186.429 22.8682 188.157L10.7601 189.441C10.5621 187.57 10.3938 185.664 10.2611 183.774L10.262 183.773Z" fill="#2D362E"/>
<path d="M30.9844 181.33C29.6616 160.41 32.9284 140.04 40.6959 120.786L63.2446 130.144C56.8796 145.928 54.2022 162.638 55.288 179.81C56.1843 193.985 59.6242 207.635 65.5108 220.384L43.4532 230.782C36.2724 215.229 32.0748 198.59 30.9835 181.33L30.9844 181.33Z" fill="#2D362E"/>
</g>
</svg>
