<svg width="60" height="60" viewBox="0 0 60 60" fill="none" xmlns="http://www.w3.org/2000/svg">
<rect x="0.5" y="0.5" width="59" height="59" rx="5.20302" fill="#006699" stroke="white" stroke-linecap="round"/>
<path d="M23.0981 42.1582V25.9505H17.7157V42.1582H23.0987H23.0981ZM20.408 23.738C22.2846 23.738 23.4529 22.4934 23.4529 20.9381C23.4178 19.3473 22.2846 18.1375 20.4437 18.1375C18.6016 18.1375 17.3984 19.3473 17.3984 20.9379C17.3984 22.4933 18.5663 23.7378 20.3728 23.7378H20.4076L20.408 23.738ZM26.0774 42.1582H31.4593V33.1081C31.4593 32.6243 31.4945 32.1393 31.6367 31.7938C32.0256 30.8255 32.9112 29.8233 34.3984 29.8233C36.3455 29.8233 37.1249 31.3094 37.1249 33.4885V42.1582H42.5067V32.8652C42.5067 27.8871 39.8518 25.5705 36.3107 25.5705C33.4074 25.5705 32.1324 27.1946 31.4239 28.3008H31.4598V25.9511H26.0776C26.1479 27.4715 26.0772 42.1588 26.0772 42.1588L26.0774 42.1582Z" fill="white"/>
</svg>
