<svg width="60" height="60" viewBox="0 0 60 60" fill="none" xmlns="http://www.w3.org/2000/svg">
<rect x="0.5" y="0.5" width="59" height="59" rx="5.20302" fill="#754A91" stroke="white" stroke-linecap="round"/>
<path d="M22.9977 42.2657C22.9977 41.7627 22.9977 41.2598 22.9977 40.7568C23.0013 40.7363 23.0006 40.7152 22.9956 40.6949C22.9906 40.6747 22.9815 40.6556 22.9688 40.639C22.9561 40.6223 22.9401 40.6084 22.9218 40.5982C22.9034 40.5879 22.8832 40.5815 22.8622 40.5793C21.6041 40.2252 20.443 39.5943 19.4652 38.7337C18.7528 38.0915 18.1596 37.3305 17.7127 36.4852C17.0827 35.2642 16.6635 33.9473 16.4724 32.5891C16.2355 30.8854 16.1533 29.1641 16.2266 27.4459C16.2427 26.6448 16.284 25.8528 16.3759 25.0518C16.5224 23.5295 16.91 22.0396 17.5243 20.6368C18.2829 18.912 19.6592 17.5265 21.3876 16.7475C22.5651 16.2136 23.8038 15.8239 25.0764 15.5868C26.3244 15.3526 27.5879 15.2089 28.857 15.1567C30.001 15.1166 31.1463 15.1333 32.2885 15.2068C33.9234 15.2752 35.5435 15.5435 37.1119 16.0056C38.2748 16.3377 39.3811 16.8401 40.3941 17.4962C41.3812 18.1676 42.1795 19.0769 42.714 20.1384C43.3422 21.3782 43.7693 22.7084 43.9795 24.08C44.1161 24.8943 44.2058 25.7157 44.2483 26.5401C44.308 27.5619 44.3011 28.5883 44.262 29.6056C44.223 30.6228 44.1357 31.6105 44.0094 32.6073C43.8497 34.1034 43.3856 35.5519 42.645 36.8653C41.6812 38.5267 40.1371 39.7814 38.304 40.3927C37.0506 40.8276 35.7563 41.1371 34.4407 41.3167C33.4783 41.4487 32.5136 41.5442 31.5443 41.5829C30.8025 41.6171 30.0606 41.608 29.3187 41.5966C28.8984 41.5966 28.4803 41.5556 28.0623 41.5192C28.0213 41.5115 27.9789 41.5161 27.9404 41.5323C27.902 41.5485 27.8693 41.5756 27.8464 41.6102C27.0012 42.6161 26.1238 43.5947 25.2395 44.5687C25.0784 44.7464 24.8919 44.8998 24.6859 45.0239C24.5507 45.1118 24.3966 45.1669 24.2359 45.1849C24.0752 45.2029 23.9125 45.1831 23.7609 45.1273C23.6094 45.0715 23.4732 44.9812 23.3633 44.8636C23.2535 44.746 23.1731 44.6044 23.1287 44.4504C23.0411 44.1767 22.9977 43.891 23 43.6038C22.9977 43.1532 22.9977 42.7094 22.9977 42.2657ZM24.0198 44.175L24.1278 44.0749L26.0457 41.9653C26.7837 41.1536 27.521 40.3411 28.2575 39.5279C28.2937 39.4783 28.3426 39.4391 28.3991 39.4143C28.4556 39.3895 28.5177 39.38 28.5791 39.3868C28.8295 39.4118 29.0798 39.4209 29.3325 39.4232C30.2053 39.4232 31.0781 39.4232 31.9509 39.3618C32.7433 39.3003 33.5334 39.2048 34.3189 39.0819C35.1647 38.936 36.002 38.7453 36.8271 38.5106C38.6646 38.0214 40.0863 36.9745 40.9798 35.2791C41.5073 34.2367 41.8381 33.1075 41.956 31.9473C42.0956 30.8538 42.1792 29.7539 42.2063 28.652C42.2471 27.2678 42.1517 25.8829 41.9215 24.5169C41.762 23.5273 41.4748 22.5621 41.0671 21.6449C40.548 20.507 39.813 19.5649 38.6807 18.9595C36.9443 18.031 35.0654 17.6168 33.1292 17.4052C32.5802 17.346 32.0313 17.3141 31.48 17.2937C30.3513 17.236 29.2202 17.2421 28.0922 17.3119C27.2809 17.3715 26.474 17.4794 25.6759 17.635C24.5021 17.847 23.3665 18.2305 22.3064 18.7729C21.6918 19.0806 21.1342 19.4892 20.6572 19.9813C19.8843 20.8373 19.3173 21.8559 18.9989 22.9603C18.6212 24.2466 18.4151 25.5763 18.3857 26.9156C18.3118 28.2549 18.3286 29.5976 18.4362 30.9346C18.5031 31.7303 18.6376 32.519 18.8381 33.2923C19.1366 34.4974 19.7155 35.6166 20.5286 36.5603C21.4065 37.5231 22.5411 38.2205 23.8016 38.5721C23.9601 38.6199 24.0313 38.6745 24.0313 38.852C24.0175 39.5074 24.0313 40.1629 24.0313 40.8183L24.0198 44.175Z" fill="white"/>
<path d="M22.4126 23.848C22.3965 23.3496 22.6699 22.9877 23.0006 22.6623C23.4368 22.2483 23.9174 21.8827 24.4339 21.5722C24.6693 21.4283 24.9493 21.3735 25.2224 21.4178C25.4954 21.4621 25.7431 21.6026 25.9199 21.8134C26.5447 22.4642 27.104 23.1738 27.5897 23.9322C27.8303 24.2733 28.0119 24.6517 28.1272 25.0519C28.1733 25.208 28.1763 25.3736 28.1359 25.5312C28.0955 25.6889 28.0132 25.833 27.8975 25.9485C27.6325 26.2062 27.3501 26.4457 27.0523 26.6654C26.9022 26.7839 26.7906 26.9435 26.7314 27.1244C26.6722 27.3053 26.6679 27.4994 26.7192 27.6826C26.9032 28.5431 27.32 29.3376 27.9251 29.9812C28.6603 30.8705 29.6076 31.5642 30.6813 31.9998C30.9451 32.1342 31.2475 32.1751 31.538 32.1158C31.6972 32.0728 31.8386 31.9813 31.9423 31.8541C32.1031 31.6516 32.2776 31.4559 32.4223 31.2397C32.61 30.97 32.8966 30.7836 33.2209 30.7203C33.5453 30.6569 33.8818 30.7216 34.1587 30.9006C34.9373 31.3482 35.6724 31.8662 36.3545 32.4481C36.5153 32.5846 36.683 32.7166 36.8438 32.8555C37.034 32.9992 37.1714 33.2008 37.2349 33.4294C37.2983 33.658 37.2844 33.9008 37.1952 34.1208C37.0533 34.4907 36.8464 34.8328 36.5842 35.1312C36.2584 35.58 35.8433 35.9579 35.3646 36.2418C35.1357 36.375 34.8786 36.4532 34.6138 36.4702C34.3489 36.4871 34.0837 36.4425 33.8395 36.3397C31.9812 35.5984 30.2448 34.5867 28.6876 33.3379C27.1646 32.0956 25.8336 30.6388 24.737 29.014C23.8144 27.6688 23.0803 26.2058 22.555 24.665C22.4991 24.4786 22.4531 24.2895 22.4172 24.0983C22.407 24.0152 22.4055 23.9314 22.4126 23.848Z" fill="white"/>
<path d="M30.3422 21.4268C31.897 21.4552 33.3924 22.0235 34.5677 23.0324C35.743 24.0414 36.5236 25.427 36.7734 26.9478C36.874 27.5007 36.9278 28.0609 36.9342 28.6227C36.9342 28.7547 36.8998 28.8503 36.7574 28.864C36.615 28.8776 36.5782 28.757 36.5782 28.6364C36.5995 27.5 36.3641 26.3733 35.8892 25.3388C35.4892 24.4887 34.8966 23.7415 34.1577 23.1554C33.4187 22.5692 32.5532 22.1599 31.6285 21.9593C31.1396 21.8471 30.6396 21.7891 30.1378 21.7863C30.089 21.7872 30.0402 21.781 29.9931 21.7681C29.953 21.7569 29.9189 21.7307 29.8979 21.6951C29.8769 21.6594 29.8707 21.6171 29.8806 21.577C29.8809 21.5579 29.885 21.5392 29.8927 21.5217C29.9004 21.5043 29.9115 21.4885 29.9254 21.4754C29.9393 21.4623 29.9557 21.452 29.9736 21.4452C29.9916 21.4384 30.0107 21.4353 30.0299 21.4359C30.1332 21.4222 30.2389 21.4268 30.3422 21.4268Z" fill="white"/>
<path d="M34.7761 27.5984C34.7684 26.9661 34.6112 26.3445 34.3173 25.7833C34.0233 25.2221 33.6007 24.7369 33.0833 24.3668C32.4795 23.9465 31.7775 23.6857 31.0437 23.6089C30.9197 23.593 30.7956 23.5862 30.6693 23.5725C30.543 23.5589 30.4672 23.5065 30.4787 23.3791C30.4902 23.2516 30.5706 23.2061 30.7084 23.2152C32.7434 23.3381 34.4752 24.4783 35.0081 26.6016C35.1056 27.011 35.1541 27.4303 35.1528 27.851C35.1528 27.8897 35.1528 27.9283 35.1528 27.9648C35.1528 28.0785 35.0793 28.1536 34.9667 28.1514C34.9418 28.1505 34.9173 28.1447 34.8947 28.1341C34.8721 28.1236 34.8519 28.1086 34.8353 28.0901C34.8188 28.0715 34.8062 28.0499 34.7984 28.0264C34.7906 28.0029 34.7877 27.978 34.7899 27.9534C34.7715 27.8464 34.7761 27.7372 34.7761 27.5984Z" fill="white"/>
<path d="M31.2106 25.0631C32.3269 25.1382 33.1055 25.6798 33.3191 26.8564C33.3451 27.0071 33.3635 27.159 33.3743 27.3116C33.3743 27.4345 33.3467 27.5391 33.2112 27.5391C33.0757 27.5391 33.0297 27.4481 33.0251 27.3116C33.0239 26.8606 32.8836 26.4207 32.6232 26.0508C32.3495 25.7158 31.9566 25.4975 31.5253 25.4409C31.4289 25.423 31.3315 25.4109 31.2336 25.4045C31.0728 25.4045 30.9832 25.3248 31.0039 25.2019C31.0246 25.079 31.1211 25.0563 31.2106 25.0631Z" fill="white"/>
</svg>
