<svg width="527" height="789" viewBox="0 0 527 789" fill="none" xmlns="http://www.w3.org/2000/svg">
<g opacity="0.5">
<path d="M543.41 312.016C506.892 258.749 446.199 226.945 381.053 226.945V214.205C450.498 214.205 515.195 248.104 554.123 304.885L543.412 312.016H543.41Z" fill="#2D362E"/>
<path d="M195.019 513.224C179.966 484.148 172.333 452.742 172.333 419.885C172.333 386.183 180.786 352.753 196.781 323.208L208.192 329.206C193.191 356.915 185.264 388.27 185.264 419.887C185.264 450.716 192.42 480.171 206.534 507.436L195.019 513.228V513.224Z" fill="#2D362E"/>
<path d="M473.054 604.548L467.347 593.119C492.188 581.08 514.657 563.538 532.31 542.399L542.293 550.493C523.476 573.024 499.535 591.719 473.054 604.548Z" fill="#2D362E"/>
<path d="M374.3 251.269L373.926 241.72C375.021 241.681 376.12 241.648 377.215 241.626L377.419 251.179C376.382 251.199 375.339 251.23 374.3 251.269ZM402.387 252.439C401.351 252.313 400.314 252.196 399.273 252.086L400.3 242.586C401.393 242.7 402.481 242.826 403.578 242.956L402.39 252.439H402.387ZM349.467 254.004L347.695 244.613C348.772 244.415 349.858 244.228 350.942 244.048L352.555 253.469C351.525 253.636 350.495 253.817 349.467 254.004ZM426.871 257.252C425.872 256.976 424.869 256.714 423.864 256.459L426.272 247.203C427.347 247.476 428.415 247.758 429.474 248.046L426.871 257.252ZM325.319 260.279L322.157 251.245C323.201 250.891 324.246 250.547 325.299 250.215L328.277 259.306C327.287 259.621 326.3 259.946 325.319 260.279ZM450.419 265.563C449.462 265.145 448.504 264.735 447.543 264.335L451.31 255.532C452.331 255.957 453.345 256.388 454.353 256.829L450.419 265.565V265.563ZM302.357 269.976L297.901 261.49C298.873 260.995 299.85 260.506 300.835 260.026L305.143 268.586C304.211 269.042 303.282 269.504 302.359 269.978L302.357 269.976ZM472.467 277.173C471.586 276.623 470.697 276.085 469.803 275.55L474.835 267.38C475.778 267.945 476.719 268.518 477.648 269.097L472.467 277.173ZM281.088 282.86L275.422 275.106C276.311 274.474 277.212 273.848 278.116 273.234L283.64 281.088C282.784 281.669 281.933 282.261 281.088 282.862V282.86ZM492.551 291.815C491.769 291.148 490.971 290.491 490.174 289.838L496.347 282.475C497.203 283.166 498.048 283.869 498.885 284.582L492.551 291.817V291.815ZM261.924 298.662L255.181 291.797C255.972 291.044 256.767 290.298 257.572 289.558L264.197 296.533C263.43 297.238 262.673 297.949 261.924 298.662ZM510.292 309.182C509.606 308.409 508.909 307.639 508.209 306.875L515.415 300.477C516.15 301.278 516.874 302.088 517.596 302.901L510.292 309.182ZM245.283 317.038L237.599 311.21C238.276 310.347 238.953 309.493 239.641 308.645L247.213 314.614C246.561 315.415 245.92 316.226 245.283 317.038ZM525.268 328.87C524.708 328.007 524.136 327.153 523.561 326.301L531.621 320.995C532.235 321.893 532.836 322.802 533.43 323.714L525.268 328.87ZM231.517 337.6L223.052 332.937C223.592 331.986 224.14 331.041 224.696 330.103L233.068 334.923C232.541 335.81 232.022 336.702 231.517 337.603V337.6ZM537.186 350.485C536.759 349.556 536.324 348.629 535.877 347.709L544.644 343.611C545.114 344.589 545.572 345.575 546.025 346.561L537.186 350.485ZM220.938 359.924L211.873 356.529C212.264 355.509 212.669 354.499 213.077 353.486L222.077 357.042C221.689 358 221.309 358.96 220.938 359.922V359.924ZM545.755 373.592C545.476 372.608 545.183 371.628 544.884 370.653L554.156 367.863C554.478 368.907 554.793 369.953 555.094 371.008L545.755 373.592ZM213.792 383.531L204.326 381.479C204.562 380.422 204.806 379.363 205.061 378.311L214.492 380.526C214.25 381.525 214.016 382.527 213.792 383.531ZM550.82 397.726C550.684 396.702 550.539 395.68 550.382 394.661L559.974 393.252C560.135 394.315 560.287 395.385 560.434 396.462L550.82 397.726ZM210.238 407.9L200.565 407.224C200.643 406.143 200.731 405.062 200.827 403.99L210.483 404.822C210.396 405.846 210.309 406.874 210.24 407.9H210.238ZM561.954 423.136L552.257 422.967C552.275 421.939 552.286 420.915 552.286 419.884L552.281 419.2H561.981L561.983 419.821C561.983 420.97 561.974 422.053 561.954 423.136ZM200.614 433.236C200.534 432.153 200.462 431.074 200.4 429.986L210.081 429.453C210.139 430.481 210.209 431.505 210.285 432.529L200.614 433.236ZM559.574 449.04L550.005 447.49C550.179 446.475 550.335 445.462 550.485 444.445L560.079 445.828C559.92 446.9 559.753 447.968 559.574 449.04ZM204.475 458.97C204.236 457.911 204.006 456.85 203.785 455.786L213.285 453.875C213.493 454.881 213.71 455.883 213.94 456.887L204.475 458.97ZM553.383 474.351L544.144 471.434C544.463 470.457 544.781 469.47 545.078 468.479L554.364 471.225C554.049 472.269 553.718 473.314 553.383 474.351ZM212.121 483.876C211.723 482.863 211.339 481.846 210.964 480.825L220.075 477.562C220.431 478.524 220.799 479.486 221.17 480.442L212.121 483.876ZM543.494 498.496L534.793 494.279C535.254 493.357 535.705 492.423 536.149 491.494L544.926 495.561C544.455 496.543 543.979 497.523 543.496 498.496H543.494ZM223.369 507.389C222.828 506.446 222.299 505.5 221.776 504.544L230.306 500.006C230.8 500.909 231.303 501.801 231.812 502.69L223.369 507.387V507.389ZM530.128 520.947L522.143 515.524C522.732 514.681 523.318 513.82 523.899 512.966L531.974 518.252C531.366 519.151 530.751 520.051 530.128 520.947ZM237.977 529.036C237.304 528.184 236.641 527.321 235.979 526.452L243.752 520.736C244.374 521.561 245.006 522.374 245.645 523.189L237.977 529.036ZM513.603 541.243L506.498 534.741C507.206 533.988 507.91 533.224 508.607 532.458L515.822 538.839C515.093 539.647 514.352 540.444 513.603 541.243ZM255.626 548.386C254.83 547.635 254.046 546.875 253.264 546.107L260.112 539.343C260.847 540.067 261.596 540.787 262.344 541.498L255.626 548.386ZM494.274 558.961L488.212 551.505C489.025 550.862 489.825 550.215 490.621 549.563L496.83 556.898C495.985 557.596 495.136 558.282 494.274 558.961ZM275.925 565.018C275.035 564.386 274.146 563.745 273.266 563.109L279.03 555.424C279.87 556.039 280.719 556.644 281.573 557.248L275.925 565.018ZM472.567 573.715L467.654 565.48C468.548 564.96 469.441 564.434 470.326 563.899L475.392 572.05C474.455 572.618 473.51 573.175 472.567 573.717V573.715ZM298.48 578.567C297.499 578.07 296.523 577.563 295.551 577.05L300.145 568.635C301.063 569.122 301.988 569.602 302.92 570.073L298.482 578.567H298.48ZM448.904 585.214L445.266 576.359C446.231 575.976 447.185 575.582 448.137 575.181L451.951 583.964C450.939 584.389 449.925 584.807 448.904 585.214ZM322.814 588.735C321.768 588.383 320.729 588.028 319.693 587.663L322.97 578.666C323.958 579.014 324.948 579.36 325.94 579.69L322.814 588.735ZM423.752 593.178L421.5 583.884C422.51 583.649 423.511 583.398 424.514 583.138L426.978 592.385C425.908 592.663 424.831 592.923 423.754 593.178H423.752ZM348.39 595.283C347.307 595.087 346.225 594.882 345.148 594.669L347.063 585.298C348.082 585.503 349.105 585.694 350.133 585.881L348.393 595.283H348.39ZM397.722 597.43L396.837 587.914C397.881 587.821 398.917 587.715 399.95 587.605L401.009 597.106C399.914 597.223 398.819 597.333 397.722 597.43ZM374.635 598.066C373.533 598.026 372.434 597.98 371.337 597.923L371.848 588.378C372.892 588.436 373.931 588.48 374.977 588.517L374.635 598.066Z" fill="#2D362E"/>
<path d="M367.919 203.84L367.539 197.481C368.628 197.417 369.725 197.362 370.819 197.309L371.114 203.672C370.044 203.721 368.978 203.776 367.919 203.838V203.84ZM396.646 203.994C395.585 203.923 394.523 203.857 393.46 203.798L393.819 197.437C394.919 197.494 396.011 197.563 397.104 197.64L396.648 203.994H396.646ZM342.562 206.77L341.436 200.495C342.513 200.308 343.596 200.132 344.68 199.958L345.717 206.246C344.662 206.414 343.61 206.59 342.564 206.772L342.562 206.77ZM421.974 207.206C420.929 207.015 419.883 206.828 418.828 206.647L419.932 200.368C421.011 200.555 422.088 200.744 423.167 200.942L421.972 207.204L421.974 207.206ZM317.725 212.587L315.864 206.491C316.91 206.178 317.964 205.876 319.021 205.579L320.793 211.704C319.765 211.995 318.748 212.286 317.727 212.59L317.725 212.587ZM446.744 213.303C445.723 212.988 444.708 212.682 443.683 212.383L445.526 206.275C446.574 206.583 447.62 206.898 448.668 207.219L446.744 213.303ZM293.755 221.225L291.184 215.381C292.185 214.954 293.19 214.531 294.2 214.115L296.682 219.998C295.701 220.399 294.727 220.809 293.755 221.225ZM470.631 222.216C469.664 221.788 468.685 221.366 467.702 220.95L470.249 215.097C471.261 215.522 472.267 215.961 473.272 216.401L470.631 222.218V222.216ZM270.979 232.557L267.73 227.049C268.673 226.507 269.622 225.976 270.579 225.446L273.745 230.998C272.817 231.509 271.897 232.029 270.979 232.555V232.557ZM493.307 233.817C492.393 233.279 491.471 232.747 490.546 232.22L493.77 226.701C494.722 227.238 495.667 227.788 496.612 228.343L493.307 233.817ZM249.677 246.428L245.807 241.327C246.683 240.682 247.563 240.043 248.45 239.407L252.248 244.566C251.386 245.18 250.528 245.801 249.674 246.428H249.677ZM514.444 247.937C513.599 247.298 512.746 246.664 511.892 246.034L515.747 240.924C516.627 241.569 517.5 242.216 518.372 242.875L514.444 247.934V247.937ZM230.144 262.64L225.704 258.01C226.5 257.265 227.3 256.532 228.106 255.801L232.479 260.491C231.695 261.2 230.919 261.916 230.146 262.638L230.144 262.64ZM533.798 264.364C533.029 263.633 532.258 262.909 531.481 262.191L535.916 257.552C536.711 258.291 537.509 259.038 538.293 259.786L533.8 264.364H533.798ZM212.638 280.967L207.682 276.872C208.386 276.044 209.097 275.221 209.812 274.404L214.707 278.565C214.014 279.36 213.322 280.159 212.64 280.967H212.638ZM551.082 282.878C550.408 282.068 549.726 281.26 549.042 280.459L553.989 276.357C554.693 277.182 555.392 278.013 556.083 278.847L551.08 282.878H551.082ZM197.391 301.162L191.991 297.661C192.592 296.758 193.202 295.86 193.816 294.966L199.17 298.537C198.571 299.409 197.979 300.283 197.391 301.162ZM566.084 303.24C565.507 302.353 564.928 301.474 564.339 300.603L569.739 297.093C570.338 297.991 570.93 298.894 571.526 299.799L566.084 303.243V303.24ZM184.626 322.964L178.848 320.108C179.342 319.139 179.841 318.175 180.348 317.215L186.083 320.154C185.594 321.088 185.109 322.023 184.629 322.964H184.626ZM578.591 325.165C578.127 324.221 577.648 323.285 577.17 322.352L582.939 319.476C583.433 320.436 583.92 321.396 584.398 322.367L578.594 325.165H578.591ZM174.53 346.089L168.452 343.918C168.828 342.896 169.21 341.879 169.601 340.866L175.642 343.13C175.265 344.114 174.894 345.098 174.532 346.089H174.53ZM588.413 348.383C588.063 347.39 587.71 346.408 587.341 345.426L593.412 343.226C593.789 344.241 594.16 345.261 594.52 346.285L588.416 348.383H588.413ZM167.243 370.205L160.954 368.747C161.202 367.697 161.459 366.647 161.727 365.598L167.999 367.144C167.737 368.166 167.489 369.183 167.246 370.205H167.243ZM595.423 372.585C595.19 371.556 594.951 370.533 594.703 369.509L600.993 368.038C601.245 369.086 601.489 370.136 601.728 371.191L595.423 372.585ZM162.866 394.994L156.443 394.27C156.568 393.197 156.704 392.123 156.843 391.051L163.253 391.874C163.117 392.909 162.987 393.953 162.864 394.996L162.866 394.994ZM599.507 397.414C599.402 396.368 599.279 395.324 599.156 394.285L605.577 393.543C605.709 394.613 605.826 395.688 605.944 396.767L599.507 397.414ZM154.966 420.123V419.881C154.966 418.877 154.972 417.881 154.988 416.882L161.452 416.974C161.436 417.941 161.432 418.91 161.432 419.881L154.968 420.123H154.966ZM607.119 423.124L600.655 423.029C600.671 421.983 600.678 420.931 600.678 419.881V419.396H607.144V419.881C607.144 420.964 607.135 422.043 607.119 423.122V423.124ZM156.503 445.98C156.376 444.91 156.257 443.84 156.143 442.766L162.574 442.105C162.685 443.153 162.799 444.199 162.924 445.24L156.503 445.98ZM605.236 448.946L598.83 448.131C598.966 447.092 599.096 446.048 599.219 445.005L605.64 445.736C605.515 446.806 605.379 447.88 605.236 448.946ZM161.065 471.49C160.811 470.437 160.57 469.381 160.33 468.328L166.642 466.952C166.868 467.976 167.107 468.997 167.355 470.019L161.065 471.49ZM600.327 474.396L594.057 472.848C594.314 471.829 594.569 470.809 594.815 469.786L601.102 471.25C600.852 472.304 600.59 473.355 600.327 474.394V474.396ZM168.622 496.304C168.247 495.291 167.878 494.269 167.514 493.245L173.62 491.154C173.969 492.147 174.328 493.131 174.69 494.113L168.62 496.301L168.622 496.304ZM592.424 499.122L586.382 496.856C586.76 495.87 587.135 494.881 587.502 493.893L593.575 496.077C593.197 497.098 592.815 498.111 592.424 499.122ZM179.065 520.067C178.571 519.107 178.087 518.138 177.608 517.167L183.422 514.387C183.887 515.325 184.358 516.26 184.834 517.192L179.065 520.067ZM581.641 522.773L575.919 519.805C576.415 518.88 576.895 517.949 577.378 517.013L583.154 519.869C582.658 520.842 582.157 521.811 581.643 522.773H581.641ZM192.239 542.47C191.638 541.569 191.041 540.669 190.451 539.76L195.894 536.325C196.471 537.21 197.049 538.084 197.635 538.958L192.239 542.468V542.47ZM568.157 544.998L562.804 541.426C563.407 540.552 564.001 539.674 564.589 538.793L569.982 542.309C569.377 543.208 568.769 544.104 568.157 544.998ZM207.962 563.215C207.258 562.389 206.563 561.564 205.868 560.729L210.873 556.693C211.548 557.508 212.229 558.316 212.913 559.122L207.964 563.217L207.962 563.215ZM552.13 565.549L547.248 561.368C547.948 560.579 548.636 559.78 549.317 558.983L554.266 563.074C553.565 563.902 552.852 564.728 552.128 565.549H552.13ZM226.015 582.047C225.224 581.307 224.433 580.56 223.651 579.814L228.138 575.23C228.904 575.961 229.677 576.688 230.455 577.41L226.015 582.047ZM533.822 584.125L529.456 579.429C530.238 578.722 531.016 578.011 531.793 577.284L536.231 581.921C535.431 582.661 534.633 583.396 533.822 584.127V584.125ZM246.16 598.69C245.282 598.042 244.406 597.393 243.537 596.739L247.467 591.679C248.311 592.318 249.165 592.954 250.021 593.584L246.157 598.692L246.16 598.69ZM513.459 600.493L509.669 595.332C510.534 594.715 511.392 594.097 512.241 593.469L516.104 598.58C515.226 599.222 514.348 599.861 513.456 600.493H513.459ZM268.128 612.931C267.178 612.393 266.235 611.845 265.294 611.293L268.597 605.819C269.515 606.356 270.438 606.896 271.365 607.424L268.13 612.933L268.128 612.931ZM491.319 614.428L488.157 608.871C489.082 608.358 490.007 607.84 490.921 607.316L494.167 612.827C493.22 613.364 492.273 613.899 491.319 614.426V614.428ZM291.633 624.565C290.621 624.138 289.615 623.699 288.61 623.252L291.266 617.446C292.238 617.878 293.212 618.299 294.193 618.719L291.633 624.567V624.565ZM467.682 625.732L465.204 619.851C466.185 619.443 467.166 619.04 468.133 618.624L470.698 624.474C469.693 624.899 468.692 625.318 467.682 625.732ZM316.344 633.414C315.29 633.105 314.24 632.791 313.194 632.46L315.142 626.39C316.154 626.703 317.171 627.006 318.192 627.31L316.342 633.414H316.344ZM442.856 634.248L441.093 628.121C442.121 627.837 443.142 627.541 444.163 627.242L446.009 633.343C444.961 633.656 443.906 633.955 442.856 634.248ZM341.93 639.35C340.85 639.167 339.773 638.971 338.696 638.77L339.907 632.511C340.951 632.707 341.997 632.894 343.044 633.07L341.93 639.35ZM417.188 639.843L416.165 633.554C417.213 633.389 418.265 633.209 419.315 633.033L420.428 639.308C419.351 639.495 418.267 639.675 417.188 639.843ZM368.042 642.309C366.95 642.247 365.855 642.181 364.762 642.104L365.218 635.75C366.279 635.822 367.34 635.891 368.404 635.952L368.042 642.309ZM391.04 642.458L390.758 636.095C391.826 636.047 392.888 635.992 393.949 635.937L394.329 642.293C393.236 642.357 392.142 642.41 391.042 642.458H391.04Z" fill="#2D362E"/>
<path d="M381.05 243.517C282.365 243.517 202.074 322.633 202.074 419.885C202.074 517.13 282.365 596.245 381.05 596.245C479.738 596.245 560.026 517.13 560.026 419.885C560.026 322.635 479.74 243.517 381.05 243.517ZM381.05 599.431C280.579 599.431 198.846 518.891 198.846 419.885C198.846 320.878 280.582 240.331 381.05 240.331C481.521 240.331 563.259 320.878 563.259 419.885C563.259 518.891 481.521 599.431 381.05 599.431Z" fill="#2D362E"/>
<path d="M217.041 636.421C170.382 602.056 135.426 553.023 118.613 498.362L149.549 489.121C164.376 537.331 195.217 580.58 236.393 610.909L217.041 636.421Z" fill="#2D362E"/>
<path d="M560.902 260.519C515.07 210.332 449.517 181.547 381.053 181.547V149.694C458.673 149.694 532.98 182.326 584.928 239.215L560.902 260.517V260.519Z" fill="#2D362E"/>
<path d="M40.448 251.908L0 231.921C5.07415 221.944 10.6309 212.041 16.5139 202.485L55.2012 225.61C49.9483 234.149 44.9814 242.995 40.448 251.908Z" fill="#2D362E"/>
<path d="M340.169 46.7817L335.369 2.44051C356.834 0.185914 378.894 -0.463581 400.502 0.483174L398.471 45.0313C379.128 44.1683 359.377 44.7627 340.171 46.7795L340.169 46.7817ZM498.645 62.8721C480.211 56.9824 461.148 52.4556 441.987 49.4194L449.17 5.39305C470.619 8.79036 491.964 13.8566 512.605 20.453L498.647 62.87L498.645 62.8721ZM241.362 70.6928L224.757 29.2138C244.944 21.3646 265.917 15.0038 287.088 10.3074L297.028 53.8097C278.119 58.0018 259.393 63.6846 241.362 70.6928ZM590.357 106.364C574.145 95.8325 556.994 86.4596 539.383 78.5157L558.223 37.9725C577.934 46.8654 597.127 57.3524 615.265 69.1362L590.357 106.364ZM152.55 119.684L125.37 84.031C142.735 71.1772 161.23 59.5475 180.341 49.4723L201.687 88.7913C184.608 97.7943 168.074 108.189 152.55 119.684ZM667.162 172.26C654.348 157.896 640.312 144.39 625.445 132.115L654.507 97.933C671.128 111.661 686.824 126.763 701.148 142.82L667.162 172.26ZM79.9882 190.098L44.2368 162.766C57.5266 145.881 72.253 129.858 88.005 115.146L119.134 147.512C105.048 160.668 91.8771 174.994 79.9882 190.098Z" fill="#2D362E"/>
<path d="M254.188 346.274L243.054 339.796C271.759 291.866 324.638 262.089 381.053 262.089V274.829C329.192 274.829 280.58 302.203 254.19 346.274H254.188Z" fill="#2D362E"/>
<path d="M330.776 569.739C303.352 560.813 278.824 544.648 259.845 523L269.627 514.673C287.082 534.575 309.63 549.436 334.831 557.64L330.776 569.737V569.739Z" fill="#2D362E"/>
<path d="M476.805 546.369L469.065 536.162C487.57 522.537 502.763 504.591 512.999 484.255L524.586 489.918C513.448 512.03 496.93 531.551 476.805 546.369Z" fill="#2D362E"/>
<path d="M381.05 214.078C265.889 214.078 172.204 306.402 172.204 419.883C172.204 533.363 265.889 625.685 381.05 625.685C496.207 625.685 589.901 533.361 589.901 419.883C589.901 306.402 496.21 214.078 381.05 214.078ZM381.05 627.279C264.999 627.279 170.586 534.24 170.586 419.883C170.586 305.523 264.999 212.484 381.05 212.484C497.099 212.484 591.515 305.523 591.515 419.883C591.515 534.24 497.099 627.279 381.05 627.279Z" fill="#2D362E"/>
<path d="M381.051 182.703C248.336 182.703 140.365 289.103 140.365 419.883C140.365 550.66 248.336 657.06 381.051 657.06C513.763 657.06 621.736 550.66 621.736 419.883C621.736 289.103 513.763 182.703 381.051 182.703ZM381.051 658.654C247.445 658.654 138.747 551.539 138.747 419.883C138.747 288.222 247.442 181.109 381.051 181.109C514.656 181.109 623.354 288.22 623.354 419.883C623.354 551.539 514.656 658.654 381.051 658.654Z" fill="#2D362E"/>
<path d="M381.051 101.418C202.85 101.418 57.8737 244.279 57.8737 419.882C57.8737 595.481 202.85 738.349 381.051 738.349C559.251 738.349 704.228 595.483 704.228 419.882C704.228 244.277 559.251 101.418 381.051 101.418ZM381.051 739.943C201.961 739.943 56.2583 596.368 56.2583 419.884C56.2583 243.405 201.961 99.8259 381.051 99.8259C560.145 99.8259 705.843 243.405 705.843 419.884C705.843 596.368 560.143 739.943 381.051 739.943Z" fill="#2D362E"/>
<path d="M16.7996 503.719C16.2544 501.394 15.7294 499.065 15.2222 496.729L43.6763 490.76C44.141 492.924 44.6281 495.082 45.1353 497.233L16.7996 503.719ZM26.9613 538.758C25.5135 534.562 24.1305 530.314 22.8591 526.135L50.7167 517.883C51.8897 521.738 53.1655 525.653 54.5016 529.522L26.9613 538.76V538.758ZM40.5907 572.57C38.7496 568.594 36.9532 564.514 35.2462 560.443L62.1318 549.496C63.7048 553.257 65.3649 557.019 67.063 560.692L40.5885 572.573L40.5907 572.57ZM57.5581 604.91C55.3372 601.145 53.1365 597.259 51.0205 593.357L76.6683 579.836C78.6233 583.436 80.6566 587.025 82.7077 590.499L57.5581 604.908V604.91ZM77.6894 635.442C75.0663 631.862 72.4856 628.204 70.0145 624.565L94.1989 608.629C96.4734 611.984 98.8529 615.357 101.27 618.66L77.6894 635.442ZM100.774 663.877C97.814 660.577 94.8825 657.191 92.0561 653.802L114.52 635.594C117.127 638.716 119.833 641.849 122.566 644.889L100.772 663.877H100.774ZM648.816 677.145L627.992 657.127C630.852 654.236 633.71 651.244 636.496 648.225L658.033 667.493C655.021 670.764 651.92 674.01 648.818 677.143L648.816 677.145ZM126.59 689.946C123.334 686.965 120.077 683.876 116.902 680.756L137.444 660.458C140.373 663.34 143.381 666.191 146.381 668.941L126.588 689.946H126.59ZM621.736 701.95L603.01 680.005C606.156 677.407 609.298 674.706 612.352 671.978L631.871 693.227C628.56 696.186 625.15 699.119 621.736 701.948V701.95ZM154.883 713.401C151.337 710.742 147.782 707.979 144.328 705.193L162.743 683.004C165.934 685.576 169.214 688.123 172.494 690.582L154.883 713.401ZM592.33 724.001L575.865 700.365C579.279 698.06 582.68 695.671 585.978 693.271L603.269 716.319C599.703 718.917 596.017 721.502 592.33 724.001ZM185.397 734.005C181.601 731.707 177.785 729.3 174.056 726.848L190.181 702.992C193.62 705.248 197.136 707.466 200.633 709.584L185.399 734.003L185.397 734.005ZM560.842 743.097L546.844 717.972C550.419 716.037 554.038 713.989 557.6 711.893L572.514 736.511C568.651 738.783 564.725 740.996 560.842 743.097ZM217.84 751.549C213.825 749.629 209.783 747.601 205.828 745.532L219.482 720.218C223.128 722.129 226.853 723.994 230.551 725.764L217.84 751.549ZM527.606 759.028L516.187 732.665C519.967 731.071 523.777 729.391 527.503 727.664L539.873 753.612C535.833 755.484 531.704 757.302 527.604 759.028H527.606ZM251.911 765.839C247.704 764.313 243.47 762.69 239.334 761.019L250.385 734.496C254.19 736.038 258.08 737.533 261.95 738.937L251.911 765.839ZM492.925 771.627L484.225 744.277C488.173 743.057 492.132 741.754 495.984 740.415L505.681 767.441C501.5 768.897 497.206 770.308 492.927 771.629L492.925 771.627ZM287.271 776.722C282.981 775.63 278.611 774.432 274.279 773.162L282.561 745.684C286.563 746.851 290.591 747.956 294.544 748.962L287.273 776.72L287.271 776.722ZM457.16 780.771L451.246 752.705C455.315 751.873 459.386 750.961 463.343 750.014L470.251 777.858C465.968 778.888 461.562 779.87 457.16 780.773V780.771ZM323.49 784.065C319.095 783.398 314.637 782.64 310.24 781.806L315.71 753.652C319.765 754.418 323.878 755.123 327.931 755.737L323.49 784.067V784.065ZM420.645 786.363L417.604 757.853C421.704 757.432 425.837 756.928 429.888 756.364L433.979 784.743C429.582 785.357 425.091 785.905 420.645 786.363ZM360.249 787.847C355.778 787.605 351.264 787.281 346.841 786.885L349.475 758.339C353.552 758.703 357.713 759.002 361.842 759.227L360.249 787.85V787.847ZM383.758 788.4L383.544 759.735C387.675 759.707 391.844 759.603 395.942 759.434L397.184 788.072C392.747 788.259 388.231 788.371 383.76 788.402L383.758 788.4Z" fill="#2D362E"/>
<path d="M139.766 309.403L87.0205 285.207C117.146 221.436 168.669 168.477 232.097 136.091L258.865 186.991C206.791 213.584 164.496 257.06 139.766 309.403Z" fill="#2D362E"/>
<path d="M381.05 739.329C331.576 739.329 284.074 728.626 239.863 707.514L265.23 655.92C301.473 673.221 340.439 681.995 381.05 681.995C414.572 681.995 447.233 675.94 478.132 664.003L499.375 717.378C461.68 731.94 421.869 739.331 381.05 739.331V739.329Z" fill="#2D362E"/>
</g>
</svg>
